<mxfile host="app.diagrams.net" modified="2023-04-10T14:43:17.128Z" agent="Mozilla/5.0 (Windows NT 10.0; Win64; x64) AppleWebKit/537.36 (KHTML, like Gecko) Chrome/112.0.0.0 Safari/537.36" etag="Ic9PwtGwjBzbikTuVPan" version="21.1.5" type="device">
  <diagram name="Page-1" id="oIZB5urlGqQJ7aT-Pk-x">
    <mxGraphModel dx="3387" dy="1999" grid="1" gridSize="10" guides="1" tooltips="1" connect="1" arrows="1" fold="1" page="1" pageScale="1" pageWidth="850" pageHeight="1100" math="0" shadow="0">
      <root>
        <mxCell id="0" />
        <mxCell id="1" parent="0" />
        <mxCell id="uozOtIk-62IbuRWrD_Ta-13" value="package" style="shape=folder;fontStyle=1;spacingTop=10;tabWidth=40;tabHeight=14;tabPosition=left;html=1;whiteSpace=wrap;" vertex="1" parent="1">
          <mxGeometry x="-1230" y="-230" width="1330" height="650" as="geometry" />
        </mxCell>
        <mxCell id="uozOtIk-62IbuRWrD_Ta-4" style="edgeStyle=orthogonalEdgeStyle;rounded=0;orthogonalLoop=1;jettySize=auto;html=1;exitX=1;exitY=0.5;exitDx=0;exitDy=0;dashed=1;dashPattern=8 8;endArrow=open;endFill=0;" edge="1" parent="1" source="JfymsIh0gRfcHJ0PRg0S-1" target="JfymsIh0gRfcHJ0PRg0S-4">
          <mxGeometry relative="1" as="geometry">
            <Array as="points">
              <mxPoint x="-248" y="148" />
            </Array>
          </mxGeometry>
        </mxCell>
        <mxCell id="uozOtIk-62IbuRWrD_Ta-5" style="edgeStyle=orthogonalEdgeStyle;rounded=0;orthogonalLoop=1;jettySize=auto;html=1;dashed=1;endArrow=open;endFill=0;dashPattern=8 8;" edge="1" parent="1" source="JfymsIh0gRfcHJ0PRg0S-1" target="JfymsIh0gRfcHJ0PRg0S-3">
          <mxGeometry relative="1" as="geometry" />
        </mxCell>
        <mxCell id="uozOtIk-62IbuRWrD_Ta-7" style="edgeStyle=orthogonalEdgeStyle;rounded=0;orthogonalLoop=1;jettySize=auto;html=1;entryX=0;entryY=0.441;entryDx=0;entryDy=0;entryPerimeter=0;dashed=1;dashPattern=8 8;endArrow=open;endFill=0;" edge="1" parent="1" source="JfymsIh0gRfcHJ0PRg0S-1" target="JfymsIh0gRfcHJ0PRg0S-6">
          <mxGeometry relative="1" as="geometry">
            <Array as="points">
              <mxPoint x="-629" y="160" />
              <mxPoint x="-629" y="273" />
            </Array>
          </mxGeometry>
        </mxCell>
        <mxCell id="uozOtIk-62IbuRWrD_Ta-10" style="edgeStyle=orthogonalEdgeStyle;rounded=0;orthogonalLoop=1;jettySize=auto;html=1;dashed=1;dashPattern=8 8;endArrow=open;endFill=0;" edge="1" parent="1" source="JfymsIh0gRfcHJ0PRg0S-1" target="JfymsIh0gRfcHJ0PRg0S-5">
          <mxGeometry relative="1" as="geometry">
            <mxPoint y="-70" as="targetPoint" />
            <Array as="points">
              <mxPoint x="-804" y="-120" />
              <mxPoint y="-120" />
            </Array>
          </mxGeometry>
        </mxCell>
        <mxCell id="uozOtIk-62IbuRWrD_Ta-12" style="edgeStyle=orthogonalEdgeStyle;rounded=0;orthogonalLoop=1;jettySize=auto;html=1;entryX=0.46;entryY=0.993;entryDx=0;entryDy=0;entryPerimeter=0;dashed=1;dashPattern=8 8;endArrow=open;endFill=0;" edge="1" parent="1" source="JfymsIh0gRfcHJ0PRg0S-1" target="JfymsIh0gRfcHJ0PRg0S-7">
          <mxGeometry relative="1" as="geometry">
            <Array as="points">
              <mxPoint x="-650" y="170" />
              <mxPoint x="-650" y="373" />
              <mxPoint x="-245" y="373" />
            </Array>
          </mxGeometry>
        </mxCell>
        <mxCell id="JfymsIh0gRfcHJ0PRg0S-1" value="" style="shape=image;verticalLabelPosition=bottom;labelBackgroundColor=default;verticalAlign=top;aspect=fixed;imageAspect=0;image=data:image/png,iVBORw0KGgoAAAANSUhEUgAAANMAAAE8CAYAAABaYoQ6AAAgAElEQVR4nO2df3xT1f3/nwEaFH+gIgoFIrWlgloQ5IeAGrYRP5ZOJ1aHCsIsogU3p5nfWpxzIuhK1bDNjcY5g7CpwKw6R60sDInjh8hvghRqajGUAgqoA38QaPP94+bHTXLT3rRJk9ue5+OB9p577jnn3uTkfd7nntd567xerxeBQNBqOiW7AQJBe0F0JoEgTojOJBDECdGZBII4ITqTQBAnRGcSCOKE6EwCQZwQnUkgiBNd4lnYjh07An8PGTJEHIvjlD9OS0ujV69eXHDBBbSWVnUml8vFm2++yaZNm1i6dCmLFy8OnHv22WfFsThO+ePzzz+fPXv28Ne//pU5c+YwduxYbrrpJlqCrqXLiU6cOMH8+fMZcfWVDB2czdlngOe7Y+gA2X8U/h96XocuLL/0p05+LCsjPCsR1+vCilJoR0iW4PWBvDoir4lWtkLdIWXL/q8Lu76lbQ8pQReWJ/IBhZaj8Kwj2x9WierPSuG8Qvt1UepXKl8nv14nL1f5WUY+M/9R9M/K64VGr5ddu3bx+utLOeecc3j88ceJlZg706FDh3j66acZNmwYP7nxar45UoXX20D0B6Jwk00+QKUHrtSZ4lW+UmeKf9nxzB/4m+Y6U2q2X3V+nS5wxn8cvPvEteXIkaO8/fbbXHDBBeTn56OWmCYgPB4Ps2fPZvwPryX32t6c+NyJt7EhliIEgpTnwgt78JObbw64MGqJyTIdO3aMA3X76dF1P6e//9pfRIJ/vUBYJmGZ/MfBu098W/bs3ctvf/tbli1bhhpUW6bdu3dz//330+v805z6/iu1lwkEKUNDg5eTngbU2o/LLstmwYIF5OTkkJub22x+1Z3pzTffZPrP7uS7L6vVXiIQpAyNjfDlV/9j3759nPQ00KiiQ+l0Onr27Mmll17K6tWrOf/885vMr7ozpaWlkTPIIHwkgeY43eDl+Dffsnz5ckpLS1mzZg0NDY2qLFSXLl0YPXo0PXv25KuvviIjIyNqXlWd6cSJE0ycOJGuXU6pvwOBIAU43eClsRFeeeUVtmzZQt++fXnxxRd5772VnDrVSGNj0x1Kp9MxZcoUTp2Svvv79u1j5syZinlVdaaqqipefvllPN8eVXkLu3l68B0YBt+BYfAkDDmTmLcJ2PQ3+uXczryPVBbjp97O5EE/YXL557LEncwdeBPpA39M+mU/pvdlefQu3enLv5I7s3PpnZ1Lr+wb6TXgRuZslK6ZM+AGemXdwMVZJt+/8VycOZvXDsTYJkHK09gI3377PVarlfXr1zNp0iR+/vOfk5uby9KlS1mzZg3ffX+yWQt16ICL3r17B46tVqtiPlWd6dixY5x//vk0Nniaz7z5VQyD5/Liz57AvXMp7p3LWD/nJrL6wIH9bmAIWX3V1BqkbsN61jCMH4++SEr4aBHpA39NWcHT1O9ZQf3eFRxcks+4S3v5LqhjDTDz75Ucqp7PTKBsykusZzC//eTfHHI9yyyAe5/jsGsVh2t+x119YmuTILVpaIQvvzrOq6++ys6dO5k+fTpffPEFTz31FEOGDOGGG26gvLyctWvXctJzukkf6psT/0Ov14ekKVknVZ0pMzOTMWPGqMi5m6enr4Ax97HefHkgte+tU7gjHdy1O2DsaC75cB79rryNflcuYX0g1y7mXXErfa+YSN/LJ9Ln8luY+xHUlc9h1ONbga088qObmfuRk7lT34Jrf8FHRYODVY8q4PXbpM62/v1y4Gpfp+3FgGvDmnmgnirgB/7OJ2h3NDTC0aNHOXjwIPfeey8HDx5kzZo1dO3alT/+8Y9cdNFFjB07NvAeqeF0bHMBa9asiUiL76rxzdt5ETDekEOk8dnNf14B1ln5M4UsvwdgP5/VA3zMvCuewDp2Fh9+/BbLCwCGktUX+ubP4rlrgWt/zsaqd/gNmykDxt14lUIdAJ+zby9Af/qnA/XbeGctcG0/DP4s++t4HxhkuDiONy9IJdI6e7nkkkuYPXs2H3/8MW+++Sa33HJLwDItXryYzMxMHn74YSl/WvRlqtnZ2Xz55ZchaYcOHYrIp6oz1dTUsH79+mbz1e13AzCw34WRJ+sPsQcwzinj77f6z/fjknSoK38LK0N59snx9OULPvN1hkvSgfrtrFgLZPdW6Dw7mSvzmZ7aCHAI11qAcvKzc+k17vesufYhNi+6MXD9+jX/AEYwoJ+auxdoEx0nT56kvLycNWvWcM8992AyjadLl8788pe/ZPTo0fztb39j165dAE36TfX19Zx11lkhaV99FfmuNa6WqW8/6bd/z/4jkScPHMCBv6Md4bNqYGwfDIC7dhtwidR5+JyadUDB1YwBqKtnDTDuUiUrMpjf7FnBG9MBhknDugMHqQLGPf0KB6srOVT9HodkHQk+Z181QH/6Cz+p3XKqQbIeu3btYvLkyUyYMIG0Lp3Qp3WmS+dOTJ48mSuvvJKVK1cCcLqJYd6JEycifCYl4uszDb+K+wHHkyvZ4E/btJql9bDhg38BN/GjEQCHca0DsnvJvuSf8Vk91JWXYwXGZYR2noH9ekp/jMzj+WthzeMVPn/rc58ly6B/H6jbsJY1wKBLog3hDvLJB8D1smGfoN2R1hnS09N58MEHMRqNpHXRBVYjde6s44Lzz+Ouu+6ioKAAgC5dOre6zriKA+Fyfr3jNzBkLpMGr/Cl3cQy5xd89gkBS8RHWyXfKkOaMBhz10yMi8r4f6ZbMY4dGlpk33TGAdZpP4HF7/DEyIu4869/hXvv5baBbwbzTR/OGGD9p1sITj4o4Jt8IDs9is8laA/odNDtzDS6dr2QLl0iRSWdOuno3v0czj77bLrqu0BEjiBKPpNinWoWuq5cuZJt27Yx5aZsGk5928aLIUEsdA0/L8sjFromvC1bNq5m+v3mEKUuRPpZYg8IgaAZ1PpMqoZ5mZmZnHnmmYDCxIJAIACEZRIImkWtzxTX90wCQXtE6T2TEsIyCQTNIHwmgaCNEZZJIGgG4TMJBHEiuT7TplcxFK6mLtCa1Ux5fndCqoqNz3ntHpk4sGQHHHiXO0p2NH+poMOSnLV5ABxh6ctwf/ZG1tarvCTALubdtyrYCVvETp4qWKlQxk7mDLibTwr/zSHXvznssnO4eEirahII5MTfMh10UpE9lF9f14+ipXJrdIilhT+lX87t9Lv/PxwAqP8Pk6/Mp+8V+fR9bhWv3/cE1nV/5prLn+L1j+xMfm4xcy+/hcnlXwC7mDvoZtIH3Uz6wEUBUWHdG0/IJBif89r0YsrW/oER2Y/zmqwz1y1fStm9z/LbUdEavoMnM3/IRZk/5KJLrawDOFDBpIxx9Mww0vOZbXBgBT/tfz09+18nHQs6BGp9JlWzeTU1NWzbto1Lb8puNm/dhxsZeF0xjNBx//StbDBfwWiAVzbAyuXsT9exwXI7iz4azz11HzLIVs6ro0BaCNWLmvsO87OXxtOvfhUrbPCj3W/zG50O6Mlvqt7hCaCu/EkWfQRjWMTIT2+nfu9TwTVWo0pwTT9Ige3GiIWs4zKaUtYO4cma1TwJ7F/+KC9/CIbPHAx6fQ3Lr5HK3r/sNS5f+kHgWNAxSJLPtJvFT+7gxel3Yhj8FC+ygtX+3WV/NpE70qU/R193M3vqvqDPrfeR+XI+fa9YjOL0hl/TBMAXvD5DskwjH99Klftz6tz7mDkuJ05tP8yr90iW6erZm6j67DD9Jv2KAWXj6JlhZS3Qb9IjZJVdT8/+C1kbp1oFqU9yfKbN29nz5Au4d74ubaby3n3s+e/H0rlPDuHfAGjDf99hYN+eQE/ufLGcuo+Hs7oZX6mufCGuGe9QX/UOH80bBkBfQ3/K1jjV3AJ9x14Pv77bt0uRQvnLF/DJ/av5vGY1W343wpd6MZMXr+GL2lGsmlbBfnoxZfEHfLFvNKumrWC/qpoFHYW4WqYPP3CTd41Msp6eQ171P1l6AGADj+ZIPtNPeZLHR8KBN5+m75X59L3iCar+bzB9uZIfZvt8prCe1bffJVinSZap6D1f4sh7eIPZYbL1wYy/LNJnos+NLF3zMFVTwmbz/OUbMlg4WbJMj1RKafuXFXFRxjh6ZjzE7gnDYdkj9Ox/PT37P8juCcMRqveOgdAztaA9Qs+UYvmFnkkgaF+ItXkCQRsjLJNA0AxibZ5AECeEnkkgiBPCZxII2hhhmQSCZhA+k0AQJ4TPJBDECeEzCQRtjLBMAkEzCJ9JIIgTwmcSCOKE8JkEgjZGWCaBoBmEzyQQxAnhMwkEcUL4TAJBGyMsk0DQDAnZN6//T38MZzQCELlxhE7xTz9epcQYrvefaK6U0H0SmqknWulN1B+BV/355lvf8raHZtFFJqktR+H6IOGfujeytCavj73+pj6tppPUtSH6JcGDuoNfqvKZYoq2fobuKA2nv4/lEoGgVTS7208blO85dXb8fSbPt0doOPWNmksEgnZD587dVeUTPpNA0AziPZNAECfEeyaBIE6I90wCQRsjLJNA0Awa9ZmOsuyBqfQfGvz3zGaAKp4J/B2NKp4ZupQPo5b7HMtijmQoEKj3mWJ6z9Q2DGZ+xSNMSpenDeKxbUuS1SBBBydlfKbTpxuodX/OgEt7x3ytQKAlEuozNTQ0Muf5f3DfI9ZWlhQ2hKt3MC0wFIwytNu8NDhcXLBLdiJ0KNn00FEgSGJMWz8NDY08+dxy1m6sUn2NxE4ezZvKo4DikK/ewbSn4ZltS+gDUqdZUMW+h8PyzKhjfsUS6drNS+m/BOYDbLbzaNZs9v15UIztEnRUkuoztbwjgbLPJKP+II717zJ26MvBtDG9OcBFoXmm5rHYX8ZwE/PHLJL+Tu+NccnvmNZ/AYsn9mhB+wQdjaT5TK3rSCqZOpt9D4dblmB9B/bXAUOUr003snibkQNvPUf/oTu576UlPDY8YS0VdCDi7jN9+tnhiI7U66Lz4ldBem+MSyqanObuM2oExiU7gr7UZjuPhs3s95n4CPtemsBf/pvATi9oFyTNZxpwaW/ef3OOmmJbRrqRxS8dpH/ArwLjEwtYPDE0zzNPPMfYoVOl46nTmT/GF3F681L6z3jXl3ECS7cJ30nQNGp9phYEiBYSDEHH4uD3A3jwwQfZtGlTSHp41xFr8wSCOCHW5gkEzaDRtXkCQeoh9EwCQZxImbV5AkFHQVgmgaAZhM8kEMSJhKzNuzj7phY3SCDQKlu2bEmEzyQQCKKR0j7TO++tZkTxv/n94n8luymCDoymfaZNW7Zy/a/f494VnRmX/h3PbDqX5195p83qFwjkaPI9U11dHTOee4cfvnSCjO6neG96d+6fcCWv39aZZz/qznxbMjuUg2K9nmIHgBtbXh42t/+cG1ueHr10UtDOSNB7psRw/Phxnv37av6w/TyuT0/j3bv19L748sD5S/r25m+3HeDuN7rTpdM7/OpnNyesLdExUuLxKJ5xFGdRnu/CU2Bo4zYJUomk70709/JKzO93I+Psrvz91gYGZSrLPL49eYr+3Rt4bXdXftXGbWwKty0PE3bRkdoxmvGZLBu7MOS8b1hSkMmgzEsiztcdPMyc8ioWbPAw94YzuarnyTjU6huW6X3/AsMzB8X6YhyO4ujn5MWsKiarPB9XiTGseBt5/uv1xTh89clHgW5bnhgWagTN+ExDenzHwAsbeOHd3TQ0NgbSv/zqa/66chcz3/oOU2ZnVhRdx4+MY3l+xvVxqNVAQYUHj8eDx+PC6iyV+T8WTJW5vnN2zBYTyt95O4WFFsxFBYTYJLeNvJlQ5vGVbwdTcS0FRWYslf6C3KwqB+sso0K5glRDrc+kqjNlZmYyZsyYVjdKsQGd4PE7R0Ij/GFFFd9+9y2VG3Yz9bUv6XV2J+zmy7g9bxzbt29nwoQJ3HXXXaxbt671FQesTxaFdjvVtf4TZuwBS2NkltWEs8atUIAJq92K0ySfiABqq7HbC8nyWyaTBZw1uI25mC2VkmVzr6KcfMaLkWG7IumWCSAtLY3fTL6Gkw2d+MGfv+bg8UbeLjQw9aaxdOvWjTPOOINnnnmGkpIS5s2bx+9+97vWVegoRl+ajctnPezmFpaTUUCFPYfCrLDhn9nus2y+fxUFGDAyy+qk0gHuVeXkhFs0QcqiGZ/pvK5ePq6qJi0tjWmje/DoyGM8csd19LxQ2oara9eu6HQ6Pv30U6666iqGDRuGy+VqVZ3uGifkZPq+zA4qLfKzFkoDpsbBwkLIb8qEGEtwWZ2Y8my4ATKyMVlKQ62VD8P4fJyVNlaV55ArRniaQTM+04O3DOWfWw7xcVU1nTt34ix9MDDv7j3VnHXWWdx8szQVPnDgQAYOHAgQSGsJhoIizBaTb5hXCSGWyUw+M33nTGCvoLmJOkNBGVYKycqz4Tb4rVVwgiPP37MM48l3FlKePwvRl7SDZt4zXWIw8Itb4IW3tzLo4jQA6g4c4L1NtZxqgGvHQHV1NQ5H6CyA0diar6P0zqgkcFwScjazoAJPgdI1/joNFFRUyM5JExqBS4wleDyhZQYxNW3pBJol6ZYJ/B1qGLsOnqLqSCOvOT5lzKCLeeze1q5Sl1Yt6EP+hfk3bYljIYVi4kFzJGTfvNGjR7e6YdG4xGDAnK+jZt9+Ro+8mq5du8ah1HALlCzc2PKyKLSbsXvExIPW0GR8pn79+tGvX7+I9Ozs7IhhXXa2+iAC6pEP5eJJ2DBQoCk04zOp4Z13xIpxQeqTEj6TQJDKaOY9k0CQ6mjmPVNTCKWtIBXQtM+0actWfvXm5+z5+kymZR/nmU3n0eBNlo5JIFBHSs3m1dXVMWfpVpa6zuPWS0/x+9t6ce45fblx8EEmL+/O6cZ3eLRAdChB26Ipn+n48eM8UfZPrphbw6FvJKXtb269nHPPOQfwK211LNjcPYX2ggiXrrcEuRRekKpo5j2T1pW2rSO6FD4cR7GeylwP4TpEQeLRjM/kV9r+aeoAOneKNJR1Bw/z8vpj7P+mM3NvOJulm5s3twJBMkj6bF5ylLYoSMtBSbYeMgQLkbOvkp9oQu4eXpe8TLkUPnrdjmI9JgtYTHr0fqmHoM3QjM+UFKWtorTc/w2XydbtZiylvi+v20aeyYnV5bsmt5pCu7zQKHJ3t428rHLy/dd57BCuzlUqQ1a3sUQSMJrtfqGhoC3R1HumNlfaRpOWAyGydWMuZns1tf5rzEVBbZNxFlaTvNAocvfw6zAyywrlq5R6U5S6BUlFMz6TX2l7xaBspo3uwWU9vuDeW64LnA9X2gKtVtoCkrQ8wpuPPq3mrnECua2vV9BuSbplSobStilpeTQM4/Mx+TdEAUmbFDbMU5S7R9SlQgovSCk04zP5hYH/3HKIPW4pMmHdgQP89e21OD7+HAgqbeX/qqurW15pU9LyJq4pszox+YeGldkRwzxFuXtEXeqk8OEYc81iAiJJqPWZdF6v19tcppUrV7Jt2zZ+9avEveH5zO3m929u5RQ6zu4CP766F2OvGYlOp2PgwIGKsvU9e/YkrD2x4aBYX0mup0Ts7dAO2bJlCw8++CCbNm0KSQ/vOkn3mfwkRmnroFhvImTzIczYxZdekACSvgJCTvyVtqkiWxdoGc3tAdEUqa+0TZTcXZAKaOo9k0CQymjmPZNA0F4QlkkgaAbNvGdqCiFbF6QCmtEzKSFk64JUQjPxmeS0XYBohSiA8URRchEutxAK2/ZGSvhMqSZbdxSHftHDj5vCbctDn1VNkSw+U25N+BIg3/uvVsymx9ImQevQjM/09/JKMmdvZeVnkmx9weRsel/cMyKfJFs/yWu747EyIlE4WFiYE7HCwlggNEhaRjPvmZITINqHClWrLULl2oSq1lGJxZyrYqlS2DAzRtWvUN62LZp5zzSkx3ec3VXHC+/u5hcTLg/sA/HlV19TvnE//6w5m9ljOnPrjdfRrVs3Rgz9X5xqtmCqtEtxlBzF6EttzDIWSKpW5JuXFJAZcuwIvda3/q8418OsGiem7FmxNUOm+jWA1JZiB1J4J7VtFKQCSbdMSQsQ3SpVq7Kq1pCZg706Rm1sS1S/gjZFMz4TJEG2nigyskMFhGpRDCgtSBU04zMlI0B064miqjUUUGS2BINFA+DGVtyEX9MC1a+gbdHMe6akyNabIVzVGqlyjR5E2ljiwZVfHhy26WfCrCYsTUtUv4ptEiQbVUpbl8tFfX19wiQYn7ndgQDR359q5Loh/QMBon894+YUU9oKVW1H4/jx44waNSpiRBTedVLCZ+owAaIFmkRza/Pad4BogZbRzHsmOckPEK0GoaoVKJMylqkpUl+2LmjPaOo9k0CQymjmPZNAkOpo0mcK5533VjN3zWkmDzrJQ9NaO7MnECSWlPSZhNJWkEpo0mdqO6WtQKAeTb1nOn78OM/+fTV/2H4e16dLStveF18eOC8pbQ9w9xvd6dJJWChB26IZn6ljB4gWtCeSbplEgGhBqqMZnyk5AaLDJeHFOHBjy/Ot35OvxFaUlMvyBuTkzafpQ3dpkaXbsOXJ4tyqrlPQFmjmPVPylLbBYMwuqxOTfiaUefB4XFgpZKE/uLNSIGnHQgpzgoK+EiPKaRgoqPCL/lxYnT7dUlPBpmOpU9AmaEbPBMlS2gYl4YbMHAgEcTaQmePLEk1SnpGNyWIK1R0ppYHMAmVRaLdTXUvTwaZjqVOQUiTdMqW80lZJUm4ooMLjocwnECx2IIn8wtMcxehLs3H5rrWbpSKlYNNxqFPQJmjGZ0pFpW2AZiTlhoIKPHYzlkqHYpq7xgk5mT6VrYNKXwjDJoNNt6BOQWLRzHsmSRhIQGkLUoBov9L22jHBANFywiUZCcFQQIW9Gn2WnkJfksnqoiJzoTT8AqSwnkbJCoWlGQCz3oTeIqWZzcFyy6x5ZPnH4WYrVpMz9joFbYJanyklZOug9QDRrUVI4VMZtQGik+4z+ZGUtldz29U9mTPjRq4dPQqdTtf8hU2iDdm621aKxZRNRrIbIlBEkzFtO06A6PAo8GbsHrFXXqqiGZ9JDe1PaZuqnVyghGbW5gkE7YWU8ZkEglQlIyMj/j7TpT2O0HDqm1Y3TiDQEse7DNXG2jyBINVJkM90pLXtEgjaLcIyCQTNoJm1eQJBqqMZPZNAkOoIn0kgaGNSzDIdZdkDU+m/oErx7IcLptL/AQcHYiqzimeGLuXDuLTtOZbVt7oggcZIGZ/p9OkGPvn0YGwXLamI/NLWOyhzDVa1qvrDBVN5ZnNsVQoE0UgJn6mhoZE5z/+D+x6xxnDVYO6bCu9uPBqSemDjJi4bPyK+DRQIVJD0PSAaGhp58rnlrN2oPGRrsr5JeVy2apdsOFfF4qf68sN+B0PlE/UOpg2dSv+hU+nvG8p9uGAqdyyBv8wIGxJuXurLF2a1QsoIOye7pv+CXbITvuGo0jWCDktCVo23piNJDOKHWb9j8WYjjw0HNu9g7xMmHsMezFLvYNrT8My2JfQB6Yu/oIp9Dy9hKVNZfd0S6VqqgHe547+z2bftDinfIgfThhvpU+9gWt4mJlQsYXG6lPeZoc+xrOIRJuFg2ow65lcsYVK6r/wlMB9gs51Hs2az78+DWv6QBJohaT5T6zuSxDWTprP3v1XAUZYtqmPCqB6hGeoP4lj/MmP9lmPGu+D6PMrkxASWPuz74g8fwn3rD7LfX8bUPKmzADCIaU/4hpjh54abmO83zum9MS75HdPeCh2KCtonSdMzffrZ4YiO1Oui82IvKP1KJrgWsWzzCN7NypMsR/ikxNTZ7Hs40jrsj722CA7srwOGRGmbkcXbjBx46zn6D93JfS/5raCgPZK090wDLu3N+2/OUVNsM/Tg2vEwdsbL3PfSksjT6b0xLqlg2aRBMssSIxFlVLH4KZhQ0YM+jMD41A4+fHgQ14A0tFvvG+b56DPxEfb1W0r//1bx2HAx5OvopLTSts/EPO5bNYJpSr/66UYWv3SQ/nlTedSXZHxiAYsn9uCa6yZwx4yp/GXMdNb9+aLoFSiUcd9LPh8JI8888Rxjh06VTkydzvwxddLfm5dKw0oAJrB0m+hI7Rm1PpOq3YlWrlzJtm3bmHJTttAzCTocx7sMZcqUKezYsSMkPWV3JxIIUhWxNk8gaGOEZRIImiFl1uYJBFonJdbmCQTtAeEzCQRtTEzvmbqd1x9vY0Oi2iIQpCTZZ2UmYq9xEedc0PHYu3ev8JkEgnigyb3GK1esYu1fTtDo7cQ109L4yW25Ca9TIIgXKbE2b9euj/nXwt18XavnsgmNnHVeFz5cfIrtb73FhF/2Y8RIsSRbkDw0857pxZI3eOXhfXRP1zH1uQFclzuEYaMHcff8AVw4sIFljx3GWvJG6yty28iTBT2TAiw7KI5X8LOw8vX6PF9cWje2PDXp4ecFqYJm3jMd2NWZbt1P0zu7G2mycWlaWhp9BnbjzPNOUb+9c6vqcNvy0GdVUySLYJ5bY6Ol31lHcVi0c0dxRPkeew7Vtf4MJqwuX7orn/KsYhwYKKjw5zXLIqxXUCCinqUUmvGZLujXwNiJ/Vjz2j72vL+TUfk96NKlCxvePsjp7yH3oT58VBHb5l6hOFhYmIM9LF6ssaAA4mKTHBSbnFhdFaE7JxlLlIOZGcaTbyqnxg1G0WnaFUm3TACZWZdyz+PjuPKGbvyn7CtWvXCEQdedzf3zxjHw8stIO7sVhTsqsZhzm94izFEcNvyDiGGY74SjWI/JAhaTHn2eDbejEou5SFiTdoxmfKZAQzp1YqxxJKMmd2X4XV259gcj6dRJat6gkT1Zu3Ytq1evjrlcd40TU3ZToZctmCpzA8MtS6l/+CcbhnlcWJ2l2NxgLPEgjco8eCoKIKx8ty0v0AHzlJwfx0IKyWe86HyaQTM+Uzidu3Sic1ondDodXbp0Qa/XM2zEEJ5++mnmzZvH//73v5jKM2TmYA86LwqYsZf47JYxF7O9mtkV52QAABVISURBVEDugMXKotBuR6mY8PINBRV4PB5cVpMsl53CLJ+FM4G9QgSD1hJJ3zdPLfpzdXzwnw85efJkSHq3bt04cuQIGzZs4C9/+QuDBw/mRz/6Eb///e957733qK6uVldBRjYmS2Xs3pGjGH1pNi7fhILd3JryZRMQYb6boP2QdMs05QHpF/xt2zp2bNsFXsALer2eefPm8cILL3Duuedy9913c/vtt9OrVy8WLVpEUVGRugoMBRSZLZjy5LN3bmzFTc/muWuckJPpsyAOKi3Ryy+zOsPKF7QnNOMznXvuudxy+wTy7h7JgZpj1Gz6mppNX7N1yzYee+wxTp06RXp6Oj179qR79+6BYL1z585VXYexxIMrv5yswLucmTCr6aGWoaAIs8Xky18JMstkzDUHJyCQhnah5evJKs+nTMxKtAvU+kwxbajyq18lfqHr9m3SphVXDZX2rFuxYgWbNm2isLAQr9fLq6++isFgYNKkSQlvi0AAsGXLFh588EE2bdoUkh7edZL+nikcfyfyc/jwYQ4ePMiMGTM4ffo0AwYMUOUMCgRtTUqszWsKvV7PmWeeybx589Dr9SxevJiuXbsmu1mCDkRC9s1ri2GeQJBq7N27V+ybJxDEA82szRMI2gvCMgkEzaCZ90wCQaqTtPhMrUHI1gWpiKZ8JiFbF7QHku4ztZlsHQfFYRLxYgeS3DyWdXVuG3nF4ctao5StdE6qVFGyrijZiFqGoK3QjM/UFrJ1aX8GE9hlsnKPhxIjUFsN+ePVSyJqq0Guj3IUo9eXku1SKBt84kR7mC7Kr5VyYTUFV5RXRFvLp1hGyx+HIDY0o2e6oF8DNxX1wbX+W96w7MS9r476ukO8+eftfPyfb8l96GIuyGjNLrJubDPLyXfJvuDyszVOcjJrA7/80SxKns0tdRyTBXthlm+RqxtbqSRZj9YPQsWJBjJz5LqoWqpVCAWjliHfxMVnXR3F/jYX48CNLS8Pm61YluYvNPJaAEdxHja3I+J5hJYb/fr2iGb0TJBg2bp7FeVRv7BuVpWDs7SSXJ/S1lnjRupIQUvmsprIyTSAsQS72WdJKgowNFm2hGT4fBncNkotZnL9ndpdgzMg82iqDLtUf0gZDopnQpnfWlHOKoeNUuwy3VQt1XY7hdW5vvtwUmrz3V+W9APj8Xiw5xSyUOoh1DjtFGYFn4el0iHVGVKuQt3tuTepJOmWyU+iZOvUVmOP+oWtpdoO+WWSYM9d45SSHZU4ra6AJQuO7NzUOHPwf6/Dy4749Q58OX3pWeXku4LiQPeq8tAhoyJuapy+PSf0evQzocxTQoatFIu90Cf7yKK6qIICYyY5FtkQ0F2D02TF5bsRQ2aOlGwrxWktC1jTjGyT70eklmq7OWTzGVN2BhhCy3Ur1d2O1Saa8ZnCibdsnYxsTM4a5WGIuwanbDMUvwWQhn6BLkKlxd+Baqkmm8DXP6xsY4kHj8uKyb+Bi3sV5VgDat3wbbxCLE405GXYzTLBom8fihAfzUiJpwxm+oZn4Z290hKoT15voB3uGpyyzWeC+cPKVay7/aIZnynhsnXDePIpZKaSxx4ymeCmxhkcgkm/1OAoNmEx+TqQoxKL3MoplS0vs0mrGFpfVORlGHMxyyTylkqlWT0DBUXS8Mxd48Tsr8BRjMlpZVbY/YWkRzwPk8xwBsuNXnf7RDM+U8Jl6xgoqHCRX54lm4aWhmHyX2q51TGMz4dCKX9lthWT/8uckY3JYpI53Aplm6DIZ36a3hkpzMpFIbSMDLJNTmrcYCgow+r0K4HzsLll0+0mJ9ZZGawqtweHh7KNXAwFReT47k+eHvk88hlvCC/XqFC3yo+inaNKguFyuaivr2f06NEJa4jb7eaD97ZyzH0KgLG3ZNL9vHP5xS9+wcyZMxk1ahQAO3fu5Nlnn+X5558nJycnYe3RPg6K9ZXkig1cWs3x48cZNWoULpcrJL1FEoy28JkMBgNT7ruF6/OzuT4/m6uHDyMrK4sHHniALVu20NjYSENDA9u3b2f69OntrCMpvMRt7YvZMP9H0HI0uTYPOqpsXXqJWxDXIguoUNyfWRArmlqb1xRCti7QCinjMwkEqYrmfCaBIFXRzHsmgSDVaTc+k0CgFVJqNk8obQWpiNq1eao6U01NDdu2bUvYBIRQ2gpSGc34TG2jtI23UtWNLU+m6wnX8ziKW1mHg+J4a4QUFcICNWhmbV6bKG3jrlSVratTUOqGLDBtaXtV6JxiIlwhLIg7SbdMiVfaxqZUVVTYRqSbAl/20MWh4Bcc+qtTo1B1FPvVsNKiUXl7lZWv0RW0Un5/U3zWKEIhLIgFTemZEqq0JQalqjuKwhYHxbJ9HlxWk+/LHi5TAElg59M/qVKo+gSE1bkBvVNQnRtF+dqEgjaovSJojcIVwq17nB0OzfhMfhKmtI1FqVobRWHrqAxRpga/7Ap7OLhrcPr1T6oUqj51a0BhJ1fzRlG+RlHQhi9uDYocwxTCgpjQjM8UTtyVtjEoVaMpbKMqb901OCOqK5f5UCoUquGru92rKPf7Y9GUr9EUtGHivuBwU512StA6km6ZEq60jVGpqqiwjZZuyCTHLt9MxMHCQtkGKkBzCtWIfSDk7Y2ifI2moA3sYQE4irMo9A83EzGh0YHQjM+UaKWteqVqdIVtVOUtRkpc+ZRnBScmsPv3eVCnUA3fByJk8iGK8jWqgja8nf5OH6EQFsSC5mLaCqWtWoSCtq3RXExbSWlriAgQ/cADD7Bp0yZGjBiB1+ttp0rbGPD5UUL3l3qk1No86KhK2xgQCto2RzM+U3PIlbYWi4Vu3boJpa2gTdHsHhDh3H333dx9992B4/nz5yexNYKOiNAzCQRtTNLfMwkEqU678ZkEgmSjubV5AkGqokmfScjWBVomJWbzhGxdkMpoxmdqC9m625Yn28c7taM2hLZVHha05YQIBmOoWx7aU307pDWJ8Wh3Sz43tfcaC5rxmRIvW5ekCP4gzB57DoULU3UvhLC2xiWQmDotk6NYT1Z5viwwm19IqDKOVABp3/TWtttRrCeruijYFlc+5VmymLyKJEa3pRk9U+Jl6zLlK0RE+wvKyn2/pjJZeSAodLEtsAI8T/azF3EtBKTigV9V/0rt8HIVr48SMDq8zGKHrDzfL7FiO93Y8rIotFsw6fUUO3xy98AtBOXvJuxRVLiSForw+2nm/pt6RmqeuckZFD8CYCigzOqk0qFUhz8+lfxeoz2TxJF0ywSJDhAtU74CDklwhKQqz6My12+xJM2RY2EwcHJFgRSSE0s5lHnweOzkFC7E4bvW5Jeku6w4S31fstpq7BYTMykLCZ4cUa5C3bhrcAaUuLIvaG01OEt9ZdoxO0vJ88nf7WZpPwvldhooKLNi8m0mU2IMi/buWEh5fhmZ1ZboG8A4KnFSTmngfqqpbeb+/RqskDx+AaaKZ+6otGAuUpbXO2vcYRowvzUKv9dozyR2NOMzBRqSyADRsi9oZa70gUlCPpkuqDQbV4mRjGxChoG11XbMAY1SBtkmfNfmBKXmhkxy7L4vWY0Tk9XlqwNAsoqh5SrXTW01WF0RQzx3jRN7TlGwTHsORWFWRLmdROxKFAwG7cZWCkUFKOxjESS0bimgdnP37983IyRPE/cd+myU9tUI3mNOpiE0gn34TlGyC6M+kxjRjM8UTrxl645Ki08q7sJqCvuQTLLgzYEQlRV4cit9w5mwD1YuKZdZO7n1C/mgZflDy1WuO3KnI4naarD6g9E6KrEEpOx+fyZ6O0Ml97L9IhwLqS4qwUiYtWqqbrmVV7z/0J2ZQvKofubR2uOg0uK/V9mwXaYiDr3XJj67GNGMz5RY2br8gRoYnw/lq2Tj5hDJuQzjLN/wTO7DuLHNLCTHP/zw/RKHpod90OEBogPlKtUdzdEP3XEoVDns/1WO1s6wLzdIJrJ6IcWl2YFg0cZcMxaTknMfeT+B/S0U7z/MPw3kkdHsM1dqj7RrlNM6C2PAOiL5TiZLYKeo0Htt4rOTbRzqtuWF+LCtmoX0quCTTz7xOhwOr8fjifu/I0eOeJe/+rb3D799zbuycpX3rX+s8L71jxXekydPeqdMmeK98cYbvX/84x+9W7du9e7atcv7pz/9yTtx4kTvhAkTVJRv95oxe+3+Y7vZi9kePG83+0TySOlNHYPXZHUFrnVZTZHpLqvXZLJ6XbI8ZrtCPUp1e+xes6wu/O0OK9NuNnmtLk+wvmbaaTdLaWa7/JnIjxWehb+MaPcT7f49Lq/VhBffNfI8gfqae+ZR2iNvr/+eMFm9VnPwXMi9NvFM5PflspoC5+xmhefi8XiPHj3qzcrKCilPqesI2XpTbbLlMZMymf+TmsTSTrctT5pybv2ce0oTz89u7969TJkyhR07doSkt0i23hakomy9thryZ6V2RwKV7fTt6orJiquifXckiO9np9ZnSvkwnC+//DIbN26kvr4+IFvPysril7/8ZZu3RdAxieuGKslEBIgWJBu175lSxmcSCFIVtT5Tyr1nEghSDU3qmQQCLSMsk0DQDJqKaetHKG0FqYim9s0TSltBKqOZtXnaDBCdKMLamZCoFS14Fq0NLt1BglMn3WfSZoDoBBHSzgSEzHTbyJOFE/V4PNgxNS+aa21waY0Hp9aMninVAkSHBnSOHohZObh0tIDO6gJFR4vSHh5AOvy4ybYE8vlWTgf0PRLGEjs55auCgaqbDS7d8YJTa0rPlDIBoh3hAZ2jB2IuzgqqQ+05hSz0RUFXDOisKlC01M6AcC7wxQsPIB1+3Exb/PmQwpHOUlqWZ6+mVnVw6Y4XnFozPlOgIakQINoYGtA5WiBmt600JGB0UL0aJaCzqkDRkp7JHjHECw8gHXrcbFtk0a7tSqE4/cI+tcGlRXDqqKSEZZKTzADREQGdowVihhD1asDyRQvorCpQdBQlaEQA6bBjlW0J30gm+Hh8Aa3VBpfugMGpNeMzpVqAaHlA52iBmCEYMDokPUpA5/ByFeuWq1hlhAeQjggoHaUtEfkM48mnkJmyyQa3LY+swhyK/BvH4C8menDpjhicWjM+U+oEiA4P6JwRPRBzQRE5vkDM8vRoAZ3VBIp21zglJz1sO7DwANLhx9HaEp5P2s/ORX55sA5pnzxpSKouuHTHDE6tOT1T6iltRSDmSDrmM9GcninllLYiEHMkHfSZaHJtHqRQgGgRiDmSDvpMNLU2rymE0laQbDTnMwkEqYpanynps3kCQaqjmfdMAkGqo5n3TAJBqqP5PSC2bd0OwNBhV7VpvQJBS0m52bxPPvmEla9t58gnUtPWDfiE/7vrKgYMGJDklgk6Kpp7z3To0CEq/7Ge2vc7MTBPz/ifXoauUyd2bNrLktkf02f4Dn485Rr69u2bsDYIBEpoymd6a/m7vFC4EV0nHbfPyWKk8Uq6pKXRuXNnhl1zOT/9bRZnnNOZsp9v4a3l78ZegaM4sB4tYQGi5QK9gCjQQbG+uTissSIJDzuACjxl0JSeqX7vt3gbdJz8ppHj/zsRcf74/05w8ptGvA066vd+E1vhbht5JoI6IU8R/gBBLY3HE36d25aHPquaIllw5dyali/sDC8/9NhISVwCRwviTUpYplPfwow/DuacC7vwnuUw776yHXdtHe7aOiqWbOM9y2HOubALM/44mFPf6mIrvLYae4j+x0hBXEPE+MJNhi3+NBZoU1UqiERz75m6dz+XG2+5jgcWXkPmiHNY99pR/vvKUfoOOoOZfxrFjbdcR/fu58ZesDEXsyVy0xBHsR6TxafADextoLRrjzRUs9ny0OvzyMsLuy4kLGYUZMPMoIVRri+8XbaIdsqHjr6/FcsPrVeKOp6gIW47R1M+k5y0tDRGXzecYRPPZviks/nB/42ha9fWLGw1UuIJ6nj8XzZjiQe72ad4rSjAgIGCCk+UHYwslFOGx1NBRUXodYTopZSwYKrMDUYX90clj1JfeLsKItqpsny3jTyTU9p7wePBk1tNoT3iYoEKNOUzJR7/F9cOpib8pMAveRaFdnmQYjNFUYaGhswc7NGiK/uuDezDYMzFLI/zGrW+WIhSfm01dnNRcCci4yysLYw2LlBHylmmxGKkxG5Wlqs7itGXZgcigdvNKovMyMYkk8KrpqX1qUQuIxe0Ds35TCdOND9LpyZPBI7i0Jm3KF8yd41TttmKg0qLyvINBRSZLZhCZNlubMVNz+a1uD61zRqfH9rJHQvFMK+FaMpnGnDNubyz6CPW/HsDR48ejTh/7Ogx1vx7A/9avJEB18Q4CWGcRXZp0NHPKs8PbFNlzDUHHHsKijBb/PsyVEITlkJ+nRvJz3Hll/u27tKj18+EWU3P5hmaqC+i/LBjVRgKKLM6MfnbVJkthnktRHN6pq+//pqN67fwydZjXJCeFnLuWP0pBgy7gFFjrqZ79+4Ja0P7pmPu3xAPNLcHRPfu3bkh94f8YPwptm7Zxs51+/E2ehk4ohe33jVCqGtbidtWisWUz6xkN0SDaG5tnp+0tDRGXTOSUdeMTHhd7RsHxXoTQVfMjN0jXiS3hHazB4SgpfiWHSW7Ge2AuL5n6tWrFxdffHHEGFEg6AikpaXh8Xiazad6Ns/pdKLTxbguTiBoB/Tt25dvvmn+tYyqzjRkyBBmz57d6kYJBFpkw4YN8etMAA899BBVVVWtapRAoEU++OADvv/++2bzqe5MN9xwA+++2wJhnkCgYfbv38/OnTv5+uuvQ9LPOOOMiLyqO9Odd96JTqdT5YgJBO0Bj8eDTqdj3bp1NDY2hpzr1atXRH7VnUmv1/Poo4/ypz/9iWPHjrW+pQJBivPqq69y2223KQ7xxo0bF5EW89q8Hj16MHfuXPbv39+yFgoEGuCtt95i+fLl7Ny5U/H8okWLItJUrc0LZ+XKlXz//fdcdtllZGZmxt5SgSBFqaqqwul0Mnv2bA4fPqzo1owbN473338/Ir1FnclPaWkpO3bsYPTo0UyePJn9+/dz6pQUrGzw4MEhvVoci+NUPE5LS+PUqVMMHDiQp556ii1btrB7924OHjyIEuedd17UdXqt6kwgRfxbt24ds2fP5tJLLw282G1oaKBz586BfOJYHKfisdfrxev1snbtWrp3786XX34ZMdkgp6nu0urOJGfQoEHs2bMnXsUJBCnDwIEDm33PGtfO5OfMM89U9ZJLIEh1zjjjDL777jtVeRPSmQSCjkhKyNYFgvaA6EwCQZwQnUkgiBOiMwkEcUJ0JoEgTvx/mg9T+h0oGw8AAAAASUVORK5CYII=;" parent="1" vertex="1">
          <mxGeometry x="-910" y="-20" width="211" height="316" as="geometry" />
        </mxCell>
        <mxCell id="uozOtIk-62IbuRWrD_Ta-3" style="edgeStyle=orthogonalEdgeStyle;rounded=0;orthogonalLoop=1;jettySize=auto;html=1;exitX=1;exitY=0.5;exitDx=0;exitDy=0;startArrow=diamondThin;startFill=0;" edge="1" parent="1" source="JfymsIh0gRfcHJ0PRg0S-2" target="JfymsIh0gRfcHJ0PRg0S-1">
          <mxGeometry relative="1" as="geometry" />
        </mxCell>
        <mxCell id="uozOtIk-62IbuRWrD_Ta-23" style="edgeStyle=orthogonalEdgeStyle;rounded=0;orthogonalLoop=1;jettySize=auto;html=1;exitX=0.5;exitY=1;exitDx=0;exitDy=0;entryX=0.002;entryY=0.46;entryDx=0;entryDy=0;entryPerimeter=0;endArrow=diamondThin;endFill=0;startArrow=classic;startFill=1;" edge="1" parent="1" source="JfymsIh0gRfcHJ0PRg0S-2" target="uozOtIk-62IbuRWrD_Ta-15">
          <mxGeometry relative="1" as="geometry" />
        </mxCell>
        <mxCell id="JfymsIh0gRfcHJ0PRg0S-2" value="" style="shape=image;verticalLabelPosition=bottom;labelBackgroundColor=default;verticalAlign=top;aspect=fixed;imageAspect=0;image=data:image/png,iVBORw0KGgoAAAANSUhEUgAAALsAAAC6CAYAAAD2zDzPAAAd+klEQVR4nO2de1yUxf7H3ysCmhqad8H1hgQq3s17q+V2RLqoWF6PFmahlSexDE+lZmnkKfwdS6EsEkwlE28nRFsNN295FFFRMcS05aoeUTMtF1l+f+wCe4Vd2JXFnffrtbo7z8x3ZnY/zPOd55l5vpKSkpISBAIXoE5NN0AguFcIsQtcBiF2gcsgxC5wGYTYBS6DELvAZRBiF7gMQuwCl6GuvQwVFBRw6dIle5kTCMpwd3enS5cu1bZTLbGrVCoSEhI4cOAADRs2pGXLltVukEBgjFqtJiMjg549e/Lkk08yfPjwKtmRVHW5wIYNG0hJSWH8s08T2KUj7pI7FP1ZCBLQ/iMprUKvNu0/EiR6+XSHDD6X/y/RK45xOb2DEoOykvKsRuUkhgeM6pQYNVeiV4cZm7pPJjYlRv03tmnpmH5dRv0z6aPB92DYD4lROcN2Gv4eEoO6zJdDItGru7w+c7+jQTtN+mNQsdFvplfW+DcuAU1JCVnnsvhu0yZu3brFvHnzeOihh7AFm8VeUFDAkiVLCAwMZMyofvx1LZOSEo2ZhprpkMUvSWIodomFdGObej9Qdeouz2t4zLzY9T+bqxsjcRjZNPuHoH/M/Pdg23dpwX5F/bH4XVruT8XfpWH7JZX2x/q6U1PTWLlyJbNmzaJfv35Yi81if+211wh9fhKtH7yB+nahQcOE2IXY74XYQcKtW7eJiIjg9ddfx9fXF2uw6WrMhg0b6NE9kJYNr6K+fdWWogKBXWnQ4AHefPNNwsPDUavVVpWxWuwqlYqUlBSeGdmHor+uV7mRAoElijUl3CnSYK2zIZW2Zdy4cfTp04egoKBK81st9i+//JIXpo7nz2uZ1hYRCKxGo4Hr129y8eJF7qg1aKwQvEQiYeLEifj7+7N7926aNGlSYX6rxK5Wqzlx4gSdO7SgRFNsXesFAiu5W1zCH7f+ZOPGjSxbtoy9e/dSXFyCNQN83bp16dOnD82bN+f69et06NDBYl6rxK5SqbTX0Iv/sLoDAoE13C0GTYmENWvWkJqaio+PD59//jk7d+6i6K4GjaZixUskEjp27EjTpk0BuHjxIjNnzjSb16qbSteuXaNJkybWT0qPfIN0+vd6CU+xMX0qA/P2MOWJGJQvLCbnja7W2aqIvF1MHPZv9uolDVuyloTnWgIneM/3TVYZFHiOLefHcPH5icz5yYy9R+dxLP5J2lqq79BKmo5fp5cwhW3ZrzG0Wp1wXTQlEm7/+Rdr1qzh4MGDTJ8+nV69erFlyxYSEhLw9PRkyJAhPFDf08y9g3KaNalH/fr1yz7HxMQQHR1tks+qkb2wsJAmTZqgKa581puzORLp9O+RLfoMVfq3ZKdv5Of3vK2pxrLNTQtp47+QDbn6ae/Seti/Ycka8jOTKcjcScHe1wkwLvxoOKlZu7n0UzjD2ciYF1J5dM2PXP41hdQPtddoh0d+y5ULSq7EWRZ6dsIcmo1fx/BlW7iqOsRV1c8c/1e7avULIHt9GI1bhRGfU21TqNaG0qjpC8RlV9+Wo9FoJFy7fpN169Zx8uRJpk+fzpUrV1i8eDE9evTgiSeeIDExkf3793NHfbdCH97NjIrNje72XQiWn8L8RSfg+QWsHdu8LNl77GMMrLLRy+zbecwwKXcXb759DKZHsuFZvSUK3iNZ+FwL82a8e/P0o8BPKlS2NiHnP4S/dRhe/oxNE1qVJbed8DRDbLVlQB4p2w9Wy0I5uaRsM3e6ck6KNRKuXr1Kfn4+L774Ivn5+ezduxdPT09WrFhBixYtGDx4MEeOHNHmv2vbXHHv3r0maXYVe87Ph1ECLw+tZNFO5hYmdw3Bp+tYfLrGo/25T/N+l9F4dxmNd8AzeAe8x4a8y2x48UXm7gc4xtzHn2TSpsvkHNrPXmDm8O7WNy73GNt/Ah6VIrWxX9n7U0gBXnmst+VMB1fwkE8/7cu7L03eP6pNz9nKuDa9aTLpFca16UXj1j1p3DqK/eQTP3Eks/cCHGB230DGrs/TlUlkbMuueLXogleLLoxdp03ft8ifB5v7M/Yb7Slu30I/GjXrzNv7c4kbJ+PVFICfeKVHR0avzTVuoVNR162Ydu3aMX/+fE6fPs3mzZsZPXp02cgeFxdHp06dmDNnDgDu7rYt4yooKDBJq6ElvgP46HQiOV+PBrayMvEK0JV3z2wl98xWcve8yjCO8ca6S0z88ks+GQLQm0/2fM/6ccYj9yXWhwbRym8krTqPpNULOzHwCH6Koo/vCFo+GkXKo3NJ/XqUZZ+8quRu49nnvoGwaApzjlD43d8h5uVywQMwguV5aaR/MgiIY/l6mLphJyuGAQxmxdF0Nk9qAzmbGdtnASxXcOPyGb6fBXvmLCQ+G4Yu2sNnw2H3nHXsy97E8pUw4v/2smSIN9M2KflsOMCjrDzxK1v/Xj3X0fHU4c6dOyQmJrJ3715eeOEF5PIR1K3rxj/+8Q8GDhzI2rVrOXXqFIBVV2b0uX7d9F5QzYjdrzU+eh+VFy7r3p3Sju6Pf6addGbmU7kr25JJsckUZH6E2Tl4qc9+fjeXHCF0IHvfj+wBXn2srzZh0BBeAzibQ5n7HNCWtkDb9p0B2JNlfuTN/mkXe4A9c+R4tejCk6sA9nPuNwBvpn7yASP4iuBeb7N7+BL+PcXZRW2eu8USCgoKOHXqFJMnT2bUqCDquknwqFuHum4SJk+eTLdu3di1a5c2/9271a7TrmL3aauV0uf7zthcNidxMd5d3iEm9ANyM5YQVmE92mup0Sknq9JMm2nbvhMAK388VklO+zF7y2luXD6je2XwvrnJQcqv/HbPWmRf6rppaNOmDbNnz0Ymk1G3bvkKVzc3CQ818WLSpEmEhoZq89d1q3ad9h3Z+07m2+eBNYv5++YrZcm5m3/kUCVFVRfSgF58PKkb5OVztuxIC9r5GWXuH0ridOCrCBb/105tr4gBr7DtJeDzVxmXUO4LZidsZz/QduhjPA589qPObTm4n0+Bx5/sX8mZpA0djS4ftW2v7eyKFYllZ4V960rf5xI/9x12M52kbdOBrxi18LAulzcd7XA1914hkcAD9dxp3qwZ9TzdML6wWKeOBK8HG9G8eTPqebpXeOnRWuzuxgwM38DBRT1QLnoVaeB42gY+x4CFlU+WBk16hWGk8caI0XgvNLxCMWjyawzTm6ACDJqXxJElfYieEkRrvyBa+b1FNDAsqLeBi2QvBr99kLRl/UmZN4am0oE0lQ6g55u6cdX7Gb7bOAViZmonqM+uhbDP2TSxdaV2h0xfxOP6E9RBc7mx5QVIWUA33QT1ye0AecQ/9zivpsCI5ZMZOniy1kdfOYW392ttDX1xKSNqyQQVoE4dcK9bYiL0UtzcJHh42G0znXVLfHft2kVaWhpTnvKjuOh2JUtiSz+LJb7GdWsPiSW+9v4ulXu28+b8D8ouU5ZiLG37/dncF6SxqP0/WGmQNoltv73C4BpqkcB+CLEb0ItFF39ikdmRUFDbEY/SELgMQuwCl0GIXeAyCLELXAYhdoHL4ACx/4+EsAlIu4/X3lT65Azk/ciUT07bvyqBwAbsfOnxDEu6vw9fJaCK0btxkGe63FIguNfYdz37lu18/vy7vG3xIU2n+aDbOHy6heDTNU67jj1vN5O7jsG7yxi8Pz4FeQomBzyjXdP+r3R7Nk/g4tj9ppKsvYWdQgB05Z1Tm3gXCTmbP2DNf0GafYiAr7ewvj+AhJzERPzjtrHuEe1ngcBe3OMJ6v9IeFk7sg9YkEZG9mV8Ql6m05dj8O6iHel9Qmbhu/oZvAPWYK8NawIB2Hs9+4D+sOg1lhwxfzx3cwxZ0zeRcyqRnxf30qW2YOIXW8g905c9MxTk0JyJq7eRm9GXPTN+sGLzhkBgHfZ1Y1oPZ+1O+PvICeX7PJ9fRPZE7Vtvn3Z8HjqOzwHZ4F7wN8hJfJ8BC9IAGPb+akh8D+93dZ8/+NIhy3UFron9F4K1Gc7ak49huIyzC9/MlYCkK9mnphot43yXnBD9pbwLyR1ntNRVILAD4qaSwGUQYhe4DELsApdBiF3gMgixC1wGIXaByyDELnAZhNgFLoMQu8BlEGIXuAxC7AKXQYhd4DIIsQtcBiF2gcsgxC5wGYTYBS6DELvAZRBiF7gMQuwCl8GmPaia+n5QTwOAYQAPidm32nwV7SO1XK40scJdqBYDBVguVb7/1cpyJZUfq7iVNtZncNjwuGluC+Utfi8lJu/LchqEizFrtILkKrRTUslxvWOWs2o/FFOvgvLl2CT2epKrFN/9y5YiAhfExvi81bbnWa+hVXZsErv69lWKi27ZUkQgcDhubl5W5RM+u8BlEGIXuAxC7AKXQYhd4DIIsQtcBicT+1W+fWUq7XuVv5YeBchgadl7S2SwtFcCP1u0+zHf5jmgyYJagxNGuO7OR0lvML6NfloA/0yLr6kGCe4THD6y371bzLlf8x1djUBQKQ4Ve3Gxhvc++Y6X3oippiUjFyVPybQyV8eC63I0odwdWn5K74Chq1SxayS4n3CYG1NcrGHRxxvZfzjDxpIneSt4Km8BZl2aPCXTlsDStHi8QSvq5RlcnGOUZ0YOHyXFa8seTaB9PHwEcFTBW77zubgyoBq9E9RGHCL2qgsdzPvseuTlozy4g8G9vipPG9SaXFoY5pkaTFypjb5yPhr0tfZ9m9bI4j9kWvvlxI1pWoX2CWordhd79YRuJVPnc3GO8chcXl9udg7Qw3zZNjLi0mTkbvmY9r1O8tLqeP7Z12EtFTgRdvfZf/3tkonQW7VobL8K2rRGFp9U4WVE7/79kMWfKPfljyp4yyj0nveYN7i4ehRf7HPgH6XAqbD7yN65Y2tSNr9nb7PltJERtzqf9mV+PcgWLCdujGGepQs+ZnCvqdrPU6fz0SBd3L2jCbSfsUOXcRQJacJ3dxUkJSUllS4/3rVrF2lpaUx5yk8s8RU4Hfl/dWb27NkcOWIYk9RY2k52B1UgcBxC7AKXQYhd4DIIsQtcBiF2gcsgxC5wGYTYBS6DTTeVWvo95ah2CARVJj811ap8YmQXuAxOLfbtO3+kX8QP/F/cf2q6KYL7ACfclgdHUo8xd/Nlzt6ozzS/myw90pjiku3Mff7pmm6aoBbjVCN7Tk4OMz7ezmOr/6CDVxE7p3vx8qhubBjnxr/+68VHsdtruonOgSqWYA8PPHSvCCWAkgiPCJQOsO/hEUysCkBFbLA16cbHnQOnEPvNmzdZEL2Nru+fp+CWOzv+7sG7Y7vwYKNGALTzac3acRKWH/XikzX3p+CVEaWirRhVbDAevpnMU6tR615B52OpqqZM6lVGmNhXKwLJvFCaQU5Mli49K4RE3wiUSAlNKs0bDuEKXdkkQqVVbJgDqHE35pvEZMJTHqBDQ0++GVtMQCc/s/lu3ymivVcx6894Mvcet9F5ULIqLBCFOhKZXqosNBTsMqYriZCnE5OVZGAfWSSR5rJLRxAiT+S8CmROJGpL1PjIHnW4Lj0a3yI+tBMBndqZHM/Jv8R7iRksP6Tm/Sfq07P5HftUbHCq1jv9m3URoMxNUEaYOWbJnrZMbGxw+SndTD5lhAfyKIiSe+ARrBulzdlTJhMVHmQoRGPMts/IzdAdMKlXmUxU+DynGo3tSY2LvUfTP/FvVsynO85QrNGUpV+7foMvd51i5pY/kXdy4/t5Q3lcNphPZjxqh1qVRPgmElJ6Oi4dKVWxBBukK0Cu73dGIU8OKjtdRy0rdR8s2NOVSSRae0onluCZEF3mHoA8QoksUo327K9GnRSKVGU+n+p8OnK/DhX0y1L79NwMdRYx6cuIVWFSL0b2VbHBZX8gweacb+UqwghhRC3546hxsdepA+9MfAQ08O/vM7j9522SD51h6vprtGpYB0X4wzwbPIzjx48zatQoJk2axIEDB6pXqaUR7EImCoN0GbNiIHF36Q8djiJSJ2NZEOGKTC5UZE9XZl7pgQuZKBRh+JaOsPIoSD9v6m9byEenQBTlzrPZusy2D/RGfF/CFArMmZEa2ZeGJqFWq8mKkevlUhDmW9ouUCSFUku0XvNiB3B3d+fdyQO4U1yH4StvkH9Tw9YwKVOfGswDDzxAvXr1WLp0KZGRkXzwwQd8+OGH1apPdT7dTi2vgr2yyZvuZUks5vJ18EMelWy7d66MwGOZH1k6W4pwC/mssq83QTWaOzg7NS72xp4lnM7IxN3dnWkDm/LWI4W8MWEozZtpH3Ph6emJRCLh119/pWfPnvTu3ZusrKxq1SkdEYI8apnpZbEOfkbpSlaFQUgl52mL9owxsW9jPmko88KjkAfrX31RERtR8dUY1fl0COyk+6NSkhxlqSOhRMekG9m/f6hxsc8e3YttqQWczsjEza0ODTzKI0SdOZtJgwYNePpp7c0kf39//P39AcrSqoQ0lCRFYPnpuHQCaJIuB4UVl88s2as0X7kvLAsKL58oVpQvUk1WSGK5i+MxE2ZV7EpIQ+cRHiXX5U8GvZHdoF60rouhfQ98E0OIvg9mrTZtuJ471zEX/X5Tqfh06zECWrrzV5GGoT3as/PIBYqK4e0ZT+Pv749SaSgfmUzG2bNnHdIeQe0iNTW19my4bieV8tro3pzKLyLjfxrWK39lUEBL/vlidVdZKokwuatnp7uMglpHjd9UKqWdVEp4iITzF7MZ+EgfPD097WBVRqRabf6GiMDlcBqxA7Rt25a2bduapPv5+SGTyUzSBAJbcCqxW2L79vtzPYzg3mKTz27FXFYguOfcvn3bqnw2jey3CjMp0RRVqUECQU1jm9ivZopnPQqcjgce6GxVPqe49CgQ3AuE2AUugxC7wGUQYhe4DELsApfBycSui1G63Hyco5+XT6X9K0pybbJZUZh3W9smQsLXZpxM7DrMBQjLUxKd1d2qzQI/LxfBfAWmOGE49+68NBV2HL5qkJp7+AgPj+hn38YJXAqnDOfeaXwwD+8+peeuZBC32IfH2uYbLs81E9b95+VTmRAPX8wwcnn0wrsbjPoGNoyOiZDw9xVOGM4dIIDHfD8k7qhMG5D36Al+WSDnnyjKs1gM6x5PAlP5cWhpMN8MYAcT9s3nYtoEbb6vlUzrK8M7T8m04COMSorXRcPOYGmvj/k26Q3GI0LC3284ZGS3R5TrAeOn88u+DOAq336dw6j+RqHX8/JRHvyKwaUj74wdkHXZwuR1FAmlEbH79uClg/lkl9qYGqwXOj6AaQt0LpTxsb5yPhqke18aEn6LoaslcG6cN5x7m26Myvqab4/2Y4dvsHbkNZ60mg3rjlbI1USEhL//cOJw7k0ZMgLemvEVDw814y5YEda9UkxsZBC3GEb1bypCwt+HOHU4d+8xwby0ux/TzI2aFsO6N2XA0FFMmDGVLwZN58DKFpYrMGPjpdU6Hx0REv5+Q4RzF9R6RDh3gcAIIXaByyDELnAZhNgFLoMQu8BlEGIXuAxC7AKXwaabSl7ejyBBUnlGgeAekn/WugUiNom9XoOWVWqMQOBYrBO707oxaceOk3bseE03Q3Af4XQPNj137hy71h/nf+e0TTvQ+Rx/m9STzp2te+qTQGAJpxF7QUEByd8d5EJKHfyDPRjx3MNI6tThxJFfiJ9/Gu++J3hyygB8fHxquqmCWopTuDFbNu7g07DDSOpIePY9Xx6RdaOuuztubm70HtCF5xb6Uq+RG9GvprJl447KDZrDbDBfXSBfe3TCyH5ZkF/jgLsW042P29IPgTU4hdjzfrlNSbGEO7c03Pz9D5PjN3//gzu3NJQUS8j7xfZVl6rYYDx8M5mnF2ox6HzVI8IpI4xEpowwsa9WBOrFGtULp5gVQqJvBEr9QLzayLu6spYDltm7H2b7co/L30ucQuxFt2HGiu40alaXnVGX2LHmOKoLOagu5JAUn8bOqEs0alaXGSu6U3Tb1kufSlaFBaIwitkpC7VXsFolEfJ0YrKMYoLKIok099wP6QhC5Omct1mhju7H/Y9TiB3Ay+tBRo4eyiurBtCpXyMOrL/KvjVX8Qmox8zP+jNy9FC8vB603bAymajwoIqfN1MW/Vl/lDJyM3QHlBEeyKMoD6dYYXRrO1JZPyy6NzpXzUwfTfpiYkfr4qlig8v6r7WndbXMlndinEbspbi7uzNwaF96j2lI3/ENGf63QXh6elTZnup8OnK/DhXkiEKeHFTmTkQtK/3R9NwMdRYx6dogvLJIbYTocIU26jRG9lWxwSaxSw1QriKMECqJI2xbP1SxBPsmElIWeVoBcn3f33wfjfsiVcUSPBOiy1wxkEcokYZGl/VfGVEeG9akvG1duuc4ndjtjbRTIIpy59kM4ShK/Q1ZEOGKTMpyl42GvoQpFJgzY2xfGpqEWq0mK0aul0tRHsBXDooqCKPCflzIRGFwdpExKwYSd5eqvYI+GttRhJUH/JVHQfp5VEgJjQ4h0dcDOQrz7lkt4L4XuzY0erLtV1yUEXgs8yNLN8opwi3ks8q+3gTVyOe2mqr2w1bKJsq6V+kfprQTgY6u28E4jdj/+KPyqyzW5DFBGsq88CjkBj6litiIin1M1fl0COykG4GVJEdZth8dk25k3wFU1I8Ofsijlum5LUpWhUGIrb6SiR29eoKX4ZelRoG81lx9McYpxN55wINs//q/7P3hEFevmj54qPBqIXt/OMR/4g7TeYDtk1RZpJqskMTy07PHTJhVsSshDZ1HeJRclz8Z9EZ2WVC4waRMGppkZN8D38QQou08a7XYD2koSYrAclfJo9yvrtSmfl9M7GjnHcoIX8ICtW6SbFYM6XrzAePvwpmx6ekCc+fOdVhDbty4weGDqZw7VshDbdwNjhXmFdG590P0H9QHLy8vh7VBUDtJTU216ukCTrNcwMvLiyeCHmP4iCKOpaZx8kA2JZoS/Pu1YuykfnYK714bUBLhIcfQawo3ub4usB2nEXsp7u7u9B/wCP0HPFLTTakhZESq1UTWdDPuQ5zCZxcI7gVC7AKXQYhd4DIIsQtcBqcVu9iWJ7A3Tnc1RmzLEzgKpxnZCwoK+PrTzax96zQP+Xgw4e0AJr7blRad6hE//zQxkZvIycmpgmUVscGV7P6pMnbc6SRwOE4xsm/ZuIOj64voLNduy6tfv37Zsd4DuhDQ409SfzpH9Kup9J10kjHPjarB1gpqK04xsjt6W55AAE4idsduy9PH0q4d7a4k/dV8qtjg8s0XVm1yVhKht6PJ3I4fQc3iFGIHB27LM8Hcrh0pofPCiUoulaSK3Ym6JbKV7gLS5o8NloNCjTpSpi1jZsePoGZxGrGXYu9teaZY2LUjCyK8dHOEajeJuiWtle8CSmdZsC+Z89TlO3gs7vgR1CROJ/aaQ0ZQeBTJSlCuCiMwyLY1huVnBR2WdvwIagwhdj1ks2JIT44gOT2GWaVar3QXUCDzkrQ7eMp8fIs7fgQ1idOI3WHb8mxBOoKQ9CjSQ0aUj8JW7gKSRWYRkuhb4Y4fQc3iFDuVkrb9wIXjN2nzcD0C+/jRtGlTDu0/CsDAIX0pvFrIydRfyD/3J+27P0jwM084pB2C2kmt2qkU/MwT3Bim3Zb3w8YTBtvydm3bV7Ytb8rsIWJbnqDKOIXYQWzLEzgepxF7KWJbnsBROM0EVSBwNFaJvWHDhty6dcvE4RcInIHbt29blc8qsTdp0oRr164hkYhIeQLn4/fff6eoqKjSfFaJXSqVkp1tXUQygeBek5OTY/ZJcsZY7cb4+vpy8uTJajdMILA3hw4d4sqVK5Xms3qCOnbsWLZu3VqtRgkE9kapVPLbb7/x119/GaQ3btzYJK/VYh88eDCNGjVCoVBUv4UCgR0oLCzk008/NblzCtCqVSuTNJsuPc6aNYvvvvuOwsLCqrdQILATX3zxBceOHUOtVpscy8jIMEmzSewNGzbk9ddfJyIigqNHj1a9lQJBNSgsLOSdd95h8+bNNm3Ct2ohmLnKli1bRuPGjZkyZQotW7a01YRAYDNqtRqFQsHq1as5fPiwxSswliRdJbGXsmvXLuLj42nQoAEdO3YUohc4hKKiIs6ePcvp06cpLCzk+PHj3L1712ze9u3bc+GC+dhT1RJ7KVlZWYwcORKNRlNdUwKBCRqNht9//50bN25UqLHGjRtz7do1y4ZK7MjIkSNLAPESr3v+GjlyZKX6tMvIbkxAQABnz561t1mBwAR/f3+zV17M4RCxCwTOiFjiK3AZhNgFLoMQu8BlEGIXuAz/D3PVuSPpW6v/AAAAAElFTkSuQmCC;" parent="1" vertex="1">
          <mxGeometry x="-1200" y="45" width="187" height="186" as="geometry" />
        </mxCell>
        <mxCell id="JfymsIh0gRfcHJ0PRg0S-3" value="" style="shape=image;verticalLabelPosition=bottom;labelBackgroundColor=default;verticalAlign=top;aspect=fixed;imageAspect=0;image=data:image/png,iVBORw0KGgoAAAANSUhEUgAAAKMAAACiCAYAAAAtMH0lAAAUqklEQVR4nO2df1TUVd7HXyNI9qzbhiYi4giBPP6i1nVx0Z6WtnUywMof9PirMLEfyPZjJVO0tszWLErds+eoqC0JiaIGnn06iDa2Mk+ibupyAF3KbGVHBMyHNBO1YZh5/hhmmGFmYAYG58Lc1zlz+H7v93M/936/8z73x3c+96IwGo1GJBIB6OPtCkgkZqQYJcIgxSgRBilGiTBIMUqEQYpRIgxSjBJhkGKUCIO/pxzV19dz8eJFT7mT9CD69u3L6NGju+ynS2LUarXk5+dTWlpK//79GTx4cJcrJOl56HQ6qqqq+PnPf87UqVP5zW9+0yk/is7+HLhz504OHTrErMcfJXr03fTto6Ppxndmty0f8x/TsUJhm64wH5uvmxKxMmj1ZclmnUdhdanV3s4PTvwonPjBiR+FlS+b+tin299v6wWFTZr9c0KhsLpPq+fj8PkpbPPaPRtb/woH9gq7Otp/D7b3afv8jIDRCGe/Psuejz+msbGRpUuXMmDAANzBbTHW19ezevVqoqOjmZ4Qw83LX2M0Nts9eEcPvH0bZwKxfeC33sZKnDZflnWd236Jju+388+mPRtP3XfXvgfrZ3PyH2Vs2LCBtLQ0YmJicBW3xfjCCy+Q8tQ8htxxBd3171pvQIrRJq+j++38s+lZYkShoLHxOhkZGfz+978nMjISV3BrNr1z507uvSea4P4N6K43uJNV4mP85Cf/wSuvvEJ6ejo6nc6lPC6LUavVcujQIR57eDxNN690upKSnkuzAXRN4Gpnqhw2jKSkJMaPH098fHyH9i6L8YMPPmBB8ixuXD7jahZJL8JgVHDl+x+orq5G12TE4IIgFQoFc+bMYeTIkRw8eJDAwMB27V0So06no7y8nBHhQRgNza7VXtJraG6Ga4032b17N5mZmZSUlNBsMM2gO8Lf35/x48czaNAgrly5Qnh4uFNbl8So1WpN7xCbr7l8A5LeQbMBDMY+bNu2jZMnTxIaGsrmzZvZv/8ATXoDBkP7ilQoFNx9990MHDgQgOrqahYtWuTQ1iUxXr58mcDAQNcnLce3Myz6v02fsY8zbGwuRwFqDzJvzAxC3z/lmh8zFw4wJyqBISn7qXEvp6QLGIwKrt/QkZWVxZEjR5g1axbPP/888fHx5OfnU1Ki4eaPTR22kHcF9uP222+3nGdlZTm0c0mM3333HYGBgRiaO54V1RSuQZnyCXFvbuR85W7On9rDsVVDXSmmY/4zhFDPeJJ0gMGg4Mr3jeTl5VFRUcHChQu5dOkSq1at4t577+Whhx6ioKCAw4cPo2vStzuG9HOgMketo2cDJWr/xvKV5fDU62yfcZcleeiM3zKxK36HTmHnmX3ULbuny1WUuEaz0Y+Ghgbq6up4+umnqauro6SkhNtuu40///nPBAUFcd9993H8+HGTvd69uURJSYldmkfFWHPs72iA5349pn3DM3uZN3o6Q0dPY+joHI6Y07/4kJCRjxIy8hFCRk4lJLPSlG7upt+taDnfz+wRUwge8RDBkQ/x5rGW/Bf2MTvitwRFPEjQ3Q8ya5cM3Ogs/n2aGD58OMuXL+f06dMUFhYybdo0S8uYk5NDREQEixcvBqBvX/fCHOrr6+3SvBRCNpF3/7mXC9umA3vZUHAJatXMnb8XUlZT++Un1ObOgL8sZ0hmhW3W2v3MfuBPlPzXYk58/Sn1Zz/ljVhMQvz1Olizg2+/+Rt7n4FDy9eSd8Eb99cLUPThxx9/pKCggJKSEhYsWIBq8mT8/f146aWXmDhxIh999BGnTpnG/+5GOFy5Yv+u2jtijAq2GfuV/OsiNUePUAIseiDalDghhkUAX9XZTFpqSj832aU+bOOjpvRzDgGHls8lKOJBpm8FOM7X57vzRnov+mY/6uvrOXXqFPPmzSMhIR5/P+jrD35+CubNm8fYsWM5cOCAyV6v73KZHotnBAgdNgwoZ/P/nua1mLGedO0yaXmfsTLW9jdiifv499ETEhLCiy++SGBgIP5+rU/Trw8MCPwZc+fO5caNGyZ7f78ul+nZljHmCXY9BWxbxROF/2dJvlD4menVTjuETpzEA8CmkpZx4hfH2QQ8ED/OpgUMHW56abopy/Y1T6gyDICNm/dhbgxLdxUhG8bOoVDA7f38GHTXXfS7rQ+mQLFW+ijgZ3f0Z9Cgu7gtwN8qUKLzeLRlBJiYns+R8DVMeiONYW+YUx9l94wOMoao2JFzgZD5rxKS3ZK2cA07k4LAetw34Wnqt0PwE+v55Yj1AKRtV/NG7HNczIPB89YyPmKtyfbXSzg5y3P35mv0UUAfP0PLmb3Y/PwU+Dl6b9NJXAohO3DgAGVlZTzxSBTNTdcdh1LJEDKbvI7ut/PPpueFkFk/G81n/8Mry/9oeQ1kpq305IIsiTBIMUqEQYpRIgxSjBJhkGKUCIMUo0QYpBglwtANYrxEfuqs1uDataeh9jOeWHva80VJehUe/gXmn6y+ZxVk7+J8ltWL1FoZyiXpGM/GMxb+lc1Pvc6rTjcROM0fx8wgdMwMQs1xjLVq5o16jKGjHiPkvUq48Clz28YzSnwCj/82HRc2qJ2rY3jtdCGvATWFb7HtC1CeP8LInL+SN8H081FNQQGjcj9hxwTzz00SX+EWT2C+ZeezppYx9g9lfHn+EqEz04jc+hhDR23jCBCalEbklkcIGZndGgEu8Qk8KsbQ2F/ByhdYfdzx9ZqCLXzzdCE1pws59ta4ltRBzNn6Vy5U/ZLPnvmUGoKY88En1H4Zw2cLP5WrAX0Iz3bTIQ/y0X548uFZDDOnLVjJ+Tmmw9Bhw8haMIMsIO6+cSgehpqCN/nVH8oAeOCPH8DHKwl57R+m89XZcjWgD+HxMSMhD/JR5W/bhCWNZfvLgGIsNaefsqSbbN7gQpJ1yNFKapOsw5UkvoJ86S0RBilGiTBIMUqEQYpRIgxSjBJhkGKUCIMUo0QYpBglwiDFKBEGKUaJMEgxSoRBilEiDFKMEmGQYpQIgxSjRBikGCXCIMUoEQYpRokwSDFKhMGtNTCG26Ogn6HNVuMKmz9mjE4XsDi2NyW1k8fhJcf2Clftje2ne6o+pksKJ1YOH4QTX0abY4uFU3vX/NtbKJycOi9DYXtqc9BMPyf5bHFLjP0UDTTrb7qTRdIDcPP/Cbnt47Z+/V3y4ZYYddcbaG5qdCeLRIKf389cspNjRokwSDFKhEGKUSIMUowSYZBilAiDYGJsYNfvkgkbZ/68z65ab9fJTBVvj0vm7RPerkfvRTAxAtzDu0W5VJflUl0Uw77EfI55qSbH1luLbxQrynJZ8UsvVcYH6HYx6vXNfP2vus5lDhlLwqQa/i1M6yjpTrpVjM3NBt5cu4dnl2R5wFsVb4/LZ9fe91u771oN88e1duutrZjJ9tiJ/NYuf31VqyubfOaW19b//N8lMzsXtjyTTNjvNFww+2zXh+0wQ3bp7uH5/RlbaG42sPL93Rz+e1XHxs44oWYZMZSGmBP2sY/1VJcNNIkh8TgJRbnkhIBJTO+zq2gJs0JMtrM/X0512eyWa2t4+/5cVoRomL8a3i7LZSjAiXzC1ldRvbiNf0zd9N/uN3fNbcTsyMf95SyLXE71hlGdv2cfplvE2DUhVrAsMZllACSQXxZn+sJbzhdNNwmF2jo0yYktQgQYxfzXi1jx9wZmTW/Ju3iU1bV7WHG+AahDc2Qf9437S2uRk4ZwgSBb/+1R68THrCHE5a5hfth6clzxI7HB42Lseot4D+9aWrduInk51Yvbtl5u1tehD8gpi+PC3vcJG1fBs1vlhMcdPD5m/Ne/L9oJMTjoTk8XAyFDiMstsnr1U0XOKkj4lblF2semvQ321+zyeaJsW4ZOX0L11gS2fN6FIYoP4vGWccTdQzhU+Kan3doTEkfO1jrCLF06PLs116pFTSCBDwkbV9Hmmn2+uNfXkzPdvojY+xOY/UwyWyYtpHRDULtlx72+npxhasKe2WcpP79Mjh3dQWE0GjsMZztw4ABlZWU88UhUDwkhq+LtceU8WDabWG9XRULdzRG8+OKLHD9u+z9Z2kpPwJfeEl9FilEiDN32ntG7jGKFHK/1OGTLKBEGKUaJMEgxSoRBilEiDG5NYAZHPdJd9ZD0YupOnnTJTraMEmEQWoxfffUVK1asYMKECSQlJXHx4kVvV0nSjQj7nvHLL78kOTmZq1evcscdd7BixQoGDx7s7WpJuhFhW8YPP/yQq1ev8tOf/pQNGzbwi1/8wnKtrs6dZQxashMDCAho/WRoADRkWI7boyM7DRkBGTi+7KxsiSOEFKPRaKS4uBiAUaNGMXLkSMu1Y8eO8dJLL7npUUXWWR06nenzThxAHO9YjtvDVTsXyj6bRaXKmXAlQooRwM/PD4AvvviChQsX8sMPP3D48GGef/55GhoaOsgtKMrJzFRV8o3W2xUREyHFaDAYGDFihOW8oqKC1NRU0tLSuHbtGiqVygOlWHevLceaDAfdqbWdbbdr0+U6zNsG7UEKmMlkpfk8m0RLF+64jACLMydl2/hwUG9X6iUIwomxubmZvLw8YmJiCAwMtKSfPHkSnU7H0KFDSUlJcdOrmtRI8xeWSLbDlmkdquJ4U3eqTmddZjZ2ZpqNpEar23T3HeW1KnsRbCpKQQkmES2CTS2+dGpQZWgAJSlF5iHFWbIqM031dVS2NpvEyAJmWoYgalBZ358L9yQQQonRYDCwY8cOrl+/zty5c5kxY4ZFlAMHDuTJJ59kx44dBAUFdezMBusxYxEpSkc26ajN6oqLJ119hnNtTcKjUK1TkWin5vbymstWk64u4KA567kzqNWpRJpbNdU6qPzGJBZLaxZJqlrNmXNOyj53BnX6Uqv7iSMtCwoshbhwTwIhjBgNBgN5eXk0NjaSkJDAxx9/zPDhw8nNzeXo0aOUlpby6quvevf1jjKFIp2OTSzqRLcXxzvqaFI3WmVKb23pdDoduqIUlJoMAjKjONuSpk73RNk9AyHEqNfryc3NtQhx7969DBkyhMcffxyFop19sr2EMqXI1O0Vu6mIuDSyKlUmIYVHoVqXaTdk0H5TCdERpq4cDcXr2inbzoeGjakwc7LDpl94vC5GvV7P9u3buXnzJgkJCRQUFKBUKsUUotVkIEBFaxfoMkpSlqazTpWBRplCkTraaiwbQGK2FmXKUtLXqVrSisHcMjoq286HCtTOhiHi49aCrJdfftnjFcjJyUGn0zFlyhT27NlDREQE06ZN83g5Eu9x8uRJ8Rdk6fV6KioqmDhxIrt372bEiBFSiD6MV8Xo7+/P5MmTyc/PZ8yYMTz66KPerI7Ey3g9UCI+Pp74+HhvV0MiAF6fwEgkZqQYJcIgxSgRBqHFKCO9fQuvT2CcISO9fQ9hW0bPRXpLegpCitGzkd5ashOdhY11Rz5JZxFSjNBLI70l7SLkmNEc6V1RYdp11hzpXVlZiU6nIykpycs1lHQHwrWM3RPpbaaDUHzryJiMg7ZZHSwR0GYnWi0L0JDhNIpc4gpCibH7Ir2tcRKKr80mUVXZGhEef4ZUdUsWJ0sElCmbLMsCNBk9O3xLBITppp1Fei9ZssTDcY1tQvFVxZwDlC0h/EVmMcWlkaVaZDo+dwa1eh2RAamtblRRaIkjZdNMEiMDUKer0XV6OasEBGkZRYj01n5T2b6BoyUCAMoIom9FBX0Ar4tRlEhv5eSZqNYVty6w12xs7aadLBEwvf7JJOqsDjWqXrku5VbidTHm5eXR1NREQkICe/bsITw8nOnTp9/6JQfKFDZlVaIyT1KKo8hStV5ztERAkxFJarRpdV5cWhaVKjmB6QpeXXag1+tZtmwZCxYsYP/+/URFRckA215Ij1h2ICO9JdZ4fTYtI70lZrw+ZpRIzEgxSoRBilEiDFKMEmEQWoxy2YFv4fXZtDPksgPfQ9iW0eMbzDv5rU6TEUBAotibaPoKQorR8xvMA45+W9Zmk1mpwhObMku6jpBiBE8vO1CRnm69o6sJ7cEComfO9FCNJV1FSDF2xwbzUWlLiS44aNUda9iYGk18xBnU1oYubPpu6vE7TrMZGthEkWfbLvZyWKbvIZwYu2/ZQRzx0alYdjHWFFOZlYZNPKyzTd8dbe7ucLN5J5vDdyKK3BcRSozdvewgLi2LymINoCU7s9J+u2Fnm7472tzd2WbzjjaHb7sRfFxaa3haexvN+xjCvNq5JcsOlJOZWbmIbM1MCqJblhi03f4/XY3OwfbIRboU0wKsADXpah3vxKXYp9G6ObwS00y9GHMUeTvBIE7K9DWEaBlv3bIDJZNnQqoqleh4B1++04jultwONpa3TnO2OXznosh9D6+L8VYvO1CmLCVdlUWao4bISUS3w83dHaQ53Ry+E1HkvojcYN4raMgIKCZe9w6+0Dn3iEhvX91gXpudyTpVFOHerohgyGUHtwTT/6w2d8ORqdGozUtdJRa8Ppv2jWUHLf+z2tvVEByvT2AkEjMuibF///40NjbaDTglEle4fv26S3YuiTEwMJDLly+L97/8JD2Cq1ev0tTU1KGdS2IMDg6WUdaSTvPtt99y+fLlDu1cEuOAAQMIDg6mqqqqyxWT+B5Hjx7l0qVLHdq5PIGZOnUq+/bt61KlJL5HRUUFWq3Wbtx455132tm6LMYpU6Zw5coVTpw40fUaSnwCnU7HW2+9xZEjR+yuBQcH26W59Wpn6dKlbNmyhWvXrnW+hhKfYfPmzZSXl3Pz5k27a46GfG6JccCAASQnJ7Ns2TI5fpQ45dq1a6xdu5bCwkKqq6tdzudSoERbtFot7733HtHR0SxYsMDd7JJezIkTJ1izZg3l5eVotY6jj5xJrlNiNLNz505yc3OZNGkSoaGhnXUj6QU0NjaiVqv5/vvvOXr0KDqdzqFdcHCw06XGXRIjmAappaWlPPfcc+j1+q64kvRg9Ho9ly5dcjg+NNOvXz9u3Ljh3InRg8TGxhoB+ZEfu09sbGyH+ulyy+iI8PBwtwaukt5LWFgY5861XWjkmG4Ro0TSGWQImUQYpBglwiDFKBEGKUaJMEgxSoTh/wEm/UWnE4rC8AAAAABJRU5ErkJggg==;" parent="1" vertex="1">
          <mxGeometry x="-560" y="-38" width="163" height="162" as="geometry" />
        </mxCell>
        <mxCell id="JfymsIh0gRfcHJ0PRg0S-4" value="" style="shape=image;verticalLabelPosition=bottom;labelBackgroundColor=default;verticalAlign=top;aspect=fixed;imageAspect=0;image=data:image/png,iVBORw0KGgoAAAANSUhEUgAAAKMAAACoCAYAAACMq15DAAAW7UlEQVR4nO2de1xU5brHvwNIuruCiYqAqEia4iXTvLXRlLZAWgodb/tgohZe0t10QyorS0W3Yae2ipdDiaFggacSkY0GswO00M0RNMqoTQMC1gHdpmYjDOePuTADA6wZBlng+/185sPMe3nmXWt+PO9lvWs9irq6ujoEAhng0N4NEAgMCDEKZIMQo0A2CDEKZIMQo0A2CDEKZIMQo0A2CDEKZIOTvQxVVlZy4cIFe5kTdCC6dOnC/fff32o7rRKjWq0mMTGRnJwc7rjjDnr27NnqBgk6HhqNhqKiIkaMGMFjjz3G5MmTbbKjsPVy4P79+8nMzGT2kzPwu78/XRw03Pit2mBW/zL80b1XKMzTFYb3hnxdIiYF6m0Zq5nWUZhk1ZdvZIcm7CiasEMTdhQmtsza0zi98fHWZyjM0hqfJxQKk+M0OT8Wz5/CvG6jc2NuX2GhvKJRGxv/DubHaX7+6oC6Oij+vpiPP/mEq1ev8tJLL+Hq6oo1WC3GyspK1q1bh5+fHzODRnP94vfU1dU2OvGWTnjzZZoSiPkJv/llTMRp9mOZtrnhj2j5eG0/N82Vsddxt+53MD03p/6Zz9atW1m2bBmjR49GKlaL8dlnnyX8qfn0vusSmmvV9QcgxGhW19Lx2n5uOpYYUSi4evUakZGR/OUvf8HHxwcpWDWb3r9/P8OH+dHrjio016qsqSq4xbj99j/w4osvolQq0Wg0kupIFqNarSYzM5PHp43ixvVLNjdS0HGp1YLmBkjtTL08PQkNDWXUqFEEBga2WF6yGHfv3s3CsNn8dvGc1CqCToS2TsGlf/9KSUkJmht1aCUIUqFQMHfuXAYNGsTRo0dxcXFptrwkMWo0Gk6fPs3Afm7UaWultV7QaaithStXr3PgwAE2bdpEVlYWtVrdDLolnJycGDVqFD169ODSpUv069evybKSxKhWq3VriLVXJB+AoHNQqwVtnQMffvghp06dwsPDgx07dnDkSDo3arRotc0rUqFQ0L9/f7p37w5ASUkJS5cutVhWkhgvXryIi4uLhEnLN6wbNgcvv9l4+v2H7vXMMc5L+RID5//OvEHTcd9UaE0tC3YOM7v/ZNw25FvIO8ST3hO5d90/rbNZ9j+E9hmFy1sndZ9zt3CP+wju6T1c95qbQqktbS39mJndB3Ln6ydsqd1maOsUXPtNQ2xsLLm5ucyePZsVK1YQGBhIYmIiWVkqrv9+o0UPea9LV7p162b8HBsba7GcJDFWV1fj4uKCtlbarIgJz3Ci8AClhQco3TGFPtJqdSxyt+ASGg9Ld3Op4jSXKk5zaHp9dum+CO7u+QzxZe3XxNag1Sq49O+rJCQkUFBQwKJFi/jll19Yu3Ytw4cP59FHHyU5OZns7Gw0N2qaHUM6WlCZJe8oNkrYSOlPxQA8O+VBY9rEebPwBKCczM9y2qVd9qK2zpGqqioqKipYvHgxFRUVZGVlcdttt/Hee+/h5ubGhAkTyMvL05WvsW4ukZWV1Sjt5oix/Bh/HhqKx9NvM3/ILDyGzMLj/rW8tflN+tz/BH0GP06fv54xr3PuY+bd9xi97wum932vsa/cYOsIcwZOo9fAP9Fr4KPMOfCzsUrZgdX0HDAFtwGP4PbwZjJNzJUmvUiPfn+kh/cf6TFho1keZZ/zpNd4unuNo7vXWEITK+rr7V+Jq8doXD0exOWhtzimT/fsq1vIfT90BCH7KkyMlRM/50+szALI4dlRQ5i1rxxyNnO32/3M+kh/INmbuOve++o/A5zdyczuPtzpOoA7XJ9ij019vn1wcrhB3759Wb16NWfPniUlJYUnnnjC6Bn37NnDgAEDeO655wDo0sW6bQ6VlZWN0tpGjDk7GGsYM75z1iRjLBvPpnBi7Uggn1hCOP/NLjZPBOKS2W/yu5DtzYrvDlHxxUomcYrnX02nrPwIcya9C+v2UPl9OimLIStqC/vOA+cP88LqPFgSw88/fMGpDSaXoc6n8nzk17Dkv/il5B/8c+OY+ryyz3lywgbYlEKV+jifPgOZL0az9zxw/lOULx6HiO1Ul52kYPO4+nrjn6PgnfEAHHt+Gvf0Hs5ruQDuhCWm894kgAm8f+osKfPcpZ23TF+UVcX8enoDU/kHy5VJqCWfdDujcOD3338nOTmZrKwsFi5cSMDUqTg5ObJq1SrGjRvH3r17OXNG50Ss3eFw6VLjteq2EaPpmPH5IfXpvr3xMCk2qV9PoAd9fS3YCB/NeIA+I5k+Ecgu4x852WQBWa8soNfAPzFrN8Apvi+FspwvyQSWTRoOgOdEfwx7R0qzVWQCyx8Zqc+bbJKXSSaQ+dIsunuN4/EdAF9RrIbSL7/gGLDiEV1X7PnwVKaYNNFz7lYulf8vh/TDn/dDYsi24XQZWTGJhwE8JzBzCnDsR35qjb1WUFPrSGVlJWfOnGH+/PkEBQXi5AhdnMDRUcH8+fMZOnQo6enpuvI1Na3+TrvtZ7yZLP3oCK8/ZHrdFMpa6UKWJ+Wydpzp9Vcok6iEiWtOc4jhPLb9HD+WwUSPluvIHSeHGtzd3Vm5ciUuLi44ORpPC44O4OpyN/PmzeO3337TlXdybPV3yncCE5dHLsBXh3g+G1g0mnl9vQHYHnsEwyQ190AaZYCHly5vW9ZpoN4bAnj21S20bv0iX5+XWZ/nPUCXt+1z47JMduJnlAKefXV5f/tCt5RT+uVR45ixdP8W9hpnyidJ3w7gS38PAHf6D25wPF79mAIcK9ZVKi2xcCXrb1l8CZCzl+XHgBWTdZ6yHVAooFtXR3rcey9db3NAt1GsHgcF3H3XHfTocS+3OTuZbJSwnbYfMw7dy3GbjKQQet9j9A5LhomryHt5GIxZTOVHoZD9Lg/qJzCzjuiLj32Gg0uAXUrcBjzCqDSMXTFjl+rzVtHD+488cNg0bzn/lzQfVBsYoZ/APH5InzduJZ9HALFLcfV4kGGHMOmmi1k5ZqR+nXER7zOe9/KUTNTnTlz0JlNMJzCeITy3DNi6gLt6DGLVZ5aOeTdB3X24c/oumLKBb9aOtenM2QsHBTg5agHLA0JHRwXOXVrvEQ1I2kKWnp5Ofn4+f57uS+2Na5a3UoktZGZ1LR2v7eem420hMz03qmOf8eLqt43LQAYaSk++3bTglkOIUSAbhBgFskGIUSAbhBgFskGIUSAbhBgFsqENxPgLiREmm2vfOavbtWO2YUIgaIydr01/w7phayEuidJYk4XUcvEMHkHL2NUzlqV8yo6n1vBKkw8ROMvbxv2Me3TXnsszmD/4cfoMfhz3vxbW33Yw6LHW33og6FDYfdeOv3ePZnKH8OrZFF4FylLe4sOvwas0l0F7PiVhjO7yUVlyMoPjP2ffmPrdM4Jbg5s8gfmZ/U/rPOPY1/L5tvQXPEKW4bPrcfoM/pBcwCN0GT47p+M+KE7nOQW3DHYVo8fYh+CNZ1mXZzm/LHknPyxOoexsCifeGqlP7cHcXZ9yvuhBji35O2W4MXf355R/O5pji/5OB72fSWAD9u2m3R9h7xH4z2mz9TcmAQvfoHSu7q2HpyexC2cRC/hPGIliGpQlv8lDr+n2GU56ezd88gbur+puIZ20Lo5OsE9VIBH77/R2f4S9hVMabEsaykfPA4qhlJ19ypiuK/M650NNtxy9QXmo+Y5rwa2BWPQWyAYhRoFsEGIUyAYhRoFsEGIUyAYhRoFsEGIUyAYhRoFsEGIUyAYhRoFsEGIUyAYhRoFsEGIUyAYhRoFsEGIUyAYhRoFsEGIUyAYhRoFsEGIUyAar7oHRdvOFrtoGT3hWmP0xUNfkDSyWy+uSmqljMctyeYXU8nXNp9urPbosRROlLJ6IJmzVmb03lmiyvDT7jUsomvjY9HcozD+avamlaxP1zLFKjF0VVdTWXLemiqADYGU8Iatt3Nb1Dkk2rBKj5loVtTeuWlNFIMDR8W5J5cSYUSAbhBgFskGIUSAbhBgFskGIUSAbZCbGKpKWh+E9sv61/iRAEeuN75uiiPUjEznRpN3NJJVbzBTIBBmG+B3GxtQXmG0WL3wwUfnx7dUgwU2izT1jTU0t3/9Y0dZfI+gEtKkYa2u1vPnOxzz9QmwrLTXogstVLDB25U10zScT67v7LWdMMsyHAs13/YKbSZt107W1Wt7YfIDsr4qsrFnAy8FhvAxY7LLLVSxYB+vz4+kDOtFtKaLkuQZllpSxMTVeV/dkIt7xsBHgZAYv+6ymZGvD6OSC9qZNxGi7EMHymNGE8gpUuYeZMPK/69PG9+Y8buZlwoLZY7DxYAAbx3+ge+/eG//4DSzw3sKemd1taJ+grbC7GFsnRImErabkuYaerf77zpeWAcMt13X3Z0++P+cPbsZ7ZAFP74on6sE2a6nACuw+ZvzxpwuNhNjL7R77fYF7b/zjU5tdpunz0Gj840/XjyVPZvByg9AJfWa+QMmuIHZ+2Yb/NAKrsLtnHNi/N5kpb9rbbD3u/uzZVYG3cVwJ/mu2sGemeZn1azYzYWSY7nPYIjaO18dNOJmI95LD+oJBJOaLsaNcUNTV1bW4nS09PZ38/Hz+PN1XbCETWE3F9YGsXLmSvDzzmCwNpSezKzCCWxkhRoFsEGIUyAYhRoFsEGIUyAYhRoFsEGIUyAarFr17+k5vq3YIOjEVp05JKic8o0A2CDEKZIMQo0A2yOIemBkzZnDu3Llmy/j6+vLZZ5/dpBapiHQOgAwN0f5q4oKXwvZUwr0A1MQF+xDhl4Em2v8mtefWQBZiPHfuHCqVqtky/v4384f3J1qjsZijivQhOaQYjU6ZAjsiCzF2FNRxwQSQIYTYRshuzOj52g9mr9ajJi7YGWdn/SvS4IFVRDpHolJFNp1nauZoJD7JIRQ37JrVcQQb6jtHotJ/X6TKtEiwiW1BU8jOM5a+NaBRmkKhICoqykaLXoSnaggHdMJcSpzaXz/+iyEgLQONJhrDODEyUEPjoWAGEREZKDM0mPlEdRzBS2G7Rp+uisQ58l9oXlLinKYi2t8fUHM0GWK3i/FlS3QIz3j77bfTv39/pk2bRlBQEDk5OdYZNXo/HyIyMjj3L0OGkgyj8vxZFhtA4Q9qCwYCiM2IpTAgmDjT7H+dIyMjAh+DZwyIgcIfUPsHooxJ03lW9VGSCWGq6NlbpEN4xm7durF+/Xqio6PRarWsWbOGQ4cOSTOoisR5ky/Feu+linQmzZaG9QsnNeMczj6RDNBEY/RzSsuz6mWxm9imgn4/JOP3UipCiy0jO8/YkG7duuHg4MCPP/7IiBEjeOCBByguLpZcX/1DIfgN0ItBRVqMaW4Mm4yuTsW2CAhpzoX5R1McW0hAcBxqgH6+BMRsMveWerymhlCYFsfRZD8CRQ8tCVl4Rl9f3yaXboqKipgxYwYAgwYNMqbPmDFD0rqjV/hLKJ0DcI4BUKJUmuYqCWEpzs4Zuk8ZGlqaKHuFbyc22QefYChONXhLZyL0+QGxxaSGe4HXVEIKdctAqS22UgAyEWNLorK0Dil93VG3Zhht/BxtljsgPBVNuKU6BvtehKeaysl0QgT4R+snQJYIaN7TCsyQhRg7JaptRBBCsdCiZGQ/Zux46Nc1AyAjNVxMXKygQ3hGS2NKX1/fVlo17YrtSYNuXCCZDiHGm7dBQtCeWNVNS3j4hEDQiGvXrkkqZ5VnvFp9jjrtDZsaJBC0hHVirDonnrUjsJo//GGgpHJiNi2QDUKMAtkgxCiQDUKMAtkgxCiQDTITY8NwbXIKsSYlZJygNchMjKALvRFPSX48JamjORzcVDzAtufEFlPx6ULGicgIbYe8w7W5DyVofBk/ycY7CtqSDhKuDQwh25IObq7vvs3Ctpl6MX14N7OQbSYhNiyGezO3v2B5GHPiYeeSMLyXqzgvKWScCAXXGmQYrs2Ekxm8zGhyjNGyDnOYLZTkd9eJITiPoNR4fSSsItaP3EySMbrWYeZ8uZqS/Dn6vA2sfzieKPfmwr2Z2EfXTX/xsKFrbiBmSzYePi1CwbUCGYZrM40dGERivr/uB9d/XmoIsdYwJBuDWbAmlaivqpg9U1/XGEVrMAvWDCOqtApoLtybif3maCpk3GwRCq41yDBcWwuxA+1BC+HebLeBCAXXCjpeuDYDjcK2FbFnLQQ9ZPBIh9l+sKpxnoRwb9Z/tzkiFJxtdLxwbQYshG17ele8iUcNIogP8B5Z0CBPQrg3PWMfDmLOkjB2jl9EzlaTqK1NhYzzzBCh4FpBJw3XVsT6kad5JH8OY9u7KQIRrk3Q8RBiFMiGDnFDlvUMJkqM1zocwjMKZIMQo0A2CDEKZIMQo0A2WDWBubvPGBQo2qotgk5KxbelkspZJcaut/e0qTGCWx1pYpR1N/3dd98RFRXFmDFjCA0N5cKFC+3dJEEbItt1xm+//ZawsDAuX77MXXfdRVRUFD17Cs/cmZGtZ/zggw+4fPkyd955J1u3buWBBx4w5lVU2Hgbg0DWyFKMdXV1pKXpYhIMHjzY7FneJ06cYNWqVTZY1T3EM9jS0+CbREWksyHAkJq4YNPQG/qHgopgQ3ZDlmIEcHR0BODrr79m0aJF/Prrr2RnZ7NixQqqqqpaqG0B9VGS/ZT4RWxDunz0zwO38ExRYwxBEczSbshyzKjVahk4cCAFBbq9iAUFBURERFBYWIhGoyE0NNRqm+qjyfgFphKIM2mqaFoTF1PEEGwbZOcZa2trSUhIYPTo0bi4uBjTT506hUajoU+fPoSHW/uQYrUxHot/oJKYNFPfKGIIygVZeUatVsu+ffu4du0a8+bNA3Resbi4GAcHB4KCgli8eDFubm4tWGqAahsRfoFoAPwDUQakoYr2r49yJWIIygLZeEatVktCQgJXr14lKCiITz75hL59+xIfH8/x48fJycnhlVdesWl5R5UWgzKwPkZgoDIGM+coYgjKAll4xpqaGj766COuX79OUFAQBw8epHfv3jz55JMoFK29/KgL0RYT40xMg/RoWwaOIoZgm9HunrGhEJOTk/Hy8rKTEAFVGjHKDDQajckrA6VZzD8RQ1AOtLsYExISuHHjBkFBQXz88cf069ePmTNn2keINOyiDfgTqMwg+ahBPYYYgs4466IJSYshSAQ+wXGovcJJzfAjwqc+yLpxPdNrKiGFESSHLENosXnatZuuqamhoKCAhQsXcuDAAXx9fY1BK+2Ff7TGogjq03XBp0UMwfanXT2jk5MTU6dOJTExkSFDhthdiLJAH0NQaLFl2n0CExgYSGBgYHs3ow1QExfsQ0SGkgyNiCEohXYXY/sjYgjKhXafwAgEBiSJsVevXvz8889t3RZBJ6W6ulpSOUlidHFx4eLFi61qkODWpbq6msuXL7dYTpIYvby8qK6u5sqVK61umODW47vvvpPkHSWPGSdPnoxKJXacCKzjypUr5OXlSdqDKlmMYWFhHD58WHL/LxAA7Nixg6KiIrRarVm6t7d3o7KSxejq6srcuXPZuXNn61souCU4efIkR44cQa1ufNG+VWIEXVetUCg4ePCg7S0U3BKUlpayYcMGjh8/bjE/MzOzUZqkJ9eaotFoePfdd6mqqkKpVOLq6mpbawWdlqSkJBISEsjOzrY46e3Vq5fFOzytFqOBvLw8tm3bxqhRoxg3bhzDhg2zxYygk3DhwgVyc3M5evQoX331FWfOnGk0TjTQlORsFiPoZkrp6ekkJSXZdseeoNPg5OREeXk5JSUlzS4BNie3VomxkTE77UEUdE5akppdr03X1dWZ3XAvEAAMGjSoRSGCnT2jKXPnzqWysrItTAs6CJZmzM3RZmIUCKxFbCETyAYhRoFsEGIUyAYhRoFs+H9d+9MCPTOeMwAAAABJRU5ErkJggg==;" parent="1" vertex="1">
          <mxGeometry x="-330" y="-38" width="163" height="168" as="geometry" />
        </mxCell>
        <mxCell id="uozOtIk-62IbuRWrD_Ta-8" style="edgeStyle=orthogonalEdgeStyle;rounded=0;orthogonalLoop=1;jettySize=auto;html=1;entryX=0.5;entryY=0;entryDx=0;entryDy=0;startArrow=diamondThin;startFill=0;" edge="1" parent="1" source="JfymsIh0gRfcHJ0PRg0S-5" target="JfymsIh0gRfcHJ0PRg0S-3">
          <mxGeometry relative="1" as="geometry">
            <Array as="points">
              <mxPoint x="-28" y="-60" />
              <mxPoint x="-478" y="-60" />
            </Array>
          </mxGeometry>
        </mxCell>
        <mxCell id="JfymsIh0gRfcHJ0PRg0S-5" value="" style="shape=image;verticalLabelPosition=bottom;labelBackgroundColor=default;verticalAlign=top;aspect=fixed;imageAspect=0;image=data:image/png,iVBORw0KGgoAAAANSUhEUgAAAKMAAADGCAYAAAC+VTBpAAAZ/UlEQVR4nO2de3hTVbqH31CsemQYKvdSwq10CloUEYabJ6AEaOsNqMNVHAo6BQGxCFQED6JoD2o9DwpWwWqrhQIWRjm1lsDQzCmIQk+HVi4yZajpDQ5TQEYYZvd2/kjSJM2lSZuYBV3v8+Qh2euy19798a21dr7vi6q+vr4eiUQA2vh7ABKJGSlGiTBIMUqEQYpRIgxSjBJhkGKUCIMUo0QYpBglwtDWWx2dO3eO8+fPe6s7yQ3ELbfcwsCBA1vcT4vEaDAYyMjI4ODBg7Rr146uXbu2eECSGw9FUTh58iT33nsvDz/8MGPHjm1WP6rmfh24bds2Dhw4wNQnHiViYF9uaaNQ/c+L5m5NL/M/xvcqle1xlfm9udx4EKsKlr4amlm3UVkVWerb9YOTflRO+sFJPyqrvmzGY3/c/notBSqbY/b3CZXK6jqt7o/D+6eybWt3b2z7Vzmor7Ibo/3fwfY6be9fPVBfD8V/LWbn559z9epVli9fzp133okneCzGc+fOsW7dOiIiIpgUNZTrl/5KfX2t3Y13dMNd13EmENsb/svXsRKnzR/LesyN/4iOr7f598ZVHW9dd8v+Dtb3Jv9/C9i4cSMLFixg6NChuIvHYly0aBGxv59J9/aXUa5dtFyAFKNNW0fX2/x7c2OJEZWKq1evkZCQwJIlSwgNDcUdPNpNb9u2jXsGRdCtXRXKtSpPmkpaGXfc8W8sW7aM+Ph4FEVxq43bYjQYDBw4cIDHJg6h+vrlZg9ScuNSWwdKNbg7map79iQmJoYhQ4YQGRnZZH23xbhlyxbmzJ7KPy+ddreJ5Cairl7F5Z/+QUlJCUp1PXVuCFKlUjF9+nTCw8PZt28fQUFBLuu7JUZFUTh27Bj9+3Shvq7WvdFLbhpqa+Hnq9fZsWMH69evJzc3l9o64w66Kdq2bcuQIUPo3Lkzly9fpk+fPk7ruiVGg8FgfIZY+7PbFyC5Oaitg7r6NnzyySfk5+cTEhLCBx98wNdf51BdU0ddnWtFqlQq+vbtS8eOHQEoKSlh/vz5Duu6JcZLly4RFBTkxqblBOsGTUMdMZWeEb8zvu5+jYwKd84iKkd5OWQod4bcT1CPIabXfbx8yN/j8j119Squ/VMhOTmZQ4cOMXXqVBYuXEhkZCQZGRnk5uq5/q/qJi1kp6DbuP322xs+JycnO6znlhgvXrxIUFAQdbXu7YoY9QcOF+2gNCcODcdY9sp+yt1rKS6a1RSW53OpPJ89cfBuzGBitjX9v6x06zP8uuszpJX+AmP0InV1Ki7/dJX09HQKCwuZO3cuFy5cYO3atdxzzz2MHz+ezMxM8vLyUKprXK4hAxyozJF19K2jRPAgHh4FHCzH4NMT/bKMXp3FhjGwf+l28lzWrODAlwd/oVF5l9r6AKqqqqisrGTevHlUVlaSm5vLrbfeyoYNG+jSpQujRo3iyJEjxvo1nu0lcnNz7Y75VowVhfz3QWDOEEY0HNvHzLsmEzJwEj0GPs7MzAumggtse/pRgsMfJTj8EYLn7aWsfC/TfxNN97mrmR4WRfewSLqFvcRWs5n9djPdQsfTNVRL19BxdE08Zjxe/hVT+z5Il98vZ2rfMXTpM4bOfZJNwjnHZ089QKfeo+nUazSdZu+hFKBsDzHqEXRUD6djz+HEZJxzcWHd6TMAII2cQwBHWd39Hjp0H0SHboPo0C2OtLIK0qaNZ9EBgIMsGjKQyekVwHes6hxO+87htO/0G9p3ihXSarZtU02vXr148cUXOX78OLt27eLxxx9vsIypqan069eP559/HoBbbvHMzeHcOfv76xsxHvyA4RG/o+eEb3h4705Kl95lPF6xj5naTbA2mbITu9kZC7mrN7GtAg69OY+leTA/7UsqTu2hYst4Qsz95fVm0emvqMx9jjHkE7/qa8rKv2barJ0w703OF+s4/9kTsHmpRZAAaHjrb7nkJw4DtrFh+znyXv8dz+vh2Yw8/v5jHn9Pe4SeZXt4YuQbsH43VYbDfPEHOLAskU9drC16hY60+nQ/r1Ye43JlIZePruEhDrL4o3JmZ+zl3bEAo3g3/wS7ZgYDw3jtwimuXDjFlYJ1jCOPhVu+89699xaqNvzrX/8iMzOT3Nxc5syZg3bcONq2DeC5555jxIgRfPrpp3z//feAeztray5ftn9W7RsxjvoDh4vW8AeOsWy8ZQNT9s1h9ID+5ThCBk7iiRSAAorLQN33PgDen/0owesLbfubO5SRAMGDeXQ0kFfGnw/+mVxg/ph7jHWGD2cBwA/lNBia3/SgJ9Czl/FxwoEzlfTqNwyAjdNG02nd/wJQmvcnDgAHlk+io3o4j30A8A1/dbG2+LH4EDCS/mrzkaOs7j6IDvevYT/AyVKcGzyTdRz8EvsATvwo3DKmpjaAc+fO8f333zNz5kyioiJpGwC3tIWAABUzZ87k7rvvJicnx1i/pqbF5/ThND2QVSmPAMdYtu24TUncx7soO7Gb8hN/pPzEH1k9DEKm/AcV+xcyBiDlJYLDU/DFhrXn1Le4cHAFYwE+XEynXhvRm8oWbv+GKsNhqkoPU1X6LWtHOOvlKHvfBwilbwiUbp1Ph+5zeXf+R1w+9xGLXJy/9LOnad95NhueTePK39NY7L1L8ypt29QQHBzM4sWL0Wg0tA2wfL0e0AbuDPo1M2bMIDY21li/bUCLz+nbNePQSN4cBXz8RzIqIKRnTwCSt+yjzFTlUKau4T3B49l6agtvjwYo4UdzwUdHjML8bg/xecC8ocwY9e+MAd7PNU3Lhw+zCRgbOYSeTY2rx8PsLPmc/9IAnAGMX+S/t+nLBmuWl/GlU8uW9+ozvAss+vx5RmOxkhtih0JZKScaagab1pYWSorzgNG8N3cYlFrXFQuVCm6/LYDOnTpx261tMDqKWWijgl+3b0fnzp24NbCtlaNE8/Gap7djOvHAhHvgYAHLXtnPAx8+RdnHbQiZs4nhAzcZq4x6lm9j4NCbj5mmbSPz09YyPWQvewDIZEpYprFg9BKOrrgHuJeMz8roNmsZXbeYGj39Nhm/64qr50h5r/87kz60fH52exKzhquY1Rs6TX2De9VvGAs0L3FsmlVD/asM6vGq6cNINny3kSdNi9rRsWt46P01LB46iMVjRvKQVbMH5q7loU0vs2jIQP74zj52zX2NcRtXsfC+cBaOHc0492/mL04bFbQJqDN9shdbQICKAEfPbZqJWy5kOTk5FBQUMOuRMGqrrzl2pfKFC1nFXmY8uIHcuYlUrhiEdCG7cVzIrO+Nfv+XLHvxtYbHQGYaS08GZEmEQYpRIgw+XjO2kB7j2fbDBBytVyQ3H9IySoRBilEiDFKMEmGQYpQIgw/EeIGMOCvn2rePQ8V+Zr19vOmmklaNl3fTJ1g3aC2kbKc02epBaoXMwSNpGq9axrJdX/DB71/mJadJBI7z2l2TCblrMiEDU43fN1fomDngMXoMeIzgN4ugfC8zwh8hOPxhgtcXeXN4EsHx+nNGTe/OLkrvYtXxXawCyna9yiffgbr0EOGpX5A+zPj1UVlmJgPS9rB1mEo+Xmxl/MIbmP9j2zNGyzh8dQGnSi8QMmUBoZsfo8eATzgEhMQsIPTDR3zmQiYRF6+KMWT4b2HNItYdcVxelvkhZ+btouz4Lg6/Oth0tDPTN39B+cn72f/0XsrowvQte6g4NZT9c/da3MskNz3enaaDH+TTr+HJiVMtPoVz1lA63fg2pGdPkudMJhnQjBqMaiKUZb7Cb1cXADDmtS3w+RqCVxk9sMesS7GEHkhuerz/3XTwg3xa9FAjt6S7+WwpoLqbsuO/bzhurPMflMdYuxytoSLG2l1J0lqQD70lwiDFKBEGKUaJMEgxSoRBilEiDFKMEmGQYpQIgxSjRBikGCXCIMUoEQYpRokwSDFKhEGKUSIMUowSYZBilAiDFKNEGKQYJcIgxSgRBilGiTB4FANTd3sY3FbXKNW4yuYfM/VOA1gc1zcectHGYZHj+ip369e7Pu6t8RiLVE5qObwRTvqqt3nfUMNpfff6t6+hcvLR+TlUth9t3tRym5N2tngkxttUVdTWXPekieQGwMPfE/K4j1tva+dWHx6JUblWRW31VU+aSCQEBPzarXpyzSgRBilGiTBIMUqEQYpRIgxSjBJhEEyMVWx/dja9B5tfb7G9wt9jMnOS1wfP5vWj/h7HzYtgYgQYxH9mpVFSkEZJ1lC+is7gsJ9Gcvgda/ENYGVBGivv99NgWgE+F2NNTS1//Vtl8xoH303UyDJ+FMY6SnyJT8VYW1vHK2/v5JkXkr3Q20leH5zB9t1vWabvCj1PDbZM6xYrZqx7+GiGZcp/56SlK5t2Zstr2/9Tz85mWhp8+PRsej+rp9zcp8s+bJcZckr3DJ/9dmBtbR1r3tpB3rcnm67sjKM6VjCUg8HmA1/xFe9QUtDRKIboI0RlpZEaDEYxvcX2rBeYGmysO+1/XqSkYJqp7A1efyCNlcF6nloHrxek0QPgaAa93zlJyfON+sc4Tf/pAfPU3EjMjvp44BgrQl+kZGOjXzyXuIVPxNgyIRayIno2KwCIIqNAY/yDmz7Pn2QUChWV6GdHm4QIMICnXs5i5bdVTJ1kavv8AKuyQawsrQIq0R/6ilGDP7KccmR3yuli278rKpz0MbU7mrQ3eKr3O6S604/EBq+LseUWcRD/2WDdfMTsFyl5vrH18nC8DvuA1AIN5bvfovfgQp7ZLDc8nuD1NePffjxvJ8RuXTp4+zQQ3B1NWpbVo5+TpK6FqN+aLdJXvL+7yr7Mrp03zm1Lj0kvULI5ig//pwVLlFaI1y1j/77dObDrFW93a0+whtTNlfRumNLhmc1pVhY1iig+pvfgwkZl9u00L79D6iT7Uwx/IIppT8/mw5FzObixi8tza15+h9SeOno//VXD+TMK5NrRE1T19fVNurPl5ORQUFDArEfCbhAXspO8PvgYDxZMY7i/hyKh8np/Fi9ezJEjtr/J0lh6Aj70lrRWpBglwuCz54z+ZQAr5XrthkNaRokwSDFKhEGKUSIMUowSYfBoA9M17BFfjUNyE1OZn+9WPWkZJcIgtBh/+OEHVq5cybBhw4iJieH8+fP+HpLEhwj7nPHUqVPMnj2bK1eu0L59e1auXEnXrl39PSyJDxHWMn788cdcuXKFX/3qV2zcuJH77ruvoayyshlhDIYUogMDCTS9EvQAehICE9B73JmehIY+JN5CSDHW19eTnZ0NwIABAwgPD28oO3z4MM8995xH/RlSogkMPc1yRUExvSLPpGBo9gg1JCoKiZpmdyBxgJBiBAgICADgu+++Y+7cufzjH/8gLy+PhQsXUlVV1URra/RsiotApyRirR1NbCxqr45Y0lKEFGNdXR39+/dv+FxYWEhcXBwLFizg559/RqvVut+ZPpuk+EhcGjF9QqPp24TDqR3spnebek0dN5AS7ahPiXBirK2tJT09naFDhxIUFNRwPD8/H0VR6NGjB7GxsW73ZzhThDasj4saSWizI43Tty6epPWm6duQQnRoJlOKzVO7DrTRpNjN7XoSbOqZLLAhhej58L55aaADbYIe9JuIi9A1LBfkVG9BKDHW1dWxdetWrl27xowZM5g8eXKDKDt27MiTTz7J1q1b6dKlS9OdmVD3i0B3+qyLGvHozIrQRBKvO81ZgLOn0cUvJ7ZhLtewIBky9zVSoz6bJJt6Js6eRqeLI9RsGbVJUHQGQ58wtElaou1V3eoR5tFOXV0d6enpXL16laioKD7//HN69erFCy+8gErlIj1xU/QJQ5uUjT5R43qqbiaGM0VApOPCeB2KA9OXpcQaN1WBOuJ10jqaEcIy1tTUkJaW1iDE3bt30717d5544omWCRFAHcvy+CS00da7ZwMpCU3spvuEoU1abzUt69kUB1PG2ZpA9bgpjeo5a994WFnGZUG2XDSa8bsYa2pq+Oyzz7h+/TpRUVFkZmaiVqu9I0QTmkSF4imZlikzcD4saGI3rY4lSxdBXKi5jRZ0WfbTsV0900bF7nigcWq22iwFarEsESSeBWQtXbrU6wNITU1FURQmTJjAzp076devH48//rjXzyPxH/n5+eIHZNXU1FBYWMiIESPYsWMH/fv3l0JsxfhVjG3btmXcuHFkZGRw11138eijj/pzOBI/4/fddGRkJJGRTnajklaF3zcwEokZKUaJMEgxSoRBaDFKT+/Whd83MM6Qnt6tD2Eto9c9vSXCI6QYve3pDbjwTfQHBlKiHbmjtW6EFCN409PbF2EHFvQJ/hb2zYOQa0azp3dhoTHrrNnTu6ioCEVRiImJ8aA352EHErEQzjJ629PbddiBMXwgJSWawEDTtOlGqECgyRTqEwLRJkGSNpDAaCsPcUchCNbeOgn7PL4vrQGhxOgLT293wg4yeR9FySIWJ6ECqInNMk/xxSQXGf0UNYkKuniI1ykoWbGonYUaGFKI1haRbA5NiDxNnK7Ft+umQ5hp2lee3up+Eeiyz4JT78V4lpudFM+eRqdLIjQwzlKsDcOABrU+wRg6YG7lqEtn7U0hDFnm+poFJGvnN/uablaEsIw+9fQ2hx24Wz/eEiylKCaLp08gcH0YxaZjunjP2nOmqGXX0Erwuxh97untSdiBk1ABw5kiiOhnMoR6spMaN3Td3hiaYPUfQr9JTtMO8LsY09PTqa6uJioqip07d9KnTx8mTZrktZAD8CDswEmogDp2OfFJWtOxbLCyjJrIeMsGxlmogTqW95OL0JrPnx1Gsgeh360Fv4Yd1NTUsGLFCubMmcPXX39NWFiYdLC9Cbkhwg6kp7fEGr/vpqWnt8SM39eMEokZKUaJMEgxSoRBilEiDEKLUYYdtC78vpt2hgw7aH0Iaxm9F3bgyqtaelyLhJBi9EnYgUR4hBQjeDfsQHJjIKQYvZpgvjHS41pYhBOj18MOrJEe10Ij1G66cdgBGK1icXExbdq0ISoqinnz5nkUdmCD9LgWGmHE6LME81a4TAYv8TtCTNM+DTuwQnpci43fxfhLJJhvQHpcC43fp+nGYQfeTzCvJjYry/IpNgvFZv8jg/lFQSaYlwiDDDuQCIPfp2kZdiAx4/cNjERiRopRIgxSjBJhEFqM0tO7deH3DYwzpKd360NYyygTzLc+hBSjLzy9DSnRFj9Gq+yzRowZbB2nzdOT4PeE9K0DIcUI3k8wH5o5pSG/oqIo6NA2EqQzNCQqCs39jXKZgN59hBSjVz29DSnMj4tAl2WbAk+TaEmHLBED4cTodU/vs6fROUwwr6ZfhI7MfVZqtAlJMJuzRlO4swTyDo47TEAvcYpQu2lfeHobE8wvcFjWJ8zawiahzdahKIkYBaglIbLR9GyVQF4NRvEm6FESISE0kynFisWLHCBRQUcg2Y37kThEGDH6K8F8RD81cBaIR9egGA0LkrXMP2PAxqQ6SyCvP01S/HIUZznsJW4hxDTtnwTzBvZlgstf5XCETCDvM/wuRr8lmI8OJS5iObEN1iyJ9Q27GT2b4mDKuEamzmUCebkZail+F6N/EsyHkjmlGMVmIRfPFOabyrWgy7ISqgkXCeRtj1s2NjYJ6L12RTcnfl0zmj2958yZw44dO3yaYN4+3MAaDYmKUZhNbtQ1iaZNTguPS+yQnt5Noc8mSRuGp0tLief4fTctrKe3IYXo0Dh0aEkuTnT6Y28S7+F3MQqLOpYs5/O6xAf4fQMjkZiRYpQIgxSjRBiEFqMMO2hdCLuBkWEHrQ9hLaP3wg4ceXEbSImWTq+iIaQYZYL51omQYgSZYL41IqQYfZpg3g7jlG12fDBO3bbHbGJlbLzBU2x/R8aZF7jELYQTo08TzDtCv4m4CIuPotGRR01sltln0SpWxlWCeisvcEVRUHSglYtSjxBqN+3zBPM2aE2OtWFok7REhxWTZe0zpk8gUJvU8DH+LICLBPXOvMDRyO+13UQYMfouwXwfwrRFnDGAxpEqTN9BG+OqdcTrFBJJIHB9GMWmWBd9QiDZuJGgPl7XyEdS4glCTNO+TTBvjAKM22S97ttEHFOwduRWx2ah6OJJytYbRRfRz2TR9GSbDKTLBPVOvMAl7uN3Mf4SCeaNMdJay8ZDiyWO2npDogVdogZ17HLik8z1syHe1JGrBPXOvMAlbqOqr6+vb6pSTk4OBQUFLF261OsDSE1NRVEUJkyY4KME875ET0JgNpFKooO4bImZ/Px8Fi9ezJEjR2yON5aeTDDfAgwp66UXuBeRYQceYUwCZZ6GQx2kTZE0H7/vpoUNO3CIKQmUv4dxk+L3DYxEYsYtMbZr146rV6/aLTglEne4du2aW/XcEmNQUBCXLl3y/m/5SVoFV65cobq6usl6bolRrVZTWlra4kFJWidlZWVueVq5PU2r1WpOnjzZ4oFJWh/5+fneEyPA5MmT+eKLL1o0KEnr4+jRo5w9e9Zu3dihQwe7um6LcezYsahUKvR66RYlcY+ff/6ZN954g2+++caurFu3bnbHPHq0s2TJEtLT07l48WLzRyhpNbz33nsUFBSgKIpdmaMln0dibNeuHUuWLCEhIYGjR482f5SSm5qLFy+yatUqdu3aRVlZmdvt3HKUcHSy9evX06FDB2bNmiVDSCUAxp800enYvHkz3377rdNNizPJNUuMZnJyckhLS+OOO+6gb9++UpStlOrqak6dOsXx48e5ePEif/nLX6ipqXFYt3fv3pw9e9ZhWYvEaKa4uJiJEydSV1fX0q4kNyB1dXVcuXKFn376yaUGOnTowKVLl5x3VO9FJk6cWA/Il3zZvSZOnNikfrxiGRszYMAATp065e1uJTcg4eHhbn9Z4hMxSiTNQbqQSYRBilEiDFKMEmGQYpQIw/8DRjDuEaU1VPEAAAAASUVORK5CYII=;" parent="1" vertex="1">
          <mxGeometry x="-110" y="-38" width="163" height="198" as="geometry" />
        </mxCell>
        <mxCell id="uozOtIk-62IbuRWrD_Ta-6" style="edgeStyle=orthogonalEdgeStyle;rounded=0;orthogonalLoop=1;jettySize=auto;html=1;exitX=0.5;exitY=0;exitDx=0;exitDy=0;endArrow=diamondThin;endFill=0;startArrow=classic;startFill=1;" edge="1" parent="1" source="JfymsIh0gRfcHJ0PRg0S-6" target="JfymsIh0gRfcHJ0PRg0S-3">
          <mxGeometry relative="1" as="geometry" />
        </mxCell>
        <mxCell id="JfymsIh0gRfcHJ0PRg0S-6" value="" style="shape=image;verticalLabelPosition=bottom;labelBackgroundColor=default;verticalAlign=top;aspect=fixed;imageAspect=0;image=data:image/png,iVBORw0KGgoAAAANSUhEUgAAAKMAAACPCAYAAACWAmvNAAATZUlEQVR4nO2de1SU1d7HPyNI9p5ueEFArooeydTMo3mrsZISUMvb8VakaL1KdpHMkG5qaeopfFfrSJiGgSKIoqsLGk0e4BXENOIV9ZBmSshNC+Uomg0w8/4xzDDDzMAMzDQPsD9rzeKZvX/79/yezXft/exnfntGplar1QgEEqCLowMQCLQIMQokgxCjQDIIMQokgxCjQDIIMQokgxCjQDIIMQokg7OtHFVWVnLp0iVbuRO0I7p27cq9997bZj9tEmNJSQkpKSnk5uZyxx130Lt37zYHJGh/KJVKioqKuP/++5k0aRKPPPJIq/zIWvtxYHJyMpmZmcyaOYXB9/alaxcltb9f0bpteGn/aI5lMsNymfZYW68pRM+g0ZeumX4bmV5Vo72RH8z4kZnxgxk/Mj1fBvEYlxtfb2OFzKDMuJ+QyfSuU69/TPafzLCtUd8Y+peZsJcZxWj8fzC8TsP+UwNqNZz76Rx79u7lxo0brFixgu7du2MNVouxsrKStWvXMnjwYKaGjODW1Z9Qq+uNOt5UhzdvY04ghh3+59voidPgn6Ufc9N/ounrbX3fNGdjq+tu2/9Bv2/yfyhg8+bNREREMGLECCzFajG++OKLhM+fh8dd1ShvXmm8ACFGg7amrrf1fdO+xIhMxo0bN4mKiuKVV14hICAAS7BqNZ2cnMzQIYNxv6MK5c0qa5oKOhl/+ct/8dprrxEZGYlSqbSojcViLCkpITMzkycnDqf2VnWrgxS0X+pVoKwFSydTH29vZsyYwfDhwwkODm7R3mIxbtu2jQVhs/j96llLmwg6ECq1jOr/XKe4uBhlrRqVBYKUyWTMmTOHgQMH8u233+Lq6tqsvUViVCqVnDhxgv7+bqhV9ZZFL+gw1NdDzY1bpKamsnHjRrKysqhXaVbQLeHs7Mzw4cPp1asX1dXV+Pv7m7W1SIwlJSWaZ4j1NRZfgKBjUK8ClboLn332Gfn5+Xh5ebFlyxa+/jqD2joVKlXzipTJZPTt25cePXoAUFxczJIlS0zaWiTGq1ev4urqasGi5d+sHTIbn8Gz8F78L8r0q44l4jVoOl6DpjEv7bIlpxU4GJVaxs3flcTFxXHkyBFmzZrF0qVLCQ4OJiUlhaysbG79UdviCNnTtRu333677n1cXJxJO4vEeOXKFVxdXVHVW7YqAiA3j8PljW/zDn9heVuBw1GpZFT/5wZJSUkUFhaycOFCfv31V9asWcPQoUN5/PHHSUtLIycnB2VtXbP3kE4mVGZqdLRPosTYocg5wVdHf2soOM2h7SAfO8wupxPYnnq1E1VVVVRUVLBo0SIqKirIysritttu46OPPsLNzY2xY8dy/PhxjX2ddWuJrKwsozL7iLH/KCaNhexvCjVT9bF8tgCBA7yNbcsVzAt8kj6BT+IZOIW5e7VT+GWSF07C46+hePw1BI/wDEq5xK7wibj3n4h7/ydwX3CQUk6wOiCI3gET6N1vAr37RZHUcH9wcfcK3PqOx81/PL385fTyf5he6wo0lWVfMtN3HD19x9LTdwwzUyrt0hXtFecutfj6+rJy5UpOnz7Nvn37eOqpp3QjY0JCAv369WPZsmUAdO1qXZpDZaVxf9sphaw3Dz0+VDdVa6boKTz6cBOzcgXzJmyG97ZRVvQ5e8Mh681YksvgyMZwXs2BJYnpVJw5QEX8E5RsmE9kDizZ+TWVP2VQuT0YL4byzjkFl859y6X/jeQRjrNsxwkoO8DylcfhuU1cvpDFD+tHNp637Ctmjt0AG/by2y+5fP48ZK7YwI5S+/RGu0TWhT/++IO0tDSysrJYsGABQRMm4OzsxMsvv8zo0aPZsWMHp06dAixbWetTXW38rNpu+Yx9Ro1umKoPcWg7sGA4Y5rYlOYdIQvIenMRfQKfZEY8wA+cKwOfvg8A8HFYKB4bCwHw6TtcU/b0RNw3FOp5OsHqgAn0fjiGTIAzZeTmZJMJRDyiuTXwHjcebS7JxZxMMoHM12fQ03csT34C8B3nLtq8G9otdfVOVFZWcurUKebNm0dISDDOTtDVGZycZMybN4/77ruPjIwMjX1dXZvPabN8RiM8hzBpLLyWkQfAfz80CMg3abo44XPeGqn/mSgwcg3lY75h7qMfkfVpFB6fTift7HtUjs1g9vj/IWvba7hvm0nMuvNERufDog+5tBJW93uVWAtDfGF3DqtH6X/+KtDi3KUOT09PXnrpJVxdXXF2auwfpy7Q3fVu5s6dy++//66xd3Zq8zntmOnds2GqPkE2U3hspLGFl7cfAHFbFWhnyCN7v9Ed0+dxks9s58NxAMUUlwOeE0n5KYGYcQDn+eLrfGAEm54ZCmVlFDU09fHVPFyNzdTcI17MydKMmoC3bz8ANsd+iXYwzE1pPBZociZu7+ZEr5496XZbFzSJYo10kcHdd91Br149uc3FWS9RovXYb2SkcarOXjCc0aYMRj5L2WfQZ/4/eTDwn5qycUs5NgOObJzUMG1rWLLzXfx2BOP+qX7Z+7zjfZA58k0sk09g2cMjdFMxoxaz/7lUpm5dhttW4OGRPAIaQY6K4LcUGT1nb2CY7waNvXwl/zfbttff3ukigy5OqoZ3xmJzcpLhZOq5TSuxKIUsIyODgoICnp48gPram6ZTqaSeQlZ2gL+P2wgbUkmd5SFSyOycQqbfN9mHvuC1le/pHgNpaSq9TrIh6xI7ozeSyUimjHN3dDACM9h1mnYsJ1jVd5neYmYkm3I+4Ok+DgxJ0CwdWIxDWXU+k1VNpyKBZOkk07SgPSDEKJAMQowCySDEKJAMdhDjr6QsnoX34L9rXh+ehvJDPP3hadufStChsPFq+t+sHbIG4ndzMU7vQWq5+A4eQcvYdGQs3fc5W+a/zRtmv0TgNO8NmobXoGl43ZvAETDMZ/zHSSj7hrkDJ+M5cBKeG0/aMjyBxLH5c0a5X69magfx5ul9vAmU7nuXz46Bz8UjDEz4nKSGrJ3StDQCE79k10iRRtPZ+JMXMJdJfl4zMo56q4AfL/6K1/QIArY+SZ/AzzgCeM2IIOCTyXgOjNeMnIJOg03F6DXqQVj1ImuPm64vTfuEnxfto/T0Po6+q90P04s5Wz+nrOhvHHruG0pxY862Lyn/cQSHFuqlkwk6PLadpj0fZcfX8MzEWeh2uyxYxcU5mkMvb2/iFkwjDs3mLNlEKE1bzYNvaXIOx7+3DfauwvPNHzTv18bjZdMABVLG9p9Nez7KjpOPNUlLuo+drwKy+yg9PV9XrrF5h7IZ+ilHqyifoZ+uJOgsiIfeAskgxCiQDEKMAskgxCiQDEKMAskgxCiQDEKMAskgxCiQDEKMAskgxCiQDEKMAskgxCiQDEKMAskgxCiQDEKMAskgxCiQDEKMAskgxCiQDEKMAslg1R4Y1e0DoJuqyVeNywz+aFGb3cBi2l5T1Ewbk1Wm7WWW2qubL7dVPJoqmRkrkx1hxpfa4FhnYdbeMv/GFjIzb82fQ2b41uCgnm5m2hlilRi7yaqor7tlTRNBO8DK3xOy2sdt3e6wyIdVYlTerKK+9oY1TQQCnJzutshO3DMKJIMQo0AyCDEKJIMQo0AyCDEKJIPExFjF7hfC8BumfX3A7nJHx6SliHXDwlj3vaPj6LhITIwAQ9iQnkhxQSLF6SM4EJrCUQdFcnSTvvgCiS5IJPpvDgqmE2B3MdbV1fPT+YrWNfa8j5AxpfwimdFRYE/sKsb6ehWrP9zD88vjbOCtiHXDUti9/4PG6bs8m2eHNU7rjaOYxvbo9ymNU/6mokZXBu20I6+h/2dfCGN2InzyXBh+L2RTpvXZrA/D2wwxpVuH3X47sL5exaoPUsn5rqhlY3N8r+B1RpDrqS04wAE2UVzQQyOG0OOEpCeS4AkaMX3A7vTlzPLU2M4+vJLigtkNde+z7qFEoj2zeXYtrCtIpA/A9yn4bSqieFkT/2im6X89pJ2am4jZlI+HTvB6wEqKNwe2/po7MXYRY9uEWMjroWG8DkAIKQVyGn8INYQlUzVCobyC7LDQBiECBPLs2+lEf1fFrKkNbZcF6tUNIfpiFVBB9pEDjB2m9yvqYzwow83Qf3OUm/ExywN54vs867eJBEv8CAywuRjbPiIOYYNudLMTYSspXtZ09LIyXpM+IKFATtn+D/AbVsjzW8WCxxpsfs94/pdLRkJ0d7vH1qcBTw/kiel6j36KSFgDIQ9qR6QDfLy/yrjOqJ0tzm1In6nLKd4awieH23CL0gmx+cjYv68HmftW29qtMZ5yErZW4Keb0uH5rYl6I2oIIWzHb1hhkzrjdvK3N5Ew1fgUox4KYfZzYXwyZiG5m92aPbf87U0keCvwe+6A7vwpBeLe0RpkarW6xXS2jIwMCgoKeHrygHaSQlbEumEneLRgNqMcHYqAilv9eemllzh+3PA3WZpKT4IPvQWdFSFGgWSw23NGxxJItLhfa3eIkVEgGYQYBZJBiFEgGYQYBZLBqgVM7wGT7RWHoANTkZ9vkZ0YGQWSQdJiPHPmDNHR0YwcOZIZM2Zw6dIlR4cksCOSfc74448/EhYWxrVr17jrrruIjo6md+/ejg5LYEckOzJu376da9euceedd7J582YeeOABXV1FRSu2MZTEE+rigkvDKyrbhsEKbIIkxahWqzl48CAAgYGBDBw4UFd39OhRXn75Zav8lcSH4hJwlhVKJcqGV/DP8ZS0IcbsqLYL2hY+OhKSFCOAk5MTAMeOHWPhwoVcv36dnJwcli5dSlVVVQut9ckmdvFgFMr1yPVK5eHh+Ng0YkFbkaQYVSoV/fv3170vLCxk8eLFREREUFNTQ1BQkOXOsg8SExlsIEQDzE7f2US5RJGdHWVUlx3lQlAMxAS54BLaMMIa+IkiuzU+OjmSE2N9fT1JSUmMGDECV1dXXXl+fj5KpZI+ffoQHh5usb+Sn08SNMDfTGU8oQFpTD+nnb4VEBRKvE4ZMQQdDNbUKSKJ2agRjXy9EkUkRCqUKNPD8SmJJ3QJfKy9DVBAkE7VFvpoRV91NCQlRpVKxa5du7h58yZz585l2rRpOlH26NGDZ555hl27duHm5tayswZ8+g1GcfaC6coLZ1FEriBcpwQ5EXGQ9q1WjZEo1jeMqfJgIhVnMenpwlkUisUEaEfGoBg4+XPDaGehD4F0Hu2oVCqSkpK4ceMGISEh7N27F19fX5YvX45M1szXE7eE/wCCYg6SvV5ufqq2BZEKlOubnkGsTqxBEiNjXV0diYmJOiHu378fDw8PZs6c2TYhAviEsyIyhiCD+7IS4qPiKfEfQFDMRr1pOZvYxTB9gpWTppEfQWtwuBjr6urYuXMnt27dIiQkhLS0NHx8fGwjxAbk65Wcm57WOI26LIGIcHx8wklXDGZxgLY8CBTpetN2Mz6DIxsXH0Z+XAi1QJkGPmxwne0dqzZkvfrqqzYPICEhAaVSyRNPPMGePXvo168fTz31lM3PI3Ac+fn50t+QVVdXR2FhIaNHjyY1NZX+/fsLIXZiHCpGZ2dnJkyYQEpKCoMGDWLKlCmODEfgYBy+mg4ODiY4ONjRYQgkgMMXMAKBFiFGgWQQYhRIBkmLUWR6dy4cvoAxh8j07nxIdmS0eaa3QPJIUoy2zfQuIT608WM6y7ccNOQiWhW5oC1IUoxgy0xvgCDitDmL5+I4GSREJkUkKUabZno3xWcC04NO8rPITJAckhOjrTO9jSj5ljSmo8sSs3TXoMltBQJbIikx2iPTW4OiMb1rCXysTfNvcdtBA81uKxDYCsmI0Vymd2JiInl5eeTm5vLGG2+08vGO9p5RQaQiDd2ugha3HejZmd1WILAVkhCjXTO9DZCzXjGYxbGtGNUiFbo910ql2ERlDxwuxj8j09sAeQRxJ4M094aWbjsQ2wr+FBwuxqSkJGprawkJCWHPnj34+/szdepU+wgRAB/CV0QSExRFtqXbDlq5rUBgHQ79OFCb6b1gwQJSU1MZMGCAHRJsfQhPTzcskq9HqdQ/Xm+inZz1SnmTNqbsBLZCZHoLJIPDEyVEprdAi8PvGQUCLUKMAslgkRjd3d25fPmyvWMRdFCuXLlikZ1FYnR1deXq1attCkjQebly5QrXrl1r0c7ikbGmpoaampo2BybofFy4cIHq6uoW7SwSo4uLC0OHDiXfwt/zEAi0KJVK8vLyLMpBtXgBs2jRIpKSklDqnhYLBC2TlJTE+fPnqaurMyj38/MzsrVYjO7u7kybNo0tW7a0PUJBp6CoqIjU1FTOnDljVNcmMQJMnjyZy5cvk9704zWBoAkXL15k1apV5ObmmqzPzMw0KrPoK/H0qampITY2lqqqKiIjI+nevXvrohV0WHbv3k1SUhI5OTkmF73u7u4md3haLUYtx48fJzY2lscee4wxY8bg7e3dGjeCDkJNTQ15eXkcOHCAw4cPc+rUKVQqlUlbc5JrtRi1AaSkpPDVV19x/fr11roRdACcnJyorq7mzJkzzT5TnD17NsnJyaYr1TZi/vz5akC8xMvsqyXaNDKawsPDg8rKSlu6FLRzzN0jNsXmiRIVFRWo1WrGjx/PPffcY2v3gnaCu7s7EydORK1WW/x1NDYfGQWC1iJSyASSQYhRIBmEGAWSQYhRIBn+H/3ucatXpgb7AAAAAElFTkSuQmCC;" parent="1" vertex="1">
          <mxGeometry x="-560" y="210" width="163" height="143" as="geometry" />
        </mxCell>
        <mxCell id="uozOtIk-62IbuRWrD_Ta-11" style="edgeStyle=orthogonalEdgeStyle;rounded=0;orthogonalLoop=1;jettySize=auto;html=1;startArrow=diamondThin;startFill=0;" edge="1" parent="1" source="JfymsIh0gRfcHJ0PRg0S-7" target="JfymsIh0gRfcHJ0PRg0S-6">
          <mxGeometry relative="1" as="geometry" />
        </mxCell>
        <mxCell id="JfymsIh0gRfcHJ0PRg0S-7" value="" style="shape=image;verticalLabelPosition=bottom;labelBackgroundColor=default;verticalAlign=top;aspect=fixed;imageAspect=0;image=data:image/png,iVBORw0KGgoAAAANSUhEUgAAAKMAAACPCAYAAACWAmvNAAAVMklEQVR4nO2de1yUZdrHvyOI9m6boamcBUXWE5qxmqfesRVSQMtjnsoDWCGlJXnedMnSWrbVd90V8RAKiiCKbm8hGrgyJWqa8QoaWZo0HNUPSoquO8LM+8cwMAMzMAODPMD9/XzmI3Pf133d1/PMz+t57meuG2QajUaDQCAB2jV3AAKBDiFGgWQQYhRIBiFGgWQQYhRIBiFGgWQQYhRIBiFGgWSwtZaj4uJirl+/bi13ghZE+/bt6devX6P9NEqMSqWShIQEMjIyePzxx+nevXujAxK0PFQqFTk5OTz99NOMHz+e559/vkF+ZA39OjA+Pp4TJ04wfdqLePfrSft2Kh7++5bObeVL94/2Z5nMsF2m+1nXr21Ez6DaV9Uw/TEyva5q+1p+MOFHZsIPJvzI9HwZxFO7vfbxVnfIDNpqnydkMr3j1Ds/Rs+fzHBsrXNj6F9mxF5WK8ban4PhcRqePw2g0cCVn65w4OBB7t27x/Lly+ncuTOWYLEYi4uLWb9+Pd7e3kwKGMKD2z+h0VTUOvHGTnjdNqYEYnjCH72NnjgNPiz9mGt+iMaPt+Hnpi4bax134z4H/XNz/rtMtmzZQmhoKEOGDMFcLBbjokWLCJo3G8cnSlHdv1V9AEKMBmONHW/Dz03LEiMyGffu3WflypW88847eHp6Yg4Wrabj4+MZNNAbh8dLUN0vsWSooI3xm9/8F8uWLSMsLAyVSmXWGLPFqFQqOXHiBC+N8+Hhg9IGBylouVSoQfUQzL2Yurm6MnXqVHx8fPD396/X3mwx7ty5k/lzpvPv2z+aO0TQilBrZJT+epfc3FxUDzWozRCkTCZj5syZ9OnTh7S0NOzt7eu0N0uMKpWKCxcu0NujGxp1hXnRC1oNFRVQdu8BiYmJREREkJ6eToVau4KuD1tbW3x8fOjatSulpaV4eHiYtDVLjEqlUvsMsaLM7AMQtA4q1KDWtGP37t2cP38eFxcXtm3bxtGjx3hYrkatrluRMpmMnj170qVLFwByc3NZuHChUVuzHnrfvn0be3t7MxYt37N+4Dq2GbQN4i9frmGGkzkzNRff8Se3t9hSo/WtxLOsG9EsAUkCtUbG/X+r2L17N6dOnSI4OJjBgwdz+PBhEhIS6NChA6NGjeKxjh30H6PW4in7jjz22GNV76Oioti6dWstO7My461bt7C3t0ddYd6qiJFvcCY7kbxjIci5wLL3j1Ng3shHQt7+d3nKPYy9+TU65Kv4P+UZSvLO8Nkb8I+XhzItvqh+f/sW8qTjQmJr+mvBqNUySn+9R1xcHFlZWQQHB3Pz5k3WrVvHoEGDeOGFF0hKSuLkyZOoHpbXeQ9pY0RlxrJj0xZKOA1k/EggowBlk05kCcUojpyt12rUe5/xNzkcX3aAjDotizjx+SlrBScZKjQ2lJSUUFRUxIIFCygqKiI9PZ0OHTqwefNmunXrxsiRIzl37pzWvtyytUR6enqttqYVY2EWX2QA830YXtWWxuz+k3HpNwnnfhOZnXSzyjw/KRynPi/i1GcCTn3G4/S78ThGZME3n+LoFcDMA5WFGN/sxKH3WGYk3tC+L0hhhqcv3Xv50r3XGKYn6go2rhM3bzTdPEbT1UNO17lbCZ/7MksUAGd5Z+QopiUUmwjegZ59APZw7BTAedY6+2Dv7IO98zPYO73JnvxCYmf5szgd4BSLhwxkyr5C4BxrHLzp1H0Anbr3p1P314nNs9pZfSTYtntIjx49WLVqFZcuXeLQoUNMnDixKjPGxMTQq1cvlixZAkD79paVORQX1z7vTSPGjG0M834Z17GnGf/lAfLe7a9tL0xjtl8krIsi//vDHAiC9DWRxBcChaksf+87CFpP4Q+fc/bDZ8ybqyCFGfKNsGEv16+mcfg1OLFqI3EFkPHRDJZ8BaHx6dy8puBmzELCYxLZJAcYyv9knOTADAeTrt08h+u982FdwXluF5zn9jdrGcMpFu8qZM6+FDaPBhjB5nNZJM1yAobwQXE2v16/yK/n1zGGDBZ9Wn82lhSydvznP/8hKSmJ9PR05s+fj5+vL7a2Nrz99tsMHz6cPXv2cPHiRcC8lbU+paW1n1U3jRhHvsGZ7HDe4ALLXviQhEJtc/7pMygAxdoQXPpNYlo0QCZX8iH/9CnSgYWjvQFwGT6K0WZMlZ/xFSeAE6tfoXsvXybtADjHT3ng1lP7vWjkzNF03ZBp8WEor5wGhtPbTdfyrTY7PruO4wA5eZhOeOdY030AnXzWmmErPcorbCguLubixYvMnj2bgAB/bG2gvS3Y2MiYPXs2AwYM4NixY1r78vJGz9mEl+l+vBc9AbjAsvhLBj0huw6R//1hCr7/JwXf/5M1Qxs/W+jeNK5fTeP61ePcuPovwoeB6/QIbny9jOcBdrxDV4+tnDTb43cc2wbgSU8XyItfhL3zG/w9ZBu3C7azqI6ReftCeNIhiM2h0fx6fReLG3dozYJtu3KcnJxYvHgxcrkcW5vqr9dt2kFn+07MmjWLoKAgrb2tTaPnbNp7xiH+/GUksOufJBSCi6srAFE709AtPE8lpZIPuLj2AGBrejYA+adPUnWL6+LCaCD9Z+29YP4v16qmcHHrCUDk9iNVPjMSj1RnIedA9l/bz6b/BrhKboED7r+rP/STHy7kH8BbiYsZCSivarPk5vm/h/x8vq+ydKRnX8Oxv/yUAYzk78FDIT8Pw/+KLQOZDB7raEPXp56iY4d2aAvFqmkng05PPE7Xrk/Rwc5Wr1Ci4TTxtoOneG7sICCTZe8fJ3/oXPJ3TYSMSIZVLmCmHa00HTqPg0FA9B9x6jOBoUepvkw7j2VRMPDpChy8xrE0RW+KYa9xfe80+GojPpULmEmV/RkfPU+3nqPp5jGdJV/Bm/Gf8IozjJq7gueNLWAUH/G02zC6uA7jpW3D+duZ6ueMI+etYQynWfysD/Yr0gyOclRQuPYesnIBMyr4fe19os8AOi09Zu2T+shoJwNbGzVg/IbQxkaGXfvGZ0QdZpWQHTt2jMzMTF6Z4EXFw/vGS6msXUJWkMqsMZtJD/6IouWDRAmZSRtplpDpnxvF8f9l2aoPqx4D6agpPbEhSyAZhBgFksFquwOtjvML7Lv8QvUlRNDqEZlRIBmEGAWSQYhRIBmEGAWSoQnEeJOEkOm4er+sff31EhQe55W/tsTvIQSPEiuvprWV3kTvJy9K70FqofgdPIL6sWpmzD/0GdvmreWPJn+JwCU+7D8Zl/6TcekXwymAwlRm930J574v4fSXbCj4klm6esaIbGuGJ5A4Vn/OKHfvWkdvf967dIj3gPxDH7D7LLjlnaJPzGfEDdV+fZSflETf2M/ZN1T3dZOgrfCIFzA3iH9dmxmHrcnkh7ybuEwJxXPHSzj33c0pwGVqKJ7bJ+DUJ5rWV8wvqAuritFl2LMQvoj154z35ydt5+qCQ+RfOsSZDwZXtnZl5o7PKMj5Pcdf+5J8ujFz5+cU/jCE48Ff0or2OAnqwbqXaac/sOcovDpuOq66tvnh5M3U/uji6krU/MlEAfKRg5GNg/yk93l2jbYKe/SHO+FgOE7vfad9vz4aF6sGKJAy1v9u2ukP7MkeU6MsaQB73wVkA8i/NK+qXWvzJwqm6pcchVM4Vb9cSdBWEA+9BZJBiFEgGYQYBZJBiFEgGYQYBZJBiFEgGYQYBZJBiFEgGYQYBZJBiFEgGYQYBZJBiFEgGYQYBZJBiFEgGYQYBZJBiFEgGYQYBZJBiFEgGYQYBZLBoj0w6se8oKO6xm94lhn8o0NjcgOLcXttUx1jjHYZt5eZa6+pu91a8Wi7ZCasjJ4IE740Bj9XWZi0N89/bQuZibem55AZvjX4oYKOJsYZYpEYO8pKqCh/YMkQQQvAwr8nZLGPDh0fN8uHRWJU3S+h4uE9S4YIBNjYdDLLTtwzCiSDEKNAMggxCiSDEKNAMggxCiSDxMRYwv435+A+WPf6hP2FzR2Tjhw2DJ7Dhm+bO47Wi8TECDCQPyfHkpsZS27yEI4EJnCmmSI5s0lffH1ZnRnL6t83UzBtgCYXY3l5BT/9XNSwwU4DCBiRzy+SyY6CpqRJxVhRoeb9vx7g9aVRVvCWw4bBCew//En15btQwdzB1Zf16iymtT3zbUL1JX9TTrUrg3G6zGvof+6bc5gRC9tfm4P7mwoKdD7r9GF4myEu6ZbRZH87sKJCTfgniZz8Jqd+Y1N8m8oKhpDhpGs4whE2kZvZRSuGwHMEJMcS4wRaMX3C/uSlTHfS2s74ehW5mTMq+z5iw3OxrHZSMHc9bMiMxRng2wTcN+WQu6SGf7SX6X89p7s01xCzMR/PXWCF5ypyt9T4a+gCs2gSMTZOiFmsCJzDCgACSMiUaz/wyvcLJ2mFQmERijmBlUIE6Mvctcms/qaE6ZMqxy7pq9c3kNV5JUARilNHGDn40+opRzhSQDdD/3VRaMLHdEfksR8x130TMeb4ERhgdTE2PiMO5M9V2a2JmLOK3CU1s5eF8Rr1ATGZcgoOf4L74Cxe3yEWPJZg9XvGn3+5XkuIDt2etPY04OSIPDZZ79FPDjHrIOBZXUY6wtbDJbX7ao2zxtyGOE9aSu6OALZ/3YhblDaI1TNj756OnDj0vrXd1sZJTsyOItyrLunw+o5YvYwaQAC7cB+cVaOv9jj52k3ETKo9xbDnApjx2hy2jwgmY0u3OueWr91EjGsq7q8dqZo/IVPcO1qCTKPR1FvOduzYMTIzM3llglcLKSHLYcPgC/whcwbDmjsUAUUPerN48WLOnTP8myw1pSfBh96CtooQo0AyNNlzxualL6vF/VqLQ2RGgWQQYhRIBiFGgWQQYhRIBosWMN29JjRVHIJWTNH582bZicwokAySFuPly5dZvXo1Q4cOZerUqVy/fr25QxI0IZJ9zvjDDz8wZ84c7ty5wxNPPMHq1avp3r17c4claEIkmxl37drFnTt3+O1vf8uWLVt45plnqvqKiizZxqAkOtAOu5UKo72KlXbYBUajbGS8gsYjSTFqNBpSUlIA6Nu3L3369KnqO3PmDG+//bblTjdGEF1TccpoIrL98GtErALrIUkxAtjY2ABw9uxZgoODuXv3LidPnuStt96ipKSkntE18SMsDJLSDNWoTEvCe8oUK0UsaCySFKNaraZ3795V77OysggJCSE0NJSysjL8/CzPZV6hy/FOStO7HCuIDPHGv9ePpOobKqMJtLPDzs4OO7uVaC/ulZf6ynbtFb/+NoNbA8VKvfZoogMDqzO12XO2biQnxoqKCuLi4hgyZAj29vZV7efPn0elUuHs7ExQUFADPMvx9w4hUvehKlLIjgpFrm+ijCZwIWxVqVCpVKhSwW+lAhSRhHinattUKj6WY7wNN4KSK8eqrhCVXXlroIwm0C+bqCuVff4/EpLagDlbOZISo1qtZt++fdy/f59Zs2YxefLkKlF26dKFV199lX379tGtW7f6nRlBHhpFdooCUBIdkc0UXzdDg2s/kpoagqcuS/lthOyrKD288NvoR6D+TaexNtDLgJ6EpKby47VKv2HLCdJNJw8lyq8Bc7ZyJPNoR61WExcXx7179wgICODgwYP06NGDpUuXIpPV8euJLcHNlynZC4lWTCHJeznJbsC1GjZhqaiMpKFkVRDK6EDs7FIJS1XxsTyodhsrsYvw4opKhRvalXoKoLyaDfibjsvsORtx7C0ASWTG8vJyYmNjq4R4+PBhHB0dmTZtmvWECIAbvlMgxC8Eb38jn6yHF37GVt260UHJqFLD2JiiMNqmvJoN3r3QJkAFKRsrbXyn4LcxhapRisjqy3QD5mytNLsYy8vL2bt3Lw8ePCAgIICkpCTc3NyaQIha3IKWE+YXRaixLOMWRHKqNyGe1QuHwGil4eLDD1I/lhttcwtaTthGv8r2FAir9rs1Khs/nX2KV/Vl2pI5WzkWbch69913rR5ATEwMKpWKsWPHcuDAAXr16sXEiROtPo+0ULDSLgV/1ce0folpF5+S35BVXl5OVlYWw4cPJzExkd69e7cBIYIyOoKNfl54NHcgEqNZxWhra4uvry8JCQn079+fF198sTnDaUIUrLSrvgx7hniTmhyEW/0D2xTNvpr29/fH37+OlWarQM7HKhUfN3cYEqfZFzACgQ4hRoFkEGIUSAZJi1FUerctmn0BYwpR6d32kGxmtF6lt6ClIEkxWrfSu6m2HSgNaxKNe2elQX2iKXtzfLV+JClGsHalN2LbQQtAkmK0fqW32HbQEpCcGJuq0rth2w5qlPsbbB1IM5zA6NaBOqjLVxtFUmJs2kpvM7cdeCYxRbc9QJUKfoEN3zpgirp8tWEk82jnUVR6y0OjiIhUgNxDu+1gq5thpXfl9oDkqgoGOaFRESxMUxLUq0afPJQov4XV41I34mkXUu3LzwslvYwHUnMefV9tGElkxkdW6e3my5TsCKIVaSR56+1JMQPt1oE6CKvePKVSqVDVUZVTr682SrOL8dFWelu67UBBZAhM8XVr1NaBWlHU5asN0+xijIuL4+HDhwQEBHDgwAE8PDyYNGlSk2w5AEu3HfhBarI2gzZk64DpIEz7asM067aD8vJyVqxYwfz58zl69CheXl6tuMC27dIith20nUpvgTk0+2q6bVR6C8yh2e8ZBQIdQowCyWCWGB0cHLhx40ZTxyJopdy6dcssO7PEaG9vz+3btxsVkKDtcuvWLe7cuVOvndmZsaysjLKyskYHJmh7XLt2jdLS0nrtzBKjnZ0dgwYN4ryZf89DINChUqk4ffq0WTWoZi9gFixYQFxcHCqVqlHBCdoWcXFx/Pzzz5SXlxu0u7u717I1W4wODg5MnjyZbdu2NT5CQZsgJyeHxMRELl++XKuvUWIEmDBhAjdu3CA5ObnhEQraBHl5eYSHh5ORkWG0/8SJE7XazPpuWp+ysjIiIyMpKSkhLCyMzp07NyxaQatl//79xMXFcfLkSaOLXgcHB6M7PC0Wo45z584RGRnJmDFjGDFiBK6urg1xI2gllJWVcfr0aY4cOcLXX3/NxYsXUavVRm1NSa7BYtQFkJCQwBdffMHdu3cb6kbQCrCxsaG0tJTLly/X+UxxxowZxMfHG+/UWIl58+ZpAPESL5Ov+mhUZjSGo6MjxcXF1nQpaOGYukesidULJYqKitBoNIwePZonn3zS2u4FLQQHBwfGjRuHRqMx+9fRWD0zCgQNRZSQCSSDEKNAMggxCiSDEKNAMvw/cqqVUgz1pcAAAAAASUVORK5CYII=;" parent="1" vertex="1">
          <mxGeometry x="-320" y="210" width="163" height="143" as="geometry" />
        </mxCell>
        <mxCell id="uozOtIk-62IbuRWrD_Ta-9" style="edgeStyle=orthogonalEdgeStyle;rounded=0;orthogonalLoop=1;jettySize=auto;html=1;entryX=0.564;entryY=0.995;entryDx=0;entryDy=0;entryPerimeter=0;endArrow=diamondThin;endFill=0;startArrow=classic;startFill=1;" edge="1" parent="1" source="JfymsIh0gRfcHJ0PRg0S-8" target="JfymsIh0gRfcHJ0PRg0S-5">
          <mxGeometry relative="1" as="geometry" />
        </mxCell>
        <mxCell id="JfymsIh0gRfcHJ0PRg0S-8" value="" style="shape=image;verticalLabelPosition=bottom;labelBackgroundColor=default;verticalAlign=top;aspect=fixed;imageAspect=0;image=data:image/png,iVBORw0KGgoAAAANSUhEUgAAAKMAAACiCAYAAAAtMH0lAAAVvUlEQVR4nO2de1iUZd7HPyNI9q7bhqYiIkoiCyq25loethe3nAwwU7E8FSVmoWu1oSHaYdtMc03x2r3WRG1JSBQP4Pbui2hjK/OuoJsal6BLGa3syMm8SDNRexjg/WPOzAxzYGAe4P5c11wMz/O7f/fveZ7vdZ/md88ompubmxEIZEAPbwcgEBgQYhTIBiFGgWwQYhTIBiFGgWwQYhTIBiFGgWwQYhTIBl9POaqtreXy5cuecifoRPTs2ZMRI0a02U+bxKjRaMjOzqawsJDevXszYMCANgck6HxIkkRZWRm/+MUvmDZtGr/+9a/d8qNw9+PAPXv2cOzYMeY8OZ3IEffSs4dEw63vDG71L8Mf3XuFwvK4wvDecF53EDMDky9jMfMyCrNTJnsrP9jxo7DjBzt+FGa+LOKxPm59vaYTCotj1vcJhcLsOs3uj837p7Asa3VvLP0rbNgrrGK0fg6W12l5/5qB5mYo/7qc/QcOUF9fT3JyMn369MEVXBZjbW0ta9euJTIykpkx47h99WuamxutbrytG966jT2BWN7wjrcxE6fFwzKPueVDtH297t+b1mw8dd1tew7m9+bMF8Vs2bKFpUuXMm7cOJzFZTG+9NJLJDy3gIF3XUO6+Z3pAoQYLcraul73703nEiMKBfX1N0lJSeG3v/0toaGhOINLs+k9e/Zw3+hIAnrXId2sc6WooJvxk5/8F6+99hpJSUlIkuRUGafFqNFoOHbsGE88NpaG29fcDlLQeWlsAqkBnO1MgwcPZvbs2YwdO5bo6GiH9k6L8cMPP2Rh/BxuXb3gbBFBF6KpWcG173+goqICqaGZJicEqVAomDdvHuHh4Rw9ehR/f/9W7Z0SoyRJnD17luEh/WluanQuekGXobERbtTfZt++fWzYsIGCggIam3QzaEf4+voyduxY+vXrx7Vr1wgJCbFr65QYNRqNbg2x8YbTFyDoGjQ2QVNzD3bu3MmZM2cICgpi27ZtHD58hAZtE01NrStSoVBw77330rdvXwAqKipYsmSJTVunxHj16lX8/f0dT1qq/84zo+cSnPh3qowHz/PuqNkMfvEzKp2pTCAbmpoV3LwlkZaWRlFREXPmzGHZsmVER0eTnZ1NQYGa2z82OGwh7/HvxZ133mn8Py0tzaadU2L87rvv8Pf3p6nRuVmRoPPT1KTg2vf1ZGVlUVJSwqJFi7hy5QrvvPMO9913H48++ig5OTkcP34cqUHb6hjSx4bKbLWOIlFCYJPGZh/q6uqoqanh+eefp6amhoKCAu644w7+9Kc/0b9/fyZNmsSpU6d09lrX5hIFBQVWx7wgxm/Z88IsgkbMZNCIGQxarKKSc6yJeILAiOkEhk8nMPx37NH385UH3mTgz2MYGBbDwLBoAsIeI+APZ3Unq/KZG/ooA0KVDAidwtx9tR1/OV0U3x4NDBkyhFWrVnH+/Hlyc3OZMWOGsWXMyMhg2LBhvPrqqwD07OlamkNtrfWz6nAxFm1M5LVCSNx5kKp//ZWqHUqCGMWbZZ9QXfY/VH+2jMl8wfKsUqj6lNde/wIWrafmwiFOrR1rclR1mLmTN8O6XVwuV3HweTi26o/srrJft8AFFD348ccfycnJoaCggIULF6KcMgVfXx9eeeUVJkyYwMcff8y5c+cA52bW5ly7Zr1W3eFiDA4ZA0DaczMZtPGc2ZlzrImYTuAjf6YA4EINRSeOUwAsiRoNQNCkXzFZb11Z+H8UAAWrn2ZAqJKZHwKc4utLHXUlXRttow+1tbWcO3eOBQsWEBMTja8P9PQFHx8FCxYsYNSoURw5ckRnr9W2uU6P5TMCEBhAOKA2P1Zdy5cAYQEEAcS9SeWEoyxQfoA6/Q0Gpc9k47v/YcUbX0DCWqqTYU3462x1ssoluz7l7fHmn5sKPIFvDy2BgYG8/PLL+Pv74+tjur0+PaCP/8+YP38+t27d0tn7+rS5Tg+3jCN4+Dmg8CT/qNYdqTp5AjXw4kMjTWaBU8j613Y2TgKo4H8PfwHcz6YFkVBVQ5neLHjwUAC2qksAqCzUtZQAQUN0i6dbt+cbl4yK9h0Sy0ceQqGAO3v50O+ee+h1Rw90iWImeijgZ3f1pl+/e7jDz9csUcJ9PNsyAhOSstnLXOZMfYrX9MdeTD/AGw/o3hdtnMVTH5nsE3f+jjcHH2XBI39m+SPTWf6r+41dMQ8mkLMol7i/pDDwL8CvxjIZdIJ8cDG1uxQEPL2ZsaGbdfb/ncSZpzx9Rd2XHgro4dOk/89abD4+Cnxsrdu4icfFCDBh+V4uLW+ROqVn4opcKlfQIk1KSVaZ0jp1CRicnEdNsv549RHmTT7D5JAAXbkHF1NbvrhFepOgs9KJ1hm/Zfcbf6SAsUyfJLY3dEXapWX0HKW88/NVZpOZsaQWrGX+IC+GJGg3ZC7GSN76Ko+3LDKMBV2VTtRNC7o6QowC2SDEKJANQowC2dAOYrxCduIcBkc+pXttOg/Vn/H0pvOer0rQpfDwbPpfrB39DqTv5VKa2aJ3tfgOHoFjPNoyVuZ+wrbn3uJ1u18icJ53R84iaOQsgkZkUARQrWJBxBMMiniCwPd1aWPzwx8nMHwagRtKPRmeQOZ4fJ0xami/Vs6O5I3zubwBVOauYefnEHypiPCMT8h6QLeKWJmTQ0Tm39j9gPh4r7vRwRMYfZb3yFmMf7OYLy9dIShuKaE7nmBQxE6KgKDZSwnd/jiB4em6llPQbfCoGIPGPwhvv8TaU7bPV+Zs55vnc6k8n8vJNWP0R/sxb8cnVJX9ks8Wf0ol/Zn34d+o/nIcny36VKSEdSM8nFz7MB8fhmcem8Ngw7GFb3Npnu5t0ODBpC2cRRoQNWkMisegMuf3PPhmMQCT3/0QDrxN4Btf6P5fm65LyBV0Czz/2XTgw3xc+kiLb7Yaxa7lgGIUleefMx7X2fyOqtnm3371NtWzRUpYd0QsegtkgxCjQDYIMQpkgxCjQDYIMQpkgxCjQDYIMQpkgxCjQDYIMQpkgxCjQDYIMQpkgxCjQDYIMQpkgxCjQDYIMQpkgxCjQDYIMQpkgxCjQDYIMQpkg0t7YJruDINeTS2+alxh8cdAs90NLLbtdYdaKWPzlG17hbP2za0f91Q8ulMKO1Y2b4QdX80W740Wdu2d829tobDzr/06FJb/WrxppJedcpa4JMZeijoatbddKSLoBLj4e0Iu+7ijV2+nfLgkRulmHY0N9a4UEQjw8fmZU3ZizCiQDUKMAtkgxCiQDUKMAtkgxCiQDTITYx17fxPP0DGG10b2Vns7JgNlrBsTz7rT3o6j6yIzMQKM5g95mVQUZ1KRN45Dsdmc9FIkJzebiy+C1cWZrP6ll4LpBrS7GLXaRr7+d417hQNHETOxkv/IpnUUtCftKsbGxiZ+v2k/L6xI84C3MtaNyWbvwY2m7rtazbNjTN26qRXT2Z48nW3q8jeXmVxZlDO0vJb+n/1NPHMzYfvieIb+Rk2VwWerPiyHGaJLd412++3AxsYm3t64j+P/LHNsbI/TKlYyjsJAw4FDHGIzFcV9dWKIPUVMXiYZgaAT00b25q1gTqDOdu4/VlFRPFd/7j3WPZTJ6kA1z66FdcWZDAI4nc3QzWVUvNrCP7pu+u8PGbrmFmK25eOhs6wMXUXFlgj3r7kb0y5ibJsQS1gZG89KAGLILo7C9COqMSyZqRMK1TWo42P1QgSI4Nm38lj9zzrmzNSXfTXC7NxoVl+qA2pQFx1i0pi/mKqcOJAq+lv6b41qOz7mDCQq8z2eHbqZDGf8CCzwuBjb3iKO5g/G1q2diF9FxastWy8X47XpAzKKo6g6uJGhY0p4YYeY8LiCx8eM//7PZSshBvS/29PVQOBAojLzzJZ+ysh4B2IeNLRIh9h6sM76nFU5T9RtyaCZK6jYEcP2f7RhiNIN8XjLOPzegRzL/b2n3VoTGEXGjhqGGrt0eGFHplmLGkMMHzF0TEmLc9blot7aTMZM6yrGPxTD3MXxbJ+4iMIt/VutO+qtzWQMVjF08SFj/dnFYuzoCorm5maH6WxHjhyhuLiYpx8P6yQpZGWsG3OWh4vnMt7boQiouT2cl19+mVOnLH+TpaX0ZLjoLeiuCDEKZEO7rTN6lwhWi/Fap0O0jALZIMQokA1CjALZIMQokA0uTWAGhD3eXnEIujA1Z844ZSdaRoFskLUYv/rqK1avXs0DDzzA7NmzuXz5srdDErQjsl1n/PLLL4mPj+f69evcddddrF69mgEDBng7LEE7ItuW8aOPPuL69ev89Kc/ZcuWLdx///3GczU1bm5jEMgaWYqxubmZ/Px8ACIiIggPDzeeO3nyJK+88orLPtUpfvj56V+x6Wg8Fq1jNOmxxKa7VqMmPbZtcapTTNdr/kpRezROTyJLMQL4+PgA8Pnnn7No0SJ++OEHjh8/zrJly6irq3NQ2hw1KX5+bAgrR5Ik3WsrHLX/TLyDJp1YM/EFJ+Qh5SUQ7K6/qPX66y0nTakkrVx/7eujPBSw55HlmLGpqYnhw4dTUqLLRSwpKSExMZHS0lIkSWL27NlO+9Kkb6A0rZy8BLPHGpxAgttPWdBeyK5lbGxsJCsri3HjxuHv7288fubMGSRJYtCgQSQkJDjpTcPRHIib0rryWuvCdV2XmvRY3fnYdI1FF2jo9Vra+fnFYq/HM68vNl2jaxVDE1GpEgnV+2zZZdqL0apeJ7p2Z4YsmvTYVq+hPZCVGJuamti9ezc3b95k/vz5zJo1yyjKvn378swzz7B792769+/v2BkAF7mgimRYK1pUp/ihRGXswsvjcghtMa5SJW6ArRKSpCIyMRS//GidvSqJ1A2mh2mykyhPg8Ql1g9aneJHfrRk7ELjcpaQTgJ55WkolWmUSxIte1JHMZrqLSeNRD5oZQjizPWiTiE0J45yKa9DexDZdNNNTU1kZWVRX19PTEwMBw4cYMiQIaxYsQKFopWvJ26VEMKUpXyjgSibN1XDN6VK0raann5wQjJJfvmo10dhOKpM26p/KCGEKZWkLdWfCQlDaebNZKf3k5jPRSDEoj5ITfUj1axckqWRSzGGWNQbzJQ4JTl2L9ixL3KW4Ecc5W0Zr7qJLFpGrVZLZmamUYgHDx5k4MCBPPnkk20QIkAwwyJV5Bz13gzRGrPJhP4lpzmFClCqcvDGLfO6GLVaLbt27eL27dvExMSQk5NDcHCwB4SoI2ppGiSGYtETqVP0/+vEmmjWr2nSN5CaFI07+lAlfoDBk20/1vU5xpMxOvaljNtKXnkcOaEptIxSneJnHMe2fN/KipHTeF2MWVlZNDQ0EBMTw/79+wkJCWHmzJkeESIAwQnkSSpQmg3a86ONrVHU+nLSSpXGc6E5cZS72VQp08LId+CnZX1+fvqHHjyFOEwTmNbKtCVGp3wFJ5CnAqWNWNoTl3YHLl++3KOVa7VaVq5cycKFCzl8+DBhYWFMnz7do3V0FJr0WJaw1XIJSQDoVkJkvzvQ19eXKVOmkJ2dzciRIzutEAWeweuz6ejoaKKjo70dhkAGeF2MXYXghDzyvB1EJ8frExiBwIAQo0A2yFqMItO7eyHbMaPI9O5+yLZlFJne3Q9ZitGzmd4as7Su1lO7OpaWcTkbn5oUP+uP6roCshQjeDLTGyySE+x87tpRmD7HDSYhTzKmopFkSOvq2LQtOSFLMRoyvQ0YMr2XLl3KjRs3UCqVrZR2QPAU4vRpZQJ5ITsxejbT2xG6Li/dPKtZk06sWbdpShTQd4/GLO8U1OZdrTFjuqWdaROUOsUPZSqkKp3IyLYbR8v4zTZZWZQxtP7W8Zh8WQ4VOjIpwhayEqPnM71toP6AROIw7URIJYetuu6RdGJDc4gz5huqQGk+hktFqc/yLk8rRem3xE6GtclOklQkpSpJUUPUegldjyy1vtlK4ygO0AlJCSr9JitNOrFLYKshT1IFSqO6zOIxz05Xf0BipEo2eZWyEaO9TO/MzExOnDhBYWEhr7/+upvLOyoSQ/UtgBJUFkJIItkwSLt4AVVSstmYLYqlaZgl5yah0j+x4GGRYLQNZlikeX0mO50PJaWujAscxlHKhthQLiSbCejiBeMeGt11pkLpN/rW1yyeqGiSVBe4CLpM9VSlV7enmiMLMbZfprcB8+zq9W4lzsqR1PwW/WqSyiKD3OFW1+AE8iSJrSwR3TS0f6a3S4SEoUzdYNYdqvkg0fHuQmtS2WB04oYPh3FEkpwnocKsVbMq4zzBCXm67ruluDsYr4ux3TO9XSE4gTxVpKlL1/Xpbiy1JBGnb21a+oiKTnI8gXEyjqj15cTlhOp8WZXxc9z9mk+ylJgNLbyDyPT2OGpS/PKJ7kLDgbYiMr0FnQ6vJ0qITG+BAa+LsesRxXpJdNDu4PUJjEBgQIhRIBuEGAWyQdZiFNsOuheyncCIbQfdD9m2jJ7ZduBuNrWzGLKuRda2J5ClGD237cD9bGrXvllLZG17AlmKETy97UDQGZClGNt124E5drKprTOyW3TDruZadcOsbXeQnRg7bNtBK9nU1hnZZt2wVE5aqQupWt00a9sdZCXGDtl2YMBhNnULjK1RKIkqFRcueqqerpm17Q6yWdppny+Y9xDqFPw2hFEuSQSj/8UCD1eRmq9mfZRZc5aksvEDQq30vcEJ5EkJ+p/MUJGk6nytoyxaxvbfdmADF7K6Nd+UQuQwfQq/mvxUK5M21NM1s7bdweti9Nq2AwfZ1OYZ2SQkk5Rq+B7sfEjyXD0GulrWtjt4NdMbICMjA0mSmDp1Kvv372fYsGHMmDHD4/UIvEenyPTWarWUlJQwYcIE9u3bx/Dhw4UQuzFi24FANnh9Ni22HQgMeH0CIxAYcEqMvXv3pr6+3mrAKRA4w82bN52yc0qM/v7+XL161fuLz4JOyfXr12loaHBo55QYAwICRJa1wG2+/fZbrl696tDOKTH26dOHgIAAysrK2hyYoPtx4sQJrly54tDO6QnMtGnTOHToUJuCEnQ/SkpK0Gg0VuPGu+++28rWaTFOnTqVa9eucfr06bZHKOgWSJLEmjVrKCoqsjoXEBBgdcylpZ3k5GS2b9/OjRs33I9Q0G3Ytm0bZ8+e5fbt21bnbA35XBJjnz59iI+PZ+XKlWL8KLDLjRs32LRpE7m5uVRUVDhdzqlEiZZoNBref/99IiMjWbhwoavFBV2Y06dP895773H27Fk0GtuZRvYk55YYDezZs4fMzEwmTpxIUFCQu24EXYD6+npUKhXff/89J06cQJIkm3YBAQF2txq3SYygG6QWFhby4osvotVq2+JK0InRarVcuXLF5vjQQK9evbh165Z9J80eZPz48c2AeImX1Wv8+PEO9dPmltEWISEhLg1cBV2XoUOHcvGic7vX2kWMAoE7iBQygWwQYhTIBiFGgWwQYhTIBiFGgWz4fzN2P24/w//AAAAAAElFTkSuQmCC;" parent="1" vertex="1">
          <mxGeometry x="-100" y="210" width="163" height="162" as="geometry" />
        </mxCell>
        <mxCell id="uozOtIk-62IbuRWrD_Ta-2" style="edgeStyle=orthogonalEdgeStyle;rounded=0;orthogonalLoop=1;jettySize=auto;html=1;endArrow=block;endFill=0;" edge="1" parent="1" source="JfymsIh0gRfcHJ0PRg0S-9" target="JfymsIh0gRfcHJ0PRg0S-1">
          <mxGeometry relative="1" as="geometry" />
        </mxCell>
        <mxCell id="JfymsIh0gRfcHJ0PRg0S-9" value="" style="shape=image;verticalLabelPosition=bottom;labelBackgroundColor=default;verticalAlign=top;aspect=fixed;imageAspect=0;image=data:image/png,iVBORw0KGgoAAAANSUhEUgAAAOsAAAD+CAYAAADbEfL9AAAgAElEQVR4nO2de1xU1fqHHxCmsvJWmnIZJRElQ9O8pdnokekEdLPJLEtNTA/YnVNG6qlMLPUYdiqFrINBaViO9qsQO4Pp5D00VDTSIG1E0PKSVlajwO+Pue2Z2QMzMDgzup7Ph3L2Xvtd794z373etfZe7wqqq6urQyAQ+D3BvnZAIBC4hxCrQBAgCLEKBAGCEKtAECAIsQoEAYIQq0AQIAixCgQBghCrQBAghHjL0JEjRzh69Ki3zAkEFwyhoaFcd911TbbTJLEaDAby8/PZtGkTV1xxBddcc02THRIILjSMRiNlZWXccMMN3H777QwfPrxRdoIa+7rhhx9+yLp16xg96k7irruW0KC/MP5xwmTU/j+Wqhz+b18myLLd8bggWwk5W07V2A6wr9POpIwv5jJBDp/ttwQ51+XCjvMxDmUd65L83/5auPLH0Re583IuAxAUJOevc8EgJztOFTrVFSRXofS8ZL5ft+qSFpary+V3ZW/H6bcUFGS3x7lax7oc7cn9bu1/S3V1QdTW1VJeXs7HH6/g999/Z+rUqbRr107mHF3jsViPHDnC7NmziYuLY2Rif/48uY+62lpn4cmJ1fGkGxSr9KTlL7DzjcF2leqty0P/5I+T+4E2VJdUrI25FnJCrKcuhzLgjli9cS2cz6E+/xr+rty5Fu7453Cu9f6WGq6rMd/Vjh3fsHDhQqZMmUL//v1xF4/F+vjjj5P88Bg6tTqF8cxx1yfg1ZN2sCXEanee7ojB7jyEWCWnWt9vqeG6Gvtdnfn9DM+lp/PUU08RHR2NO3g0Gvzhhx/Su1cc11xxXCJUgUDgKZdffjnPPvssaWlpGI1Gt45xW6wGg4F169Zx1203cvbPXxrtpEBwoVJTU8tfxhrcDVaVykjuvfdebrzxRhISEhos77ZY3333XSaMG80fJ/e7e4hAcNFQWwsnfznNwYMH+ct4jtrahgUbFBTEAw88QI8ePSgqKqJt27b1lndLrEajkV27dtEtqgN1tTXueS8QXCScq6nl19/O8NFHHzFv3jzWr19PTU0ttW60sCEhIdx44420b9+eX375haioKJdl3RKrwWAwPUOt+c39MxAILgLO1dRSUwvvvfceO3bsICIigrfffps1a77g7NmaBlvYoKAgrr32Wq666ioADh48SGpqqmxZt8R68uRJ2rZt6/6g0valKHs9gLLX/ea/D9gCUPUlD8XdR+Rr37pnpyGq/seY2DsJ63EnYT3uIKzHHYxZ8ZN5Zykvd0+iU/ckOnVPpFNMIp1i3mUzR1mWfBsdu91Gx25/l/zdSsfkQiqdKjnKsgkjuKbrCF7aatm2k5euHU6Ha4dJtpXwUpSK9uM/5xAlvNRlKO27DOXqLjdzdeebubrzQjYB8A0vdh7M1crBXKW8yfQ39lMOyZ7gDl6I6E+7iP60i+hHu/B+tA1/jPctTlZ+wr1hfWk7ZpWL44HKlWg69qLNzGLHi0fe/dfT+pqetO7Qk9YdrrP9jda6ttcotjK9bRcub9uZy9t05vI2Si5vM5sNXq3j/FNbC7+f+ZPs7Gw2b97M6NGjeeyxx0hISCA/P5/169fzx59/NdiHvbrtpVx22WXWz9nZ2bLl3BLriRMnaNu2LbU1DY9aVa6ag3Li56heehPD7nwMu/PZ/FKYO9W4tql9mfDrZvJhlXTbTMJHvAUZ71L13adUffcZVWsfJ9bx4JufoHjfaqrXP8kwtGiSS7glZw1Hvl/D9tk3AjBs9vsc+f5/HMlJIMKp9mu4JcH0LKzMYH6d8vBhysx7y340b9u6jYXA8MR+RFoOVT1HycGNHNv0HMNZxl3jPrOJQPU8Ow1bOG7YwvH377QdI4dqBrsqt3Ni278YwRaeeO4TezHFRtZ/vCxhjMvfw6mje9mzYAgAIxYUceqnbzm1XNMIezYM7z/MFe3Gk+uo+BFzKfvlR34vnUc8b3ObJh9DE+rxJTW1dZz85TRLly5l9+7dTJw4kZ9//pmXX36Z3r17c+utt6LVatm4cSN/Gc/W28K2kFGhXOvq3Rf5q9cx7aXdMP5fvH/P1dbNEff8jZsabfRnNqwpsd9UpeO5Gd9A8myWaTrYtoffyr/u7YAsYX2442ZgY6XHP5AIpakfse6HIwAc2qhnHf0ZfgusW72dQ8ChHysAuK5zRxkD/blLBegNTftxRgzkrmHA+h/5ESDiblZUfcPJf/VrilUvc5h1n35Vf5HIzvQ8P840GzU1cPz4caqrq3nkkUeorq5m/fr1XHLJJbzxxht06NCBIUOGUFxcbC7v2VjP+vXrnbZ5VayVW7ehB/5xSwMvLX+/iofiRhF5/Sgir88zhcjsJeN6DRE9NUT0vIeInrP4sOpnPpw0mWc2AZTwTPzdPKj9mcotm1kPpKji3HeuqoTPNgI3R6D09MQGDWIKwL7DHAIMPxTDLSru7A58ZeBH4MeKr4EHiB8kc3xlMf+nB1RKz+u2s7ON/1sPpAzhZrCFwbO2m/evQtPpBtp06k2bTr3512bJsWX/RdMxjjYd42h9zWvuhaCHVnBP+x60at+dVld3554PTKHNhhdjuPLqbox8/7D5czRXXtWV6ZsOkztqKI+uBfiKR3tHcbe5jB0bv+Q/QPxdQ23XY0MGLVtH0LJ1OC1bhdNyhsn5r2Z04rIrO3Fnrin2/2p6Ry678hqe93EMHRoCnTt35vnnn2fv3r2sXLmSu+++29qy5ubm0rVrV55++mlT+VDPXsM/cuSI0zYfTZG7ibmlH3Mo507gUxau/BnoyYw9Wir3aqnUTUFFCc8u+4kH3lnM/CEAfZhf9AlLNe0dbP3Eh4/Y+qxhj/zPvt+58Q36d0+k07D/sP7mJynOuU0m1G2IjnS7BfjKgIFd6N4Buodzy7UDgAMcPHyUg/uAWyLpLD1MP5c+XW7m6iFzWadKpyTvDlt4qX+VG8x91nvzq+uvXp9B74h+tBtYxF3bdsi3pJWr0AyYydphL1JavYtfqncxa7C0wK28fqSUX1Y+DCxhwbIqZxtSDmm5p+8MWLCW0z/vo+BRKHpqBnmHYOjM9bw1HIqe+oANhz4i8y2If/0rZg8JZ/zHG1g4AuAWFu46wCdjw2021z5HbJvOXH772zBiHm+OM+87lM+dt2fDEx9x5tRhzhSkwBv30nLGZm7JKCYrHnSP5fCVYRnz3wD1Wzt4dWj97jc/Qfz1119otVrWr1/PhAkTUKvjCQlpwZNPPslNN93E+++/z549ewDcfvZq4ZdfnN9l8NoUOY/o1hHJV4j+wE9AB2AvGT1fwNq93l9NJS7CWisdeODdT3mAUmb1mE6W4+6bn6D4v7cR4fQamSeY+61ffYRuuZIyYMrwG4iMrGI4/+bTjdu57isYPqeffV9P9RwluXcQKVe36nl2WvuqDfilmsGupZG8E/EPnhj4GGx7i7EOd5xDG4pYCzz++Ej5/qZDv3bt95WA67GEQ/o1FAE8PYJWT1u2bmS/AYgMY3zmbD7pM53EG4Dhr7BXKkpXjJhLmfZ+lGxlWpvRxLapYM2pGXRe9zlFwFO3mu8uQ0fwFNm8/u2PGBjCw/95jZU9/8nfewLxmewb7/nt1tucPVfHkSNH2LNnDw8++CAjRowgNCSYoCCoqanjwQcfJD8/ny+++ILevXtz7lyNx62rI15tWSMiTUHN2195PtpbuTKDiOtfIHvCy1TufZmUeusxtV/Z+tLGuNkoLP3WRc/PZx396RYJhIcRC6xbvZ5vges6N+cUwRt5+eOxwBaeWLK9Geux54lV33H6532cPraP08f2kzFEptC6H0x9aLe5iYTHAb7jB0+HnYu+56CHhzQHoSEQFhbGE088gUqlIjQkyPqacYsWwbRr14YxY8aQnJwMQEhIiybX6d0wuN8Ylo8HcmcxduUx6+bKlV+a+6WuMRwoAfrw7zE9oeqIdbQV2tO5u0PhAQ/zcTKQM51ZX3vJ94aw9FsBblFxSzhAH9STgK++Zh0DiG7KEKo7DB7NG8OA7Pdsj2/MRHY2vQz+5pv1PMbxgMguMQC88cYKq70NH3xs/ncVuWnTKeIRVv/fI8C7JL5oeYYVzrVOQ/KObKHwTYAeXBsJyuG3Ew+8/j9zJ3vDWl4H4u8eipJK3nvyn+hI5YvVqUAWf5++2aXl80VQUBAtL1PQvv3VXHZpKEEOwVFwcBCtW7eiffv2XHqJwmHyROPwep91UNoyNr/UG/1Lj1ufsw5+qYH+ETD4gVRTP1WtIeIle2kPHvMowyQDTACDn/0/tmX0JWu85TmrKQQedtsNjeiTuoO53wrQPdwaUiq7DjD945ZhqNyIBJvqw7DbbwK5xzeDn+aXFeNh/Uzi5AaYPOXmZzm9KhnWzaCneYAp6f8AqsgbNYzH1kH86w8x9OaxvDUceOtBppseJDN00qvEyw0wWfqsbUbzH1QsKp3BUIDI+/n08xR44z7TAFNSNjyxgk/HwXv39Ce1CNRvJXPL0IlkxQNvjPT5ABOYBKkICXbZiQlpEcwlCu/1NN2aIvfFF19QUlLCQ3fEUHP2TCOmhdnKiClyQZJi3p12JabIueOfw7n6aIqc1D/92k959vkM62MeC47S9M0Ak9+yi5nRz7LIbtt9rKr4B4NdHOEdvuHFyCm8ZbftIT6rfAK5LqLg4kSI1Y7evFiu40VAvsVpLvoy89BWZjrerQUCCSIVqUAQIAixCgQBghCrQBAgCLEKBAGCEKtAECA0g1iPkZ/6gG3yeea3UPUlYzP3er8qgeAiwsuPbr5ldu8Mgv77IYZssD72qHKe7iMQCDzDu/NZV33K4vEzmO5yLvReMuLuIzLuPiLj3jenelnLQ9ffS8T1GiJe2wtVRTzY8x7TnNb5ojUWCCx4/aUIVVR9U9p6MqP0I2YAh1fOZsnXoKzcSo+cFSwdYGqFK1euInbJSpYOgPPzQoJAEBic5wGmn8lPMbWsg17cxXeVxwi/ZzLR/72XiOtz2QxEaCbT9d17iOiZh+/nVggE/oN357MOGggvPcFsF9MtK1e+Q/nEjzhU+hFbZ/Y2b23P/W+voHJPP778RxGVdOCBxSup3NuXLycXyWQbFAguTrwbBncaTt4aGHfbA7bcOg+/gOF+0z8jIpW8nXwfbwOqIb3h76ZweNALpoRoqpezQJtBhPXz4maa7iYQBB7ef5G/03De3/U3h5fgr+P9tCAI6smh0rHmbZYX5adz6B7pVKMZVGocplkJBALxUoRAECgIsQoEAYIQq0AQIAixCgQBghCrQBAgCLEKBAFCs4v1cNWxhgsJBIIGaVax1tbWMSTxcSFYgcALNHvLWltbx5jU+Ryu+tlFiZ/J/4d51s31GtNMm6oiHpy/p5E1/sSHE28nrPvt5oWUc8zvGO/m5ZgEOsUk0DHmNjrO3QX8xLIJksWUo2/lmuhpLJNZ+Ewg8DVefYPpcLWpBbW8jVRTW0dwcDDl5RVER3dlWfYzRIRJZ+XsJeP6lyBnBZVvS5IlezT/tZRZj1Qz4d2/E8FuZvWYTtnsHKr+28E5pad5FblIfmJZ8nhmbvuCF5d8wRh+YtmET+ny3iSGiLemBH6KV8U6asLLtg+S33xwcDBFRWsZrhrMJtMiJwAcXrmKtyfM5NAAOWtH+HDyCzy7CYbNWsxSTQdgD7Oum2FeZW4kH5clYZg0nayNkNVjM6nJkJX8KlWuFlS2cg1desD3jT1RgcAHeFWsm9e8AdiWBqithWv7PsgPP/zAcNVgNha+4XSMy/mvS7aAbhWV4XvJuG41mzUPM5jr+de3n/CvoCAqtTNZ8nUHXnhnNuWTTC0rK16kDPNKbof/xwN/e4P19OW1LzMYYzcjYBe6d2+k20PePHuBoHk5D33WWoarbmLjameh1suEkTwQBtCBaOsaEj/z4aS7CY+9i4EzvuG7Qz85Hbb+h6Omf4Tfyof7CtBOlOzc+B/6xyTQMeY5+GA2Y5p9ISmBwHs0u1iVER1cCjV80E3wQioZbi7bWKldRPmkTzhcZlpBzpGIezWk5jzPrG0uDNz8JMX7Czmyfw0vDnTzBAQCP6FZ17oJDg6qv0UNG8EH/wvioVvvtc1bnfAylWPki0dEdiH74bvJBobd3BduA4hjRMx0BvTYzGtrZ/Kv715lVo/bbWt6T3yVatGCCi4AxJKPbvonf5zjMe7UFSQp1nzLCLoqA4glH93+LTVc1/lc8lG8bigQBAhCrAJBgCDEKhAECEKsAkGAIMQqEAQIQqwCQYAgxCoQBAhCrAJBgCDEKhAECEKsAkGAIMQqEAQIQqwCQYAgxCoQBAhCrAJBgCDEKhAECB5NPg9uGUlQ7TnAfsaf/Xw9573SMkEuywTJbHaafWje7MK+kykXdVj/6Y4d2+c6N8o42qmrp0xQI/xxPifP/HHeGyQ9MdkScmXs55m6OMbJNZkyzl9uA/VIqZMWxP4bcqcu+/rk57PK+GU3n7XhMnJ2pHXVEirnmBMeiTUkJIS62gbnqruJox1v2XXTlIsyjfHCi54LLkJahF7uVjmPxGo8fYCas783yiGBQCCPQtHNrXKizyoQBAhCrAJBgCDEKhAECEKsAkGAIMQqEAQIfibW4yx/dBxd+lj+5rO8ytc+WSjjlT7jeGW7r/0QXKz4mVgBejG3II+DJXkcLOjP6qR8tvrIk60LpOKMZVpJHtP6+cgZwUVPs4v13Lkavv+hunEHh11P4uBKfvSb1lUg8B3NKtaamlpmvvYxk5/J9oK1Ml7pk8/yVfNt4XGVnvF9bGGzrRU0ld26Pd8WUi8os5myO87SctvbH//oOO7Pg8WTxtHlUT2HLTbrtWEfxouQWeBNmm1hqpqaWl6a/xEbt5U1XNgV23U8R382WVeZWs1qFnCw5CqTWJKKSSzIIzcMTGKbz/KCZxgdZip7/4bnOVhyv3nfq7wyNI9pYXrGz4ZXSvIIB9ieT5cFZRx82sE+pjD4y6GW0NdB7HI2hu7iuejnObgwtvHnLBC4oFnE2jSh7ua5pHE8B0Ai+SUqbIvAJZI60iQkqqrRj0syCxUglvEvFDBt23FGjzQf+3SsZF8vph06DlSj37yaIX3+a6tycCcO08Hefn1UubAxuhOqvFcZ32UBue7YEQg8wOtibXqL2ou51taxmRj3PAefdmz9PPRX1gbklqg4vGo+XfrsZvI7YkBK4D283mf94cejTkLt2KGNt6uBsE6o8gokj3bKyH0ZEgdaWrTVZK067rzP6Thv1G1P+MhnOPhOIos3NKELIBA44PWWtdu1nVi3cqa3zToTpiL3nWq6WENmmPxOnqRFTiSRJXTps9thn/NxqhcWkDvSuYpBQxO5f9I4Fg+eyKaFHeqtW/XCAnIjdXSZtNpaf36J6LsKvEcjFlMOhClyZbzSZxd/K7mfQb52RSBogOo/u/HEE0+IxZQFggsFIVaBIEBotuesviWWaaK/KLjAEC2rQBAgCLEKBAGCEKtAECAIsQoEAYJHA0ytwwe4SDItEAgaS/V3h9wq55FYL738mkY5IxAI6sM9sfp1GLxv3z6mTZvGgAEDuPfeezl69KivXRIIfIbfPmf97rvvGDduHKdPn6ZVq1ZMmzaNa64RLbvg4sVvW9YlS5Zw+vRprrzyShYuXEjfvn2t+6qrG5kmRiAIYPxSrHV1dRQWFgIQGxtLjx49rPu2bt3Kk08+6YE1AzlJChTpetm9+nQFiqQcDO7YUNj+bOb0pNt9lq2FdEU6zkWc7Zr+ksip3yE3cLQtV78gkPBLsQK0aNECgK+//pqJEyfy66+/snHjRh577DGOHz/ewNEyZM5zFoAhh3mlatRuGVCTXW7EaDRiLM+mVG358auYYzQyR+W5S6AkucBsU5cGaTrTv40FJCs9t6ZPd7xp2Hwuzy5FXf8dReDn+KVYa2tr6dbNtrLW7t27SUlJYcqUKfz222+o1e7Jy4aatDTQFtmr1VCkJU6j8dxBZTwadSkVTW79zh/KeA3q0ooGIgiBP+N3Yq2pqWHp0qX079+ftm3bWrfv2LEDo9FIeHg4ycnJHtuNmTKVOG2R5MeqZ1FKHAld96MDLGGjtPEx5CTJh8+GIrRoiFea7NiFuIYcklyFnvp0mTC6HmRs2fukJ90cMuvTFagzIVMtH9YbirSgiUcpa9vmjyv7At/jV2Ktra1l2bJlnDlzhjFjxnDPPfdYRXvVVVcxduxYli1bRocOHRo25oSKhLgUFll/h4WUZk/BFr0qSZ6aRmahpYCBIi1kT7GU0JESbf5xp0JWQTLOkaqe9GgtGku4bJwjsZ+JujDBGvJmzmugn2zIISkVsoyWMBnU6XqUyVlkl84zC1QNOlPIrJpjxBRJGzFafbP5HJ0Sx1RLbG3IIcnOTx2oTaJ0ZV/ge/xGrLW1tSxdupTff/+dxMREVqxYQefOncnLy2PLli1s2rSJ6dOnN+nxjWpKNqWFesBAzrxSNPEOv0JVAmmZhabW0K71BFv/T0eaTkuRnNL0hWSmTXXx405DZ+nYqhJI0+3nQH3OHtiPTpdCtKX1U2dCaQUGlCRnadBGK1Cja6CvLO1nxzDP0tIf2I/Ozk8VU7It3QRP7AvOJ34h1nPnzpGXl2cV6qpVq+jUqROjRo0iKMiLrzcq49GUziNHX4Q2Tk5UKqZkl1KoN/dnp8q1nirm6OJIWSQztltR6j1fQTLgZP6ztJjKrsR5aksZj0adSaE74Xdj7AuaHZ+L9dy5c3zwwQf8+eefJCYmotVqUSqV3hcqAEriNZCiTiEuQb7JUMZrKC3MoUgbh4sioJpCdqnaqd+pjNeglht1bgxRMS5sGchJmkdMuREdzj64xFCEVpdmOicn23oWpWCONBppX9Ds+FysS5cu5ezZsyQmJvLxxx8TFRXFyJEjm0GoJpTJU0lTZzPFlRCV8WhKU9BqpP1Zp0Km/q3aYQBJmUyBLs7Wt23Ks00nWwqScgzo06NJMUcFqinZlKptA0CqhDSHASZJPztai6bc3Id2sm3rm9ZnX+BbPMpu+M9//tOrlZ87d47nnnuOCRMmsGbNGmJiYrjzzju9WofnGMhJSoUsMbAiOD/s2LHD/7MbhoSEEB8fT35+Pj179vQDoQL6RaTYDSwJBP6Bz1/kT0hIICEhwdduYGpRo0nRpaEzyg0sCQS+xedi9R9Mr/55/rqFQHB+8PkAk0AgcA8hVoHAx5w4ccKtch6FwUf3fxYga90IBIFDu3bdGi6EaFkFgoBBiFUgCBCEWAWCAEGIVSAIEIRYBYIAQYhVIAgQ/Eysx1n+6Di6LCiT3bt1wTi6PKrnsEc2y3ilTz5bveLbfJZXNdmQQNAoml2s587V8P0PHub5zStwFkWVnqzyXvVMW7OxdcE4XtnuWZUCgb/TrGKtqall5msfM/mZbA+O6sXkcbB6m3260cPbiuke39+7DgoEAUSzibWmppaX5n/Exm3yIW19dB2dRPeiPZJwt4zclyP4W2S1/WTuKj3j+4yjS59xdDGHulsXjOP+PFg8ySFk3p5vLufQ6trZcNgnOabLgj2SHeZwXe4YgaCZaJZZN00RqolY/hb9KrnbVUzrB2zfxb4X1EwzJw0FTCKbDa+U5BEOJmEtKOPg03nkM44vh+aZjqUMWM39G57nYMn9pnJL9IzvpyK8Ss/4pGISC/LIDTOVfaXPfJYXPMNo9IyfVMncgjxGh5nt58FcgO06not+noMLYxt/kQQCD/F6y9p0oZoYNHoi+zaUAcdZvqSSxIFX2Reoqka/+b8MsbR8k1ZD+U8uBp8SyX/aLKx+vZm8udq0yF5VNfpxSSYxAhDL+BfMIbjjvn5q5g42/zusE6q8Vxm/qhErAwgEjcTrLesPPx51EmrHDm08NxR2PYnlS1i+vT+ro5NMLZ/joNO45zn4tHPr5t5ql/Vz+FAl0NuFbypyS1QcXjWfLn12M/kdSysuEDQfXhdrt2s7sW7lTC9Yuoqb42HIpP8y+Z08591hnVDlFbB8dKykZfQQJxtl5L4MiQVXEU5/VC/vYuvTsQwCU+i72RwGmwkf+QwHI/PpsqGMaf1ESCxoXvw6U0T4yCQmF/VnvFyrFaYi951quiSN4znzJtULC8gdeRWDhiZy/6RxLB48kU0L68neL2Nj8jvmPioqXnlhPkP6jDPtGDeRuYMrTf/enm8KuwFIJL9ECFXQ/HiU3fChO2LEfFaBwMtU/9nN/7MbCgQC9xFiFQgCBCFWgSBAEGIVCAIEIVaBIEAQYhUIAgSPnrO2bNOFutqa5vJFILg4OeyepjwS65UdxBK7AoHXObzDrWIiDBYIAgS/et2w8PMiNi7+jdq6YAaND+Wue/1hdTmBwD/wC7Hu2bOXzxZ9y6kDCron1nJ5mxC25p5l56pVJD4ZSf8BYkqLQODzMPjtOSt47+mDtA4LYtz8bgxN6E3fm2IZO7cbV/eoYfm0o2TPWdH0igw5JCkUKMx/6XoAPemKdPvsE16yr1AkkWMA07qv7mx33O9UgVP5dK84LggUfC7Ww3ta0LL1OTrFtCRUobBuDw0NJbxHSy5rc5aqnS2aVIchJwlF9H6mGo0YzX8JFTnIasIN9OkOQtGnO9k36uLYf8BSQE12uXl7uQZtdDp683qwprJpkKYzH1tAssuVnKV2silVe+lGIwgIfC7WdpE13DE1nPLNZ1iRuRvDwUqqKo+wcuFO9q49Q8JT19AuqimPi/QsSolDZ5xjlxlRleyt1c31pKtLyS63t49qDnPkUjEq49GoS6lo7J3C23YEAYPPxQrQNfpaJswYxvW3tmRt1i8UvXmM2KFX8I+MYfS4rjuhVzTBuL6QzLSE+lOY6tNlQkuHsNO8Q5+uQJ0JmWoFiqQcDPpCMtOm1tMaNhOGIrRoiLfUaxeGW1pc+3OwC/0l56yQhgmy3QX541xdK+t2WZ8EjcUvxAoQHBzMENUABj54Cf3GXMLNwwcQHGxyL3ZAezZu3AMkQ6sAABXKSURBVMiXX37psV1DRSnqmKh6SmSiLkywhqOZ8yzhsSRMNZaTXTqPHAOo5hgxRa1GjAXJ4GDfkJNk/dEmyXU+9YtIkYrMI3SkRJt//KmQVWCODgw5JKVCljUEB3W63lRXnM4amttaesk5G3WkZapNAjPkkBStRWMJtY06UEv70C6ulVw9rnwSNBq/EauFFiHBtAgNJigoiJCQEBQKBX3792b27NlkZGRw+vRpj+wpu8ahs3UeZUhDZ/kVqxJI0+3HWtraikSTotMhZ8bRvjK5AKPRSHm2WlJKIjI16AoaG4Jb+qw60nRaiiwiOrAfnS6FaEsrps6E0goMUTGoM9UyNw3JOaNiSraa0gqDyY5dlKBiSjZorRW5uFZy9bjyqVHnLQA/EKuiVRBfrd3KX3/9Zbe9ZcuWHDt2jC1btrB48WJ69erFiBEjeP3111mzZg379+93r4KoGNSZhZ6HYPp0FPNiKDe3DLq0ptiXDAw59J0bh4o5ujhSFklqTbO1bEajqdVXKpMpMBrJIrV5R49d1SPnUzO5cDHgc7E+9KipBfokZxO7SvZAHVAHCoWCjIwM3nzzTVq1asXYsWMZNWoUHTt2ZMmSJUydOtW9CpTJTE3LRJ0kHf01kJNe/2iwoaIU4rqaf1x6CjNd28/KLnWwfx5QTSG71By+RsWgzpzn4pGPubXXpZFZaFFRJvOshfUsSgFNvFLGjmSfG9jV04BPAs/xuVhbtWrF3aMSSRo7gMMVJ6goPkVF8Sm+2VHCtGnTOHv2LGFhYbRv357WrVsTFRXFyZMnmTVrltt1qOYYKddobSGZIhWm1H+XVyZPJS1TbS5fCJKWVZWQZhtgwvQjtbevIFqrIatZR52UJE9NI1Odjl6ZTIEuzhZqW/rL0kEkNZLQNw2NuRVUmOJyU+jrZEeyrz7k6nHlk6DReJQw7Z///GezO7SzZBcAN/Qx5ez9/PPPKS4uJiUlhbq6OpYuXYpSqWT06NHN7suFiZ50RSEJXgnHBd5gx44dbiVM84vXDaVYRGrh6NGjVFdXM2nSJM6dO0e3bt1QSF6euPDQk65QYx91pzk9JxZcfPidWB1RKBRcdtllZGRkoFAoyM3N5ZJLLvG1W82IijlGI3N87YbA7/B7sY4dO5axY8daP8+dO7ee0oKGUTHHKNroQMTnA0wCgcA9hFgFggBBiFUgCBD8Vqwl3+yk5JudvnZDIPAb/G6A6fvvv+eLZTs59r3JtU3dvufvY26gW7duPvZMIPAtfiPWI0eOUPjxZg6sC6ZHkoL4+7oTFBzMruJ95D2/l/B+u7j9oUFERET42lWBwCf4RRi86qPVvJmyjaDgIEbNjGaA6npCQkNp0aIFfQddx30vRnPplS3IemwHqz5a3bBBOQI8rYtTdgrz8XbbDDkkKdLRu6xTvl7XL/jXV1ZPeoOTA1xdX09T2niCo+0LZx6tX4i1at8Z6mqC+Ov3Wn49/ZvT/l9P/8Zfv9dSVxNE1T7P14e9ENK6qBKkL+JjmnyuwzS1zcKB/eisE+3l6pTxx26eqxyuUsmYX95o1CPbxqS0cY3zjczmc3l26QUzj9YvxHr2DEx6oxdXXh3CmsyjrH5vJ4YDlRgOVFKQV8KazKNceXUIk97oxdkzQR5av0DSukTFoJbMBzUUaSEtDbRF1m36wkzSEmQqvYhTySjjNXbXLZDxC7ECtG7ditvuHsqjiwbRtf+VbFp2nA3vHSci9lJS3xrIbXcPpXXrVp4bvlDSuijj0WCbcH5gP2imTJFsM1BRqqbepBhNxS6VjEOIW18KF9nrW189zrYMOUmS9DN60s0hs9P34eSyFjTxthuzi7Q1ruz7E34jVguhoaHcNLQffUdeQb/RVzD874O55JLGv7h/4aR1UdI1TmfO2qCnMDOOrkrTtv0HcM7JVG+dkswVDf4oXaSSsa+AdLt0MNIow9X1dYGLdDDK5Czrd6BPt03dc/w+lA4+R6fEMdVyJ60nbY0r+/6E34nV21xIaV1UCWmmugwVlJqjBWtf9sB+dNbJ8g3VKe2zNvSjdJFKRkq90UU911cOl+lglCRnadBGK1Cj86CfHcM8S0tfb9oaT+z7hgterBdUWhdVAmmZheQUabHGu+a+bI5Tf/U8pJIxY6gobbJ1O1ylg1F2xeOl0ZTxaNSZFLrzA2iM/fOI34j1t98aHuV1p4wTF1Ralyhi1KVotZJUK+a+rLa5+6tgn0pGgjJe470ULi7TwRjISZpHTLkRHc4+uMRQhFaXRoJKzrY0bU0j7Z9H/EKs3Qa14tMlX7P+f1s4fvy40/4Tx0+w/n9b+Cx3G90GeT7IdOGkdVESrwGdXf/T1G/VNTq9qWf1W1PJ2G12TOHShGebLtLB6NOjSYkzhbCqKdmUSlKkOn4fdl2AaC0ay0h9PWlr6rPvL/hNWpdTp06xbfMOvv/mBO3CQu32nag6S7e+7Rg4+EZat27dbD4IBL7A3bQuftGyArRu3ZpbE/7G5Kl3cW1sJ347cY5fj50lPOoqHnnmDm5N+NtFIlTTm0H2b/Y091s4vqhT4Cl+826whdDQUAYOGsDAQQN87YqP8EVaF5FKJhDwm5ZVIBDUjxCrQBAgCLEKBAGCEKtAECD41QBT4edFbFz8G7V1wQwaH8pd9yb42iWBwG/wC7Hu2bOXzxZ9y6kDCron1nJ5mxC25p5l56pVJD4ZSf8B/XztokDgc3weBr89ZwXvPX2Q1mFBjJvfjaEJvel7Uyxj53bj6h41LJ92lOw5K5pQgyeZERpj2/Kmi1xWBJlsDk2uR3Cx4nOxHt7Tgpatz9EppiWhkjVsQkNDCe/RksvanKVqZ4sm1uIq24HAgnO2BYG/4fMwuF1kDUNGRrJ+2UG+W7ebgZqrCAkJYcsn1Zz7ExKeCufrgsPeq1AZj0atpcIAKj+brygQ1IfPW1aArtHXMmHGMK6/tSVrs36h6M1jxA69gn9kDKPHdd0JvcKLlTlO0pbNcCCfJQKwX4s0vciTiu1sWk3K1m8KqXNykmQmh5vDbdnsC877FLZUCCRJZwZJPjeUbUHgH/iFWAGCg4MZohrAwAcvod+YS7h5+ACCg03uxQ5oz8aNG/nyyy8bad1FtgMXWQlcZYnAkEOSutQWUifsJ0Xnpgv6RaTE2eZpzlHVVz9AJlqyXEwOry/7gmSfUUdaZsPTveSzLQj8Db8Rq4UWIcG0CA0mKCiIkJAQFAoFffv3Zvbs2WRkZHD69OlGWHWR7cBlVgLks0Q4ZhpQTcEuIYSLumOiMM+lVNuneqmvftJs6UicqC/7gmQfKqZkq+0zIAoCFp+LVdEqiK/WbuWvv/6y296yZUuOHTvGli1bWLx4Mb169WLEiBG8/vrrrFmzhv379zeiNplsB3JZCVxkiag/I4JpYrhLXSiTKTAaySLVPnR1lRVBIHDA52J96FFT0/RJziZ2leyBOqDOtIhyRkYGb775Jq1atWLs2LGMGjWKjh07smTJEqZOndq4CqXZDlxkJXCVJcKUEUGSwkW/SBIGmyaB290IZJKjKZMLTKFrob6erAhNIZN5VoOSTAjKrsRJogpDkRZ3I3iBf+BzsbZq1Yq7RyWSNHYAhytOUFF8ioriU3yzo4Rp06Zx9uxZwsLCaN++Pa1btyYqKoqTJ08ya9asRtYoyXbgIiuByywRlhQulrC1MMYuDFbNKSe7VG0b3JEmKpMO+qgxhaou6m8aaWjMrbc0E4IlOZilrtT9cUgjeOdsCwJ/w28yRVjYWbILgBv69Abg888/p7i4mJSUFOrq6li6dClKpZLRo0c3uy+Bh550RSEJXkmQJjhfuJspwufPWR2xiNTC0aNHqa6uZtKkSZw7d45u3bqhUDQ+j7BAEKj4nVgdUSgUXHbZZWRkZKBQKMjNzeWSSy7xtVsCwXnH78U6duxYxo4da/08d+5cH3rj76iYYxQB8IWKzweYBAKBewixCgQBghCrQBAgCLEKBAGCXw0wibQuAoFr/KJl3bNnL69O+Rj9wt+JVtfS575gtuaeZeaDqyj+envTjEvfHFJcQG/o+NF56dOd/TDkJDXubSx9ejOsBuC44kBgZt3wuVibP60Ldi/L6+JSSA3Eb0oO6SQAb04AcJz76hKTCObFlNv8yIKipihNNcdLS1RKfVSDTjJZolyDNtpdwcql6/ENPhfr+UnrYsO6ILGgyRhy5lGaXU5Bst1MBZL96FGvPl1NaXa5/eLIlneyZdaa9Wd8LtZ2kTXcMTWc8s1nWJG5G8PBSqoqj7By4U72rj1DwlPX0C6qxmv16Z0WHbYP4+xCN2moKWlpTCGeXpL5wfkuLRcayh4rbcFc1OfSPxkc7SflGOzs2hJHuDgHQw5J0SnWebbp6ekOIbaedEUSOQYDRdJ1YmU5IH+e9Vwf9Ol2mTkMOUmyGTtktztl3TBQUaqW91GyCLZj/inbZ1OrnEkmaum1TNfb+X++clf5XKxwHtK6ZNpmwhQmGO3usvp00zZLVgiNNtUsPAM58yRZIRzCTF3KPMgy7SvPhpRUe3GpsYWo5Rot0ZJv1HZsOdmkYLrBy9fn2j/781LI2tcRlxKNwkVWCdlzUCZTUJ6NWp1NudHInDlTyEYyYV9fSGbaVJKVB9ivi6NrPVqVP8+Gr4/kyyFaq7HOKzaavzhDThKpZNm6NubFj/WLUoizhrtzUFGPj26tcq5ijlFHGmnojEZbBJGptn0nOpn1apsJvxArNHNaF3PfrjxbbZpHasVARak595BjVgjL/NRo+S9CnZ1lzRihTJ4qydZguptnT7HdEUxT7mzzYG3HKonXWDI5yNVXn3/Y91kldyCb/Shi1BJfomLspsW5PgcppgWctWa12iKTBibbuzzPhq+PBX1hJmlTnfviB/br0KVEW29UpgQbBqJi1GTaLYLcgI/qGBq1WHyaznbDV00hu4Hr4C38RqwWmietiwllcpYtn5IVSZpSaX4kTLmJjMYECs/TaKt8fa79O18ok6cSpy3CgJ7C0mxMOjPdXLRFzXVVTDcqV6Tp7K9JQbLSNLHfmAWpljC4Hh/1hWRaEwwEBj4X6/lN66IkeWqcJGSVye7ghIo5xnL7UBDQpSyytgSGnHlkpiWYRzCdbdrvbwhpfe7413hcn4OzTwlxWopyCinVxGNLQZUNKdH2fTZ9egN9OHevj6k1tk8GZyIqRn675bjkAiO6tEwK9a59VKhLra17VIw04rJlBnGJNLuHTDYQfbptbMHx303p3/pcrD5J64Lt8Y1TdgfZdKTRaDVZdlkG1dkxphZQoTD1qyTNnaNNx/3yyNfn2j/s+6yNeLzg8hyU8WgwDzCZjaoS4khJwT6JmzKZAqMO1LbBFkVhQoMtv7vXR5lcgC5OklDO7IzTdvPgmHTQR405VJXzUQ06SdZIl5lBTN6SkCYZYAJI05hbb4dsIM2M32SKMBgMfLXmG04YzgIw5O6utG7Tiscff5zU1FQGDhwIwO7du/n3v//Na6+9Rlxcw0MEzeKreYCjwGX2Qf/H43PQp5sGqs53DO5vNMN1CLhMEUqlkocmK53Sujz66KMUFxfTv39/6urq2LlzJxMnTvSZUC9ODOTMyyRt6hxfO3JR4zditSDSuvgZ+nQU6kzU2eUUXOSNqq/xO7E64o9pXZTJBRT41IOm4/Y5mF//E5hRzcFXyTj8XqwirYtAYMLno8ECgcA9hFgFggBBiFUgCBD8qs8qMkUIBK7xC7Hu2bOXzxZ9y6kDCron1nJ5mxC25p5l56pVJD4ZSf8B/XztokDgc3weBjd/pgiHVczP4/xD73L+zsNurqjD9DuB7/C5WM9PpgjJzJXybErP0/xD72M/A6c53vwz5CTZzyE1zxd1V7BNfVnd23YuJHwu1vOdKQJlPJrzNP8w4DDkkJoS5/RiuunFe2+vIyvwFJ+LFc5DpggphiK00ilNTqlAwDHktKX4SEcvTb0ivfXb2ZG2Cs7H2fbJ1ePKJ1eY7OfkJJlnnzh+btg3a9mi/ehkp8lJ5oU6JlOTfNanmyaC29Z5reeaeWRHAH4iVmjmTBHobAsWp0KWpeUw5JCUClmWkE8HalN+EFLidDLhZiZqS4oUo460TPMK6oYckqK1aKwhqg7sMhZIjpOmVpGrx5VPjuehsLevJQujddqX5DMN+2YpG08p6hj53AlRMWrZ7VJUc4zo0swTw62ts4tr5rEdgd+I1ULzZIqw9PV0pOkkk8gP7LcmBjPNTcyE0goMUTGoM9UyycnSTCuWA6aVxM2pSg7sR5c2VTLf1bTKuC1DgeQ4VYItfYpcPa58sjsPo0SYJvt280yln93wzVJW2TWu3syPcfUlXHKJi2sm8Bifi/X8ZopQMccxBaU0j5ElUZkymQKjkSxSm3f02FU9cj41kwt2SDL+2WPKZOii0RWcJ3wuVp9kiig1h2JRMagzXQ+cKJMLTGGrNeVHJvNs+TxYlGJOxelkR7LPDezqacAnj/HEN2UyU9MyUdv1Ew3kJEWTEmdunZVdiZNEJ4YiLbp6HXBxzTy2I/C5WFu1asXdoxJJGjuAwxUnqCg+RUXxKb7ZUcK0adM4e/YsYWFhtG/fntatWxMVFcXJkyeZNWtWI2tUkjzVnD7Skuw52jb44phnV6FGEsaloTG3ggpTPg/zD9jRjmRffcjV48onwL7P2nAOYdPpeuabao45Nah1QCoaraZckhnBFEZb7KXuj7PLmKhKSHMYGHJxzTy2I/CbtC4WHDNFfP755xQXF5OSkkJdXR1Lly5FqVQyevToZvfFHj3pikISvLq0w4WOuGbuEHBpXSyITBECgTx+J1ZH/DFThEDgC/wuDBYILjbcDYN9PsAkEAjcwy2xtmvXjpMnTza3LwLBRcmvv/7qVjm3xNq2bVshVoGgmTh58iR//PFHg+XcEqtSqeTo0aMYjcYmOyYQCOz54YcfOH78eIPl3BKrQqEgNjaW3bt3N9kxgUBgz4YNG7wnVoBHHnmEpUuXitZVIPAiy5cvp7Ky0klXHTt2dCrrtlijo6Pp378/H330UdM9FAgEHDp0iKVLl7Jnzx6nfU0SK8ADDzzAN998Q1lZWeM9FAgEGI1GMjMz2bx5M7W1tU77S0pKnLZ5JFaFQsH06dNZuHAhy5cvb7ynAsFFTFlZGePHj2fNmjWy87MvvfRS2ePceoPJEaPRSF5eHjt37uS+++7jxhtvFO/rCgQNUFFRQVFREZ988glbtmzhzJkzsuVcSbJRYrXw7bffkp+fT3FxMbGxsY01IxBc8FRUVPDHH39QXl7OgQOus3EMGjSILVu2yO5rklgtGI1GBgwYgMEgZh4KBHL88ccf/Pnnn/WW6dGjR73jQV4Rq53BoCBvmhMILgrckaHXX+Svq6vj4Ycfpk2bNt42LRBcULRp04a6ujq3hArN0LIKBILmQUyREwgCBCFWgSBAEGIVCAIEIVaBIED4f/6tH8GyF/xWAAAAAElFTkSuQmCC;" parent="1" vertex="1">
          <mxGeometry x="-922" y="440" width="235" height="254" as="geometry" />
        </mxCell>
        <mxCell id="uozOtIk-62IbuRWrD_Ta-14" value="Chat GPT API Library" style="text;html=1;strokeColor=none;fillColor=none;align=center;verticalAlign=middle;whiteSpace=wrap;rounded=0;" vertex="1" parent="1">
          <mxGeometry x="-1230" y="-210" width="140" height="30" as="geometry" />
        </mxCell>
        <mxCell id="uozOtIk-62IbuRWrD_Ta-21" style="edgeStyle=orthogonalEdgeStyle;rounded=0;orthogonalLoop=1;jettySize=auto;html=1;startArrow=diamondThin;startFill=0;" edge="1" parent="1" source="uozOtIk-62IbuRWrD_Ta-15" target="uozOtIk-62IbuRWrD_Ta-19">
          <mxGeometry relative="1" as="geometry" />
        </mxCell>
        <mxCell id="uozOtIk-62IbuRWrD_Ta-15" value="" style="shape=image;verticalLabelPosition=bottom;labelBackgroundColor=default;verticalAlign=top;aspect=fixed;imageAspect=0;image=data:image/png,iVBORw0KGgoAAAANSUhEUgAAATMAAAGpCAYAAADhpdF7AAAgAElEQVR4nO3deXxU9b3/8VdYBgQqKgKyjdCEGISwVUBBHG0zSkjdmKt1K17jFmhv76PTFuPtcluKiKmNve0txLZOhVpL6R2ttDHSicoo+yLosBnD4rCKgPrDiA5Zfn/MvpwzZyYzOSfD5/l45CFz5pzv+Z6TzMfv98zM++S1tbW1IYQQnVwXvTsghBCZIMVMCJETpJgJIXKCFDMhRE6QYiaEyAlSzIQQOUGKmRAiJ0gxE0LkBMMUs48/b+GDT5v17oYQopPqpufOm1vbePPAGbYePkPPbl0wdYXjTS2MHtgDa0Fv+pgMU2uFEAaXp9fXmT7+vIW/eU5zWb+uTBjUg57d8kLP7f7wLOsOfoG1oDf5/Ux6dE8I0cnoMjJrbm3jxZ2fcn1+DwZ/Kb4Lo/p3Z8SF3fiLp4m+53Xl4l5ddeilEKIz0WUet+79M4y4oGvCQhbUs1seZYXn8eLO0x3YMyFEZ6XLyOzdEz5mjuyZdL0BvbvS0trGic9aFEZnzazbdBrGXMjUXoFFn33G7zd+xgeBh8VjLubm/pnquYGdq8ctRECHF7Pm1jZOftbCgN7apo4D+nTlg9PNmqaaJw98xJL9Xbn9uospDCxrOPAZJ/v3ol87+mw0DbtOsLt/uFgZ/bhj+ytENuj6bmZm+Vizvyu3X3d+6AUNUDi8l+IWueFcPW4honV4MevWJY9+vbpyvEnb6Oz4py1cM0JDNz/8HM/Antys9LziNMzHS69/zqgxsGKHDzBx+3W9OLHpY15rAnr3Ys7kXvSLWw8YeD4/utyUYvsxU8Co7UyBoqS8TcOuE6z4APjgBJ7evZgzojlDx93ePideTmx/J/eiX5I+9R/Rwmv74atTIi4fCJFMmw7c+5raXm883ebz+VR/Dn10pu13mz5Saels29qNp9rWNrW1ndh/qu13+88mXq2pqe13r/nX8/ui7e+hx1+0/f21D9t+vvOLtrY2fzs/Dz13tm3txg/b/n48fr3g478fT639tuOftP18Y1PbiWC/gv8OPrfzC/Vt2tra3t0Z7FPmjjt6H+n2OXJfYZH91dInxeMRQoUu72ZOvfQ89n/cwpHTyp/4/7y5jdqGM9w6+kua2uzXuysffNaa+MmmZj4Y2Dvi//Imrh4BO483hx7fHhhh9evdFULrduPiPpENhdfzt9GV403NKbVP/54UNzVzMtivps9Y8voJFrx+ggU7fPBp4DmlbbJ03PH7SLHPH36OJ2pfCjT0yTI8h65+iA6jy19Nty553Dq6T+BDs82qH5rV/Bmz3t0YuONzGi43RV07MrzIqWqIT/v2ehx3gj6fPPBRR+1diIR0+77QBT27ct9X+tJCV57ecpqnt3zKH7d9yhNrPmHvxy3cM6Fvap/+79ULy0AfKzZ9FjG6aGbdrs842bsbAz9oYt1nweU+1uyH0QNSreU+3AeaQ/8OtZFu+3HbpaFDjjt5n/sN6KHtWLLRJyHQ+d3Mbl3yuO7Lvbjuy73YevgM3k+aeWjyhWm3V3j5xcw58BFLXg++Urry1SkX0q8XPDimmQUbT/Ba4JniMRencXHZxGhOs+D1lpg2eqXXfq/47QaOuIAHhyc5zv4mVuwIX1DP/nFr6XPs8vAbA7H9zXifhEDH72bGevvo53g/aebGoj7JV9ZF4B2+mI9ACCGMQWIphBA5QYqZECInyFVXzUzcfJ3EEQlhVDIyE0LkBClmQoicIMVMCJETpJgJIXKCFDMhRE6QYiaEyAnt+gaAz+fj9ddfZ+3atezdu5djx46l3ZFuPXtz3gX9OX3sQNptCCE6H5PJxOWXX87YsWO54YYbuOSSS9JqJ+1itmvXLv7nf/6HESNGMP3qKZiH9KNPjzbIi10zbkH08rzYNZKvr/Rc4qeU2lPYIg/ykvUhblHi9RO2o7J+3PLQIae2vub+JFk/2/2J+81r/tsJPKdx/bxwxzW2n3j9pMdt+P4kXhj9J5n+71b1dazS/tmzzezfv48NGzbyxhtvcP3113PnnXcq9ENZysXM5/OxbNkytm/fjv0/H6TH2f20nG0KdzSm09G/uMgDiSxmiZdHnyildsL7TVjS8qLbju5eNvqTwXYSFo/4cxxaJ+EfjHHbiS9mCX6vof8o/c4N8rsybDsxzyU4x8rFrOP/dny+syxduhSPx8MPf/jDlEZpKRezqqoqBg7oz43Xj+P0h7uSdk6KWTvaMWgRkmLWmdqJec7gxQyANmh47z1+85vfMH/+fC666CK0SOkNgLVr13L69GlKLfmc/nBXKpsKIYQmeXl5XHZZIffccw9z5szRvJ3mYnbq1CmWLl3KnPtnceYTb1qdFEIIraZMmcKECRO49NJLefTRR5Our3ma+atf/YqR+ZcydriP1pazmoeNMs1sRzsGnR7KNLMztRPznI7TzJaWVpqbW+nZo7vmdj777AyzZs3C5XJRWFjI7t27UaJ5ZPb6668zaUIhrS0p5NMLIQTQ2trGRx99woEDBzjzuY/WVm2X6s877zwmTZpEv3792LNnD1dddZXiupqKmdfr5aKLLqJrW1PylYUQIkJzcwunTzexYsUKqqqqWL16Nc0trbRqmBT6r59dFnoTYMOGDYrraipmH330ERdeeCFnP/84yZq7eWzc3Vw67m4unfM6hyKf2vxnzGPvwDz2Dr75wofqzRx5lXvG3Mawh1/lsOJKx/nLQ7MYOnoWCzYFl+3k55ffwpDLb+HnoWU7+PmomxnyoItDR/7FXaNuYvCD/4ruWzKHV3Fn4UwGPfFOKlsJcc5rbm6lpbWNZ599lq1btzJ06FCefvppXnnlFc6ebaa1VeE2iREG9u/L+eefH3p83nnnJVxPUzE7duwYAwYMoNn3qcZDANZtZM3R8MP1b/5T+7ZBhZcwRPHJAUy/YQIAuw8GiuORo+wJPLsnuGzTFmqAa2eMZ2io3UHhfwshsqK1tY2mz85QU1PDunXr+MY3vsG3v/1tZsyYwfLly1m9ejVnznxBssv2pm7Rz3/++ecJ18vOdzOnjsXCO7y84URgwS5eexYsU8dp237w13hux984+L3RqqsNHXYpAO79xwE4tH4dq5nAtdNg9SvbOQQcOvg+AEXD+sPg63l+90qO/KA4naMSQmjU0tLKqY8+4c9//jPvvPMO999/Px9++CHz589n/PjxXH/99TidTtasWcMXX5zVfA0taMKECXHLslPMRk5h5lRw/8vjn85t2cbTQFHhsJgVd/JY8TcYVnx74Ocxlh8hPM385c7Av/+NoQ8v4O4xNoaOtjF09DLWAUyeSAVAw1EOAd7922DaVL5+GbD2CF7Au+8t4Fa+NhkITjN/4YHD/+KuohsZ/MB/+/9b9HUGFzn87QKH/u/HDLqsjEGXzWTQV/+H1ZHd3vQHLimc4f8ZOYNLAtPPdU/cwCUjH+X5wwBv87MCKwMLfudvc8PTDCwo4WfKU34hckZzSxsnT57k6NGjPPDAAxw9epTVq1fTo0cPfv3rXzNgwACmTZvG5s2bAWhpaU7SYrRE3wPPUmrGQK6+fmxoqrn+jX8CX+er02PXG80PPX/loGcFB1dVYOFtfvCXnQptXskTO5xsmD8B+Du/dR4HBpA/DVh7GC87edUBXDaI6SMmAAd4/8iHvN8AXD0Es2Jfp1G15x9sWjAReIH//b/jcHgVP/jhW3D/4xx992U2P/aV8OpHXuHOe5xw/xMca3iFY8/9G/zhB1zyxDuYR3wF2Mp7h4ANm1gMwAEOHIZD3gPAbVivTP1sCtHZmLp3CX0+bOfOnbzwwgvccsstzJ8/n3HjxrF06VLy8/P57ne/C0D37t2TtBitA4sZDL1yChbeoXbD67y2FPj3CSR+U3UnC4pvZ9gNNbgB3juW+KJ/4DrX0GH+0Z1/ahm8bvZ3XnP6r5dVXDOGoVdN5Vq28c/122lcE3O9LK7dS/ztmv133l297wMOrV/DamCOZaz/WK66mmsDqx9aG3juusCUecok5gDsOQLTruFaYPf7xznk3QcP3MZcNrNy7Qd4922Ga4apFFUhckkeX3zxBU6nk9WrV3PfffdhtZbQvVs3/vM//5OrrrqKP/3pT+zYsQMg6XUzLbKXZzaoODDV3Mge4OHpl8etcuiFhZiL5/P0v/+Ug56f8nAauwleN6v58W9ZzQQKhgKDB1EErH5lHXsIXC/rCEMmctPVsLruJZ55ZStzr72ZkdfA6/tewvUHuG7GRHnjQZwTfGdbOHbsGDt27ODuu+9m5syZdO/eFZOpG926deXuu+9mzJgxrFq1CoDm5tSmmYlkMZzx4sBU823cfJ2vTopf4+CBt4Fx/OLOy+HIsdA7kSkJXjcDmDaV6YMBxvC1cmDtNlYz0V/gUjB02AgAlrj918KCIzWAodP8o7Qlr7/tX7BxM0uAa0snMpQBDC8C2MfuN77CyGEDuWbGJPjD31jMJG6all5OkxCdTffuXRg8eDDf+c53sFgsdO/eNfQNj25du3DRRRdy1113UV5e7l/Wrf13vcxq0qx/qgncm3iKedUdD/uvk91wO8Pmr09zL4HrZgCXhT9yYR4ReLfj6mCBS8GUcpz3A888yqDLZjKpjtA0k8Ez+MtzNnjmEf8bAPf8HzzwC5bfPgCAqdfeBmu2svqaa7hmSHj6yjXTuUb5cyZC5JQueXn07tWT/v0v5ryePeK+RdW1Sx59+55P//796dnTlOCrbKnT9N3MVatWsW3bNu65sTCQXab9O1vy3cx2tJPh70IarZ3Y35V8NzMb7cQ81wkigGLbcb+6kh88uiD0zmdQbOmSewAIIXKCFDMhRE6QYiaEyAlSzIQQOUGKmRAiJ0gxE0LkBClmQoickIVidoLlc+7m0nF3cem4uzBX74Kjr/PNarmbkxAie9r/HYIou3ls3AJ45s+8vyT4cb08OPpBZncjhBAxMjoyO/TiSn5374/44RVKa+zisUB0tnnsc6wHOPIa9wTzzH65y59fVnwbw4J5ZkIIoUGGR2ZgGaGWUHE5P3xnOT8EDr3wOEs3w7BDGyhyrOC5wBfRD7/wIkWOv/HcZIj/CosQQiTWwW8AfMjyCv/IbOpP32bPwQ8ZOutBCp65nWHFf2I9MGRWBQXP3MawMf7HQgihRUaL2dArp8BP/5PHtiR+/tALf2Dv/cvxvrOcdT8N3g+gP3fUrOCg5yu8WvEah7mYO2r+xsEdE3lV9e5MQggRltlp5qBrWfYKzJ5xN5cGl937Y7x3+v85dNgwnr7/Dp4mcHOT6/0BjVP/258NZvnZYnhhAcOCj+cvUbk7kxBChGX8mhmDrmXZ29cSDh/JAy7nT3aA0XjfuSewYjAT5L84OCvy2tiPODgr+LRcMxNCaCMfmhVC5AQpZkKInCDFTAiRE6SYCSFyghQzIUROkGImhMgJUsyEEDkhq8WstbWNydZvZXMXQggBdMDI7NjxU4oFbX31QpYfCT46wfKK21mwOeLxw4+x/IVlKaVnrHvyZ/zlSPL1hBC5JevFrEuXLmx56x0ml8QXtGHDoXbDh4FHx2lkHBw8EXj8AY1cyfRZszn4vdHZ7qYQopPLaDGbVPItJn0t+DOXKYER2ZAhQwIFbW7U+kOvvBL2H/c/2LwV7r8V/vW2/8vlm95izw1jGXLkVe755U44Us/dv6znLw/ZGDp6Fnc7j4faWffkrQy9/FaGXL6UVyPaX/fkLQwZdbP/5xc7/Mt+8dPAyO04f3ngv/nL4eC/HazL5MkQQnSojH43s3b5Y1G3VW9tbeWqG75Da2srU6ZM5p9/WRi9weBiyt5bxXrGwBteCu78JpeOfJE3j3yN6Yfep2hoTDbaHzeAy8mhwTtZMPoV1tlmM3XTMm5nAYd2jSaPnfz88vfhLmDTUm5jAYd3FwOw7hc38/NNKyn/Mrx6CGA7jYXDYf1x+LdjNBZO4s5MngwhRIfK6MhswMUXxPxcSGtrK2bzMF5a9mMG9L8gZov+XH29l1c37+LV965i+mC46ppLaTx8gjdXXcrXJsesft+t3DkYYAD50/yLDh18n4prgtPQ0XytPLj8ABXXjAltOtVyK3sOHmfoVVPZ7fZwaP1hCu7+CryynUObtsK1xZk8FUKIDtYB18zyFAqZ39BhZva8sRWuH+uP+xkymD3P1PDPwolcpaH9ocMupeaN4BsEO3nVEVw+nJo3doTWW+d+kaJhA2DweG5s2MIfGcL0IWP5WuFh/ria+MIphOhUslrMunTJY5NrMQMuTlzIAJg0gaJn/wHDLvY/HjyOr/M2RdM1XvSfPINfNPwocM1sC5QHl9/L3/hR6JrZb7/8B348GWAA02e8z5J9gxgKTL0WljQMwZz+YQohDCCvra2tLdlKq1atYtu2bdxzYyEtZ5uAvHAcWVTmWF7UNbOo5+PyyfIiNkm8PHJ95XbC+80jwXN50W1Hdy8b/clgOxrPcWidBMuN3E7s7yovL/qx0jmLbMcwvyvDthPzXIJzHL258f523K+u5AePLmDz5s1Eii1d8g0AIUROkGImhMgJUsyEEDlBipkQIidIMRNC5AQpZkKInCDFTAiRE6SYCSFyghQzIUROkGImhMgJUsyEEDlBipkQIidIMRNC5AQpZkKInCDFTAiRE1K6B0C3nheS1/U8/wON+URJ88Pi/p14ffU8s8hdK2RixfY2ronk2VDRayc5lrzYTbRkUin3O+rfCQ9fS5ZU8vbzFNpXziFTWV/p3wnXJ2HWVvg/ihslXb8t6unk6ydtP+7fqa3fFvUPld9DkvaV/wbD7av+WSVc3pZwudJmkeun9TeotH7UHrSNuVK7oUnvUXRNaYOOlTRlUuM6QoHSyZOTqqBN4d8iJV37aFotpWLWfHJdIGlWCCE6Rs+eIzWtJ9fMhBA5QYqZECInSDETQuQEKWZCiJwgxUwIkRMMVsxO8tdvzWb4hPDPwi0Au1kY+reS3SycsJwNiu0+yV+PZKHLQghDSO1zZh1iLE/Ufp9vDI5cNor/2rZMrw4JITqBrI/MmptbeG/f0WzvRghxjstqMWtpaeVnv/wbD32/pp0txUwhj7i5NzQVVZhablkenq4+tSPiieiprPrUVQjRWWRtmtnS0spPn1zBmo27U9zyHR4pm80jQMIp5xE39z4GC7ctYwj4i9ZTuznw3Zh1HjzEE7XL/NtuWc7wZfAEwBYXjxQ8yoHfjmrH0QkhjCYrxSz9QgaJr5lFOHIU97qXmTbhmfCyqYM4zIDodWaXsTTYxhVWnpj6R/+/Bw/Csuxx7h3+FEtv7ZdG/4QQRpTxYta+QqbR7Ec58N3YkVV4f4cPHgLGJd52sIWl2ywcfvFJhk94h4d+v4z/uiJrPRVCdJCMXzPb9/4HcYXskgEXZG4HgwdhWVar+jGLIVMmYVn2dvha2hYXj6yLWefW73Pg9zP53ZtZLLpCiA6T8ZHZyC8P4vUXfpbpZsMGW1j6+6MMD11XA8tPnmLprdHrLPzJk0ybMNv/ePb9PDH1kP/fW5Yz/MGXAyvOZPk2uXYmRC7Ia2trSxq0tGrVKrZt28Y9NxZKBJAQokMd/Xwk3/nOd9i8eXPU8tjSZbBvAAghRHqkmAkhcoIUMyFETpBiJoTICVLMhBA5QYqZECInSDETQuSElD402+uC4bS1tmSrL0IIEe+wtpqTUjH70oDitPoihBBpO7xV02qGnmaufOU1JlX+i18t/YfeXRFCGJwBY7Nh89a3+N4Lx9nzyXncW3iahZsvoKVtJd/795v07poQwqAMVcwOHTrEz5a/xfLGC5j15bP86t8u4fwvDWXG2KPcvaIvza0reaRcCpoQIp4hppmnT5/mJ0teYvTP93KsqTsvf9PEj2ddzvlf+hIAlw4dxJ/+LY+ntvTll8+uzNBe3VSaKnFnoimvgzKTCVPopwyHF8CLo0zL8tjnte2n0h17HG4qQ8uFOLfoXsyec9aR/+hbrHq/B8/NauGpuwsZNLB/3HqffXGW4X2/4PldPXToZZi7MqZYuCsxFTQwz+fDF/xxFdOwP7iClZrGwPJGG86CStyYKa8NrmsHuyuwbS3l5sT79TrK4vZTutdBdO2zsMjnY5Elg8cnRCeh+zSzemM3xl3QxP/OHknXLvG19dDRD3hm3SkONnXl59f3YfmWj3TopRI3lVYPNY21RNUPyyIWJVrdXILN6mSvFywKRUtpP4srinH5FkXtx1JeDpkZWwrR6ek+MhvX7wxFF7fwm5d30dLaGlr+0cef8IdVO5jz4hms+V3557zpfM0yjV8+eE3qO4mansVMLd2VMdM2iJsGBp5wV5qwVkO11YSpzIHXXUe1fZ7iaCpj3HVU20tJPuCKmTonPO7AOgmOO+74snM0QmSF7sWsSxf40Z2ToRX+55+7+ezMZ9St38Xs5z/ikj5dcNkv47aya9m+fTszZ87krrvuYu3atSnswU1lgRNbcKoXNbqpxlpXGpruVVcFX8AR00BfIzWeKhxesCzy4Z8V+vDVlsNeD9bCEaHWvI6yUIEoS3Txy72YCmyUpFj8vDH70baRg7I5sCQ09QVrqFonPu7Y48t2jRYik3QvZgDdu3fnx3dfyRctXbjut59w9HQrf68wM/vGafTq1YuePXuycOFCFi1axIIFC3j88ce1N646erLjCl5gspRidzUQutQVGrkUUOFyRVwDCzPnF+OKeMJcXovP56OxxhqxlouKgsDoyAquNIpE7H402d+Ay1VBQXBkZq0Gz95AsVY5biE6Kd2L2QU92ti5u4Hu3btz71X9eGTyKb5/x3T6X+y/DVyPHj3Iy8tj3759jB8/nokTJ9LY2Ki5fe9eT+qdcldiqiqkMTCqcdkV1htRiLW6LslVq4g3AGKueWmmaT8JhN5YCPzIaEvkMN2L2XdumcBLW4+xc3cDXbt2obcpL/Tcrj0N9O7dm5tu8n+2rKioiKKiIoDQsmTMJTas1VXqH3mI4d3rgeL8wAvfTV21UuPlLKnxYM329SVzOfPs1TH78eKoVNnviMKUj1uIzkz3Ynap2cx/3DKRl7YeY4/3BACHDh/mD39fg3vncQAaGhpwu91RPw0NDdp2YC6n1lUcnupp+GyZuXwe9mprYP06iBiZWUrtURfIzeW1NNqc4emcyUSB08aSDL8rYFnki9nPHJirMtKKO26F63ix+4k5PiE6i5TuzvS9730vax153+vlVy+8xVny6NMNvv6VS5h25WTy8vIoKirC7Y4uQRaLhT179mStP0IIY9i6daumuzPp/jmzoEvNZuy2PPYeOMhVk79Cjx76fjhWH24qTVaiZ7X2uM+XCSHiGaaYAQwbNoxhw4bFLS8sLMRiscQtyz2BT/Dr3Q0hOiFDFTMlK1dm6vuYQohcpfsbAEIIkQlSzIQQOUGKmRAiJxi6mElsthBCK0O+ASCx2UKIVBmqmElsthAiXYaYZuoTm93R2hNpHR+z3bFpsBLHLYxP95HZc8467K/3YkQff2z2qPzEH4b1x2a38PyuHmTvS1XZ5P9AbPqs1DQGYrW9DsoKKnF32DcDovvurjRRV9q+eG4hMk33Yta5Y7N1knb8thC5S/dpZvZjs6OnaKGpklKUdopR00oR28FtHI6ywF2X1CKtldtLOLXz1uOMTKzV2GdTZGMp7T/c94TR2optRZ6D+OPxOsqi+yREO+hezLIem+1eTEVxOKTQPzVSiNJOI2paKWI7uI2TJfF3XfI6KIvavwusgdvMJewvRCXWzoElwaBFrX32ubBXW/3FJK39+8VFa6u1FXUOAuetLvR/E+qdUDNX5qoiM3QvZpDl2OwRhVirrdFZXkpR2ulGTStGbNuZlyjXbH8Drqj9W5hbA856b+L+AuHEWhd2l5N6b0RbWvqMhbk1Vjx7vWnuX4FaW7HnwFKKPZiYGzu6FKKddC9m2Y7NxlxOrc/HEuaEpjmqUdqpRk1rjdhuR3+jWVjkKqZiccQTmYzHTrr/9rAwt8ZDnRu89U6K50mMt8gc3YtZtmOzg8zltaFpjmKUdhpR05ojtlX342ZxBdgihimR/Y1jmUuNJzBlVO1zNVWhJyL20d79p3gskcwlNjx1DuqdxZTKDFNkkO7vZvpjs+E3f3+LUQO7A/7Y7Fc27+dsC1w9NRybHSk230yRu9I/9QL8QYcWwEKtqwFTgYmK0PJFWMzlMcvBWtNIbbly8+byedhNVkzV/nbsWkZmCfZjd/n8U7WE/Y2tVGbK59kxWSsp9S1S6bMdG3MwmVzR+yDV/cec+1I7VquJamsNjbUqbSU89hJsngKctkZqNZwqIbSS2Oyc5abSVEep4VJqvTjK5sCS2uzfPFnkBInNFsYUuBFyoxQykWGGKWYgsdm5zYujrIAKlx2XTy78i8wzVDFTIrHZ6bCwyGekCab/83gqlx+FaJeUi1leXl7ylYQQIkPOnj2rab2UitmnJ9+lrVVbw0IIkQlZKWZNJxtoOduUVoeEECIdvXqN1LSe7h+aFUKITJBiJoTICVLMhBA5QYqZECInSDETQuQEgxWzk/z1W7MZ/tTuhM9ueGo2w7/l5nBKbe5m4YTlbMhI357kr0fa3ZAQIgsMVswCltXGF40jbpY0jtX0pekNT81m4ZZsdEwIYVRZL2bNzS28t+9oCluM5aHZ8PLGk1FLD2/czGUlkzLbOSFEzshqMWtpaeVnv/wbD32/JqXt8r9RxmX1OyKmk7tZOn8oXx12NDpZ64ibeyfMZviE2QwPTCU3PDWbO5bB7x6MmZJuWR5YL2bUFtVGzHMR2wx/akfEE4HpcKJthBC6yNoXzVtaWvnpkytYszHx9S91o/hqweMs3WLhv64AtrzNuz+x8l+4wqsccXPvY7Bw2zKGgL/wPLWbA99dxnJm89r0Zf5t2Q28zB1vPsqBbXf41/ujm3uvsDDkiJt7yzYzs3YZSwf711044Un+Wvt9voGbex88xBO1y/jG4ED7y+AJgC0uHil4lAO/HdhJkDcAACAASURBVNW+kySEyJisjMzaV8j8rvzG/bz75m7gJH/94yFmTukXvcKRo7jXPcO04MjpwZeh8bjCmwMzWf7dQOG5YhwPrTvKwWAbs8v8xQqAUdz7k8AUN/a5K6w8MTXw78GDsCx7nHtfjJ4KCyH0k/GRWSYKGQCDxzCz8Y/8dcskXi4o84+cYt8UmP0oB74bPzo62L49A3D44CFgnELfLCzdZuHwi08yfMI7PPT74ChQCKGXjI/M9r3/QVwhu2TABWm01I+rS+CRB5/hsukJpnODB2FJ9K5nKuLa2M3S+TBzSj+GTJmEZdnb4Y90bHHxyLrozYfc+n0O/H4mv3uznYVbCNFuGR+ZjfzyIF5/4WcZaWvIrWU8VD+JexONegZbWPr7owwvm80jgUWWnzzF0lv7ceX0mdzx4Gx+N/V+1v52gPIOErTx0O8D18iwsPAnTzJtwmz/E7Pv54mph/z/3rLcP60FYCbLt8m1MyH0ltINTe65sVAigIQQHero5yM13dDEmB+aFUKIFEkxE0LkBClmQoicIMVMCJETpJgJIXKCFDMhRE6QYiaEyAkpfWi275DJ5CE3ARZCdJyje7R9QTGlYtaz98C0OiOEEOnTVswMN81saWmhpaVF724IITqZrOWZpWPVy6/iXtJEa3Me0x7uzo23zNC7S0KITsIQxczrPciKpzZxbGcPxt/eRndTHm/UnMVT6+T2R8ZTUJCvdxeFEAan+zTz+Wde4tf3baOLCb75CzNXXjuGr0y9nG9WDafHhW3UVOzi+Wde0rmXbipNldGR3Wm3Y6Iy5Ya8OMpMmEzBn0z0JUu8DspM4b76jzXy/Gk5B5k63+Jconsx270qjy7d8xg+sSe9e/cOLe/VqxcjJp5Ht26wuy5psEfGuSvTKTrJWFjk87FIyy2m4lipafTh8/lorPFg1di52OPIznH5eR1lmAoamOfz99Pn81G614E3aq32nAMhlOk+zeyX72PwqB5sfLYZT+12rr1vIF265PHmc8c49X4Pxt/Wyol9zXp301DMJTaszr14sWDWuzMhbhZXFOPyLYq6HaClvBxkjCU6gO4jM4CSr0/jW09PpF9+G/9Y+Akr53/M+UPhO38Yx0zbdPK6tqf1mClacFjidVBWFjFqiHjsrjRhrYZqqwlT5DruypjpU8S2cVMrCE6XHI4yTKYyHN7w9MnrKIuYNkZMHaPaSjzV8tY7wVbiL2QpHIcj0XEl6btb6ZhjueuotpdquK9pzBQy6fH6p6WmbA0nRc4wRDED6NOnN3f9x1eZ+gBc9SDc9R/X0aePf9o5atpFrFmzhhkzZjBz5kzWrl2bQstmymuD055GajxVOLzqW1gW+XDZwe7y4astD4x+qrHWlfrbcdmproooBgVObI3BfbjAWhaxj2qcLMHnq6U8YhhlLq8NTcX8+1qExeugbA4sCU7TXERMJ11UFPhf9AUVxcwrTz4miz2O8tjj0tD3hMecgHevB2vhiKR9iuamMmr/i2KKoRdHmRVcPnwyLxVJGKaYBfU4rzs9enWPWjbhirEsXLiQRYsWsWDBAh5//PHUGg2NLgqocLlo2J9Oz+y4gi8oSyl2VwP7AfY34LLPiyhUFubWgLPeG9pOtfC4K6kqbPRfQ9rfgMtVQUFwpGKtBs/eQAEJXzPzNRZSlYkL5Br6nvCYEzDnF+NK9cS666iO2n8kD1VlBTTMk+trQhvdi1nPvrD6X+tpaoqP425qauLUyVP0738x+/btY/z48UycOJHGxkbtO3BXYqoqpDFiFGQYXgdlVYUsiXw1212hEZvPFzkyjGAuwWatps5IM68RhVir61IqsN69nqTrVBvqIIWR6V7M7vn2DHqc152Vz25g66bttLa00drSxtZN21n57AbyC/K56aabACgqKqKoqAggtCwZ714PFOcHCoKbuurAE+Z8il1OgoMQb70z8hbD2o0oxFodOXV1s7gCbCXJpoFuKgsamBdZrOLaUuCtx+myU2pp53Gk3fcEzOXMs1djjbx+hxdHpfLU1FxiUzneYubV+nBhpSzpCRHCAMWsT58+lN18PbMeuJoTR0+zb6v/58TR08x64Gry8vJoaGjA7XZH/TQ0NGhq31w+D3u1NTDNrIPQyMw/pQpeh5rTUIw1YjtLqT3+DYDEO6DWVRxqx2SygqtWYeoU5q60Uk011tDF7zIcxLZlinghh6+ZmQqc2BqD15dSO46ox2n2XYllkY9GmzM8TTbNgbkJRpaK5y5+6mxZ1IjNWZD89yDOeSndnel73/te1ju0Y8dOAMaMGR1aVlRUhNsd/WdusVjYs2dP1vsjhNDX1q1bO+fdmcaMGR1VyITRBD4qkehjJULoSPcPzWpRWFiIxWKJWyb0EPgEv97dECJGpyhmK1eu1LsLQgiDM9w0Uwgh0iHFTAiRE6SYCSFyguGKmcRmCyHSYag3ACQ2WwiRLkOMzLzegzz5XSeuX53h8pvbmHAnvFFzloUPOmls3JuhnSRLQNWLF0dZWfKvMHU2kjgrOpjuxawjYrO1JaCKTJHEWaEH3YtZ9mOzlRNQjZPSmkvkfAt96F7M+uX7uOIu2PhsM3+ev53DB49y9PAxVjyxnXWONsbYWuk3sh2x2VoSUBOmqSok1CZLYI1Ybqp0RE8hNaTIhmV4/yqJtMr7SuN4JHFW6ET3YgbZjc1OnoCqlKaqllCrkjpr9YRDFEsbqAjm8aimyCaS4f2rUthXGscjibNCL4YoZpC92OzkCagqaaqKCbUaU2ctc6kJ5vGopsgqyOT+k0m0rzSOB0mcFToxTDELynhsdhoJqEBaCbVJk1O1pMhmc/8p7iut45HEWaET3YtZ1mOz00hABZWEWrVdldiiX8juxeFpmdYU2WztXyWRVmlfaR2PJM4KnehezLIdmw1pJKCillCruhFLajzh9Ni6wvC0LC5VVSFFNrA84/tXSaRV3FeaxyOJs0IPhkmaPXr0KKtf2cTxvWcBGJDfnWtnTGbQoEGdOGnWTaWpjtK4C9qddf96H484F2lNmjXM15kGDRrEnffdnDA2u7PyOqqottqYmyP71/t4hFBjmGIW1LmLmJtKk5Xw5S07Ll9Hflg00/vX+3iE0M5wxSyRzhObrXekdKb3r/fxCKFdpyhmEpsthEhG93czhRAiE6SYCSFyguGKmSTNCiHSYahrZpI0K4RIlyGKmdd7kBVPbeLYzh6Mv72N7qY83qg5i6fWye2PjKegIF/vLgohDE73aWZHJM2mLibfK/STLN46sJ1CtI+70qTh6zhaoqJj+5et2O3Y/Rg4wlpius95uhez7CfNpiMi38tlj0iHqFWIqYmR6EvTXgdVHitaE3mSs4ZzxhptOAuy9SIM76exxpMkgy3MXRldOGIfZ5LEdAswQDHLetJsh7Nit4OzPvql5K13UmyzZWeX5hJsVg97s/wNbHOJDWuyDLYOJzHdwk/3YgbZTZoFUoh+1jh6SLJN4dx5FDvrI170/hdcaX4D4eBXlahqxX1pGX1lMAI7tuV6J9hK/EVCJYbbXWnCWg3VVv+02hHz2Bu3v8hzmCQWPJbEdIsAQxQzyF7SbNLo56i4ZhdYk1x/0rSNhdLiChaHYvvr8NTMjXnBqcViR+xLS9S2ezEV2Cgxq7SbdqR3OJ6ooKKYeRrm2ZZF/oBHu8sf2Fge89ic9BwqRZkn+HVITLcIMEwxC8p40myy6OeouGZ/5lfsFFG1PYVtLHNr8NS5AS+OKg+2kgRFQDEWO2JfilHbERloVnBFptZmKALbv5/Ia3OFVGXiAnnSc6gSZR4jeSx6AhLTnZN0L2bZTppNO0q6vcwl2DxVONz1OIsTvHC0xmIrRm1HFJnIkUUmI7ATHZO1GkMlWEtMtwjQvZhlO2k2tehnN4srSDyKItVtzJTYoMJaQXFp/P/iNcVipxi1rdZuRiK9vfU4XXZKLajGcCeVznlXIjHdIkD3YtanTx/Kbr6eWQ9czYmjp9m31f9z4uhpZj1wNXl5eTQ0NOB2u6N+GhoatO0gpehnK7iSfPwihW3M5fOwW2uYm2C6oikWWzVqW6l7mY3AjprOFjixNQZHgcox3ACWUnvUBf+ox+mcdxUS0y3AQLHZQYmSZjMbmy3Rz35yHkTnoDU2W/eRWawxY0ZnNW3WH/1cSKrvf+WaznceAh+ViPqRT+uLMEN8NzOZ9iXNSvSzX2c/D5J6K9R1imLWvqRZeRH4yXkQuc1w00whhEiHFDMhRE6QYiaEyAmGK2YSmy2ESIeh3gCQ2GwhRLoMMTLzeg/y5HeduH51hstvbmPCnfBGzVkWPuiksXFve1uPjrrJFUmTVY0iR8+/MBzdi5kxY7ONTVuyqhDnFt2LmTFjs41MklWFSET3YqZfbLZSImuSpFOltFaV5NWMpr9qSVZN2PcMH69S/+K2qU/+qxAiA3QvZtABsdkJqSW9KiSdqqW1prOvNNJfkyerKqW0Zvh4ldJp0z5HQrSPIYoZZDE2W41i0qtC0qlaWms6+0oj/ZWkyaoqKa2ZPF6ldNr2nCMh2sEwxSwo47HZSrQmvUZIO7U2k+mvaSSrqvVBTTr9Q69kX3HO072YZTs2W4mmpNcYqmmtKsmrGU1/TSNZNSvHq9A/1W2EyCLdi1m2Y7P9XHEpqpqSXmOppbWqJK9mOv015WRVtT6ke7xK/VM9R0Jkj2GSZo8ePcrqVzZxfO9ZAAbkd+faGZMZNGhQhpNmMynTaa1GT381ev9ELtKaNGuYrzMNGjSIO++7OWFstlH501ptzDVoe5lm9P6Jc5thilmQsYtYptNajZ7+avT+CRFmuGKWSPtiszMp02mtRk9/NXr/hAjrFMWsfbHZQohzge7vZgohRCZIMRNC5ATDFrNtb21n21vb9e6GEKKTMNw1s/fee49Vz2/nxHv+rq0d+R433DWekSNH6twzIYSRGaaYHTt2jLq/rWP/610oKjNRcvtl5HXpwtub32XZozsZcsXbfP2eKxk6dKjeXRVCGJAhppkvrniZ31RsJK9LHrf9rIDJljF0696drl27MvHKy7n9vwvo+aWuLPn2Vl5c8XKKrQdyvCoTfzXbXWnCVJYspdVNZWzOl0Jb0ev49x21zOugzFSJW2Ob8SSGWohEDFHMjrz7GW0teXzR1Mrp//dp3POn/9+nfNHUSltLHkfejf9CuiaJvrTtdVDlsZL8q4OBz1sl+Q6PpdROdV1EdfLW43SBZ2/Ejvc34LKXYtHYphBCG0MUs7OfwYO/HsuXLu7GK9Uf8PKz2/HuP4R3/yFql23jleoP+NLF3Xjw12M5+1leGnuwYreDsz66mnnrnRTbbJk5CPAnSXj2hkZ53nongR2HlrnrqrGXSgUTItMMUcwA+vY9nxm3TOdbi68kf9KXWPv8Sd589iRDR/Vkzv9OYcYt0+nb9/y02y+cO4/iiKISzNIvzW8gnFCTJFo68t+JYqbNJdgIxwDtbwDb3LkRy7zs9VjxB8VqbBPUY6gT3qUpZsobmtoGH5alMb0VwtgMU8yCunfvzlXTr2DirX244ht9uO6GqfToYcpAyxZKiytYHKpPdXhq5sakP6hFS0dSjqbOL3YFRoBu6qqLyTf7lzXsxz/txEZJwi83phldXeDEFnzO5wKr/3raiEJraHrrrXeC1YN/Buyl3gmqydtCdEKGK2bZZJlbg6fODXhxVHmwJaoqitHSkZSjqS2ldn+stXcvnsCNR0LX0vY34AoFJGpsM1l0deRzgUw1Z70Xc4ktML31Uu8sZt684kBx20+DYkEVovM6p4oZ5hJsnioc7nqcxZFFICCNaOk4llLs1XU4Ioc/gWtpjjSul6Ud1R2a8u6nobgUi6XUP8121+GxlUjyhcg5hilmn36a/F1KLeuoM1NigwprBcUJiko60dLxRlBo9eB0Eh75BQqLM3S9LIUepxRd7WZxRXC//mNtWFwHpRb802wnc5RGpEJ0coYoZiOvPJ+Vf9zE6n+t5+TJk3HPnzp5itX/Ws8/lm5k5JXpvwkAgfhoaw1zEwyQ0oqWjm+FEhu4oqZy/utmrnSmdylFV1vBVRsacZpLbHiqA7UMsJQWp9cHIToBw8Rmf/LJJ2xct5X33jrFRYOj78506shZRk68iClTv0Lfvn2z1gchhPF0utjsvn37cn3pV7mu5Cxvbd3GO2sP0tbaRtGkS5h11yR69OihdxeFEAZmmGIW1L17d6ZcOZkpV07WuytCiE7EENfMhBCivaSYCSFyghQzIUROMFwxa2lpoaWlRe9uCCE6GUO9AbDq5VdxL2mitTmPaQ9358ZbZujdJSFEJ2GIYub1HmTFU5s4trMH429vo7spjzdqzuKpdXL7I+MpKMjXu4tCCIPTfZr5/DMv8ev7ttHFBN/8hZkrrx3DV6ZezjerhtPjwjZqKnbx/DMv6d1NjWIihEKRPJGpspHRP0q0rGMQCSOIYuONkiXqdqLjFYalezHbvSqPLt3zGD6xJ7179w4t79WrFyMmnke3brC7LumXFAzEGo7rCSXJdlyqbGx0d3yUd+Z4HWWYChqY5wsfb+ne2AhySdQVHUP3aWa/fB+DR/Vg47PNeGq3c+19A+nSJY83nzvGqfd7MP62Vk7sa9a7myKOP9zS5VsUlQlnKS8HGWMJHeg+MgMo+fo0vvX0RPrlt/GPhZ+wcv7HnD8UvvOHccy0TSevazt3oJDGmijhNerGJ1HbaUyFTUhlGpVwH8HNEvTL66As8gYsEY/dlSas1VBt9d+kxRHz2Bu3P/VzoXpc7jqqA3ltKR272vGG1le+AY0QSgxRzAD69OnNXf/xVaY+AFc9CHf9x3X06eOfdo6adhFr1qxhxowZzJw5k7Vr12pvWCWN1S8i4dXnwl5t9b+IvQ7K5sCS4BTKBdbQC0wpaRbAFZFikeQuSlr3EdkvFZZF/gw2u8uHr7ac8pjH5lTORdxxxXR9rwdrynG1biqj9r8ophh6cZRZweXDJ/NSkSLDFLOgHud1p0ev6NSMCVeMZeHChSxatIgFCxbw+OOPa29QJY3VLyLhFQtzawJx0/sbcLkqKAiOIqzVELpZiXLSbPQ1s9r4AMjYvmnZR2S/2iOVcxF3XNHM+cX+RN1UuOuoticIxQTAQ1VZAQ3z5PqaSI/uxaxnX1j9r/U0NcUHLzY1NXHq5Cn697+Yffv2MX78eCZOnEhjY2PHdM7uCl3Y9vkCo5vOuI9sGFEYHRqpgZbU3Khb9QmRAt2L2T3fnkGP87qz8tkNbN20ndaWNlpb2ti6aTsrn91AfkE+N910EwBFRUUUFRUBhJYlpZrGClBNVejJiOfitssC1X0o9MucT7ErfAcob70z4u5Sqe4v9lykwFzOPHs11qgbKHtxVCpPTf2puUrHW8y8Wh8urJTJHY5FGnQvZn369KHs5uuZ9cDVnDh6mn1b/T8njp5m1gNXk5eXR0NDA263O+qnoaFB2w6SpLGCHRtz4p+L286U+ReZ6j4U+hWYGga3mdNQHHUTY0upPeqCf9TjpOciNZZFPhptzvA02TQH5qqMLOP2H/8GgGVRIzZngYa7zAsRzTBJs0E7duwEYMyY0aFlRUVFuN3Rf/YWi4U9e/a0c29uKk11lMZdiBZCGIXWpFndR2axxowZHVXIhN4CH5WI+pFP6wvj0f1Ds1oUFhZisVjilomOEPgEv97dECKJTlHMVq5cmaWWLSzyyQRTiFxguGmmEEKkQ4qZECInSDETQuQEwxUzic0WQqTDUG8ASGy2ECJdhihmEpsthGgv3aeZHR+b3Z4Y5/hYbE1RP5rEtp2ND6bG7iMT/Q7Scl618OIoi+xXoM9pNZzo9yUf+M1Vuhezjo/Nbk+Ms5nyWl8o7yuceJHe9xvjI63D8UGNNZ6IbLNMiogoarThLMjUizs78djuygKctsZ25JtFx5g31niwZrSIC6PQvZj1y/dxxV2w8dlm/jx/O4cPHuXo4WOseGI76xxtjLG10m/kuRebbS6xYQ1lm2VtJ9isHtobk5YtXkcZVlzUpvtN+ATM5bU01kDFYhmf5RrdixlkOzbbP2V0OMoC06oUYpxTisZO3JbXURYxRXJTGRgVxEZcx9YTb70TbCXhBAqFuGul9lMXe54SHY9/2hadLF4WSPpIfl6jRqJeB2UR63sdZdHnuL6SAqeNxtgRmcY+qU1Lo/5HoXBetfU1nQh1kS2GKGaQxdhsAKpxsiTBdFAtxll7hDSgGIFtLl9CjacqUMDCkTuxEdf+boUjtwsqipkX7KxK3LVS+5q4F1OBjXCcWcR5ItHx7Kd8nj0iQNGLv+bG7FDhXIwoDKfleuudYPXgb8rfTjiF20VFRTX2eTFxQgnbTdynmrkapqUq51V7X1P8OxFZY5hiFpTx2GwA7OHCEEk1xll7hDSgEoFtpnyJDWeBCSuuJNeUIq9nFVIVHA2oxl2n0j5E3aPACq6oZNuI86R0PJZS7MGEWW89zuIE509hW0ps4KzHi5d6ZzHz5hUHCsZ+GqKKqpUaVw0ea8woU2ufotpSoXJezZr7muLficga3T+aEYzNnjRtbNQbAOCPzf7i8y8oGFkQis0GMhab7Y9xLs1IW4D/DYFE1cScTzFoT4SFwPWsCurcGrLWUmrfSk2jxtGbwvGU2q3UuRdBXQXFpb4UtvViYw713nwaikspt0BdVT3e/AY8trnRo7AR5dS6GjAVVJIfOWJW6NPcmioWu2HEXifF82pVo8fdiyvA1ogZlYBPc4n2vgpD0H1klvXYbBXqMc4pUozA9uIoq6Kw0R8Jrfmaircep8tOqSVR25Fx12m2n/bxgGVuDZ66Suo8NSSczSlua6bEBg2L6/AfmIXSYidzqjyJo7sti/zvPgavKar0yVxiw1PnoN5Z7G9agbvShNVTw5LyRNHokec1xb4K3elezLIem61GQ4xz+m35I7DdlQVUBKZilrnRU6fYiOuoKWCBE1tjYESiEnet1n5mz01EpLe5BJunGk/kGxQatzWX2PBUEyo4ltJiXCrTQnP5EmqooCBh7Hdsnypw2ubGjGRdUetbcYWvUSaJEU+1r0Jf53hstsgdXhxlc2BJ+vc0EMYksdnntHMw6jrunVlxrtH9DQAtJDY7VedS1LUXR1kBFS47Ll8nueeoyIpOUcyyF5stOj//V8zK9e6G0J3hpplCCJEOKWZCiJxguGImSbNCiHQY6pqZJM0KIdJliGImSbNCiPbSfZrZ8Umz2eCPoSnT9NF7pRRbA0oYjxPZ//ak9gqRWboXs45Pms0Cbz3OYjvFFYuz+qKNTaaNT6rNHK+jDFNBA/N84ZTW0r2x8TbZSZcVIh26TzP75fsYPKoHG59txlO7nWvvG0iXLnm8+dwxTr3fg/G3tXJin7GTZr31TopLaynF5E+56PQvbjeLK4px+aITOyzl5SBjLGFQuo/MINtJs9E3tah0xy/zp5KqpaiikkjrDSU1WEojQwKV9h0QkU5qCsfGUhaZOhvxODaZ1pEoqVYhNTXlRFR3HdX20uTRQxrSZePXT/fmJEKoM0QxgywmzboXU1HsCk2V/FOiiBuT+BoDSa1m5RRVheTUcPuBF35kSKDiviEqndTnwl6dPLonNpm2PDapViU1NW6fSRJRvXs9WMNRqlpPtEpqL/gLuxVcvnbcnEQIZYYpZkEZT5odUYi12hp/cT40SimgwuWiYT/RxSgyRVUxRRbcddXYQwFaFkrt1YTqodK+I9NJsTC3JhzRnDbVNNqYfSZJRDXnF+NqSDEvVTW110NVWQEN8+T6msge3YtZMGm2qakp7rmmpiZOnTxF//4Xh5JmJ06cmFrSrLmcWp+PJcwJT6/clZiqCmkMjJhc9uDK4WLkXlxBcWTKnz08wvL5grn9buqCU71gXlY14dFdon13BiMKsUaOMDXwp/aqi56CC5FZuhezjkqaNZfX+qdXdW7/C684P5Cw4C9IQQlTVJUSTt11VMcWOZ8Le8y6kfv2q6YqtEJEuqk5n2KXk+Bgylvv1B61rZqamiJzOfPs1eGEV39vcFQqT03VU3uLmVfrT8LV9vEVIVKnezHLetJs5IV2K7gWWTCXz8NebQ0srwN7xPqJUlSVUmSjpphBFkrtLv/0LsG+/ezYAqO16HRT/9QwuJ85DcVYI1uOSaaNepwkNTVVlkU+Gm3O8NTaNAfmqkTsaEjttSxqxOYsSHhrPSHaS5JmhRCGJkmzQoNzMJFW5CzdPzSrhSTNZsu5lEgrcl2nKGaSNCuESMZw00whhEiHFDMhRE6QYiaEyAmGK2YSmy2ESIeh3gCQ2GwhRLoMUcwkNlsI0V66TzNzIzZbCy0R00pi8teM/MFWidoWOtG9mOVEbLYm7Y2YtlITyAprrPGE89SSkKhtca7QfZqZC7HZHc1cYsPq3IsXi/IXvzucRG0Lfek+MgM9YrNRjnhOuFwtdjpRBHd4G4ejDJOpDIdXLWJaub1EoyivPwLXX8gkalsIwCDFDDo6Nlsh4lktHlsxdjpRBDehbZwsweeLieJRi7hWjNp2heJ1CiqKmach20eitsW5xDDFLKhDYrOVIp5V4rFVY6cTRXAHtklYdNQirhWjtsPXzHyNhVRl4gK5RG2LHKJ7MdMjNls14jlhPLYKxQjuNGmJ2jaXYLNG3GvACCRqW+hM92KmR2y2YsSzUjy2CrUIbkUaIq7jo7Yjd1qP02Wn1IJEbQsRoHsx0yM2WzHiWSEeW41qBLfyRsoR14pR2+FrZqYCJ7bG4PUlidoWAiQ2WwhhcBKbLbJEoraFMen+oVktJDbbSCRqWxhTpyhmEpsthEjGcNNMIYRIhxQzIUROMFwxk6RZIUQ6DHXNTJJmhRDpMkQxk6RZIUR76T7NlKTZFCjG9WSib+l8VqyDEnAjvxVhKkvydbNMptRm4HcWlDSB1yi8OMqSnWNj0r2YSdKsNtpSXPWQXgKuZl4H/hSg4HHPqum2xwAACGlJREFUI/RF1CyITuLNTCqucX93uUX3aaYkzWqhluJqHFlJwN3fgMteSm1ogQWDHXYSksDbUXQfmYEkzSZNmk2W4qo5LbYSd2T7sV/ejpzORY6wNE5voxJwVbbzOspizpPKtMZSij1hvlts+wrTtRR+z7HJvF7VVFyNqbxaEnjT+LtSTACO+h06oqeMSuciapt6tZ4amiGKGUjSrFrSrGqKawppsY01HqymObAk0FcqWOyOX8/nc2GvtvpfJEnbV0jAVdnOXL4kdJ7clcmSOiws8gWSM2L/Z6T4u0q2TuLff2wyrzm2rTRSeZMn8Kb3d5VwG6+DMqsnHOJZ2kBFMA9K6VyobdPJGKaYBUnSbHx/VVNcU0iLNecXQ2hdM/nFkQ1FHB8W5tZY8ez1amhfIQFXdTsz5UtsOAtMWHFpuCYVfGG7wBooaKq/q4hzk2gd1YRbBWmm8iZP4E3v7yrhNrF9tMylJpgHpXQu1LbpZHQvZpI0m7y/6aS46iKVBFxzPsXJ14phYVFkYKWW31WCddCQcJsx6f7u0vi7Sprcq/e5yDLdi5kkzfq3U02aVUtxzVhabDVVoUYi2kil/cgEXNXtvDjKqihs9CfJqt/1qTLq+dALVsvvSmEd9YRbrW1pPM9pJPBCen9X/uOKKJzuxeEpo+q5UNimk9G9mEnSrLakWcUU14ylxdqxBUaDUW0kbV8hAVdlO3dlARXF/qmNZW4NHqvaGwBzKawK/z4KnDYaE/4OE/yulNZRSbiNTebV9DtLIuUEXtL/u1pS48Ea3E9dYXjKqHIuFLfpZCRpVoic5abSVEdp3C38OhdJmhWdjCTYZprXUUW1tZBU72baWen+oVktJGn2XCAJtu3nptJkJXx5zY7Ll+QNrBzSKYqZJM0KocW5/T8Ew00zhRAiHVLMhBA5QYqZECInGK6YSWy2ECIdhnoDQGKzhRDpMkQxk9hsIUR76T7N7Lyx2ZHxwh0UH50JSeObtURFGzHuWZzrdC9muRObnV58dHRMc/zjTNIW35yZqGghOpru08xcjM3OSnx0u0l8s8htuo/MwEix2alEEivHC0fFR3sdlEUmMEQ8jo1pdsTFNsf2U2NUcyJa4psj243sr+r0OfCdymwNJ4XQyBDFDDo4NjudeOyk8cIK8dEqYmOay2Njm9OMak4keXxzwpOXOF483CoO/62T8Mm8VOjMMMUsqENis9OJx04aL6wQH90eaUY1J5I8vjkB1XhpD1VlBTTMk+trwhh0L2Z6xGYDKcdjJ40kjtpnCvHRHSWN+GYtx1xtqIMU5zLdi5kesdnpxGOnFC8cGR9tzqfY5Qzdt9Zb70RzKnHGIrFJK75ZPV66mHm1/tjrZGm8QnQE3YuZMWKzk8djJ48XVoiPDkwNg8/NaSgmcrPYmOaoxxmLxA7sK9X4ZpV46XCbgdvAxcZMC9HBJDZbCGFoEpt9zpL4aXFu0v1Ds1pIbHYqzu20UXHu6hTFTGKzhRDJGG6aKYQQ6ZBiJoTICYYrZpI0K4RIh6GumUnSrBAiXYYoZpI0K4RoL92nmZ0vabYDU2Vj4n9MprKUvoIVaCSmv9kLfxRCT7oXs45Imm1vemv89umlyqa407hUWJ+rGC3BF2r99UmKrMhRuk8zO3vSbHZSZd1UWj3UNNZG54dZFsmHYYVQoPvIDLKbNBub5hqf3uqfJnodZRFpqW4qA1O6hNtHiEqVjWs7PEJSaj9xp9VyxNT3k6y/WtqIfy4wlVZJzVVM9BWigxiimEH2kmZj01zNCimz5vIl1HiqAgUsnE4Rtz2gmCqrkgyr1H4isamwXkdZdLqHyn6S9Td03U01xTZZwmwCiRJ9hehAhilmQRlPmo2lmDJrpnyJDWeBCSuuJC9GhVRZ1WRY7e3HpsKay2sD1+es4WNQTaBV6a8vUETV2tAyMoyVKNFXiA6kezHLetJsIkops+Z8ilNtK5VUWa3tp5EKm0kppeoGKSX6CtFBdC9mHZU0G6KYMuvFUVZFYaM/PVXzizEyVVY1GTaF9oNBkErXvDKRQKvShmLCrIbU3KhEXyE6kO7FLOtJsyRLb/Vfh3JXFlBR7J9aWebW4Im4C1JsGqxiqqxKMqxa+4mYy2tjUmFNFDhtLCk3q+4ncX8T7kC5DcWEWZXU3ESJvkJ0IEmaFUIYmiTNdgqSCitEpuj+oVktcjdpVlJhhciUTlHMJGlWCJGM4aaZQgiRDk3F7KKLLuKjjz7Kdl+EECLOqVOnNK2nqZhdeOGFUsyEELr49NNPOXPmTNL1NBUzs9nMBx98gM/na3fHhBAiFfv27ePkyZNJ19NUzEwmE+PGjWPr1q3t7pgQQmjl8/l44403+PDDD5Ouq/kNgAceeIDnnntORmdCiA6zYsUKDh48SHNzdKbhJZdcEreu5mJmNpu57rrr+POf/9z+HgohRBK7d+9m+fLl7Nq1K+654cOHxy1L6aMZd955J++++y7r169Pv4dCCJHEqVOnmD9/PmvWrKG1tTXu+UQ1SNN3MyN9+umnLFiwgAsuuICHH36YPn36pN9jIYSI4XK5+O1vf8v69esTforiggsuSLg85WIWtGrVKpYvX87NN9/MFVdcwcCBA9NpRggh8Pl8bN26ldraWt544w22bNkSd50sSKlkpV3MwD8UXLZsGfX19Zw5c4ZRo0ZhMpnSbU4IcQ7atWsXLS0tfP755+zevVv1YxgzZsygrq4u4XPtKmaRSktLWbduHV27tuPuI0KIc87p06cVR2GR1AoZZLCYBV144YV8/PHHmWxSCHEOU7pGFivjXzT/6KOPaGtrC8VbCyFEOsaPH09bW5vmr1JmfGQmhBB6kAggIUROkGImhMgJUsyEEDlBipkQIif8fxZIuI9xN05HAAAAAElFTkSuQmCC;" vertex="1" parent="1">
          <mxGeometry x="-620" y="560" width="307" height="425" as="geometry" />
        </mxCell>
        <mxCell id="uozOtIk-62IbuRWrD_Ta-27" style="edgeStyle=orthogonalEdgeStyle;rounded=0;orthogonalLoop=1;jettySize=auto;html=1;endArrow=open;endFill=0;dashed=1;dashPattern=8 8;" edge="1" parent="1" source="uozOtIk-62IbuRWrD_Ta-16">
          <mxGeometry relative="1" as="geometry">
            <mxPoint x="-620" y="780" as="targetPoint" />
            <Array as="points">
              <mxPoint x="-1240" y="910" />
              <mxPoint x="-730" y="910" />
              <mxPoint x="-730" y="780" />
            </Array>
          </mxGeometry>
        </mxCell>
        <mxCell id="uozOtIk-62IbuRWrD_Ta-30" style="edgeStyle=orthogonalEdgeStyle;rounded=0;orthogonalLoop=1;jettySize=auto;html=1;entryX=0.5;entryY=1;entryDx=0;entryDy=0;startArrow=diamond;startFill=0;exitX=0.5;exitY=1;exitDx=0;exitDy=0;" edge="1" parent="1" source="uozOtIk-62IbuRWrD_Ta-16" target="uozOtIk-62IbuRWrD_Ta-19">
          <mxGeometry relative="1" as="geometry">
            <mxPoint x="-1210" y="1340" as="sourcePoint" />
            <Array as="points">
              <mxPoint x="-1220" y="1340" />
              <mxPoint x="-1220" y="1353" />
              <mxPoint x="-436" y="1353" />
            </Array>
          </mxGeometry>
        </mxCell>
        <mxCell id="uozOtIk-62IbuRWrD_Ta-16" value="" style="shape=image;verticalLabelPosition=bottom;labelBackgroundColor=default;verticalAlign=top;aspect=fixed;imageAspect=0;image=data:image/png,iVBORw0KGgoAAAANSUhEUgAAAQMAAAFNCAYAAAAEgwrXAAAgAElEQVR4nO2deXxTVd7/32lpyqaorKUlgC21QMum7GBACVLqSkccAeGxihZ0fMbqD+s44zMqIjBO9XFGKDpWQYfNqQsztWJQiErZBS1YrC1g2lJAFn0Q1HT7/ZGl2Zu0SW/aft+vV6A59yzfe5P7ueece88nqrq6ujoEQWjzhCkdgCAIoYGIgSAIgIiBIAgWRAwEQQBEDARBsCBiIAgCIGIgCIIFEQNBEIAQEoMffqnh5E/VSochCG2Wdko2Xl1bx2fHfmZfxc+0bxeGOhxOXahhcM9IdHGd6KwOGa0ShFaPSqnHkX/4pYa3C89zVddwhkdF0r6dyrat6PsqCsp+RRfXidiuaiXCE4Q2hyI9g+raOt499BNTYyPpfYlrCAO7R9D/8nasK7xAlw7hdOsYrkCUgtC2UKQfXvDdz/S/LNytEFhp305FSnwH3j10vhkjE4S2iyI9g29Om5g+oH2D+Xp0Cqemto7TF2s89A6qKdh9HhIvZ1xHS9LFi7y66yInLW+TErtxS/dARR7CtNX9FgJGs4tBdW0dZy7W0KOTb13/Hp3DOXm+2qehwplj51h5NJyZk7sRb0krPnaRM9070rUJMYcaxV+fpqh7/cke6vvtHK8Qmih6NyGwmPj8aDgzJ19qOyEA4vt19FiiddBW91sINM0uBu3CVHTtGM6pC771Dk79VMO1/X0I8/tfKOzZnls8bffYjTbx/tZfGJgIGw+aADUzJ3fk9O4f+OQC0KkjC0Z1pKtLPqDnpfxxkNrP+p268A7l1JaT2nOZ4q9Ps/EkcPI0hZ06sqB/dYD2u6kxu0/HOd5RHenaQEzd+9fwyVG4brTd8E8IPnUKYDhyoW5ryfk6k8nk9VV+7ue6V3af81JTVd32XWfrtl+oqzt99GzdK0er3Ge7cKHulU/M+cz8Wvee7f2vde998n3dM4d+raurM9fzjG1bVd32Xd/XvXfKNZ/1/Xun/Ku/7tSPdc/sulB32hqX9W/rtkO/ei9TV1f3zSFrTIHbb8c2GhuzfVv12MfrS0we90cIKorcTRjXtwNHf6jh+HnPTxz+Ul1HXvHP3Db4Ep/q7NopnJMXa91vvFDNyZ6d7K4yaib0h0Onqm3vZ1qu8F07hYMtbzu6dbavqD6fuY5wTl2o9qt+urcn6UI1Z6xxXbjIyq2nWbz1NIsPmuAnyzZPZYK0365t+Bnz979Q6NCWB3yISduvFY1eWxCKHPV2YSpuG9zZ8tBRtdeHjnx+xqBTO3oe/IXiQWqHsXPIYz/UsGHyvbwS++0m5jPHzjVX60KQUOx538vah3P31V2oIZxVe8+zau9PvL7/J5Z9/iOlP9QwZ3gX/54+7NgRbU8TG3dftLu6VVPw9UXOdGpHz5MXKLhoTTfx+VEY3MNfLTRhOFZt+9tWR2PrdynXCJplvxuOuWuPSN/2JRgxCQFB0U+gXZiKyVd2ZPKVHdlX8TPGH6u5b9Tlja4vflA3Fhw7x8qt1m9aONeNvpyuHWF+YjWLd53mE8uWpMRujZicUjOY8yzeWuNUR8fG1d/RtVzP/pcxv18D+9ldzcaD9RNywd9vX2J2Tq+fWHSON+AxCQFBsbUJznxZ+QvGH6u5KaFzw5kVwTLD7nQLTxBaC7IsUBAEQMRAEAQLMmvjM2pumSzLqYXWi/QMBEEARAwEQbAgYiAIAiBiIAiCBREDQRAAEQNBECw06QlEk8nE1q1b2b59O6WlpZw4caLRgbRr34kOl3Xn/Iljja5DENoiarWaQYMGMWTIEG644QZ69erVqHoaLQZff/01//u//0v//v2ZOGE0muiudG5vX5XKTSmVLVnlYz539TlsUrkr76ZeFag8teXy1jWfS1kP+VpLu855HQ+z/59ZfYpv+dzV53F/QqZd1zpVjv94b98pn8dzxClfVVU1R48eYefOXXz66adMnTqVO++8011wXvFbDEwmE2vWrOHAgQNk/Pd8IquOUlN10SVI2wF0CNxeDFzTHMo6pbkvi9O3VOXh4KvcnBwqNwffNa11lHX9LNx/PvZtOLXjdJxdywb6s/WvrHLH2Cm92b+Pjp+FyVTF6tWrKSws5IknnvCrl+C3GCxfvpyePbpz09Sh/PR9kduAbDvilBb4LwwKHPyWWNbXz8e+Dad2RAw8lHVKV1gMAKiD4m+/5W9/+xtPP/00V1xxBb7g1wTi9u3bOX/+PMnaWM5//7U/RQVBaCZUKhVXxcczZ84cFixY4HM5n8Xg7NmzrF69mgX3zODnH42NClIQhOZj9OjRDB8+nL59+/L44483mN/nYcKLL77IgNi+DOlXRW2NqZHd0EB3JVGgW9YSy/r6+di34dSODBM8lHVKD+L3saamluqaOtTqcMJUYfXlnNqw/2wvXvyZGTNmoNfriY+Pp6ioCE/43DPYunUrI4fHm4VAEIRmpba2jnM//B/Hjh3j11+rqa31baqvQ4cOjBw5kq5du3L48GHGjh3rMa9PYmA0GrniiisIr7vgW+SCIASM6upazv90kY0bN7J8+XK2bdtGdU0ttT506lUqFVdddZVtEnHnzp0e8/okBufOnePyyy+n6pcfGs68dy19h85CM/RO8yt9K+W+NBJMKj5i1lU3EnXPZj9jOcXau6fSK24qT9mO4Zc8FTeFnrFTHNL+HHsdPf7rA8oq8rjjysn0+K88yvxpqvzf3N53PN2e3e9XhELrprq6lpraOt544w327dtHTEwMq1at4sMPP6SqqobaWg82+Xb07N6FSy+91Pa+Q4cObvP5JAYnTpygR48eVJt+8p5x71r63vMfmPdHjF+uw/jlOjZM9aWFZuKqKGL8KtCDa5OvBqDIaPn9n4rjWEddtrSdO1kBTE6+mj62tqLr/xaERlBbCxcu/kJ2djYFBQXccccdPPjggyQnJ7N+/Xq2bdvGz7/8SkPTfup2jtt/+eUXt/kC6nRUXma+Ft537SBb2tgZkwPZROOInsrab6Y6Tdj4RkzfK4F9bD1yAuhJ+fbP2MpIJl+7h635+yifOR2MRwEY2LcnRKew4UhKYOMX2hw1tXX88MP/sXHjRr766ivuuecevv/+e55++mnmzJlDZGQkubm5AGi1WtTqCMLCfP9+Dx8+nP37HXuhAV2oFNPHfC185Z5Z3PXuadcMxz/hrqQ70CTdQZ+kmSzeY03/mDmJt9Mn8Tf0SfwNs985ZUnfwuzBM4i57xlmD76NmEG3ETNoNQUAHOSZQbcSPfAWy+sp1h0Hjn/ErISb6X3v/zAr4SZ63/sR5dZhwvKvzPXuyiHqqulExU8nKj6ZqGWWdE6y9u5p9Bpwg/l194eUjx7FAoDi45QDxiN74NqJ3HwV8GkZRmsaM9GNAazDhOcOmP/uP4nu8/4fM/tr6d5fS/f+K/nc0lrZhkfo3m8i3fpNoNv4ZWy1P1Y7X6abZhxdNWPNr2e/AODzxWPo2uf3vFkB8AVP9hnFFTEvsR2g4CWuiBnJkwVN+RSFUKCmBs6cOUNlZSX33nsvlZWVbNu2jcjISF566SV69OjB+PHj2bNnjyV/jV/1u1tHFNhVi9fMYvufhwBg+PPv0Ay9k2dtJ/wn3DVtFYbx91NQuIGywo38cSRmIZiaDU+vpOzgv9h4NxiefMV8YtsYy7JD77LzmeHAe7yc+z2QyJ++fo+Kovep+PhBJvEFj/6zsL7I5/148PC/Of6PqY5Dg4rN3Dk3F+5ZSmXxB1S+lQqvPUbUsq8oWDaPjM9hwVubOfHtZk68Po0YohhwLZYT/0v0/wDio7n2ypHAUY5VnOTYN8C1GjQeD8wk/nrUwBdLRwHreGnDCaj4D488thvue4nTxz5n/7JR9dnL/83td/wT7v87Z4w7OLNhNqx6gK7PfkHfuNHADkqMwI7t/B2AUo6UQ9l3JcBd3DDO709OCDEi2mF7PuDQoUO888473HrrrTz99NMMHTqU1atXExsby8MPP2zOH+FfJz/4YgDE3JbJd1+uZcM88/tV9/yTHUD5zl0YgPvvuc7h5KzYuQMDYHhyAX0Sf8PM1wH2U2o/0xffixggpk9fALYdtf5+70GeGXgL0df/nW0AxZX1E4RpV+PunCjf8TnbgAVas2gxynLl/+Y4XGmeH1g55wZ62XoLPbh22tXA2+g3mucLFk4aSsz4iUxmD5u27+PbT53mC5y5qjd9gD59YwHYWlpJ2edb2Qo8cN1wAPpMmIx1QFW/bYQ5Yew4HgQ4XA4Tr2cycOi7E5R9Vwr3z+FBdrDps0qMpTtA29eLKAktBxW//vorubm5bNu2jbvvvhudbgrt2rXjv//7vxk7dixvvvkmBw8eBGhw3sAXguZnMDZjnUUQyvjueEO54f6ctyk7+C/KDv6L8oO5/HGU9/zluU8RPeiPZKc9S0XRs6QHIGbN7c9yYtvvmQTwj/9HrwGvUgDEaK4EYMUfstjKSAb0AaKjGQhszf+UImCgpmcAIvCB6JHcooWt/3mbf/xnBw9efzsDtPBx6dtszobrbxwlE5etgKrqOk6cOMHBgweZPXs206dPJ6JdOOqIcNq1C2P27NkkJiayefNmAKqr/RsmuCOgYlD+7lrWV1rffc0nqwH60Ld3/XzCqtc+cbi9F2252q967WMqLGkF72xp8Bag8eh+YDjPz06E45Uc9jHGmLETmASsNFiu/Lt3sxKYlDzc3GOJnsb6b98kawKYhwHAmFEstFZw7USujQYYim4+8OmeeoHwA2sv4eVPzJM41t4A1PcSXv7EPE/AjgL+DkxOGUkfouifAFDKIcNYBmiimHTjWMh+k78zlpsnRvkXiBCSRLSD3r1789BDD6HVaoloF2Z7uDE8PIwrrricWbNmkZaWBkC7dj7+QLEXAvy7CWU8Nm0Wj9neD2X5h7MZCzByDsbXVGjuWcW4pFUA3J+zkT+OvIuyHOiTls2YxGxzsfEL2JnqvaVxsx5gUs7LPHr9LTw6YYT5au4L0Tewbk0FUXMziXrNknbPMtbd3pOCZdOY8Vp91gVvLWFWNGCbNwDie9uGOZorRwJ74NprLQLhB2MW8u5967jtlYfo9gqgHcVkMAtCzE28vaGMbnc8SNdVlvz3v8y/fms+0SdcPwdWvcVW7RO8GG0Vlh2gvZ5J/t07FUIUlUpFpw6RREZ2I6JduIttR3iYii5dLqVz585EqiNoxI0y1zZ9WZuwefNm9u/fz5yb4h28C2RtQksp6+vnY9+GUzuyNsFDWaf0EFjC7PzZGj7exP97fLHtzoMV51NfPBAFQQBEDARBsCBiIAgCIGIgCIIFEQNBEAARA0EQLIgYCIIABEUMTrN+gZ25SdbX5kVKWeKmLAihTICfQCzi2aGL4bW1GFfaPfhw/KTXUoIgKE+A1yZs4pV5f+SJazzlOMSzNj+DN9kBdl4Gt9Pnr4fg+MfMTkwlZnAqMc8fCmR4giB4IcA9A9D27+Fl62CeKNzAE8Dxd5bw+h7QlO0gIedt3hoFoKLinfcYmJPLP0cHOjJBELzRzBOI37M+3dwzGPM/X3K47DTRM9KJe+12+iSaewrRM+4j9rVUYgZbHY0EQWgOAmt7NmY0/Pkhnt3rfnv5O69Ses8GjIUb2PnUUEtqN3676m3KDo7g4/s/poLu3Lkql/JD1/DJfQ0vZRYEITAEdpgQNYk1H8LcabPq3Xb+608Yf2v+M6aPhlVpd7AK0I4fClOh4p3FjPmfLwHQPr0S3nmWmCf3297LilxBaB4CPmdA1GTWfDnZaRnlYN7MMP9vLJxjSbYuwfwjZTbvAhXwBOUzVI6rNgVBCDry0JEgCICIgSAIFkQMBEEARAwEQbAgYiAIAiBiIAiCBREDQRCAIItBbW0do6Y8EMwmBEEIEEHvGZw4dZZRUxa63bbjr8+y3vbTa6dZf/9vWLzb+v4U6+5bzLrcNcQ8f9Dn9gr+8mfWVTScTxAER4IuBmFhYez94iu3gqDpD//Zaf3p9pOUMBzKv7e8/55SxjAxdS7ljyYGO0xBaPMEVAxGXv8AI69fyMjrF3LN9QsYpTMLQHR0tEUQFjjkjx4zFqy/qLz7C7jnVtj8lXlx0u69FN0whJjjW5j9/EE4voXZz29h3fzbiB50K7Nzv7fVU/CXW4geeAvRA1/nY7v6C5bfRO+Em+idcCO9lxda0v7E2gqAU6xN+xNrjwOcZG3aP2SVpNCmCejahLwNz2L/E0+1tbWMueF31NbWMnr0KP6zboljgd5DuPHbD9nBYPjsO+LunEvf+Pf47PgUJpaVMbCPkzdCTgFseZeK3od4ZtAHFKTOY9zuN7idZ6koSgQOsnjgdzAb2P06v+FZjh8eAqgo+MuNPL0rj7QrYUs5wH5KruoH20/C7ScpuWoUswN5MAShhRHQnkGPbpc5vS6ntrYWjaYP7695kh7dL3cq0Y2JU7/j492H+Lh4LBN7w9iJfSgtP8Vnm/twnfPPsqelcmdvgJ7EjTcnlZd9R7rWOoxI4vo0S7rxGAsmDbEVHaedQVHZKWLGTqDI8BXlO8qJu2sk5O+nfPdumDwEQWjLNMOcgcoiBJe53R7dpy+HP/sCbhhKNEBMNEWvvcJ/4q9hnA/1x/TpS7bBOsFYyMc5lnRNP1Zu+8qWr8DwjrmnET2cm77ZSw4xXNt7CFOuKidnK0xxFh5BaGMEVQzCwlTs1q/wKAQAjBxBwuubIKab+X3vIdzIfgZeO9i3Rkal8HzxE5Y5g72QZk2/m3/xhG3O4O9X5vDkaIAeXJt8lJVHoogBxk2Gld/E1PsvCEIbRX6SvVl+tlvpsr5+PvZtOLUjP8nuoaxTuvwkuyAILR0RA0EQABEDQRAsiBgIggCIGAiCYEHEQBAEQMRAEAQLIgaCIAAiBoIgWBAxEAQBEDEQBMGCiIEgCICIgSAIFkQMBEEARAwEQbDglwdiu/aXowrvYH7T4JpqXNJc1mW7/Olt3bp9Mx7qcVg/jmMer+v2nev1tG7dc30qN/V53G937XpdL++5Po/tujvuKqc8nv52qQ+Xdfr1/7nN7KYu8x91DkU85/NYn9uYPW2rT6tzbdz2t8prm56+F+b6PH7kLml1Lmnustrn8+174e6zcKy5zsdrvn+GqJ0GEu5XgeDgzY2lQaeWtoK7A9FmDk6d0/9tnPDOPmXzSwyqzxRQU3WhUfEIgqAM7dsP8CmfzBkIggCIGAiCYEHEQBAEQMRAEAQLIgaCIAAhJwZn2PDAXPoNr38t2QtQxBLb354oYsnw9ez0WO/zbDjudqMgCAT4h1cDwxCW5T3KHb3t0wbyh/1rlApIENoEQe8ZVFfX8O2RymA3IwhCEwmqGNTU1PLUX9/mvkezm1iT0xDguIF5tqGEh6HB3vX1w40XDtptcByKeB96CELbIWjDhJqaWv78/EY+31XkZ8mveCxlLo8BbocMxw3MexaW7F9j/tXmvevp90IRxx52yjO/nGV5a8xl966n3xpYBrBXz2Nxj3Ps5YFN2DtBaH0ERQwaLwTgfs7AjuOVGAo+YPzw1+rTxkVRQQ/HPHNTWG2t4xody8a9bv67dxTaNc8xr98LrL6tayPiE4TWScDFoGlC4CNzH+fYw85X9vr2KsrKgaHuy/bWsnq/lop3n6ff8K+479U1/OGaoEUqCC2GgM8ZHPnupIsQ9OpxWeAa6B2Fdk2e19uE0aNHol3zZf1cwl49jxU45bntUY69Op1XPguiaAlCCyLgPYMBV0ax9Z2nAl1tPb21rH61kn62eQXQPvkCq29zzLPkyecZP3yu+f3ce1g2rtz899719Jv/gSXjdNbvl7kDQQBQ1dXVNbjoe/Pmzezfv585N8XLEmZBaGFU/jKAhx56iD179jikO5/6IfYEoiAISiFiIAgCIGIgCIIFEQNBEAARA0EQLIgYCIIAiBgIgmDBr4eOOl7Wj7rammDFIghCMKjw7Zz1Swwu6ZHUqFgEQVCQin0+ZQvpYcKmDz9hZOZHvLj630qHIgitnhC0PYM9+77gkXdOcfjHDsyLP8+SPZdRU7eJR/7rZqVDE4RWS0iJQXl5OU+t/4L1JZcx48oqXvxNLy69JIZpQyqZvbEL1bWbeCxNBEEQgkFIDBPOnz/PkyvfZ/AzpZy4EMEHd6n504xBXHrJJQD0jYnizd+oeGFvF/76xiaFow0kBjLVajINTajCmEOKWo3a8mpSXS6xZeJ/dUZyUurjUTeqDkEJFBeDt3LziX38CzZ/F8lbM2p4YXY8UT27u+S7+GsV/br8ytqvIxWIMlhoWWoysVTbuNLGnBTUccUsMpkwWV7JpTkYAxtkI9CRXWKOpyS7EF3gFEoIIooPE7J2tWPoZRf4+9wBhIe5alN55UleKzhL2YVwnpnamfV7zykQZShiYEV6EnrTUuy1RJuWplhE7tBMSUWXW4oRLRqlgxG8onjPYGjXn0noVsPfPviamtpaW/q5H37kH5sPsuDdn9HFhvOfRRO5Xjuev86/NgCtOnZlbRcuhy63XffWbbqlG23IdNNFd+oq2zaYy+TkpKBWp5BjdOqKe+zyu4nXkE9WRjIeOxUe63KOOxODff0pTj0Lu/1T21/hfRyeGLfkQuqUeiHwUM6Yk+J0nFLIUb6L06ZQXAzCwuCPd46CWvjf/xRx8eeL5O/4mrlrz9Grcxj6jKu4PWUSBw4cYPr06cyaNYvt27c3rVHDCtKT9LautbmbbiAzLpfUEmuX23LFNeaQsgBWWrvieuy6vVno8pMt6RlkLbeeSBrS8qz1lJBduNzui51FLisxmfJIs79UGnNIcWhfDzrLCeEmXmNpIbr4/u73z1tdTnGXZBeiUy+AlZZYSWeFwTWfyaQnI0tnPnkbrF9Pepz5ZI9LT2KRdUe9lNOkrbQdJ0OmDvROx0cIOoqLAUBERAR/mj2GX2vCmPzyj1Ser+W9dA1zbxpPx44dad++PUuWLGHp0qUsXryY5557rmkN9o9Hl6Ujxf7SY8gnK2OR6xfwaDF6fTpx1quZLgsKSy0nfQZ664Bfm0yGvpijtvqsV9Q40vV6im0bMupPDud2HNrXsjAbcrcY3cariU1CX1+p73U5xa2JTQJbXg2xDs+V2e0fWhZm6ygsNfpQf/2cgakknuXW3o/XchrSVqaSG6dGh77R8yhC41FcDC6LrONQUTERERHMG9uVx0ad5dHfTqR7N7ONeWRkJCqViiNHjjBs2DBGjBhBSUlJ0xrVpJFnMrGSBbauqrG00HP+jPqrsslkwpSX5n38a8hEvTyeEkt+fUbTwnUXr1kg8kN/pl4zhVRdFvm+BKqJRZ5xVQ7FxeChW4fz/r4THCoqJjw8jE5qlW3b14eL6dSpEzffbH62ICEhgYSEBABbWlPQpOWZu/f5BvNEV9Zy13Fq/3j36V4wlhZCUqxFMAzkZ/lQyKUdAyvSIXVKvezYx4smjUUZWegcxvhGcjJzMPpQl29ksdxWiV0d/tRv3EKuPoNkbUP7aCQnZTnxJSb06AJ4i1TwFcXvJvTVaPjdrfC3975gYM8IAMorKvhwz1GqamDCOCguLsZgcPx2aLVN6EcaMs3dfQAy0Ju0gJY8fTHqODXptvSlaDVpTumgyy4hz8ukvSZtERlqHeoscz0ZvvQM3LSToTeZu9Ru4wXtUhMlOSnEqW2RkV2Sh0aD57r8IoNUFqBW653q8BIrYJ0zSLeLSdvAPhoy48zzIhpgYTbL41LIKZF5g+bEL3fkRx55JGiBfGc08uI7X1CFis7t4MarezF+zChUKhUJCQluxeDw4cNBi0cQWgv79u3zyR1Z8Z6Blb4aDRmpKkqPlTF21NVERgbi4SIDmWodjr30DJd784IghJAYAPTp04c+ffq4pMfHx7sMC+Lj432o0fKEX4DiE4TWTEiJgSc2bWpN6xEEITRR/G6CIAihgYiBIAiAiIEgCBZCWgzE9kwQmo+QnEAU2zNBaH5CSgzE9kwQlCMkhglie9aYss72YoG0PPOFAFi2CSGF4j2Dt3Lzydjakf6dzbZnA2PdP0xktj2rYe3XkQTvoejmxvxQVOMxP/efpsHiFZCJodmernSM3ZCpJj+58RZugvIoLgZiexYgNFNI1eVSagStLO4RGoHiwwSxPWuk7ZnLLm0hl1Rsq4h9jNk3KzN37dfHbshUo8uCLJ2dbVoDtmvmY+C6P472Z0JzorgYiO2ZBT9tz8zU24upF8BKq+mKrzH7amXmsX0z2qVmA5cMvcX4xQfbNfMxMNX7M5gPAltyIXuhjDWUQHExALE9s7Xjh+2ZGau9mJ4MfS421zFfY/bVysxj+x7wwXbNdgy0yWRYHZucezdCs6K4GIjtWePidUTLUn0S6SvsNvgbc5PabwpaFmYXkm8wOyknLWpCnEKTUFwMxPbMUzsN2J45o11IdqHOzh/RU8yNtzLz2r6f+2KPZkoqhfk5bMlNMtujCYqg+N0EsT2zFfLT9sz5TNeQtigDtS6TZNNSLzE3wsrMbftOn0dyBjqdmixdNiV5DdmiOYc+hdTCOHJTS8jz4VAJwUFsz9oUBjLV+SSHnNOTkZyUBbBSPA+DgdieAWJ71kIwrCCdVEpECBQlZMQAxPas7WEkJyWOdH0GepNMHCpNSImBJ8T2LFBoWWoKpT6R+XmM0Pqp2LaL32KgUqkaziQIQshQVVXlUz6/xOCnM99QV+tbxYIghAZBEYMLZ4qpqbrQqIAEQVCGjh0H+JRP8YeOBEEIDUQMBEEARAwEQbAgYiAIAiBiIAiChRATgzNseGAu/V4ocrt15wtz6feAgQq/6ixiyfD17AxIbM+z4XiTKxKEkCTExMDCmjzXk+64gZUlQ3xaU7Dzhbks2RuMwASh9RJ0MaiuruHbI5V+lBjCfXPhg11nHFIrdu3hqikjAxucIAg2gioGNTW1PPXXt7nv0Wy/ysXekcJVWw7aDQeKWP10DNf1qXRcRX/cwLzhc+k3fC79LEOBnS/M5bdr4JX5TkOKvTmjji0AABjjSURBVOst+Zx6DQ51OG2zK9PvhYN2GyzDGXdlBKGFErSFSjU1tfz5+Y18vsv9+N87A7ku7jlW79Xyh2uAvV/yzZM6/oC+PstxA/OehSX71xAN5hP3hSKOPbyG9czlk4lrzGUpAj7gt589zrH9vzXne93AvGu0RB83MC9lD9Pz1rC6tznvkuHPsyHvUe7AwLz55SzLW8MdvS31r4FlAHv1PBb3OMdeHti0gyQIIURQegZNEwIzY+64h28+KwLOsOH1cqaP7uqY4XglhoLXGG+9cs//AEpOeZhcnM76hy0n7jVDua+gkjJrHXNTzCc7AAOZ96RliOK87Rody8ZZ/u4dhXbNc8x713EoIwgtmYD3DAIhBAD0TmR6yets2DuSD+JSzFdu50nFuY9z7GHXq3NZ01oGoKKsHBjqITYtq/drqXj3efoN/4r7XrX2QgSh5RLwnsGR7066CEGvHpc1oqauTJgCj81/jasmuumO945C6+6ugz+41FHE6qdh+uiuRI8eiXbNl/W3JPfqeazAsXj0bY9y7NXpvPJZE4VPEEKAgPcMBlwZxdZ3ngpIXdG3pXDflpHMc3fV7a1l9auV9EuZy2OWJO2TL7D6tq6MmTid386fyyvj7mH7yz08N+CmjvtetcwRoGXJk88zfvhc84a597BsXLn5773rzcMSAKazfr/MHQgtH78MUefcFC9LmAWhhVH5ywCfDFFD86EjQRCaHREDQRAAEQNBECyIGAiCAIgYCIJgQcRAEARAxEAQBAt+PXTUJXoUKuRHVAShJVF52LcH9P0Sg/adejYqGEEQlMQ3MQi5YUJNTQ01NTVKhyEIbY6Q+uHVzR98jGHlBWqrVYy/P4Kbbp2mdEiC0GYICTEwGsvY+MJuThyKZNjMOiLUKj7NrqIwL5eZjw0jLi5W6RAFodWj+DBh7Wvv89Ld+wlTw11/0TBmUiJXjxvEXcv7EXl5HdnpX7P2tfeb0IKBTHWmo12aohjJSVGjVltfTYmtEftmzCFFXd9+psG5HgOZtvQAtiuEPIqLQdFmFWERKvqNaE+nTp1s6R07dqT/iA60awdF+Q0urAwKhkzHk8L5fePRkV1iwmQyUZJdiC4wlTaIMScFdVwxi0zmtk0mE8mlORgdcmlZajKx1BcbaqFVofgwoWusid4DI9n1RjWFeQeYdHdPwsJUfPbWCc5+F8mw22s5faRa6TCDhmZKKrrcUoxo0QS1JQMr0pPQm5Y62M1r09JArvECIdAzAJhy43geWDWCrrF1/HvJj2x6+gcujYGH/jGU6akTUYUHoBFDZn3X3HolNuaQkmJ3ZbR7b8hUo8uCLJ0adUoOOU7vjdb8Ll1usHWj7dr0dPE3bsmF1CkWIXAaQtgXcmjLXRfd3L1Xe2rIkE9WRrIPvzvhNARoartCiyEkxACgc+dOzPrddYy7F8bOh1m/m0znzuZhw8DxV/D5558zbdo0pk+fzvbt2/2sPQtdfrKla6wnI0vXYHdfu9SEPgMy9CZMeWmkOb3XGHNIicsltcRkqxddCjk2ZbFrU59B1nL77rie9DjzCRaXnsSiNGufQENanrW+ErILl1vqM5Dp0NZSp5PaSE6KDvQmTB7698bSQnTx/f08bk1vV2g5hIwYWInsEEFkxwiHtOHXDGHJkiUsXbqUxYsX89xzz/lZawZ625dVy8JsHYWlRq8lGuRoMfqMRdjOY7QszIbcLdZ67drUJpOhL+aorXD9nIGpJJ7l9ldcW28ijnS9nuKjWK7q9m3ZU8jylDiKF3kf52tik9AXH/WcwR0BaFdoOSguBu27wLaPdnDhgqud2oULFzh75izdu3fjyJEjDBs2jBEjRlBSUqJApEFCM4VUXRb5BsxCsDyeEsvknj7DnMVYWthgNVn5DXR1+sejy8r3a3YgIO0KLQbFxWDOg9OI7BDBpjd2sm/3AWpr6qitqWPf7gNsemMnsXGx3HzzzQAkJCSQkJAAYEvzjSyW2/rvBlakQ+oUDWhiSdLnYr2YG7fk2v9Mi3f6x6PLWm43LLCr1x+MW8jVZ5CstZx8SbGW+QMD+VnmLJopqU5t2ZPEojwTenSkuM9gqSSNRRlZ6OznSDCSk+l8N8GuSCDaFVoMiotB586dSbllKjPuncDpyvMc2Wd+na48z4x7J6BSqSguLsZgMDi8iouL/Wglg1QWWLrfOtDnWbq+5q69dfy+oDgJnV0pbXKGw4Shw3tNGnn6JFtZx3obon7OQB2XS2qJeSyuSVtERpbOUl8+WHoGuLTlOpGnXVpCam5c/eSmG7RLTZSk5hJnmxBcAAvTPN/FCFC7QsvAL3fkRx55JOgBHTx4CIDExMG2tISEBAwGx6+hVqvl8OHDQY9HEFo6+/bta5nuyImJgx2EQPAXy60+h5c8LSg0jOIPHflCfHw8Wq3WJU1wh+UJQqXDEFocLUIMNm3apHQIgtDqCblhgiAIyiBiIAgCIGIgCIKFkBMDsT0TBGUIqQlEsT0TBOUIiZ6B0VjG8w/non/xZwbdUsfwO+HT7CqWzM+lpKQ0QI14Wm7cHATS3SjIiBNSm0VxMQi+7ZmvDj+Nw3f3o8a5GwXPbckVcUJq2yguBsG3PfPs8BNcZyHPaKakoissDbFn+UPvOAnNi+Ji0DXWxDWzYNcb1fzz6QNUlFVSWXGCjcsOUJBTR2JqLV0HNMH2zKvDj7k7m5OTglptMSZx6+zj3oHI2Q3J1f3IfVfZwd0oBNyWGj5OrsdMnJBaH4qLAQTX9qxhh58sclmJyZRHGjmkLICV1m6yHkt33r0DkbMbksboqTx4djfyTHDdlvw9Tu4QJ6TWREiIAQTP9qxhh5+M+hPzaDF6fXr9El9dFli78+4ciJzxVt6bu1FjaZLbkiPihCSEjBhYCbjtmb8OPxl62+SZyWS5AntwIPK5vHMee3ejUEGckNo8iotB0G3P/HH4cXEvsuT24EDkgofyLti5G4WE2xKIE5KgvBg0h+2Zzw4/Ls4+alJyjJ4diGjI/UhtdyK4dzdSzm2pCcfJ4/ESJ6SWTMg4HVVWVrLtw92cKq0CoEdsBJOmjSIqKkqcjgShCfjqdBQyjyNHRUVx5923uLU9EwKJgUy1DseRTobL8wVC2yNkxMCKiECwESckwT0hJwbuENszQQg+LUIMxPZMEIKP4ncTBEEIDUQMBEEAQlAMxOlIEJQhpOYMxOlIEJQjJMTAaCxj4wu7OXEokmEz64hQq/g0u4rCvFxmPjaMuLhYpUMUhFaP4sOE4DsdOVuO+Wo7FkjrLrE9E0IfxcUg+E5H4LB82Go7pk5peEGRD4jtmdBaUFwMgu505AZNWh4l2ZC+Qplrl9ieCaGI4mIAwXU68oTDCemDVZm7PGJ75sv+iu1ZSyEkxACC53TUIF6tyrznEdszsT1rTYSMGFgJuNNRQ3i1KvMjT4P5xPZMCG0UF4OgOx15wGC2BDJ31X2xKvMlj6/5xPZMCEEUF4PmcDpyxpCpRleYzco0jW9WZb7amYntmR1ie9bSUFwMOnfuTMotU5lx7wROV57nyD7z63TleWbcOwGVSkVxcTEGg8HhVVxc7EcregcrMh36+iu2V6syC17yiO2Z2J61FkLG9syKO6cjsT0ThMbjq+2Z4j0DZxITB4vbUVCx3Orz+4lMobUTEmsTGkKcjgKJ2J4J7mkRYiBOR4IQfEJumCAIgjKIGAiCAIgYCIJgIeTEQGzPBEEZQmoCUWzPBEE5QqJnYDSW8fzDuehf/JlBt9Qx/E74NLuKJfNzKSkpDXRr5KQExtjEPb44AQWynBV3jk5q1AEycfGMOEK1FkcoxcUg+LZnzY3vTkCOrkVNdRDSkJZnsi1Xrl8w1fjHkwOJOEKFPoqLQfPYngktEXGEal4UF4NmsT2zc/tRZ25x3ObWqcexu2q7wrjNa+7q5eSkWLrkzl1FR7chq+OPq0uSNwehJjgYed1P57oyMdjvu21xkef9cGrEsZvvcV89xeNUmzhCNSuKiwEE2fbMmEOKrrDeWCS5mHS93TZ3zkSGFaQn1fsSmLt63lx9sshlpYcuuZ3bkElPRpaOTIOri5FDsQA6GHndT6e6zEaxC2ClCZOphGzSqbeJdL8fjtgNVUwlZBealzeLI1TLcIQKCTGAINqeObsBaReSrbPb5s6ZqH88uiyndfheXX0yvHxp7dyG0LIwW0dhaQMd3wA6GHndT6e6NLFJYGtXQ2xSI/bDdoWNI12vx615kjhC2RE6jlAhIwZWAm171qAbjztnIk0aeSYTK1lg6zb64uoT0vjq1NQUDJmol8dTYmlDn9HEeMQRqllRXAyCbXtmduOx+/AMK+qHCQ04E2nS8szdxnxDA64+3shiua2Qj05EgXQwcltfY2h4P4ylhZAUazmpDeRnNTEecYRqVhQXg6DbnmnSWJldiM7aJc2Prx8meHImsp8o02HuQvrg6uOeDFItPQxnJyJnFyP7mAPpYOSTm1MT9qO+mUVkZOksefLBrmcgjlCh7wgVMk5HlZWVbPtwN6dKqwDoERvBpGmjiIqKasFORwYy1fkku0wYtTRay360TXx1OgqZx5GjoqK48+5b3NqeCULzYyBTrcNxpJPh8nxBayJkxMCKiIAQGrQ9R6iQEwN3tFzbMy1LTa3hOtJa9kPwRosQA7E9E4Tgo/jdBEEQQgMRA0EQgBAUA3E6EgRlCKk5A3E6EgTlCAkxMBrL2PjCbk4cimTYzDoi1Co+za6iMC+XmY8NIy4uVukQBaHVo/gwIfhOR652YO6XjNvboXmzrBJrLqF1orgYNI/Tkd2yWJ+sqBwtq1wttMSaS2h9KD5M6BprovfASHa9UU1h3gEm3d2TsDAVn711grPfRTLs9lpOH2mi01EQ0UxJRZdbihFtCNleebbmQq7xggcU7xlAkJ2OvOHRDq2+a+zWsssOseYSWgshIQYQRKcjwGFZrNU63Jsdmh3u7cnEmktofYSMGFgJtNORGfs5A8s6dm92aP7UJ9ZcQitBcTEIttORJwJmYybWXEIrQXExCLrTkQe82qH5g1hzCa0ExcWgc+fOpNwylRn3TuB05XmO7DO/TleeZ8a9E1CpVBQXF2MwGBxexcXFfrSid7XY8maH5oSrPZlYc4kktD5CxvbMijuno5ZreyYIyuOr7ZniPQNnEhMHi9uRz1hu9Tm85GlBoXEo/tCRL7Rcp6Ng0/asuYTg0SLEQJyOBCH4hNwwQRAEZRAxEAQBCGEx2P/FAfZ/cUDpMAShzRBycwbffvstm9ce4PS35tC2D/iWG2YNY8CAAQpHJgitm5ARgxMnTpD/dgFHt4aRkKJmysyrUIWF8eWeb1jz+CGir/mSG+eMISYmRulQBaFVEhLDhHc3fsDf0nehClNx+1NxjNIm0i4igvDwcEaMGcTM/4mj/SXhrHxwH+9u/MD/BuyXKqtTmvhrxE3BF2chDyVdjFDMjksOacYcUtSZGBrdjr3bk9DWCAkxOP7NRepqVPx6oZbz//eTy/bz//cTv16opa5GxfFvXBc0ecWYg3nlrXXV4iJsiweancY7C2mTMxwXChm3kKuHwlK7fTlajD4jGa04GAmNICTEoOoizH9pCJd0a8eHWSf54I0DGI+WYzxaTt6a/XyYdZJLurVj/ktDqLqo8q9y2wliRUtao3/bXEH6x6MrLLWtCTBuyYWMDMjdYksz5GeRkSwKIDSOkBADgC5dLmXarRN5YMUYYkdewva1Z/jsjTPEDGzPgr+PZtqtE+nS5VL/K9Ymk5HlYbWdJ2cft+ne3IacTFJtG8xlcnJSLMMTb85CnuvLNGBeKk39isijxZC6cKFdmpHSQh1mTxNn01MvLkke3Z48x+cwZLENTaxvU4Lm6ygEl5ARAysRERGMnXgNI27rzDV3dGbyDeOIjFQ3oUYtS02W1XbOVmLunH2MOaQsgJXWYYUeO8NTT25DGtLyrPWUkF243MGhKJeV9aYqVrw5GxlWkJ6kdzJw1RCbpLeYnRjIz0oiVmNOKz6KedhAKu5XPHuI25vbk5f4+sfrbMMT45Zc0BVa/ByMbMkFv02WhJAg5MQgOFhPVj3oLILgydnnaDF6fXr90l9dFti6517chmxX2DjS9ZYT1FLGrS2aN2ej/vHo3PRmtMkZZgcjYymFlqGPbS7haDH6pFgPS5Q9xO3N7clLfJopqZbhiZEtuUksWpRkEYejFHsUJCHUaSNiYEXLUr355PHq7JNRf1U2mey9Dz1gyES9PJ4SS359RhPD1KSRZzKxkgWOvRltMhlZ+eTYX34tcwk5jZgvaLTbk23IcpTipGS02mSScrdgNORTaDWHFVocISMGP/3U8F0CX/K4YMh0GMNaTwCPzj4ujkMNYywtBNtV2UB+lg+FfHA20qTlmbv1trsI/YnXFZKba5fPcmLm2uYLfMer25PX+DRMSYXiFfmYLZ60JCflsmB5YeOcmYSQICTEYMCYS9n0+m62fbSDM2fOuGw/e+Ys2z7awb9X72LAGD8nEbULiV9ePwkWl5tKyVKtZ2cfl3R1g1ZfmrRFZGTpLPnzwZeegTdnI/tJPR31XXzLSah36Iqb5w30jemee3N7asB5STMllcIsixYA2uSkxsUghAwh43T0448/sqtgH99+cZYreju6I589XsWAEVcwetzVdOnSJWgxCEJrxFeno5B5HLlLly5MTb6OyVOq+GLffr7aXkZdbR0JI3sxY9ZIIiMjlQ5REFo1ISMGViIiIhg9ZhSjx4xSOhRBaFOExJyBIAjKI2IgCAIgYiAIggURA0EQgBAUg5qaGmpqapQOQxDaHCF1N2HzBx9jWHmB2moV4++P4KZbpykdkiC0GUJCDIzGMja+sJsThyIZNrOOCLWKT7OrKMzLZeZjw4iLi1U6REFo9Sg+TFj72vu8dPd+wtRw1180jJmUyNXjBnHX8n5EXl5HdvrXrH3t/UbX36rswtz6Czh5JPhF423YhNaH4mJQtFlFWISKfiPa06lTJ1t6x44d6T+iA+3aQVF+g09Me6S12IUZc1JQxxWzyG41ZXJpU38NOXT3V2h+FBeDrrEmrpkFu96o5p9PH6CirJLKihNsXHaAgpw6ElNr6TqguvENtAq7MAMr0pPQWw1YLGjTGlhaLQh+oLgYAEy5cTwPrBpB19g6/r3kRzY9/QOXxsBD/xjK9NSJqMKbUHlrsAsz5JPl4OPoBX+s1Bq9vzniotwKCQkxAOjcuROzfncd4+6FsfNh1u8m07mzedgwcPwVfP7550ybNo3p06ezfft2P2pu+XZhxtJCdL6YFfhtpRaA/RVaDSEjBlYiO0QQ2dFxCfPwa4awZMkSli5dyuLFi3nuuef8qrOl24VpYpPM8TdEI6zUmry/QqtBcTFo3wW2fbSDCxdcXYwuXLjA2TNn6d69G0eOHGHYsGGMGDGCkpIS/xpp6XZh/eMdHYka1bYHKzUfaPT+Ci0KxcVgzoPTiOwQwaY3drJv9wFqa+qoralj3+4DbHpjJ7Fxsdx8880AJCQkkJCQAGBL840WbhemSWNRRha6FPu7B0ZyMp3uJjTKSq2J+yu0GhQXg86dO5Nyy1Rm3DuB05XnObLP/DpdeZ4Z905ApVJRXFyMwWBweBUXF/vRSsu3C9MuNVGSmlvv2qxeAAud7iY0ykqtifsrtBpCxvbMysGDhwBITBxsS0tISMBgcLySabVaDh8+HPR4BHcYyFTnk+x0q1MITXy1PVO8Z+BMYuJgByFoW5ifCFQ7vBr7dGHwMOYsJ0sXj/xWSusiJNYmNER8fDxardYlrfVheSJQ6TBcMJCp1lHvAJ+B3iQPPLU2WoQYbNq0SekQ2jihKlJCIPFJDNRqNVVVVQCoVH7+CrIgCIpiPXcbwicxuOKKKzh37hzgOukgCEJoc/78eZ/y+TSB2LNnT06ePNmkgARBUIaTJ09y+vTpBvP5JAa9evWyVSoIQsuisLCQH374ocF8Pt9aHD9+PAUFBU0KShCE5uXs2bMUFRXx448/OqS3b9/eJa/PYnDvvfeSn58vvQNBaEFkZWWxZ88eamtrHdKtvX17fBYDtVrN73//e7KyfPm9cUEQlEav1/Ppp5+6/WXzYcOGuaT59DiyPStWrKC2tpa7774btVrd+EgFQQgae/fu5ZlnnkGv11Nd7eoU5u6091sMANatW8fWrVt58MEHGThwYOOiFQQh4Pz000+sWrWKDz/8kB07dmAymVzyJCQkUFRU5JLeKDEAMBqN/OUvf6FHjx5cffXV9OzZk4SEBOktCEIzU1payrlz59i3bx8fffQRX375JUajexOb9u3b8/PPP7vd1mgxsLJ161b27NnD5s2bCQsLc5moEAQhuISHh2MymThy5AgnT5502xuw4u10b7IY2HP55Zf7dD9TEITm5bLLLrM9ReyJgC5hPnfuHNOmyU+iCUIoMW3atAaFAALcM3Dmtttuk56CIChAr169WLdunV9lgioGgiC0HELO6UgQBGUQMRAEARAxEATBgoiBIAgA/H//OZCCsH+WEAAAAABJRU5ErkJggg==;" vertex="1" parent="1">
          <mxGeometry x="-1350" y="1000.5" width="259" height="333" as="geometry" />
        </mxCell>
        <mxCell id="uozOtIk-62IbuRWrD_Ta-24" style="edgeStyle=orthogonalEdgeStyle;rounded=0;orthogonalLoop=1;jettySize=auto;html=1;entryX=0.002;entryY=0.556;entryDx=0;entryDy=0;entryPerimeter=0;endArrow=open;endFill=0;dashed=1;dashPattern=8 8;" edge="1" parent="1" source="uozOtIk-62IbuRWrD_Ta-17" target="uozOtIk-62IbuRWrD_Ta-15">
          <mxGeometry relative="1" as="geometry">
            <Array as="points">
              <mxPoint x="-951" y="970" />
              <mxPoint x="-705" y="970" />
              <mxPoint x="-705" y="796" />
            </Array>
          </mxGeometry>
        </mxCell>
        <mxCell id="uozOtIk-62IbuRWrD_Ta-17" value="" style="shape=image;verticalLabelPosition=bottom;labelBackgroundColor=default;verticalAlign=top;aspect=fixed;imageAspect=0;image=data:image/png,iVBORw0KGgoAAAANSUhEUgAAAQMAAAE6CAYAAAASpDeuAAAgAElEQVR4nO2deXhTVfrHP2lpylJFRfZSwJZShLIN+2JACVLqSkdUUPhRRQvOOI/VgTqOzoiIFbHMJhSXCowiMFMXxlqZoBBlXwQtUKxlMS2UHR0oQrrk90eWJmmSJm3Sm7bv53kCveee5b03ud97zsk936hMJpMJQRCaPCFKByAIQnAgYiAIAiBiIAiCBREDQRAAEQNBECyIGAiCAIgYCIJgQcRAEAQgiMTgpysVnLpUrnQYgtBkaaZk4+WVJr4+9gt7jv9C82YhqEPhdGkFvduHo41pRYQ6aLRKEBo9KqUeR/7pSgX/yrtIzzahDOgYTvNmKtu+/DNlbC26ijamFdFt1EqEJwhNDkV6BuWVJj46cInx0eF0uqZ6CL3ahtH9+mZ8kFdK6xah3NgyVIEoBaFpoUg/fOuPv9D9ulCXQmCleTMVibEt+OjAxXqMTBCaLor0DL4/a2Rij+Y15mvXKpSKShNnL1e46R2Us3XnRehzPSNaWpIuX+atHZc5ZdmM73Mjd7f1V+RBTFM9bsFv1LsYlFeaOHe5gnatvOv6t4sI5dTFcq+GCueOXWDp0VAmj72RWEtawbHLnGvbkjZ1iDnYKDh4lvy2VRd7sB+3c7xCcKLotwn+xcjmo6FMHnut7YIAiO3W0m2JxkFTPW7B39S7GDQLUdGmZSinS73rHZy+VMEt3b0I88wV8to35253+912o418svEKvfrA2v1GQM3ksS05u/MnviwFWrVk1pCWtKmWD2h/LX+8We1j/U5deIdyastF7b5MwcGzrD0FnDpLXquWzOpe7qfjrmvMrtNxjndIS9rUEFPb7hV8eRRuHWo3/BMCj0kB9EdKTRsLL5qMRqPHV/GFX0xv7rzgoaYy05Yd501bSk2ms0fPm948WuY6W2mp6c0vzfnMXDV9bNu+avr4yzOmlw5cNZlM5npesu0rM23Zccb08enq+azbH5/2rX7T6Z9NL+0oNZ21xmX927rvwFXPZUwm0/cHrDH577gd26htzPZtVWEfrzcxuT0eIaAo8m3CiK4tOPpTBScuun/i8Eq5iZyCX7i39zVe1dmmVSinLle63llazqn2rezuMmpGdYcDp8tt25Mtd/g2rULBlrcZN0bYV1SVz1xHKKdLy32qn7bNiS8t55w1rtLLLN14lvkbzzJ/vxEuWfa5KxOg467eho8xn7lCnkNbbvAiJk23RjR6bUAoctabhai4t3eE5aGjco8PHXn9jEGrZrTff4WCm9UOY+egx36oYcPofXkljttFzOeOXaiv1oUAodjzvtc1D2XGr1pTQSjLdl9k2e5LvLv3Eq9u/pnDP1Xw0IDWvj192LIlmvZG1u68bHd3K2frwcuca9WM9qdK2XrZmm5k81Ho3c5XLTSiP1Zu+9tWR23rr1auFtTLcdccc5t24d4dSyBiEvyCou9AsxAVY29qydibWrLn+C8Yfi7nsSHX17q+2JtvZNaxCyzdaP2khXLr0Otp0xJm9iln/o6zfGnZE9/nxlpMTqnpzUXmb6xwqqNl7epvWb1c++7XMbNbDcfZVs3a/VUTcoE/bm9idk6vmlh0jtfvMQl+QbG1Cc58W3IFw8/l3BkXUXNmRbDMsDt9hScIjQVZFigIAiBiIAiCBZm18Ro1d4+V5dRC40V6BoIgACIGgiBYEDEQBAEQMRAEwYKIgSAIgIiBIAgW6vQEotFoZOPGjWzZsoXDhw9z8uTJWgfSrHkrWlzXlosnj9W6DkFoiqjVam6++Wb69u3L7bffTocOHWpVT63F4ODBg/z1r3+le/fujB41lKjObYhobl+VykUplS1Z5WU+V/U57FK5Ku+iXhWo3LVVbbN6vmpl3eRrLO0653U8zb6/Z1Up3uVzVZ/b4wmadqvXqXL8x3P7TvncXiNO+crKyjl69Ajbt+/gq6++Yvz48Tz44IOugvOIz2JgNBpZuXIl+/btI/V3MwkvO0pF2eVqQdpOoEPg9mJQPc2hrFOa67I4fUpVbk6+ysXFoXJx8qunNY6y1d8L1++PfRtO7Tid5+pl/f3e+lZWuXPslF7vn0fH98JoLGPFihXk5eXx3HPP+dRL8FkMFi5cSPt2bblzfD8uncl3GZDtQJzS/P+BQYGT3xDLevv+2Lfh1I6IgZuyTukKiwEAJij44Qf+/ve/M2/ePG644Qa8wacJxC1btnDx4kUSNNFcPHPQl6KCINQTKpWKnrGxPPTQQ8yaNcvrcl6Lwfnz51mxYgWzHpnELz8bahWkIAj1x9ChQxkwYABdu3bl2WefrTG/18OEv/zlL/SI7krfbmVUVhhr2Q31d1cSBbplDbGst++PfRtO7cgwwU1Zp/QAfh4rKioprzChVocSogqpKufUhv17e/nyL0yaNAmdTkdsbCz5+fm4w+uewcaNGxk8INYsBIIg1CuVlSYu/PQ/jh07xtWr5VRWejfV16JFCwYPHkybNm04dOgQw4cPd5vXKzEwGAzccMMNhJpKvYtcEAS/UV5eycVLl1m7di0LFy5k06ZNlFdUUulFp16lUtGzZ0/bJOL27dvd5vVKDC5cuMD1119P2ZWfas68exVd+00hqt+D5lfKRoq9acRbTmxg6s330HnRfmA/L/W6m86211106nUXL+20y3/8v0yJu4NOj/zXfRwnPufB2AQ6vPqtPyMVhDpTXl5JRaWJ5cuXs2fPHiIjI1m2bBmff/45ZWUVVFa6scm3o33b1lx77bW27RYtWrjM55UYnDx5knbt2lFuvOQ54+5VdH3kU5j+RwzffoDh2w9YM96bFurIqN+wI/8Tjuev49/JsHTaXUz592nHPD07ElkPoQiCv6ishNLLV8jMzGTr1q3cf//9/OY3vyEhIYHVq1ezadMmfrlylZqm/dTNHPdfuXLFZT6/rk0oLioC4LFbbralDZ80tl4vwhG/f5vXR8GmP+awFaDzeFYd+pQTc+LrMQpBqBsVlSbO//Qz77//Pt999x2PPPIIZ86cYd68efTr14/x48eTnZ3N5s2buWos83oOwcqAAQOqpflVDCK7dAHgzUem8PBHZ6tnOPElD8ffT1T8/XSJn8xDH1rynPiCh/rcR5fHX+ahPr8msk8Skb1XmC9moDj7JSJ730vkzfcSOe4NNnmMoh1dYwE+5IudVA0TFuYB3zGvZyIdeybSsedEOsY+z6oTLqrY8RYdetxueY2nQ3rV8KF47R9oHzOO9tHjaB99m/mV/i1sz6TdTbdy/xrLLwhuz6TdTWOqto/nMLm7hrbdb6Ftt1uYvKb26ziExk9FBZw7d46SkhIeffRRSkpK2LRpE+Hh4fztb3+jXbt2jBw5kl27dlnyV/hUv6t1RP5dtThoClv+3BcA/Z9/S1S/B3l5l2XfiS95eMIyePEfGPLWsPb/QP+nZax2uBiH8er+f7N93gBgHW9kn4YTG5j7wl6YMZ/igx+x/aXqiuZM1E0D3ezpywvf51DyfQ4lX/6OMezh6X9+55jl+Oc88NC/4dHXOPnDek6+dx+8/XvzBX88l2f+sAsefZ1Thzew55XB3p2X4zlMHrUQ0tdy5uhXfPQYbJz7Gu8d96640PQIa4bt+YADBw7w4Ycfcs8999h6BitWrCA6OpqnnnrKnD/MNzvTwIsBEHlvGj9+u4o1083byx55n21A8fYd6AH9n35DVPz9TF4O8C2F9hdEbAc6A5GR5h6G/ugZirdtQw+k3NLbXP/wEYypIQbDkW+AgcR0drXX0ju49a/mHsb3JxwmFou3fM0mYNYYs6gxdAizAApOsHXL12wEZo/pZ45l5C2M9eKcFG3exEZgY9pk2na/hXvfBNhJYZEXhYUmioqrV6+SnZ3Npk2bmDFjBlrtOJo1a8bvfvc7hg8fzj//+U/2798PUOO8gTcEzB15eOoHrOFB7l9RxI8noIsl/fGsNTw32OmBixJ/tpzHF1kA3ejaGbATm+J/P8/g576BR16hZI6KeT3TWOrPpmvgiQ/0/HmYqwdYBMGRsnITJ0+eZP/+/UydOpXbbruNsGYhqFQqKiormTp1KqtXr2b9+vX069eP8vIKwsLqdm/37wTiR6tYbbuwD/LlCoAudO1UNZ+w7J0vbXfibR9+SU095cguXQHI/OqAuY1tWz3OGWx97TmWArNWzmCE0z5rj+H1qX3heAmunsWKHDmaMcDSTZbhw46dLAXGThjIiCjz754t2WSeQyje8hUbrQW7RDEW2HjEfAKKfjxiq7NL12gA3liag7UzsHnNp0jHQHBHWDPo1KkTTz75JBqNxiIE5n2hoSHccMP1TJkyheTkZACaNfPyB4o94OeeQRFzJ0xhrm27Hws/n8pwgMEPYXhHRdQjyxgRv8y8e2QK2yfVUOWQaayd8TGT3/0jke8CIwcwBhwFYfM/GNrrH5aNgbz+xZ950MUQYcTUJxnzzt94+tZEnh71K9fDjc4TWP1eMR0e+j0d3rakPfoaqye3Bx7jo0f/xb1vP037t4FbBpsFAKDzRJ6cuYiNbz1Fu7dg7C128wnDUjjzAbR9cCEDuy80p2nm8s39NRy70GRRqVS0ahFOePiNhDULrWbbERqionXra4mIiCBcHeaXjqZXaxPWr1/P3r17eejOWAfvgia/NuF4Lg/c8jq8soo1kzvUX7s+l/X2/bFvw6kdWZvgpqxTehAsYXZ+b/VfrOP3z863ffNgxfnSFw/EWnOSVX98nY0M5q6R7ZUORhDqjPy8mk98y4sxz7DEtj2YxV+lM8XltxaC0LAQMfCJfvypUMefXHbfBKFhI8MEQRAAEQNBECyIGAiCAIgYCIJgIQBicJbVs+zMTTIOmhcpZYibsiAEM37+NiGfl/vNh3dWYVhq9+DDiVP+bUYQBL/j57UJ63hz+h95bpC7HAd42eZn8E+2QZWXQZ/76PL6ATjxBVP7JBHZO4nIRQf8GZ4gCB7w+3MGmu7tPOztzXN5a3gOOPHhAt7dBVFF24jL+hfvDQFQcfzDj+mVlc37Q/0dmSAInqjnCcQzrE4x9wyG/elbDhWdpfOkFGLeuY8ufcw9hc6THiP6HUenI0EQAo9/bc+GDYU/P8nLu13vL/7wLQ4/sgZD3hq2v9jPknojDyz7F0X7B/LF419wnLY8uCyb4gOD+PKxDf51VhYEwS3+HSZ0HMPKz2HahClEWdP+73kMD5j/jOwSxbLk+1kGaEb2g/Fw/MP5DPuT2R9AM28pfPgykS/stW2Lo7Eg1A/+X5vQcSwrvx3rtIyyN/9MNf9vyHvIkmx9rv+PFCVZC6uA5yiepJLH/gWhnpGHjgRBAEQMBEGwIGIgCAIgYiAIggURA0EQABEDQRAsiBgIggAEWAwqK00MGfdEIJsQBMFPBLxncPL0eYaMm+1y37bXX7b74dWzrH7818zfad0+zQePzeeD7JVELtrvdXtbX/szH8gPmgqCzwRcDEJCQtj9zXcuBSGqO3y63frT7acoZAAUn7Fsn+EwwxidNI3iZ/oEOkxBaPL4VQwG3/YEg2+bzeDbZjPotlkM0ZoFoHPnzhZBmOWQv/Ow4XDUYnyy8xt45B5Y/515cdLO3eTf3pfIExuYumg/nNjA1EUb+GDmvXS++R6mZp+x1bP1tbvp3OtuOvd6ly/s6t+68E46xd1Jp7g76LQwz5L2PKuOA5xmVfLzrDoBcIpVyW/LKkmhSePXtQk5a17G/ieeKisrGXb7b6msrGTo0CF8+sECxwKd+nLHD5+zjd7w9Y/EPDiNrrEf8/WJcYwuKqJXFydvhKytsOEjjnc6wEs3f8bWpOmM2Lmc+3iZ4/l9gP3M7/UjTAV2vsuveZkTh/oCKra+dgfzduSQfBNsKAbYS2HPbrDlFNx3isKeQ5jqz5MhCA0Mv/YM2t14ndPreiorK4mK6sInK1+gXdvrnUrcyOjxP/LFzgN8UTCc0Z1g+OguHC4+zdfru3DrEKfsyUk82AmgPTEjzUnFRT+SorEOI+K5LdmSbjjGrDF9bUVHaCaRX3SayOGjyNd/R/G2YmIeHgy5eyneuRPG9kUQmjL1MGegsgjBdS73d+7SlUNffwO396MzQGRn8t95k09jB1X7SXVXRHbpSqbeOsGYxxdZlvSoblU/qw5s1X9o7ml0HsCd3+8mi0hu6dSXcT2LydoI45yFRxCaGAEVg5AQFTt1S9wKAQCDBxL37jqIvNG83akvd7CXXrf09q6RIYksKnjOMmewG5Kt6TP4N8/Z5gz+cVMWLwwFaMctCUdZeqQjkcCIsbD0+8gq/wVBaKLIT7LXy892K13W2/fHvg2nduQn2d2UdUqXn2QXBKGhI2IgCAIgYiAIggURA0EQABEDQRAsiBgIggCIGAiCYEHEQBAEQMRAEAQLIgaCIAAiBoIgWBAxEAQBEDEQBMGCiIEgCICIgSAIFnzyQGzW/HpUoS3MGzWuqaZaWrV12dX+9LRu3b4ZN/U4rB/HMY/HdfvO9bpbt+6+PpWL+twet6t2Pa6Xd1+f23ZdnXeVUx53f1erj2rr9Kv+c5nZRV3mP0wORdznc1ufy5jd7atKM1Vv3Pa3ymOb7j4X5vrcvuXV0kzV0lxltc/n3efC1XvhWLPJy3u+b4aorXoR6lOBwODJjaVGp5amgqsT0WROjsnp/yZOaIRX2XwSg/JzW6koK61VPIIgKEPz5j28yidzBoIgACIGgiBYEDEQBAEQMRAEwYKIgSAIQNCJwTnWPDGNbgOqXgt2A+SzwPa3O/JZMGA1293Wu4g1J1zuFAQBP//wqn/oy6s5z3B/J/u0Xvxh70qlAhKEJkHAewbl5RX8cKQk0M0IglBHAioGFRWVvPj6v3jsmcw61uQ0BDihZ7ptKOFmaLB7ddVwY/F+ux2OQxHPQw9BaDoEbJhQUVHJnxetZfOOfB9LfsfcxGnMBVwOGU7omf4yLNi70vyrzbtX021xPseecsozs5hXc1aay+5eTbeV8CrAbh1zY57l2Bu96nB0gtD4CIgY1F4IwPWcgR0nStBv/YyRA96pShvRkeO0c8wzLZEV1joGaXl1xLvmvzt1RLPyFaZ3W8yKe9vUIj5BaJz4XQzqJgReMu1Zjj3lfGevau94UTHQz3XZThpW7NVw/KNFdBvwHY+9tZI/DApYpILQYPD7nMGRH09VE4IO7a7zXwOdOqJZmePxa8LOQwejWflt1VzCbh1ztzrlufcZjr01kTe/DqBoCUIDwu89gx43dWTjhy/6u9oqOmlY8VYJ3WzzCqB5YTEr7nXMs+CFRYwcMM28Pe0RXh1RbP5792q6zfzMknEiq/fK3IEgAKhMJlONi77Xr1/P3r17eejOWFnCLAgNjJIrPXjyySfZtWuXQ7rzpR9kTyAKgqAUIgaCIAAiBoIgWBAxEAQBEDEQBMGCiIEgCICIgSAIFnx66Kjldd0wVVYEKhZBEALBce+uWZ/E4Jp28bWKRRAEBTm+x6tsQT1MWPf5lwxO+y9/WfEfpUMRhEZPENqewa493/D0h6c59HMLpsdeZMGu66gwrePp/7tL6dAEodESVGJQXFzMi6u/YXXhdUy6qYy//LoD114TyYS+JUxd25ryynXMTRZBEIRAEBTDhIsXL/LC0k/o/dJhTpaG8dnDap6fdDPXXnMNAF0jO/LPX6tYvLs1ry9fp3C0vqAnTZ2GXukwBMELFBeD97JziX72G9b/GM57kypYPDWWju3bVst3+WoZ3VpfZdXB8IDGo09Tk6Z3v91QaKhxC8qh+DAhY0cz+l1Xyj+m9SA0pLo2FZec4p2t5ykqDeWl8RGs3n1BgSgFofGjeM+gX5tfiLuxgr9/dpCKykpb+oWffubt9fuZ9dEvaKND+XTOaG7TjOT1mbf4oVUDWYlq1GrLy3IL1aep0WZAhlaNOjGLLKdtg5ty5iqzSLSmOw8N9Gm2MlVFLEMI27409Pb1J2Zh8Fi3c/mqup2Pw4Ag1IziYhASAn98cAhUwl8/zefyL5fJ3XaQaasu0CEiBF1qT+5LHMO+ffuYOHEiU6ZMYcuWLXVsNYrkHCNGoxGjsZDMvIVkGUCTbkSXCqk6I8acZJKdtqPclAM9aTHZJBVa96WjsbWVgTY3wZyuSyVjof3FWbWvMDMPrXoWLLXUTQpL9JiFYBYsNVrq1oHWpiiu63Y+jqg6ni2haaD4MAEgLCyM56cO4w8rdzH2jZ95vG8lH6dE0fZGs3tx8+bNWbBgAenp6VRWVvLCCy/w6aef1q1RfRpqbYZtM/UoeHXVuCp3NJeM1DkYXZZPRZdukQZNAqnaXKqaqtoXFR0PqQkkRwFEER0PBQBHC9DpMohRp1RVqY3FQHQNdQuCbyjeM7gu3MSB/ALCwsKYPrwNc4ec55kHRtuEIDw8HJVKxZEjR+jfvz8DBw6ksLCwbo3q01AvjKXQcrfVpdatnOFwXt3iqYlUnaXHYXnJ3V4IAIqLwZP3DOCTPSc5kF9AaGgIrdQq276Dhwpo1aoVd91lfrYgLi6OuLg4AFtabTAczoP4aMsFpSc3o4YCNZSLGpeENsM6ZPAz3WMDV7cg2KG4GHSNiuK39wzkkz0nOWQ4C0Dx8eO8/fFm9AdOA1BQUIBer3d4FRQU1LrNqOQ5pGZoLRNvuWDXM9AkpDpMvNlv465cVDI5unhSYtxMINaFanWrSfRCGZyPQxBqwid35KeffjpggfxoMPCXD7+hDBURzeCOX3Vg5LAhqFQq4uLi0OsdLy+NRsOhQ4cCFo8gNBb27NnjlTtyUEwggrmHkJqk4vCxIoYP+RXh4f54uEhPmlqL4yggFZ3DbL8gCBBEYgDQpUsXunTpUi09NjYWjUZTLa1mNKQbjaT7KT5BaMwElRi4Y926hrQeQRAaJopPIAqCEByIGAiCAIgYCIJgIajFQGzPBKH+CMoJRLE9E4T6J6jEQGzPBEE5gmKYEHy2Z2JXJjQ9FO8ZvJedS+rGlnSPMNue9Yp2/TCR2fasglUHwwnEQ9H6NDW5CUbS5dFEoYmiuBiI7ZkgBAeKDxOUsT0zDwOyshJRqxNJTHRjE2ZnKaYWd1GhkaO4GChjewaQQTZLMRpzyMlxZRNmZylm1JGaoRW3YaFRo7gYQJXt2dWKEMa+8TMlF822Z9PuHEnLli0dbM/mz5/PK6+84odWU5mT7MkvyM5SDA2zM7XkHRZnAKHxovicgdX2rHevWKYPb0PPNmd49J7Rtv3OtmdA3W3PBEGohuI9AyVsz7wjg4U2RyE9S1IgaZw4DwqNF8V7BmbbM/j7x9/Qq30YYLY9+3zXUcoqYNSIKtsze5z9DeqKJiEVrVZNhjaTwhyz83ASs1CrdYB5PsHjqEIQGjiKiwFUCYLV9qxIf8RmexYYNKQbncREk47RWGWDYt2fnBygEAQhyAgKMQCxPRMEpQkaMQCxPRMEJQkqMXCH2J4JQuDxWQxUKlXNmQRBCBrKysq8yueTGFw69z2mSu8qFgQhOAiIGJSeK6CirLRWAQmCoAwtW/bwKp/iDx0JghAciBgIggCIGAiCYEHEQBAEQMRAEAQLQSYG51jzxDS6Lc53uXf74ml0e0LPcZ/qzGfBgNVs90tsi1hzos4VCUJQEmRiYGFlTvWL7oSepYV9vVpTsH3xNBbsDkRggtB4CbgYlJdX8MOREh9K9OWxafDZjnMOqcd37KLnuMH+DU4QBBsBFYOKikpefP1fPPZMpk/lou9PpOeG/XbDgXxWzIvk1i4ljr9lcELP9AHT6DZgGt0sQ4Hti6fxwEp4c6bTkGL3aks+p16DQx1O++zKdFu8326HZTjjqowgNFACtlCpoqKSPy9ay+Ydrsf/nunFrTGvsGK3hj8MAnZ/y/cvaPkDuqosJ/RMfxkW7F1JZzBfuIvzOfbUSlYzjS9HrzSXJR/4jAe+fpZjex8w53tXz/RBGjqf0DM9cRcTc1ayopM574IBi1iT8wz3o2f6zGJezVnJ/Z0s9a+EVwF265gb8yzH3uhVt5MkCEFEQHoGdRMCM8Puf4Tvv84HzrHm3WImDm3jmOFECfqt7zDSeuee+RkUnnYzuTiR1U9ZLtxB/XhsawlF1jqmJZovdgB6Mf0FyxDFed8gLa+OsPzdqSOala8w/SPHoYwgNGT83jPwhxAA0KkPEwvfZc3uwXwWk2i+cztPKk57lmNPVb87F9WtZQCOFxUD/dzEpmHFXg3HP1pEtwHf8dhb1l6IIDRc/N4zOPLjqWpC0KHddbWoqQ2jxsHcme/Qc7SL7ninjmhcfevgC9XqyGfFPJg4tA2dhw5Gs/Lbqq8kd+uYu9WxeOd7n+HYWxN58+s6Cp8gBAF+7xn0uKkjGz980S91db43kcc2DGa6q7tuJw0r3iqhW+I05lqSNC8sZsW9bRg2eiIPzJzGmyMeYcsb7dw34KKOx96yzBGgYcELixg5YJp5x7RHeHVEsfnv3avNwxIAJrJ6r8wdCA0flclkMtWUaf369ezdu5eH7oyVJcyC0MAoudKDJ598kl27djmkO1/6wfnQkSAI9Y6IgSAIgIiBIAgWRAwEQQBEDARBsCBiIAgCIGIgCIIFnx46at15CCrkR1QEoSFRcsi7B/R9EoPmrdrXKhhBEJTEOzEIumFCRUUFFRUVSochCE2OoPrh1fWffYF+aSmV5SpGPh7GnfdMUDokQWgyBIUYGAxFrF28k5MHwuk/2USYWsVXmWXk5WQzeW5/YmKilQ5REBo9ig8TVr3zCX+bsZcQNTz8WhTDxvThVyNu5uGF3Qi/3kRmykFWvfNJPURiICsxkSyDt/sMZCWqSXRdwI/oSVOnOdq9KYL5eNVq6ysYYnKDIYtEdVWsaXpwPI960mzp7giW815/KC4G+etVhISp6DawOa1atbKlt2zZku4DW9CsGeTn1riwsv4xbCA7PpX4lCXVPjD6NMcPmvN2Q6F63FoyC40YjUYKM/PQenlQ9Xk+DFmJqGMKmGM0x2k0Gkk4nIWjZGtINxpJ98ZquzMhRu8AABTtSURBVAmh+DChTbSRTr3C2bG8nLycfYyZ0Z6QEBVfv3eS8z+G0/++Ss4eKVc6zGoYNmQTn5BDAmpy9elomtgHK2pcEtrswxjQEKV0MDb0LEmJR2dMd7DU1yQnQ5O6x9cOxXsGAOPuGMkTywbSJtrEfxb8zLp5P3FtJDz5dj8mJo1GFVqX2p26t463KLv0DY7FPO3DwIbseBI0oElIJSNXb1dMjTYDMrRq1IlZZDltGzzF49C9deqi2sVTVcTSlbXtS0NvX3+i3R3RZd3O5avqdj4O58GQYUM2JI0zC4Ehi0TntizbNZ8P59g8HV8NPQp9LhmpCV78tobTEMDTebfld3qvGiFBIQYAERGtmPLbWxnxKAyfCVN+O5aICPOwodfIG9i8eTMTJkxg4sSJbNmyxYeao0jOsXYZC8nMW2ge+xuySNTm2bq9xoQCUqzmy572AeiXkBJv+dBpEkjNyLV9gDTpRnSpkKozYsxJJtlpO8pdPOhJi8kmydqmw90tA21ugjldl0rGQvuLs2pfYWYeWvUsWGqpmxSW6C3HMwuWWrvOOuy6+K7rdj4O891fR0qM+aKJSYlnTnLNfYIaz4chi0SH49aB1n5+xtOxO2I4nIc2tnuNMTni6byD+WaiBZ0RYyMfVwSNGFgJbxFGeMswh7QBg/qyYMEC0tPTmT9/Pq+88opvldruLDGk6HQUHAWOFqBLnYPt86yZTabW8renfYA+N4PUBOsHQ0NCaga5vtw0XMWjzyXDvk0HUtFZP4iaBFJ1BRx1sS8qOh5sdUQRHW93PLoUYqx3P20G5B22XFSe6namas7AWBjLQn9MsDmfazTMzoTsDdZL3vv4oqLj0RW4j94lHs97HgsTYyiY0zTmFxQXg+atYdN/t1FaWt1OrbS0lPPnztO27Y0cOXKE/v37M3DgQAoLC71vQJ+GemEshZa7oi7VnGw4nOe2iKd9oCfX2s21XFzaDByGCv6Oxy+k6mwTakaj/d2+lkSNI0nrowgGmu6xaO16ad7gzXn3+r1t4CguBg/9ZgLhLcJYt3w7e3buo7LCRGWFiT0797Fu+XaiY6K56667AIiLiyMuLg7AllYThsN5EB9t+eCbL2SwTIDZf3D0S2xDAU/7zHcSpwvLqCM1Y6GbryV9ice7Onyme6z/6zZsIFuXSoIGiIomXpeN9WZu2JBt/3M3PsamZ0kKJI2rhVRFJTMnNQOtwxyHgaw090MLz+c9njk5RnRo6+ErZOVRXAwiIiJIvHs8kx4dxdmSixzZY36dLbnIpEdHoVKpKCgoQK/XO7wKCgq8qj8qeQ6pGVrLXTwXUm07WJqZh9badc6NrRoKeNjnOESwoiEhVWfr2moSUh0myOy38RBPji7eNib36/f41er27vkI5+OwnzNQx2STVGgdX5u79tZ9swri0Xqox2G7Wmxa0OW46bbXjCbdSGFSdtWQSD0LZnvoBXlx3jXphSRlx7icSG1M+OSO/PTTTwc8oP37DwDQp09vW1pcXBx6veNbpNFoOHToUMDjEYSGzp49exqmO3KfPr0dhEAQqmP5qs/h1bSeFgwEij905A2xsbFonJ7qiY2NVSgaQXksTxAqHUYjo0GIwbp165QOQRAaPUE3TBAEQRlEDARBAEQMBEGwEHRiILZngqAMQTWBKLZngqAcQdEzMBiKWPRUNrq//MLNd5sY8CB8lVnGgpnZFBYermPtweZY40/HoFocm7gACW5QXAyCx/asOoFz6KmdY1BdERcgwROKi0GDtT3zE1HjktDalhMHEvcuQMHjVCQoieJi0CbayKApsGN5Oe/P28fxohJKjp9k7av72Jplok9SJW16+MH2zMG5yHInDgKHHgfHoNq6INna9ODGIy5AQg0oLgYQaNszcHDLMepIzdDW2N0PrEOPO8eg2rgggTduPOICJNREUIgBBNL2DBzcctAwO1NL3uE6dszr5NDjwTHIZxck79x4xAVIqImgEQMrAbE9C2bsHYPq4IJUoxuPuAAJNaC4GATc9gyADBba+u92TjrB4NBj5xhUOxckL914xAVIqAHFxSDQtmdmUklilgsnHaUcelw7BnlyZfKHG4+4AAmeCBqno5KSEjZ9vpPTh8sAaBcdxpgJQ+jYsaM4HQlCHfDW6ShoHkfu2LEjD86426XtmeALetLUWjIc0lKrPV8gCM4EjRhYERGoK+ICJNSOoBMDV4jtmSAEngYhBmJ7JgiBR/FvEwRBCA5EDARBAIJQDMTpSBCUIajmDMTpSBCUIyjEwGAoYu3inZw8EE7/ySbC1Cq+yiwjLyebyXP7ExMTrXSIgtDoUXyYEMxOR95j9iEI/DP6NdiN2Xs2qBP9+KvLBrISrfX507YtwIjFm08oLgaNwunIsIHs+FTiU5ZU+9AEzjrNOYYszNYCVu+BOdhWYPmd2tm21du5QCzeaoPiw4Q20UY69Qpnx/Jy8nL2MWZGe0JCVHz93knO/xhO//sqOXvED05HAcSwIZv4hBwSUJOrT0ejxIfraAG61ARybAkakpMD32zUuCS02YcxoAki+zT3Fm80iXt87VC8ZwCBdjpy7Naa70Su7MXMaY5OY4lVXX+39l8GNmTHk6CxrGq0W99fs3VaLW3OXNmpaRJIzXCznNhlXTVYsznYxG1wf3btbduCwEbOnF0s3mpDUIgBBNDpSL+ElHidrato7hK6sheLInmO/cVswPw5jzJ/SGbBUmuXU0dV11i/hJR4ywdPk0CqnYFIjdZptbI5c2enpiHdaFlObH+xeIrdXV2GLBK1eVVuTAkFpDgYPbizbXNPYG3kHBGLt9oRNGJgxe9OR91j0bq6Y7qyF7O/mA0byI63WH4dLUCnS6nyAdBmgMXRWJ+bQWpClaVaQqrFtchbfLY582SnZhUXHWgtguAhdrd1OVu6aWaTaW/04Mm2rbbUyUbOEbF4qx2Ki0HAnY6ikskxGllqMTdJ82AvZn8x65ekEJ9g986nVvUujEbrnd3sRpShreraajN8sAKrg82ZZzSk6+x6OS5jd49P7dvbtgULYvFWKxQXg/pxOoKo5Bxz9zJX79ZeDEAzO5O83DRy8zKZbdWCahZnFvS5ZDhfaEYdqW6twhypnc2ZG/RpjvMd1g+3u9g9YG7f7mLSL3EaJtgfRJVtW1DYyIFYvNUSxcUgIiKCxLvHM+nRUZwtuciRPebX2ZKLTHp0FCqVioKCAvR6vcOroKDAuwbsJ8K0oEvXuLcXA/OdLi+DPNtvGeDC/sv8TIHjEMGKhoRUna1768k6jTrYnFVDM5vYhVXxxWQnUZiucRu7R6KSWZqZh9Z63nJjnYYJrm3blLORc3E6xOLNZ4LG9syKK6cjsT0ThNrjre2Z4j0DZ/r06S1uR4KXWL7qc3g1jacFA4HiDx15gzgdCa4Rizd/0iDEQJyOBCHwBN0wQRAEZRAxEAQBEDEQBMFC0ImB2J4JgjIE1QSi2J4JgnIERc/AYChi0VPZ6P7yCzffbWLAg/BVZhkLZmZTWHhY6fDcIO4/QXuMQq1QXAwah+0ZiPuP0NBRXAwahe2ZE1HjktDalgkHC+7df4LHoUhQEsXFoE20kUFTYMfyct6ft4/jRSWUHD/J2lf3sTXLRJ+kStr0qIvtmSunI8T9x31Gcf9poiguBhBg2zNXTkfi/uPtyWvy7j9NiaAQAwig7ZkrpyNx//EOcf9pUgSNGFjxu+2ZK6cjEPcfLxD3n6aF4mIQcNszC/ZOR+L+YwtU3H8EG4qLQcBtz1w4HYn7j7j/CNUJGqejkpISNn2+k9OHywBoFx3GmAlD6NixozgdCUId8NbpKGgeR+7YsSMPzrjbpe2Z4At60tRaMhzSUqs9XyAIzgSNGFgREagr4v4j1I6gEwNXiO2ZIASeBiEGYnsmCIFH8W8TBEEIDkQMBEEAglgM9n6zj73f7FM6DEFoMgTdnMEPP/zA+lX7OPuDObQtPX7g9in96dGjh8KRCULjJmjE4OTJk+T+aytHN4YQl6hm3OSeqEJC+HbX96x89gCdB33LHQ8NIzIyUulQBaFREhTDhI/WfsbfU3agClFx34sxDNH0oVlYGKGhoQwcdjOT/xRD82tCWfqbPXy09jPfG7B/JFmd6NuvG3vEk/WZ8+O7YicmBDdBIQYnvr+MqULF1dJKLv7vUrX9F/93iaullZgqVJz4vvqCJo8YsjAvubeuUJyDbdWQ37Fbxmy1P7OJj9iJCcFNUIhB2WWY+be+XHNjMz7POMVny/dhOFqM4WgxOSv38nnGKa65sRkz/9aXsssq3yo/WoDOweFHQ3JtV/r4SFRyDoWZkLJE7vVC8BMUYgDQuvW1TLhnNE8sGUb04GvYsuocXy8/R2Sv5sz6x1Am3DOa1q2v9b1iTQKpzuYmVgJofWalyg/RfgjgNKRwN3Zwa3nmHEdW1XDFg82a+2MWhCASAythYWEMHz2IgfdGMOj+CMbePoLwcHUdatSQbrQss3X2QPS79Zm3RJGcYx1OFJKZ58IzwJPlWW3j8HjMQlMn6MQgMFgvPh1oLYIQEOszH7Dd2WNI0emo5kjmyfKstnF4PGahqdNExMCKhnSr2xEE1vrMgt5sTeRYrz4N9cJYCi3t6lJ9q7M2cdjw8ZiFpkPQiMGlSzV/S+BNnmro0xzG2rYLKdDWZ1is0PMyWeo0YWk4nAfx0ZaLUE9uhovCHizPPMbhyWatFscsNB2CQgx6DLuWde/uZNN/t3Hu3Llq+8+fO8+m/27jPyt20GOYj5OImtnELqyahIvJTqKwPqzP1Gq06FzeeaOS55CaobXkywVXPQNPlmce4/Bgs1abYxaaDEFje/bzzz+zY+sefvjmPDd0cnRHPn+ijB4Db2DoiF/RunXrgMXQcNGTps4lQdyMBBc0ONuz1q1bMz7hVsaOK+ObPXv5bksRpkoTcYM7MGnKYMLDw5UOMWgxZC0kQ5vEbKUDERo0QSMGVsLCwhg6bAhDhw1ROpQgxtnnMBWdUSYChboRdGIgeIP4HAr+JygmEAVBUB4RA0EQgCAUg4qKCioqKpQOQxCaHEE1Z7D+sy/QLy2lslzFyMfDuPOeCUqHJAhNhqAQA4OhiLWLd3LyQDj9J5sIU6v4KrOMvJxsJs/tT0xMtNIhCkKjR/Fhwqp3PuFvM/YSooaHX4ti2Jg+/GrEzTy8sBvh15vITDnIqnc+qXX9+jRndyHz8mGHNEMWieo09F65EbnC3vEogLhc0lwXd6TaHq/QGFFcDPLXqwgJU9FtYHNatWplS2/ZsiXdB7agWTPIz63xIUm3aBLsFiaB5efSIe+w3ZVrM0AJXjciQ1Yi6pgC5tgtMko4XNdfPg7e4xXqH8XFoE20kUFTYMfyct6ft4/jRSWUHD/J2lf3sTXLRJ+kStr0KK99A91jLeYiZgwbsiE1FbI32NL0uRmkJgTzFaFnSUp8tR9P1STLg0aC/1BcDADG3TGSJ5YNpE20if8s+Jl1837i2kh48u1+TEwajSq0DpVHjSOJqlV8RwsgafZsuzQDh/O0xHYHxy53HRyP3DgUOQxZbEMT62ai++66PpcMB+s2D7h1R3J0V6o+xPDleLPqZ1gk1CtBIQYAERGtmPLbWxnxKAyfCVN+O5aICPOwodfIG9i8eTMTJkxg4sSJbNmyxYeao4iO15lNQdCTmxFPdJQ5reAo5mEDSYxzeYutheORB4ei7rFa2/DEsCEbtHmYRzAGNmRjEaTqGA7noXW30yGjB3ck/RJS4qu8DFwPDQLt8CQEM0EjBlbCW4QR3tJx1eKAQX1ZsGAB6enpzJ8/n1deecWnOjUJqegKjoLhMHmWO6xtLuFoATqbt4AztXA88uBQFDUuyTI8MbAhO545c+It4nCUAreCBFHR8eb4a8KTO1L3WLTuvCDrcrxCo0FxMWjeGjb9dxulpdWNS0pLSzl/7jxt297IkSNH6N+/PwMHDqSwsNC3RjQJpGbkkmV/+7XMJWTVYr6g1k5DtiHLUQriE9BoEojP3oBBn0uesxuSPd1jHc1MatV2MjlGI0uZVX0IUAN1clYSGgyKi8FDv5lAeIsw1i3fzp6d+6isMFFZYWLPzn2sW76d6Jho7rrrLgDi4uKIi4sDsKV5R3ditXlkZ5udggDbhZltmy/wHo9OQx4ciiCKcUlQsCQXEjSAhoT4bGYtzKuKy2WDycxJzUBr73KMgaw0p28TPLZtrSrHPATI9V4NfHV4EhomiotBREQEiXePZ9KjozhbcpEje8yvsyUXmfToKFQqFQUFBej1eodXQUGBD62YL0KdQ1fcPG+g89A9d1+dB6chTw5FmC+svAyLFgCahHivYtCkGylMyq4yM1XPgtlO3yZ4att+AlBL1XCgrscrNBqCxunIyv79BwDo06e3LS0uLg693vFOptFoOHToUMDjEVwhzkoNCW+djhTvGTjTp09vByFoWpifCHT/e43BgdlZKRYfR1dCkBMUaxNqIjY2Fo1GUy2t8RGspiXirNQUaBBisG7dOqVDaOIEq0gJ/iTohgmCICiDV2IQERHh8jkAQRCCn4sXL3qVzysxuP7667lw4UKdAhIEQRlKS0spKyurMZ9XYhAVFUVRUVGdgxIEof4pLi52+Utlzng9TIiJieG7776rc2CCINQv27Zt48yZMzXm83oCcdq0abz//vt1CkoQhPpFp9Nx5MgRrly54pDeoUOHanm9FoN+/foRFRVFTk5O3SMUBCHgnD9/njfeeIPdu3dX21cnMQCYPXs2n3zyCadOnap9hIIg1AsZGRns2LGD8vLqTmF79+6tluaTGKjVap577jmef/55dDpZtiYIwUhRURFPPfUUOTk5Xk0cWvFqoZIzly5dYsmSJZw7d47HH3+cLl26+FqFIAh+5tKlS+Tk5PD++++zdetW/ve//7nM5+6Sr5UYWNm1axdLlizBaDTSvn174uLiCAsLq7mgIAh+48iRI1y4cIGCggJOnTrF/v37qaysdJk3Li6O/Px8l/vqJAZWTp48yahRoygvLyckRJ5wFoT65NKlS1y9etVtT8BKhw4dKCkpcbvfL2JgZcaMGSxfvtxf1QmC4Ce8ucz9eht/9913MZlMjBkzxp/VCoJQS8aMGeOVEICfewaCIDRcZIAvCAIgYiAIggURA0EQABEDQRAs/D+8I9p9BVHNXQAAAABJRU5ErkJggg==;" vertex="1" parent="1">
          <mxGeometry x="-1013" y="1019.5" width="259" height="314" as="geometry" />
        </mxCell>
        <mxCell id="uozOtIk-62IbuRWrD_Ta-18" value="" style="shape=image;verticalLabelPosition=bottom;labelBackgroundColor=default;verticalAlign=top;aspect=fixed;imageAspect=0;image=data:image/png,iVBORw0KGgoAAAANSUhEUgAAAOsAAAEdCAYAAADttpBlAAAgAElEQVR4nO2dfXhU5bmv7wiMuKuyEUUJYQwSoiiBoiBf5Yy6mWKS6gFjBcSGbRAa0NptpBDQTastGDg0XFdPgQgaTCoSwMg53ScEOgjMVhA1mJKAEQxCh5BAbcQiIg75OH+s+f6eyQyzVvLc1xVl1no/nrVmfvM+613r/U1Ce3t7O4IgqJ6r4h2AIAihIWIVBI0gYhUEjSBiFQSNIGIVBI0gYhUEjSBiFQSNIGIVBI3QPVoNnTlzhrNnz0arOUHoNPTo0YM777yzw+10SKwWi4WysjL27dvHtddey80339zhgAShs2G1Wqmrq+OHP/whP/nJT7j//vsjaich0scNN23axJ49e5j604dJu/M2eiR8j/W7r5RG3f9j78rj/+5lEuzbPeslOEv4asurG2cF9z7dmvQRi61Mgsdr9y0J3n35ace7jkdZz75c/u9+LvzF4xmLr+PyLgOQkOArXu+CCV7teHXo1VeCrw5dj8vH+xtSX66FffXl971yb8frs5SQ4LbHu1vPvjzb8/W5df8stbcn0NbeRn19PVu3vs23337LggULuOGGG3wco3/CFuuZM2dYunQpaWlpTMkYxaVzR2lva/MWni+xeh50ULG6HrTvE+z9xeA8SwH7CjM+3/V8fUCD9eUq1kjOhS8hBujLowyEItZonAvvYwgUX/D3KpRzEUp8Hsca8LMUvK9I3quDBz9h9erVzJs3j1GjRhEqYYv1F7/4BTn//jj9rv8n1ovN/g8gqgft0ZaI1e04QxGD23GIWF0ONdBnKXhfkb5XF7+9yML8fP7jP/6DlJQUQiGs2eBNmzYxfFgaN1/b7CJUQRDC5Qc/+AG/+tWvyMvLw2q1hlQnZLFaLBb27NnD/3zwHi5f+jriIAWhs9La2sb31lZCTVb1+gE8+uij3HPPPaSnpwctH7JYX3vtNZ7Mnsp3546FWkUQugxtbXDu6/OcPHmS760ttLUFF2xCQgLTp0/njjvuYNeuXfTu3Ttg+ZDEarVaOXToEIMH9qW9rTW06AWhi9DS2sY3Fy6yZcsWVqxYwd69e2ltbaMthBG2e/fu3HPPPdx00018/fXXDBw40G/ZkMRqsViUe6itF0I/AkHoArS0ttHaBm+88QYHDx4kKSmJV199lR07dnL5cmvQETYhIYHbbruNPn36AHDy5Enmzp3rs2xIYj137hy9e/cObVKp6i30w6ejHzYd/bBp6HN30xBKJ7Hk9E6mp2bQL2dH/GMROg1tbfDtxUsUFRWxf/9+pk6dyjPPPEN6ejplZWXs3buX7y59H/Qa9sbePbnmmmscr4uKinyWC0msX331Fb1796atNcisVdVb3Drr/8HM/8RSswlLTRmbfxxKD1eI2xNJincMQqegta2dc1+fZ+PGjdTU1DBr1iy+/PJLXn75ZYYPH86Pf/xjysvLef/99/neejngCNvNhwp9ja5RfZC/4ZQFgJ//D+dzkGMfeSD+Auk/iU3HttO0cFi8IxE6Ca2t0NzcTFNTE0899RRNTU3s3buXq6++mj/84Q/07duX8ePH8/HHH9vKhzfXs3fvXq9tURVr0gA9AK/Oms7P3vmHd4HG3TyR9hgD0h5jQNpP+d1H9u3vMmNoFklDs0i6K4sZ5X+3bd/FjDun0H/2y8y4czL975xM/ztL2A/AYX475GEShzxM4h0Pk3jHr9l0Gjj9Fx6//SckzlrC9Nsz6TdrJw32NHh5jdLuR69xy+AHuWXwJOXPvl0QQqRHd7j11ltZtGgRR44c4Z133mHy5MmOkbWkpIRBgwbx3HPPKeV7hPcY/pkzZ7y2RXeJ3MjH2fcbZfQy/+YX6IdNY+nHtn2Nu/nZpFcxj8/lQO0WTtVu5cV7gcZ3eeLHa+HltTQcLmfLk2Be8iqbGl0bHsfyT/8PH/52BLCN1eVfAkP5z7o/01j3ZxrffYb7+ITnN7qI7v1kfnG0gqbXJ7mP7I07mPbE2/DUcs58vpMzbz4Kr/2KW5YfiuqpEDo7CXz//feUl5ezd+9ennzySYzGiXTv3o1f/vKXjB07lj/96U8cPnwYIOR7r3a+/tr7WYaor2dNmpKP5dAmNv+78vrVWW/yAdBw4ABm4OezHqC/S/nTtu3mJXNJGprFYxsAqjnuOhN0ez+SgKQByQDs/cK+FK9WGV3/7Y/sBTh2xjmBNGsU43zE17DvffYCc+8brmwYPZq5AJ81yuSTEDKXW9o5c+YMhw8fZsaMGWRkZNCjezd0PbrRvdtVzJgxg6FDh7Jz504AWlo6fsszautZPRmbt4nNTGfqG6f4WyMMCFI+t7hcGWldn7Fs9F++ofwlRr/4CeQspXEB/PaOF1gbndAFISg9ukNiYiLPPvssvXv3pkf3BMdjxt26XcUNN/wrjz/+ON999x0A3bt363Cf0Z1g2vYWZU32V5+y+w2AAdya6HI9+/puTrvU6Z+kyLjo9V2OkW1/+a6go5zli0+Au/n9jDQ43URdiDEmjf8R9wFr99rS3g8/ZC1wX/o98Z8IEzRDQkIC/3KNjptuupFrevbAbW0EcNVVCfTqdT033XQTPa/WeSyeiIwoj6wWFj74OAsdr4ezYscTjAUY9QSWYtDnFDEmTbmP9PPirbx4bzanimFAzlrGDLWNjePncSArcE/jZjzDfcV/5Pl/e5jnf3Q394UaYuKDlL15mlueWMgtr9m2PfW/KHusbxjHKQiKILtd5V+E3btdRXdf92UiJKQlcjt37qS6uponHkql9fLFCJaFOcvIErkEl2LRXXYlS+RCic/jWOO0RM41PvO7f+ZXi37nuM1jx1OaYpgmCBpBxCoIGkHEKggaQcQqCBpBxCoIGkHEKggaQcQqCBohBmL9B2VzXRafF36qPMRfeCT6XQlCFyLKTzB9ytLhvyPh9U1YisBxJ7jRe7mPIAjhEeVng//Mupkv8sJIfyWO8DvHetY/8QEoS+SGPqqsZf39EWUN612PkHTXIyStlNFYEOxEfdWNYWCgZ2zv4sXaLbwInH5nKRs+An3DAe4ofpuN9yqjcMM72xiy4R023gvuj30JQtfmCk8wfUlZrjKyjvn1IT5r+Af9H5lDyuuPkjRUcYBIyprDoNceIemuUpsjhCAIEG1blzGj4TfPsrTK9/6Gd9ZTP2sLp2q3cOAl2+JvbmLaq2/TcHgku3++iwb6Mn3dOzQcuZvdc4IvlROErkJ00+B+91O6A7IfnI7evu3fl2CZpvwzaYCeV3Me41XAMH44TFLS4TFLqgEwvLwWyn9HkuP1OlljKgg2ou8U0e9+/nToAY8lQ3fyp7wESLiLU7U/s22zLxF6gVOPuC41epGGLI9lVoIgyEMRgqAVRKyCoBFErIKgEUSsgqARRKyCoBFErIKgEUSsgqARRKyCoBFErIKgEUSsgqARRKyCoBFErIKgEUSsgqARRKyCoBFErIKgEUSsgqARRKyCoBFErIKgEUSsgqARwvJgarsmFXq2AdDus0SCz3+60h6Sr1Lwduw7Q3NpSgjBzil4SwmRttMeZL9HmdCOKjrH5CzmXTaULaG048TzU+N87VYraDuRx+O/RoC2vIMLQkII1ZwbWukZQpthirVnQjOtLZfCqSIIqsL3IBPfvq7ueW1I5cISq/ViM62Xvw2niiAIQejWrVdI5eSaVRA0gohVEDSCiFUQNIKIVRA0gohVEDSCysTazOans0keYf9byebGeMdkp45lI7JZ5ucX8gQh1qhMrADDWF5RysnqUk5WjGJ7ZhkH4hTJgVWu4hzC4upSFvv9VXdBiC0xF2tLSyuff9EUWeXEoWSMa+BvqhldBSF+xFSsra1tvPT7rcyZXxSF1upYNqKMzdtWOtPjRjMzRzjTZucoqJQ9UFXmTKlX1TmbcqtnH7nd25/5dDbTSmHd7GySnzZz2t5mwDbc03hJmYVoEv3fZ7XR2trGb1Zu4f0P64IX9keViYWMYl+ifcN2trOKk9V9FLFkfkxGRSkliaCIbSWbK+YzNVEpO+29RZysnmbb9wrLJpSyONHMzKWwrLqU/gBVZSSvquPkcx7to6TBuyfYU18PsftqY8IhFqYs4uTqIZEfsyD4ISZi7ZhQa1iYmc1CADIoqzYogrC9njtFERKNTZizM21CBRjCzCUVLP6wmalTbHWfG+KybxiLTzUDTZj3b2f8iNedXY7rx2n6urcfiEY/bUzth6H0FWYmr6IklHYEIQyiLtaOj6jDWO4YHWNE9iJOPuc5+oUZr882oKTawOltK0keUcOc9TIhJUSPqF+zfvG3s15CvaXvv0a7G0jsh6G0wuXWTh0lL0PGaPuItp2125q993nVi0bf7vSfMp+T6zNY914HLgEEwYOoj6yDb+vHnndeinaz3iQaKFnfRLIjZYY560tdRuQMMthA8ogaj33e9QxLVlEyxbuLMRMymDY7m3XjZrFvdd+AfRuWrKJkgInk2dsd/ZdVy7WrED0S2tvbgy6727lzJ9XV1TzxUKpGlsjVsWzEIR6onsaYeIciCEFoujSYZ599lo8//thtu6c0VfhQhCAIvhCxCoJGiNl91vgyhMVyvSh0MmRkFQSNIGIVBI0gYhUEjSBiFQSNENYE082pD8UqDkHosjQdPBhSORlZBUEjqFqsR48eZfHixdx77708+uijnD17Nt4hCULcUO191s8++4zs7GzOnz/P9ddfz+LFi7n55pvjHZYgxA3VjqwbNmzg/PnzXHfddaxevZq7777bsa+pKQKbGEsxmTodOttfvjlakZrJj2p7guAbVYq1vb2dyspKAIYMGcIdd9zh2HfgwAF++ctfhtWepTgTXcoxFlitWG1/6ceLsUQYnznfVZwGCqxWCgwRNiYIIaJKsQJ069YNgI8++ohZs2bxzTff8P777/PMM8/Q3NwcpLYrZtbkpmGyFuCqJ0NODvqoRiwIsUWVYm1ra2Pw4MGO1zU1NeTm5jJv3jwuXLiA0WgMvTFzJYV56fge+CwUZzpTY51juDSTr8vHbM732mfO12EshEKjDl1mMRZ7WUeT/tJt7zYldRbCQXVibW1tZePGjYwaNYrevXs7th88eBCr1Ur//v3JyckJuT3L8VqMqQP97NWTU2FPjespql1BsSM3LsRYmW7bZyKv0Ei+GQwFVkx5kGeyYq3wGJ0txWSmlJNVb3XUw5jpu01THoUrIk/Fha6HqsTa1tbGW2+9xcWLF3n88cd55JFHHKLt06cPP/vZz3jrrbfo27dv8MZs6AelYTp2wn8Bx0iXQq7JhLNoHibHhaiBeUVGao8HkdaJY5jyFpDjULCBeUVQvstez6VNQzp5pmMEiEwQ3FDNrZu2tjY2btzIt99+S0ZGBm+//Ta33nor8+fPJyEhlJ+G98PAVIyFlZgLDN6psDkf3YpU6q1W9CgpbmUHjkEQYokqRtaWlhZKS0sdQt22bRv9+vXjpz/9aceECqDPYUFeIcZM15TTQnF+MebjtZA2yJbKmqksdK1YyApH/mpmTS5kTQwyJTUwFWOhayodYj1BCIG4i7WlpYU333yTS5cukZGRQXl5OXq9PjpCtWEosFKfVU6KY+JnLszLwZCzgLxCo21bJeS51soji7m2fUYwVTjSW0N6nssEkwv6HCpMaeSm6HzWE4SOEJZh2vPPPx/1AEpKSrBarUyaNImtW7cyaNAgJk+eHPV+wsNMvq6SdI/bPYIQCw4ePKh+w7SWlhZqamoYO3YsW7ZsYfDgwSoQqiCok7iKtXv37kycOJGysjLuuusuHn744XiGIwiqJu6zwenp6aSnp8c7DA8MFFglARbURdwnmARBCA0RqyBoBBGrIGgEVYtVnCIEwUncJ5j8IU4RguCOakfWqDtFCILGUaVYo+sU4bFmVadD57r+NCZEavUiFjGCf1QpVoimUwSAkaJ6p6VLfVEtRp3rOtNoE7rVi1jECKGiSrFG1SnCB/qcCuqLIHeNDGGCdlCdWKPtFOEP/cQsjLXHlVUzblYs9hTZPX12jH4+yyqWLcXFmeh0mRRbXK1exCJGiA6qEmssnCKCYikmcy6stTsfmsCYbwbzGnLTTI7UWUlNzeS72ba4rsoppJy1WK2+lsSJRYzQcVRz6yZmThHBOHEMk6mQFF2uc5sxFcu8VIyFRjJT66mwq89cSWHeAqw+16fmscDvwlVvi5i5xy1gCLDQ1WYRU+FmEbOCubssKImFh0WMsZITII6NnRhVjKwxdYrwg1mxcFA+3HnOEdRqtY1y+hwqrFbW2hag55sV8zVBiBdxF+uVcIrwxJyvw1hbxNocvQ8rFnf0ORVKmllpVq5zA5T1j1jECB0n7mLduHEjly9fJiMjg61btzJw4ECmTJkSZaGaXKxWdBgxOa8RvaxYdGQWW1xcD3XojCgpp1fZUO/XikWM0HHiauvS0tLCwoULefLJJ9mxYwepqamdcAG6WMQIgdGErYs4RQhC6MR9NlidThGCoD7iLtbOj1jECNEh7hNMgiCEhohVEDSCiFUQNIKqxSq2LoLgRLUTTGLrIgjuqHZkjaqti+vTSDFddA6RuT1YKM6MZVweS+8ETaJKsUbV1sVSTKYRTI4H9RfArliq1d3twd0JQhAiR5VihSjaupw4hikv3eVRPwM58oCtoEFUKdao2roY0skrNCoP53vi5fqguEO4joSW4kxn3TBdItydIPLJ99G2LtiwG5UYhc6A6sQafVsXAwXWerLKU7ztWbwcIk6Qs0BZDmcrxK5y27I0f44SgD+XCHcniAIKfLRdNC/A001RjVHQOqoSa+xsXfTkVNitUWyCPXEMkynX+WvoxkKoPY7FkE5eYaUyIll2UZ62QBGgv/JAYJcIFzzbJouAy1OjGqOgdVRz6+bK2LoYKDDloas0U5CO4hDhw/czPc9IpbkAKnNJS7c6d/gsH87IpVizrDHDwOPlpC2oCG7DcsVjFNSKKkbWmNq6mPPdr+/s1iwBHCIM84qorcynsrYIR5YaxFEiVPQTs6itLGZXeRrpwZ7vj1OMgjqJu1hjbutimEfqCqcLREp5FvU+XR90zkka/USyaguptXs0QeDygbr3dILQTySrNpfyrHkei9FN3m1foRgFbRBXpwiAkpISrFYrkyZNYuvWrQwaNIjJkydHvR/1YKE4cy6sFYsWQUETThEtLS3U1NQwduxYtmzZwuDBgzu5UFH8iINNLAmCD8TW5Yphc/g3gsnT0FsQQiDus8Fdx9ZFuX3U8R/+ELoqcZ9gEgQhNMISawhzUYIghMnFixdDKhdWGvztV8dob7scUUCCIHSM8MTafIzWy9/GKhZB6JL8y78MDl4IuWYVBM0gYhUEjSBiFQSNIGIVBI0gYhUEjaAysTaz+elsklfV+dx7YFU2yU+bOR1Wm3UsG1HGgajEtpLNjR1uSBAiQmVitVFa4S2KRjNr64eF9BunB1Zls6wqFoEJQvyIuVhbWlr5/ItwfH6HMScbtn/o7mB4+sOPuX3iqOgGJwgaIqZibW1t46Xfb2XO/KKw6g2amsntuw67pLt1lLycxAMDmtwNShrNzByRTfKIbJJtqe6BVdlMK4V1sz1S5qoyWzmPUdetDY99LnWSVx122WFL133VEYQYEbNVN62tbfxm5Rbe/9D39WdghvBAyiuUVBlYPBKoOsTRJUYWY3IWaTQzcyksqy6lPyjCWlXHyedKKSOb3RNKlbrUAduZ9t4iTlZPU8ptMDNzpIH+jWZmZn5MRkUpJYlK2WUjVrK5Yj5TMTNzdgPLK0qZmmhrvxSWA1SZWJiyiJOrh3TsJAlCGMRkZO2YUBXGTJ3F0ffqgGY2b2ggY3Qf9wKNTZj3v854+8g3ezvU/93P5FMGZc/ZhDVyOHP2N3HK3kZ2piJGAIYwc4ktBffcN9LI8nG2fyf2w1D6CjO3hWE2LggdJOojazSECkDiUDLqN7C5ahTbUzKVkc9z0il7ESef8x7dTnWsZwBOn2oAhvuJzUBJtYHT21aSPKKGOevto7ggxI6oj6xf/O2sl1Bv6fuvEbTUhx9NhIWzX+f2CT7SzcR+GHzNGoeDVxt1lLwMGaP70H/0KAylh5y3fKpMLNzvXr3/lPmcXJ/Buvc6+MUkCCEQ9ZF18G392PPOS1Fpq/+UTObsGsVMX6NWooGS9U0kZ2az0LbJsGQVJVP6MGZCBtNmZ7Nu3Cz2rQ5gCO6jjTnrbdeoGFi2ZCXjR2QrO7JnsXxcg/LvqjIl7QYgg7JquXYVYk9Y7oZPPJQqS+QEIco0XRqsfndDQRBCR8QqCBpBxCoIGkHEKggaQcQqCBpBxCoIGkHEKggaIayHInr1v5cEovXDxoIgADR9FtoDsmGJtecPbo4oGEEQAhGaWFWbBld/8leqP/lrvMMQBNUQ91+R8+Tzzz9n51t/5R+fK6HtG/w5kx7/IYMHh+ZaLgidFdWI9cyZM1Ru3c+JPVdxR6aOiY/dTsJVV3Ho46OULjpC/5GH+MkTY0hKSop3qIIQF1SRBm/bsp3/nfshCVcl8NOXUrjXMJTuPXrQrVs37h5zJ4/9OoWe13Vj7TMH2bZle/AGPTHno9PpbH+ZFFuifwwhBkK+Tke+OXhJd5QfYg6/Xkf7jQZm8nX5RK9rC8WZyntozteRGb8384qjCrE2Hr1Ie2sC33/bxjfnL3jt/+b8Bb7/to321gQaj4a56sdSTKYRTFYrVqsVq3UB7IrXG2ygwGqlIBSLRlfMayjPqg+/HsoHWqerhLzw66odQ4GJtNw1UfwiUDeqEOvlizD7D8O47sbu7Cg8y/Y3/orlRAOWEw1UlFazo/As193Yndl/GMbli2HeOjpxDFNeuouFqYGcHH2UjyCWWCheUUvWxMhiNhRYsVoL6Jy/LW8gPa+Qyi6iVlWIFaBXr+t5cPIEnl4zhkGjrmPfW82890YzSUN6MvePo3lw8gR69bo+/IYN6eQVGn2nS5ZiMh3psUuq5nO7LZ1zSamdaaWSpjpSbccOpU5xcaYt/fZICd368ZemnuAYWfjUqjk/emmgz1i8029LcaazzwDnyXnMofTj7Mv7HOJ+GZO/y605Q3oehV1EraoRq50ePXowdsJI7p5yLSOnXsv9k8Zx9dW6DrRooMBaT1Z5iseHw0x+SjlZ9fb0uEAZfS3FZM6Ftfa02QRGR6VCjJXptu15FK4oRvks6smpsLdTT1HtCpcPaSHlrMVqrcBtQLcUk+nWvwmMvj7cx6lNG0RMcwG/sejJWeAqBgu7ylFG+SDnKfxj9nMOLcVkGmspstdJP0aui8klA1Mx1h6nK1y5qk6sscH+QTCB0SZYcyWFeQvwyohPHMNkyiXF/k1uLATHhyEPk/3C0ZBOnukYJ+z1HN/+KeSaTBxz7Mhjga+0+8QxTG79G5hXBOUhXE8r16FKbKZc5UtIl1kc+Qc2UCyGdPIKK5VR07KL8jRbuSDnKaJj9nUOPesY5lFkjPRAtU0XEasdAwUmZaSwHK/1XyzPZPuGt/1V5AQe2cz56FakUm8rb4rxZI5yHaqM7sai+tBijLw3x3WheU0uaekus1zhnqdA+DmHAd+nLoZqxHrhQvBZ3lDKeGHOd7/msr35+olZGAtXeKedA1N9bw+A5XgtOFJVM5WFIVTy6sfMmly8J5L0g0iLdZoXJBbDvCJqK/OprC1insFfnY714+8cKu9TpfM637zGPQ0+cQxTrC8TVIIqxDp4zPX8ecNH7P3LBzQ3extnf9X8FXv/8gH/VfIhg8eEOclkmEfqCufERUp5FvUFBtDnUGFKIzfFY4LEa3vwe3n6nAXkFRpt5UO8TeLVjxFMFd5pOQNJpdz33SZDARXRmNkOFot+Ilm1hdRmTXSKIoLzFKgfv+dQn8PaolqM9nS7MtUtDTZXFpKXHsE9LQ0Slrvh888/H7NA/vnPf/Lh/oN8/slX3JDYw23fV42XGXz3DYwedw+9evWKWQyqxZxP5vF50RFmp8JMvq6SdPvkoEY5ePBgSO6GqnncsFevXvw4/QHun3iZTw5WU7PvFO1t7dwx6hYeeXwUV199dbxDjB+GeWStSCF/UAQPVHRizPlGaovqKYh3IFcI1YjVTo8ePRg95l5Gj7k33qGoCGU2W3DHUGDV9IgaLqq4ZhUEITgiVkHQCCJWQdAIqhWrOEUIgjuqm2ASpwhB8I1qxCpOEYIQGFWkwbFzivBYdhWOW0RE7hLxdGQQOjuqEGvsnCJcll2Z8lwePPf1WJ8LAdwlzPmBxBihE4QghIAq0mC7U8QHew6xo/AsNw45zVDDjQDUvvclzUd6cEem4hTxf9dVxT4gm7tEhWODgZyc2HcrCIFQxcgKMXSKCIQ/1wI/7hLmfB3GQig02tePBnKCCOQsgYf7QbHDBEwQ/KEasdqJvlOEHwK6Fvh2lzAUKOss80yuazf9uCLY9vl0lgjmfiAIPlCdWK8YQZ0afLhL+MSPK4Jtn09nCXE/ECKg64o1ZJzuEtFC3A+ESFCNWGPmFOGPQO4IftwlokVQ9wNB8IEqZoPtThGJt/ck7Z5U+vTp47b/q+avqDl4lKbPvwvfKcIf+hwqTMfQpejItW3KM1mV1FQ/j9RMHTp7amosor5CSWcN6XkYjToKjUXUVwyKuO+1RZmk6GzX4nlFFBlltBUCI04RqqBzOB4IkSFOERrCUryCQmMW8+IdiKBqVCNWO13DKcJMvs6I0wQxD5M1VlaiQmdBdWLtGtgeS4x3GIKmUM1ssCAIgRGxCoJGELEKgkZQrVjF1kUQ3FHdBJPYugiCb1QjVrF1EYTAqCINjp2tCzjWlbpt8/5F79CwRHfdaUTWMbFA7Gi0gCrEGjtbl/gQ2PrFRgDrmCuP2NFoAVWkwaqzdbkSiHWMECaqGFkhTrYugC/7FZ3rsOi2fZdLPQ/nRFsdb+sXPOxjbCm5H+sY/JX3uz2QfYzvGAloR+PZj6THakE1YrVzxWxd3HCxX7GayCs0Kh/QgPYrLrC4XBEAAAl7SURBVM6J1nqKapW1sV7WL5ZiMufCWnu6awJjvhl/1jFgJt/Nbsa2EsdvOx7xu9rH+InRXsenHU1AuxshnqhOrFcOI6kD7f92sV/BwLwiI7XHLcHtVxyjWQq5JhPHTvjo5sQxTKZcUuwjlbEQao97iMnFOsZcSaGb3Uwo7fixjwkYox87mqB2N0K86AJiHUiqsZbjEXzWAjpEmPPRrUil3jbSmfICNOTwK7b9VXiusHFaxwTsM2g7HYhRUD2qEWvsbF30DEozkbvG9Tp0DblkMdHxSS9khSPPc9q7BLJfsRyvhbRBNrGYqXSud3PHyz7G3pZv6xilTx/l/bUTgJBjDNiPi92NEFdUIVa7rcvev3xAc3Oz1/6vmr9i718+4L9KPozI1sVQUE9RrdE50WIEk9uolEcWc237jWCyXcfpc1hbVIvRXq8y1ZEG63MWkFdob7MSXEYtQ3qec4JJn0OFKY3cFOeETWaxBQzzSF3h3JZSnkV9gcFmN+Na3jbx46+dAASKMUAlj35czocQV8TWRSxVhDgjti6C0MlQjVjtdA1bF0EIH9WJ9cpjoMAqCbCgflQxwSQIQnBErIKgEVQrVnGKEAR3VHfNKk4RguAb1YhVnCIEITCqSIO15RThsuTMcwlbTIjUxaGj7g++jvVKOFr4er8EUIlYteUUYXQumbNaqS+qxRjTD3DoLg7uDhUddX9wWV6nrPmzHbM6Hj0MyY2jk6EKsdqdIq67sTs7Cs+y/Y2/YjnRgOVEAxWl1ewoPMt1NypOEZcvJsQ7XDf0ORXUF+G+UEAQYoAqxArxdIpwT/cc39b+3Bp8oJ+YhdG+ttRnvXD6COTi4N/VwtuhIlT3h0BOE4FOWyiuFfmYXY/d7pwRzJ3Dz3sTthtHJ0M1YrVzxZ0izGvITXOuEy0wEMSVIQD+6vnqw58jBODXxcG2z5erhZdDhWdcAd0f/DlNhHmcHm0plwhzYa3NqYJcnAmIH3cONzrqxtG5UJ1Yrxw2p4iBqRg9vZACujIEwF89X334c4QA/Lo42Pb5dLUIFldA94cAThPhHKdHW/pBaeDoV8+gtAiOo8NuHJ2HLiDWIE4R+hwqrFbW2tazOr6Qw3BlMCurs5X9vur56COgI4QWCNe1IhKi6sahfVQj1vg6RSgTRVabtUo4rgzmfB3G2iLW5uiD1nPtw68jRFB8u1oEJNruDxG4VngT/Dg67MbRyVCFWOPqFOE6yWFESc0CujKY3LYbMTm/xf3VC6mPUCdF/Lha4OFQ4Vol2u4PEbhWhHMczm466MbRyRCnCE3RWVwtOstxRAdxihCEToZqxGpHnCIEwTeqE6sQiM7iatFZjuPKoooJJkEQgiNiFYQ4880334RULqw0+FzDftpavo8oIEEQfNOz5zUhlQtLrNaLzbRejvcSNUHoXPToEZoLiqTBgqARRKyCoBFErIKgEUSsgqARRKyCoBFUJtZmNj+dTfKqOo/tdSwbUcaBKxrHSjY3+ohthOefZzlBiA3qfNyw9BWWTShl8ciON3VgVTa7o9JWH6auLmUqQFUZye8N5+RzQzoeoCCESExG1s+/aKKlpTXC2sNYvn4WRzeYOR3VqARB28RErHPmF/HCK29x+XKEgk00MDfldRZv816IDkCjmZmONNSeHrunqcuqlFF1Wimsm51N8tM28fusizJa2revOhxGsEq/y6qcW05vW2lL5W3pu1vbLil+iMchCBDDNDghIYGXVm7hN796jO7du4Vdf8xzi9g9YgObR89naqLLjkYzM5fCsupS+oMislV1nJxwiIUpizi52iU1HVlKGS5psL+6U//OzNkNLK8oVfqqKiO5FJaHFGkfpj6ZQfJ7dSweOQRo5v1dsPyFIUAdsJ1p7y3iZPU0FPHaUvzEMI5DEIjhBFNe7kO0tLbyyh+2RdjCEBavT2LhZo/JpsYmzPtfZ7x9RJq9Her/zunEfhhKX2Gmv9E4UN3GJszZmc4vhZFGlo8LI9SRw5lTekgZGRsPs51R/MjxBZNBmePadggzlwzj6Knmjh2H0CVR5wSTnZFGlm94jmVVi9y3Zy/yOblTUm1QUtARNcxZ72dSyUfd09tWAsM7EOgQZi6poKQKBpz6mNufnK+MlsHoyHEIXY6YjayFRf9F927dWPTslA600oepL8zi6IYKjto3JfbDUFrh93ZJ/ynzObk+g3Xved7+8V+3/+hRGOwjI0CViYX7w4u0/+hRHH3PzPu7knjATVzbWesYJesoeRkyRvfp2HEIXZKYjazt7e38en5k16tuJBpYNvFjxu+HubbXJeubSM7MZqGtiGHJKkoGmJRUEoAMyqqVEWvMhAymzc5m3bhZ7Fvtp+4UA8uWrGT8iGxlY/Yslo9rCDPOoWTUP8f2iasocduRQQYbSB5RA8Cc9bbrYsI7DkEIy93wiYdSQ1oi9/kXTQzU9+24UDVFM5uf3gAvuE6I1bFsxCEeqJ7GmHiGJqiapkuD4+duOPi2frFoVt1UmVjIKPYlBi8qCJGgsscNtYjtvuhsKFttCG1iSRAiQN2zwZrA5TFEL4awWK45hSghI6sgaAQRqyBoBBGrIGgEEasgaISQJphuuOEGzp07x82pD8U6HkHochwxmUIqF9LI2rt3b86dO9ehgARB8M2FCxf47rvvgpYLSax6vZ6zZ89itVo7HJggCO588cUXPn9E3JOQxKrT6Rg+fDgHDx7scGCCIDixWq3893//N19++WXQsiFPMD311FO8+eabMroKQhTZsmULp06doqWlxW37Lbfc4lU2ZLHq9Xruv/9+Nm7c2PEIBUHg+PHjbN68mU8//dRrX3Jyste2sG7dTJ8+ndraWmpqaiKPUBAELly4wB//+Ef27dtHW1ub1/4PPvjAa1tIS+RcOXPmDEuXLiUtLY0ZM2ag0+kij1gQuiBVVVW88sorVFVV0dTU5LW/Z8+ePmeHwxarnU2bNrFnzx4mT57M2LFjufbaayNpRhC6DDU1NWzfvp13332XDz74wO/8jz9JRixWAIvFQllZGbt376ZPnz7cfPPNkTYlCJ0Wq9VKXZ1iz3PkyBHOnj3rt+x9993Hnj17fO7rkFhdGTduHJ999lk0mhKETkVrayvnz58PWm7MmDE+r1XtRE2sdq655houXboUzSYFoVPj7xrVk6g/yP/dd9/R3t7u8z6RIAhOkpOTaW9vD0moEIORVRCE2CBL5ARBI4hYBUEjiFgFQSOIWAVBI/x//eYleXBIz2sAAAAASUVORK5CYII=;" vertex="1" parent="1">
          <mxGeometry x="-313" y="1065" width="235" height="285" as="geometry" />
        </mxCell>
        <mxCell id="uozOtIk-62IbuRWrD_Ta-20" style="edgeStyle=orthogonalEdgeStyle;rounded=0;orthogonalLoop=1;jettySize=auto;html=1;exitX=1;exitY=0.5;exitDx=0;exitDy=0;entryX=0.043;entryY=0.39;entryDx=0;entryDy=0;entryPerimeter=0;startArrow=diamondThin;startFill=0;" edge="1" parent="1" source="uozOtIk-62IbuRWrD_Ta-19" target="uozOtIk-62IbuRWrD_Ta-18">
          <mxGeometry relative="1" as="geometry" />
        </mxCell>
        <mxCell id="uozOtIk-62IbuRWrD_Ta-19" value="" style="shape=image;verticalLabelPosition=bottom;labelBackgroundColor=default;verticalAlign=top;aspect=fixed;imageAspect=0;image=data:image/png,iVBORw0KGgoAAAANSUhEUgAAANMAAADfCAYAAABsxeaiAAAgAElEQVR4nO2deVhU9f7HX6iQ3VuZu7KpieaG5ppLNlpOBbQpmmtYmIaklthVtLJsMfLx4vOrK2J2MUgNF/RaF8k7lkypaUokaKaS2gCiFVpu6cjy+2NmmBkYYICDnMHP63mmZs53+8x43nw/53vO+xy34uLiYgRBqDEN6joAQagviJgEQSFETIKgECImQVAIEZMgKISISRAUQsQkCAohYhIEhWikVEdnzpzh7NmzSnUnCDcMd3d3unXrVuN+aiQmg8FAYmIiu3fv5rbbbqN169Y1DkgQbjRGo5EjR45wzz338OijjzJ8+PBq9eNW3cuJPv30U3bu3MnYMY/j3+0u3N2uYfzrHG6AzX8c/N++3A23UvVNb91sP9v0UboqZdq7lerKQRx2VaztS+q6UbZNeX07GNuub5v/u5VqX93Y7XpwK1Wn7A9k34+D37ps/KUGcfrfykG5g/jdyhnfUf9utu3dbPt1/FuW/c0sn8r/tyouhqLiYrKysti4cROXL19m7ty5NGvWjKpQZTGdOXOGd955B39/f0YG9ufq+WMUFxdS/g/i4EtW+AM6+sEdiUmp/h2JSfm+laxf8p7KxKTO+J2u7+ZWUmL5bP32tRdLWtr3LF++nPDwcPr374+zVFlMM2fOJPSZCbS940+MV/JrFLRz9UHEJGKyfLZ++9qN5crlK8yLjOSll17Cz88PZ6jSat6nn35Kr57+tL4t3ywkQaif/P3vf+cf//gHERERGI1Gp9o4LSaDwcDOnTt54pG+XL/6R7WDFIS6orCwmGvGQpxNxnx9fRg9ejR9+/YlICCg0vpOi+mjjz7i2ZCx/HX+mLNNBEE1FBXB+T8ucOrUKa4ZCylyQlBubm6MHz+eLl26sGPHDpo2bVphfafEZDQaOXjwIJ06tKK4qNC56AVBJRQUFnPx8hU2bNjAkiVLSE1NpbCwyKkZqlGjRvTt25eWLVvyxx9/0KFDh3LrOiUmg8FgOodUeMn5byAIKqCgsJiiIvj4449JS0vD29ublStX8sUX27l+vYiioooF5ebmxl133UXz5s0BOHXqFNOnT3dY1ykxnT9/nqZNmzq36HBgLb49x+Pbc5zpFfYVOc4MUpvkfsG4Tg/T5tkvqhFLOm900NCyg4aWHe6nZfv7adl+DmtyayHOisjZQnDbntw5bjPZN3hoV6WoCK5cuUpsbCx79uxh7NixzJgxg4CAABITE0lNTeWvq9cqnaFaNG3MrbfeWvI5NjbWYT2nxHTu3DmaNm1KUWElqxoH1uE75b/wzGsYMhIxZCSy/iFnRrhBdPHEu7pt75/L9ye/5rfdcxnOd8xe8N+62am7+uADZK8L4842YSTU+V8qdVJYBOf/uMjatWvJyMhgypQp/Pbbb7z55pv06tWLhx56iKSkJHbt2sU1Y0GFx1ANHajE0eyk6IWuOdkGAJ4far3OadCoB6q/AyuF1yMkHt/OmXk9FeirH49rAL0BQ817cx7vkSTlZfDH6/2B0+z8bPeNHN3lKCyC/Px88vLyeO6558jLyyM1NZVbbrmF999/n1atWjFkyBD2799vql9QtbWA1NTUMtsUFZO3jy8AK6eM5+nNv5WtcPorJvmPwafHGHx6jObt7yzbdzCx+yi8u4/Cu/tIJiaZ257WMbHbk3hNXcTErk/g1fVxPLuuZg8AGbzV5TE8uzyK592P0vbu11iXC+RuZ3znQNqGvsr4zgG0Cf2CHEua916Gqd+9q2jtpzW/RtA66qA5kLOsffYBWt013PR6Jrns7JN7gM/0wLRBDLFsy/mcMe2G0KLdYFr4DmZ04hnz9s8Y7TOQ5pNeYrTPvTTzGUAz7xf5xDKb7Pk/mnn1o6lXX9PrrQOWH4RPJvTmTs97uLPtPdw5fgvZljRv0WYSxj3CrFSA3czs24NR606b+1tKk1bdadKqm+n1hvkHzt7EqJZduOOpKYxqcTd3jHmPV8d05vYWzxJv/oKGT0K5vXlHXqknGnVvWEy7du2YP38+hw8fZvPmzTz55JMlM1N8fDwdO3Zk9uzZpvruVbtM9cyZM2W2KWvB6DeBPW/0AkD/xkx8e47jnf3mstNfMenhWPRDwth7aCPZhzbx6gBMQtKugDdjyTm8mQ3Pgv61FXx62rbjwbx3ZCv73u4DbOFfm34FevLaT59z+qf/cvqrWQzje+aszbA22dWemcdSOBP3iP3MmJvCuEkb4bmlnM3ScXbNGFg1h9ZRB9kdNZ7ZX0P4up38emInv34chI+l3ddL6NPhfloOSeXx3d/w24Lepu05nzNmSBS8l8Tvv+xh6/Owc26UVTAA+o68lL2Pc3tf4UG+5cV5W8nO2cqYpz6BsJWcz03j/MYQiJ1G07cOsOutIGalwsxNP/BH3g/88elIaxz4EJL4Be8PAxjCB2mH2DzBE3KSGDVyNYSv5s9ff+TPLaEQM9kqKICddzP796Nc2DiP55+4D9jFf1JzgVx2bv0amMojQ6gnuHHt2jWSkpJITU3l2WefRasdQaNGDXnxxRcZNGgQn3zyCYcOHQJw+tyThT/+KHuuVXE/k/fISAwZn7L+GdPnlVPW8C2Qu/db9MDzUx7Ey6Z+zt696AH9wjC8u4/iqdUA6WTZ7oyd2+INePu0AyD1hMXqkcFbXR7F84H3SQU4mmddYJgygMEO4svZ/TWpQPgwk+gZOJBwgKO5cJfpOqyYCcNp9e4P9g3vn8v3J/+PF/iO2UOsCxDZu3ayE9g5L5gW7QbzxEqAfWTZTmnPD+E+AK8B5hTxF1K/+ZIvgRkP9jXVGTyEmQBHcsDPFPkHo+/hzjcP4AzZX2/nS2CWdoBpw5D7mQXwY7Z1dn1Bw1DzW59JYcwCdmzdjSF7N//ZCcwYVlLu6lwvNM0ehw4dYuLEiQQGBuLeqAEe7g1p1LABEydOpEePHmzfvh2AgiqmeY6oNXPgoIhEs6AM/HK6stoQtnozOYc3k3N4Czk/buG1ARXXz9n0Op5dXmFF6LucPvoujhcrq4bvU+/x69cvMxxg1Wxa3bUC+6ynN28kjge+Y3Z8ul3JC+t38/sve/jdsId8w7csGlT9ONqNX8757xbyIMCK57izbTS7qt9dOQzgkReAnSnsTD3BDu7nX88NVHyUusK9IXh6ejJr1iw0Gg3ujdxKLu1r2NCNZk3vZMKECYSGhgLQqFHDGo+p7ALElnUk5lk+/chXHwP40s4TvCzHU//+EttVZW9vUwIT+9GOklllT9KOSpewDSe+B/rwz4n+kJvHESdj9B5yP8OAmFTzcdLevcQAwwP6mlIpr0DWn0hk2f0AJzlVegl84EiWaYAP17AmF3zamy6CXB7zeckMsCvxM/tjrZW7TWL4diMv6oGwwTw99EEeBP71ZZr5S+/mA+DBx+41xeE9kqTTKeZ07jgn7FY7PLmrq31YPvc/zIPA+zpzWrf7a94HHnx8kE2KaM/Qh54DdjHjpY9g+CMML6+iC+LmBn+71Z2WLVvQuHEj6/XBZho0cKNJk9tp2bIljW9xt7lguPoo5rQ1YWDuI+OZW/K5F0u+mMQggP5Pkx0HPqGxDOxhWqd/Pm4Trw2YTM5q8H42hoHdY0zNhrzAvuCKRxo8cSbD4j5gzoOPMue+PgxzNkSvABLX5NBm0su0/si8beo/SXyqNbujHmDkKmvV8HVLmOiVziK7DtqgCRwA+u94acHnaBLC+X09tBgbRe92UaYqmvn8MM62zRqe8FljLnuFg6/2A/qxccMvNHvqeZpaTluEfcim8W3Z9VZvHlthbT0zaQUhvlvYatPjfVMW8eCK15nZtwf/WfY/Nk8IZvOWkzQZ+SxNYixfIJ7Nkzwpdw1/yDBm8RHvAyOeGIKvc7+gy9CggRsNGpQvkoYNG9CoYc1FZMEpC8b27dtJT09n0mOdKbx+5QZfpg8ua8HI+ZzRgxez8/kV5L/aR7HfpuQ91NiCYVjzLN1fasC/fohjsk8tWyqqWr8OLRi29fVffsY/5r9dsoxuobR0FJ6ZBNdiHytf2gUz1jC5HqV4dYWI6Sblm9c7E7QcGP4OhxfVn4WHukTEVJt4P86m7Mexyc1Uw9BFx7i4yE2Nobksct88QVAIEZMgKISISRAUQsQkCApRC2L6ncQwG3Ng9GHTRa7//FH5oQRBRSi8mvcj7/R6G/79KYZYm5NheXIPcqH+o/C1eZ+xcvJrvFLuTTB/5O0SP1MC34LZyxRs8jItPWT63G0kXt2exGvpISXDE4RaRfHzTJoOrSoo7carmRt51Q1yNy9m9Xfgm7OXrquTWDvANJPlJG2h68dbWDdAToAIrsUNXoD4ncQw08w0cGE6P+X8hveoaXT8KBjv7gnsAbyDp9Nx1Ui8usWbHbWC4Booa1sfeC+8MdPqri1F7uaVZE3ZSPahjex90+xUpRXjP0wi53Afvpq2gxxaMn7VFnJ/7MuXU3V1f2cjQXASZdO8tsP55As3nn5kvPVy/mcWYhhveuvl48vK0DGsBDRDesPDkLP5bQYuNBntNG/GQtKbeJs/D3trVd3fjEUQnET5a/PaDueTjOHYX+renTVz3IBuZGeGlLrU/VVygrGpv5Cc0aUsGILgAshJW0FQCBGTICiEiEkQFELEJAgKIWISBIUQMQmCQoiYBEEhREyCoBAiJkFQCBGTICiEiEkQFELEJAgKIWISBIUQMQmCQoiYBEEhREyCoBAiJkFQCBGTICiEiEkQFKJK94AourUzNC4CoOyzO90cvrVQXOk9HSpubymo/M4QlT1zqPxC62M4q9C22PnyyqOvfuz2VdzKbnK2HwftrZT+Vy8u21uF7as+fkX/WhVvci6G8ptYPxTSuJK+TFRJTI3d8iksuFqVJoJQIyp94PIN6P+Wxrc51VeVxGS8kk/h9ctVaSIILk/Dhk2cqifHTIKgECImQVAIEZMgKISISRAUQsQkCAqhMjHls/6FENr3tryWsv50Xcdk4QiLe4ew+EBdxyGoFZWJCaAn7yUncCo9gVPJ/dkWlMjeOopk7zJb8XRlQXoCC/rVUTCC6ql1MRUUFHL8RF71Gnv2IHBwDr+oZnYShPKpVTEVFhax6J8bmfZyrAK9HWFx70TWb1lqTf9O65nc25oWWmcRU929BxKtKeOyI9au7NpZZj77/ie/EMK4BPhwagjtX9CTa+mzwj7s01RJCW8ulH8+k5nCwiLeWLqBXfuOVF65PA7omEd/dntaNmxjG8s4ld7ctDMH7ScwOYF4TzCJYSnrk19mrKep7rhv5nMqfZy57F0WD01ggaeeye/A4vQEvAAOJNJ+2RFOzS7VP6Y076uhltSulBgd9TH0IPP85nNqedfqf2fBZakVMdVMSBnMCwphHgCBJKZrTDus+fP0kaYdndN56EOCzEIC6Mrkhcks2JfP2JHmtrO72pT1ZEF2PpCHfs82hvT+t3XIwW3JpZV9/xVxupw+xrZFk/Auk9svI96ZfoR6heJiqvmM1JP3SmaXWiJkPqdml549qhivwz4gPl1D7paltO+dwbRVsmBxM6H4MdOJX86WEVKbVncqPQx4tkWTkGyzdH6E+Dch8F7LjLCNFVvyy5aVaafE2PZ4jXyZU6sC+fCbGqS4gsuh+MzU6a627Ny8SOluy+KpIX5VHu1LUkKYtirBZkYLJJDVtO+dUaqsbDvNwmXEjyw7xMChgYybGsKHg6ewe3mrCsfWLFxGvI+O9lO3lYyfmC7HTjcTbsXFxZVaOrZv3056ejqTHuvsIhaMIyzufZAH0scxsK5DEVyevKudmDVrFvv377fbXlo6KjxpKwiuiYhJEBSi1s4z1S1dWSDHK8INRmYmQVAIEZMgKISISRAUQsQkCApRpQWI1p0fq604BEG15KWlOVVPZiZBUAhVi+no0aMsWLCAAQMGMHr0aM6ePVvXIQlCuaj2PNNPP/1ESEgIFy5c4I477mDBggW0bt26rsMShHJR7cy0evVqLly4wO23387y5cvp06dPSVleXhVt8PpIPDw8zK8g4gwKB+t8IER6eBCpr6vxhdpElWIqLi4mJSUFgK5du9KlS5eSsr179/Liiy8635khjiAt6IxGjEYjRuNc2FFXatIQZTQSpamj4YVaRZViAmjYsCEA3333HVOmTOHixYvs2rWLGTNmkJ+fX0lrG04eQxcRgHX/1RAa6qt0uIKgTjEVFRXRqVOnks8ZGRmEhYURHh7OpUuX0Gq1znemCSAiWkuQo9zOEEdQSfoXib7C7XoiPSLR26SM1nTNQFyQhzWVLCkwtYmLCzKnl+Y+HI5Tfn+SFroGqhNTYWEha9eupX///jRt2rRke1paGkajES8vL0JDQ6vQo4YoYxbBSX6ldkw9kX5JBGdZ0r8o0+xliCNoOqywpIU60JY0ikabEmDeHkH0kjhMEvUlNNnSTxaxmUtsjsuiSWIFRmMydhOiIY4gu/F1oDUfz+ljCPPXmbdLWugqqEpMRUVFrFu3jitXrjBhwgRGjRpVIqrmzZvz9NNPs27dOlq1alV5Z3ZYdnYdaM2C0qcQHTGXMhnfyWPodGH4WWYMbTRk/mwWTQQ6y56tCSBCd4yTlnYlM5YfYTodx0oKIpjrKK08eQyd3fgawmMhaYcBOnRGW95sKqgW1SyNFxUVsXbtWi5fvkxgYCCbNm2iXbt2vPzyy7i5OfH4SafQEKWLwCNFT3jnTCDAcbUIHcYy00EFuZY+Eo8lnckyGvEF9JEepNQkTN9Qko2hGOKC8PDQEaGT2ckVUMXMVFBQQEJCQomQtmzZQtu2bRkzZkzNhaSPtDvmMPycCYDviGC00UvKLpN36Ox4ewUYfs4E/46YJhk9KdFONCozjp6YMAgeYZ3FfEOTTelkihw0uQJ1LqaCggLWrFnD1atXCQwMJCkpCV9fX2WEBKAJp/MS68G8X1IwWVEa019/nT9hfqUWGsps96g03fINnUtEtNZcPwUinIirzDha0JmPq2zPi2mxppaCqqnSDVXmzJmjeADx8fEYjUYefvhhNm7cSMeOHXnyyScVH0cQqktaWpr6b6hSUFBARkYGgwYNYsOGDXTq1EmEJLgsdSqmRo0aMWLECBITE+nevTuPP/54XYYjCDWizlfzAgICCAgoZ1VNEFyIOl+AEIT6QpXE5MRahSDUO65cueJUvSqleZfPHaO46Hq1AhKE+k7VxJR/zEXuNS4IyvG3v3WqvBJyzCQIiiFiEgSFEDEJgkKImARBIURMgqAQKhNTPutfCKH9MsfPgt27LIT2L+jJrVKfR1jcO5G9isS2tGbPwhXqNSoTkxlHD18+rWdFVk+cMSPsXRbC4gO1EZgglE+ti6mgoJDjJ6pyn7ueTAuBbfvs70CUu28/d4/or2xwgqAgtSqmwsIiFv1zI9Nejq1Su45jg7h7xyGbdO4I8W9684BPnr15/LSeyb1DaN87hPbmVG7vshDGJcCHU0ulhAcSzfVKzVp2fZQqs2nTftkhmwJzOuqojXDTUmtXjRcWFvHG0g3s2uf4+KdiuvKA37vEH9CwoB9w4CBHF2pZgM5a5bSeye/A4vQEvMC04y87wqnZCSQSwldDE0xtOQJsY9w38zmVPs5Ub7Weyf00eJ3WMzloP4HJCcR7muou7r2U9ckvMxY9k6fm8F5yAmM9zf0nwHsAB3TM85vPqeXyqE/BSq3MTDUTkomBY6dw9JsjQD7rV+cQeG9z+wqn89Dv+TdDLDPH1G2Q9Ws5ixOBJM427/j9ejFtTx7Zlj5CgkxiAaArkxeaU8zSZf20vDfY/N6zLZqEd5m8pQo3wxTqPYrPTEoICQDPHgRmrWb9gf5s8wsyzRylFyVC5nNqdtnZIbtmIwOQm50D9ConNg3x6Rpytyylfe8Mpq2yzILCzYziM9OJX86WEVKbVndWo6fm3DcC5k39N3cPdZBOebZF42jVryqU6eMI8W9C4L3N8bq3P5qEg9Yl9QM65u2xb+418mVOrQrkw29q+IdDqBcoPjN1uqstOzcvUqQvr5FBTNvRn8mO/up7aohflUf7oBDmmTdpFi4jfmRzBg4NZNzUED4cPIXdyyu4YaWDPqatMh8joWHxwqUM6R1iKgiZwnuDc0zvDySa0koAAklMl2MnoYp3J5r0WGexYAg3HXlXO6n/7kSCUJ8QMQmCQoiYBEEhREyCoBAiJkFQCBGTICiEiEkQFKJKJ22beA3ADaUePCYIrkHeT85doFYlMTX+e+tqBSMIro1zYlJtmpf+/Q+kf/9DXYchCE5T50/BKM3x48fZvu4Hfj9uCm13p+M8POEeOnVy7q6aglBXqEZMZ86cIWXjHk7ubECXIA9GPHU3bg0acHD/URLmH8ar30EenTQQb2/vug5VEByiijRvy4ZtfBC2D7cGboxZ5McATQ8aubvTsGFD+gzsxlOv+9H49oasmJHGlg3bKu/QIQbigip/Pq2pXlA5D4guVWb77FmP8trcCPREenjYPQhbuPGoQkynj16huNCNa5eLuHjhUpnyixcuce1yEcWFbpw+Ws2r1g07SPKPwD8sBkX2OUMcQVrQGY0YjUaMxrmwo67UpCHKaESeI123qCLNu34Fpr7fk293HuSL6LO06JpLD00LADK/+Y38w+50CWrE1Pd7svXD6t29xLAjCf+AZALwIEUfhaamO97JY+giAkgu2aAhNLSGfQoujSpmJoAmTe7gkSeH8kLMQDr2v53d6/L55uN8vLs2Zvq/7uWRJ4fSpMkd1ezdwI4kfwI0oAmIIDql1Nxkm65F7nCuTBNARLTWcdpoiCOoJP2LtM6EDrfrifSIRG8zjjVdM6Wm1vEtBaY2cXFB5vTS3IfDcST9u1GoRkwW3N3dGTS0H31G3ka/sbcx/OHB3HKLR8061ccQ5h9guoGlJoCI6BT7HU+bSWyWOV0LOEaYzokyNEQZswhO8iu1w+qJ9Esi2NLGGGUa1xBH0HRYYUkLdaAtaRSNNiXAvD2C6CVxmCTqS2iypZ8sYjOX2ByXRZPECozGZEJ9bb6rIY4gu/F1oK3L47mbB9WJqTbQp0QTEWDJ6zQERERTMjmdPIYuYq51h9SEE6t1ogyw7uw60JoFpU8h2rYNNn3pwvCzzBjaaMj82SyaCHSWAx5NABG6Y5wsCd4yY/kRptNxrKQggrllBnEQMxrCYyGpzo7nbh5uAjHpSYmGaK017dFGU5LqGX7OLLdlRWX2aIjSmdLHCttE6MyzhfmVHIoDOdiEHonHks5kmevrIpwMR6gTVCOmS5cqX6Vzpk4Z9ClEl96JjToiok0pk++IYLS2aZ8+piSVq6gMfaTdsYhFRKY2S8qmVR06O95eAYafM8G/o1lwpj8KlVJmHD0xYRA8okLZCgqgCjF1GngHn63+jtT/fUt+ftkbO57LP0fq/77l8/h9dBpYtUUI+xTPgoaACJ0p9fENZUVsJlpL+pXS2ZrKVVSmCafzEuts55cUTFaUBnxDSdb5E+ZXaqGhzPbKz3n5hs4lIlprrp8CzsxMZcbRgi65bNopKE6V7k40Z86cWgvkzz//ZN+eNI5/f45mnu52ZedOX6dTn2bcO7gvTZo0qbUYBMERaWlpTt2dSBXnmQCaNGnCQwEPMHzEdb5PSydjdzbFRcV06d+GURP6c8stt9R1iIJQIaoRkwV3d3fuHTiAewcOqOtQBKFKqOKYSRDqAyImQVAIEZMgKISISRAUQrViEtu64GqobjVPbOuCq6KamenMmTOs/mAzn8w7TDNvD8a90pXxr3WnVcfGJMw/TGzUJnJycqrRcykbQ7mWBFsXbSXOVXHYCg5Qxcy0ZcM2Dqy7TietybZ+6623lpT1GdiNrr3+Iu3r46yYkUa/CRmMfCqwiiNoic2qyiU1JueqBX2kBykBZierjcPWdJGSnrg4A3VzvY59nELdooqZ6YbY1pXC7LC1Xu2nIVQufBNQiZgstvXbWzTii+izbPv4BwwnczCczCE5IZ0vos9yewuTbf36FQXvKFuuw9bqXNVHmi0bWg88guIwiMNWKAdViAlq27aus7mK2nyMU6GL1oomyuQjitBZ/EfisBUcoxoxWagV2zpaq2gsO2GlLtqKEIetUBbVielG4byLtiLEYStYuWnFVKGLtiLEYSuUg2rEVGu2dcD+mMnscK3IRVsKTUCEzQKEOGwFx6jCaZu89X+c/OEinnc3xr9vZ5o3b863u0w3mxx0Xz/O5Z8jI+0oecf/on3POwh64qFaiUMQHOFSTtugJx7iz2Em2/r/Nhy0s61v3/pNiW190qz7xLYuqBZViAnEti64PqoRkwWxrQuuimoWIATB1RExCYJCiJgEQSFUKyZx2gquhuoWIMRpK7gqqhGTPCBacHVUkebV7gOinbWtqwCxw7s0qhBT7TttbSwYWbFkaiOVeUi0ksgDp10eVYjphjptfUcQrM3kZ7XZfMQO7/KoQkxQ205bGww7SCKYEmeCU5bySPS26WKQxRFbur0lNTLVtbNqxAVZrxZ3NKbY4V0e1YjJQu04bW0sGNNhhcWc56SlPCs2E63HdFhhtpETRoyeCqzivoTOtX2qu4EdSWZvUbljih3e1VGdmGoHyzGTjghdkvVQxElLuW9HfyixhPvS0d+mfXlWcdunuht2kOQ/12qXL3dMscO7MjeJmCxoiNL5ExZjk6dU1VJehbEsT3XXx4Thb/so0ErHFDu8K6IaMdWu09YGTTixmVrTX/1qWMrtqMQqrgmPJTMlkpTMWMI15bWxNBU7vKujCjHV5gOiy2I+ntFGoq+Gpdy+q0qs4r4jCM6MJjN4hHXGKG9MscO7PKqwrYM8IFpQLy5lWwdx2gquj2rEZEGctoKroopjJkGoD4iYBEEhREyCoBCqFZM4bQVXQ3ULEOK0FVwV1YhJnLaCq6OKNK92nbbUEwdrXTuGxX1bGaoQU606beuVg7UuHcP2sesjRVilUYWYatVpW18drGp1DN/EqEJMUB+nCbUAAAM3SURBVItOW5d0sNr353AGqJZj2Da2qo5fwUOzK+zL9jco+30McUH2MbkwqhGTBeWdti7oYNXHEOZv9SpZ08KaOYaNRh0R0Wb7SbXGN/+ipR+aXakb1/IbmH+3Ug7k2PD6cecW1YmpdnAxB2uHzmgdzqY1cwybxtCS+bOhmuOXQ6VuXJvfoLQD2XZ2dXFuEjFZcBEHq28oyUYjK5heTppXy47hSsevCRrCYzNJ0YNhRxL+c5VyNtc9qhFTrTltXdjB6huaXCotssFpx3A0S0oKbMao6fhV/C62+I4IJjMljh1J/gTUjwwPUImYatVp64oOVtsFAy02aZpdB046hiMINs8wdmPUcHy7h2ZX1Y3rO4LgzDCSgsOpR1oSp239Rk+kRwoBlsUV1WAgLmg6rHAN+7s4bQX1oo8hjGCyXEBIVUE1YrIgTtv6jIG4ID/CdBHojPVn4cGC6sQkKImGKKOaEjzTKYrQug6jllDFAoQg1AecElOzZs04f/58bcciCKrk4sWLTtVzSkxNmzYVMQk3LefPn+evv/6qtJ5TYmrTpg3nz5/HaDTWODBBcDVycnKcmkycEtNtt92Gr68vP/30U40DEwRXIy0tzeHFBKVxegEiJCSEtWvX1igoQXA1dDodJ06c4OrVq3bb27RpU6au02Lq1asXvr6+JCcn1zxCQXABzp07x/Llyzlw4ECZshqJCSA8PJytW7dy9uzZ6kcoCC5CdHQ0+/bto6CgoExZenp6mW1VEpOHhwevvPIKr732GjqdrvpRCoKKyc7OZvbs2SQnJzt1rGTBqQtdS3Pp0iViYmLIz8/n+eefx8fHp6pdCILquHTpEsnJyaxdu5Y9e/Zw4cIFh/XKk0y1xGRh//79xMTEYDQaad26NV26dMHd3b3yhoKgIk6cOMH58+c5duwYZ8+e5dChQxQVFTms26VLF44cOeKwrEZisnDmzBnuu+8+CgoKaNBArlASXItLly5x7dq1cmciC23atCEvL6/8CsUK8swzzxQD8pJXvXs5g6LTyOrVqykuLmbYsGFKdisIdcawYcPKPUYqjSJpniAIYsEQBMUQMQmCQoiYBEEhREyCoBD/D7yXTA3GL3hrAAAAAElFTkSuQmCC;" vertex="1" parent="1">
          <mxGeometry x="-572" y="1065" width="211" height="223" as="geometry" />
        </mxCell>
      </root>
    </mxGraphModel>
  </diagram>
</mxfile>
